{"asset":{"version":"2.0","generator":"babylon.js glTF exporter for Maya 2018 v20200429.2"},"scene":0,"scenes":[{"nodes":[0]}],"nodes":[{"children":[1,2,3,4,5,6],"translation":[-2.13179178E-19,0.00502866134,-6.54146371E-19],"rotation":[0.0,0.309850574,0.0,0.9507853],"name":"camera_group2"},{"mesh":0,"name":"lens_low","extras":{"currentUVSet":"map1"}},{"mesh":1,"name":"polySurface15","extras":{"currentUVSet":"map1"}},{"mesh":2,"name":"polySurface16","extras":{"currentUVSet":"map1"}},{"mesh":3,"name":"polySurface17","extras":{"currentUVSet":"map1"}},{"mesh":4,"name":"polySurface18","extras":{"currentUVSet":"map1"}},{"mesh":5,"name":"MAinBody","extras":{"currentUVSet":"map1"}}],"meshes":[{"primitives":[{"attributes":{"POSITION":1,"TANGENT":2,"NORMAL":3,"TEXCOORD_0":4},"indices":0,"material":0}],"name":"lens_low"},{"primitives":[{"attributes":{"POSITION":6,"TANGENT":7,"NORMAL":8,"TEXCOORD_0":9,"TEXCOORD_1":10},"indices":5,"material":0}],"name":"polySurface15"},{"primitives":[{"attributes":{"POSITION":12,"TANGENT":13,"NORMAL":14,"TEXCOORD_0":15,"TEXCOORD_1":16},"indices":11,"material":0}],"name":"polySurface16"},{"primitives":[{"attributes":{"POSITION":18,"TANGENT":19,"NORMAL":20,"TEXCOORD_0":21,"TEXCOORD_1":22},"indices":17,"material":0}],"name":"polySurface17"},{"primitives":[{"attributes":{"POSITION":24,"TANGENT":25,"NORMAL":26,"TEXCOORD_0":27,"TEXCOORD_1":28},"indices":23,"material":0}],"name":"polySurface18"},{"primitives":[{"attributes":{"POSITION":30,"TANGENT":31,"NORMAL":32,"TEXCOORD_0":33,"TEXCOORD_1":34},"indices":29,"material":0}],"name":"MAinBody"}],"accessors":[{"bufferView":0,"componentType":5123,"count":7200,"type":"SCALAR","name":"accessorIndices"},{"bufferView":1,"componentType":5126,"count":1400,"max":[0.0367365144,0.0319653936,0.00536211254],"min":[-0.000619264843,0.002616639,-0.0246903375],"type":"VEC3","name":"accessorPositions"},{"bufferView":2,"componentType":5126,"count":1400,"type":"VEC4","name":"accessorTangents"},{"bufferView":1,"byteOffset":16800,"componentType":5126,"count":1400,"type":"VEC3","name":"accessorNormals"},{"bufferView":3,"componentType":5126,"count":1400,"type":"VEC2","name":"accessorUVs"},{"bufferView":0,"byteOffset":14400,"componentType":5123,"count":960,"type":"SCALAR","name":"accessorIndices"},{"bufferView":1,"byteOffset":33600,"componentType":5126,"count":268,"max":[-0.0105927512,0.04540329,-0.0114699388],"min":[-0.0172794275,0.0442071036,-0.0133004868],"type":"VEC3","name":"accessorPositions"},{"bufferView":2,"byteOffset":22400,"componentType":5126,"count":268,"type":"VEC4","name":"accessorTangents"},{"bufferView":1,"byteOffset":36816,"componentType":5126,"count":268,"type":"VEC3","name":"accessorNormals"},{"bufferView":3,"byteOffset":11200,"componentType":5126,"count":268,"type":"VEC2","name":"accessorUVs"},{"bufferView":3,"byteOffset":13344,"componentType":5126,"count":268,"type":"VEC2","name":"accessorUV2s"},{"bufferView":0,"byteOffset":16320,"componentType":5123,"count":960,"type":"SCALAR","name":"accessorIndices"},{"bufferView":1,"byteOffset":40032,"componentType":5126,"count":268,"max":[-0.0103225792,0.0454323441,-0.004572045],"min":[-0.0170029588,0.04424321,-0.00640761666],"type":"VEC3","name":"accessorPositions"},{"bufferView":2,"byteOffset":26688,"componentType":5126,"count":268,"type":"VEC4","name":"accessorTangents"},{"bufferView":1,"byteOffset":43248,"componentType":5126,"count":268,"type":"VEC3","name":"accessorNormals"},{"bufferView":3,"byteOffset":15488,"componentType":5126,"count":268,"type":"VEC2","name":"accessorUVs"},{"bufferView":3,"byteOffset":17632,"componentType":5126,"count":268,"type":"VEC2","name":"accessorUV2s"},{"bufferView":0,"byteOffset":18240,"componentType":5123,"count":768,"type":"SCALAR","name":"accessorIndices"},{"bufferView":1,"byteOffset":46464,"componentType":5126,"count":228,"max":[-0.009530116,0.0331832655,0.0251425169],"min":[-0.0152212465,0.0303593911,0.0245197527],"type":"VEC3","name":"accessorPositions"},{"bufferView":2,"byteOffset":30976,"componentType":5126,"count":228,"type":"VEC4","name":"accessorTangents"},{"bufferView":1,"byteOffset":49200,"componentType":5126,"count":228,"type":"VEC3","name":"accessorNormals"},{"bufferView":3,"byteOffset":19776,"componentType":5126,"count":228,"type":"VEC2","name":"accessorUVs"},{"bufferView":3,"byteOffset":21600,"componentType":5126,"count":228,"type":"VEC2","name":"accessorUV2s"},{"bufferView":0,"byteOffset":19776,"componentType":5123,"count":1536,"type":"SCALAR","name":"accessorIndices"},{"bufferView":1,"byteOffset":51936,"componentType":5126,"count":333,"max":[-0.0202818587,0.03868399,0.00141485687],"min":[-0.021514589,0.03566695,-0.00158587634],"type":"VEC3","name":"accessorPositions"},{"bufferView":2,"byteOffset":34624,"componentType":5126,"count":333,"type":"VEC4","name":"accessorTangents"},{"bufferView":1,"byteOffset":55932,"componentType":5126,"count":333,"type":"VEC3","name":"accessorNormals"},{"bufferView":3,"byteOffset":23424,"componentType":5126,"count":333,"type":"VEC2","name":"accessorUVs"},{"bufferView":3,"byteOffset":26088,"componentType":5126,"count":333,"type":"VEC2","name":"accessorUV2s"},{"bufferView":0,"byteOffset":22848,"componentType":5123,"count":13452,"type":"SCALAR","name":"accessorIndices"},{"bufferView":1,"byteOffset":59928,"componentType":5126,"count":3508,"max":[0.005566003,0.0446556881,0.0269821733],"min":[-0.0261820555,0.0001886471,-0.0308578014],"type":"VEC3","name":"accessorPositions"},{"bufferView":2,"byteOffset":39952,"componentType":5126,"count":3508,"type":"VEC4","name":"accessorTangents"},{"bufferView":1,"byteOffset":102024,"componentType":5126,"count":3508,"type":"VEC3","name":"accessorNormals"},{"bufferView":3,"byteOffset":28752,"componentType":5126,"count":3508,"type":"VEC2","name":"accessorUVs"},{"bufferView":3,"byteOffset":56816,"componentType":5126,"count":3508,"type":"VEC2","name":"accessorUV2s"},{"bufferView":4,"componentType":5126,"count":1,"max":[0.0],"min":[0.0],"type":"SCALAR","name":"accessorAnimationInput"},{"bufferView":5,"componentType":5126,"count":1,"type":"VEC3","name":"accessorAnimationScales"},{"bufferView":4,"byteOffset":4,"componentType":5126,"count":193,"max":[8.0],"min":[0.0],"type":"SCALAR","name":"accessorAnimationInput"},{"bufferView":6,"componentType":5126,"count":193,"type":"VEC4","name":"accessorAnimationRotations"},{"bufferView":4,"byteOffset":776,"componentType":5126,"count":147,"max":[8.0],"min":[0.0],"type":"SCALAR","name":"accessorAnimationInput"},{"bufferView":5,"byteOffset":12,"componentType":5126,"count":147,"type":"VEC3","name":"accessorAnimationPositions"},{"bufferView":4,"byteOffset":1364,"componentType":5126,"count":1,"max":[0.0],"min":[0.0],"type":"SCALAR","name":"accessorAnimationInput"},{"bufferView":6,"byteOffset":3088,"componentType":5126,"count":1,"type":"VEC4","name":"accessorAnimationRotations"},{"bufferView":4,"byteOffset":1368,"componentType":5126,"count":1,"max":[0.0],"min":[0.0],"type":"SCALAR","name":"accessorAnimationInput"},{"bufferView":5,"byteOffset":1776,"componentType":5126,"count":1,"type":"VEC3","name":"accessorAnimationPositions"},{"bufferView":4,"byteOffset":1372,"componentType":5126,"count":19,"max":[1.75],"min":[0.0],"type":"SCALAR","name":"accessorAnimationInput"},{"bufferView":6,"byteOffset":3104,"componentType":5126,"count":19,"type":"VEC4","name":"accessorAnimationRotations"},{"bufferView":4,"byteOffset":1448,"componentType":5126,"count":29,"max":[1.75],"min":[0.0],"type":"SCALAR","name":"accessorAnimationInput"},{"bufferView":5,"byteOffset":1788,"componentType":5126,"count":29,"type":"VEC3","name":"accessorAnimationPositions"},{"bufferView":4,"byteOffset":1564,"componentType":5126,"count":25,"max":[1.0],"min":[0.0],"type":"SCALAR","name":"accessorAnimationInput"},{"bufferView":6,"byteOffset":3408,"componentType":5126,"count":25,"type":"VEC4","name":"accessorAnimationRotations"},{"bufferView":4,"byteOffset":1664,"componentType":5126,"count":26,"max":[1.04166663],"min":[0.0],"type":"SCALAR","name":"accessorAnimationInput"},{"bufferView":5,"byteOffset":2136,"componentType":5126,"count":26,"type":"VEC3","name":"accessorAnimationPositions"},{"bufferView":4,"byteOffset":1768,"componentType":5126,"count":55,"max":[2.29166675],"min":[0.0],"type":"SCALAR","name":"accessorAnimationInput"},{"bufferView":5,"byteOffset":2448,"componentType":5126,"count":55,"type":"VEC3","name":"accessorAnimationPositions"},{"bufferView":4,"byteOffset":1988,"componentType":5126,"count":20,"max":[0.8333333],"min":[0.0],"type":"SCALAR","name":"accessorAnimationInput"},{"bufferView":5,"byteOffset":3108,"componentType":5126,"count":20,"type":"VEC3","name":"accessorAnimationScales"},{"bufferView":4,"byteOffset":2068,"componentType":5126,"count":20,"max":[0.8333333],"min":[0.0],"type":"SCALAR","name":"accessorAnimationInput"},{"bufferView":5,"byteOffset":3348,"componentType":5126,"count":20,"type":"VEC3","name":"accessorAnimationPositions"},{"bufferView":4,"byteOffset":2148,"componentType":5126,"count":55,"max":[2.29166675],"min":[0.0],"type":"SCALAR","name":"accessorAnimationInput"},{"bufferView":5,"byteOffset":3588,"componentType":5126,"count":55,"type":"VEC3","name":"accessorAnimationPositions"},{"bufferView":4,"byteOffset":2368,"componentType":5126,"count":20,"max":[0.8333333],"min":[0.0],"type":"SCALAR","name":"accessorAnimationInput"},{"bufferView":5,"byteOffset":4248,"componentType":5126,"count":20,"type":"VEC3","name":"accessorAnimationScales"},{"bufferView":4,"byteOffset":2448,"componentType":5126,"count":20,"max":[0.8333333],"min":[0.0],"type":"SCALAR","name":"accessorAnimationInput"},{"bufferView":5,"byteOffset":4488,"componentType":5126,"count":20,"type":"VEC3","name":"accessorAnimationPositions"}],"bufferViews":[{"buffer":0,"byteLength":49752,"name":"bufferViewScalar"},{"buffer":0,"byteOffset":49752,"byteLength":144120,"byteStride":12,"name":"bufferViewFloatVec3"},{"buffer":0,"byteOffset":193872,"byteLength":96080,"byteStride":16,"name":"bufferViewFloatVec4"},{"buffer":0,"byteOffset":289952,"byteLength":84880,"byteStride":8,"name":"bufferViewFloatVec2"},{"buffer":0,"byteOffset":374832,"byteLength":2528,"name":"bufferViewAnimationFloatScalar"},{"buffer":0,"byteOffset":377360,"byteLength":4728,"name":"bufferViewAnimationFloatVec3"},{"buffer":0,"byteOffset":382088,"byteLength":3808,"name":"bufferViewAnimationFloatVec4"}],"buffers":[{"uri":"camera (anim group transitions).bin","byteLength":385896}],"materials":[{"pbrMetallicRoughness":{"baseColorFactor":[0.8,0.8,0.8,1.0],"baseColorTexture":{"index":0},"metallicRoughnessTexture":{"index":1}},"name":"fold_4"}],"textures":[{"sampler":0,"source":0,"name":"fold 4 D3.jpg"},{"sampler":0,"source":1,"name":"texture_plain_lambert1_Roughness_3texture_plain_lambert1_Metalness_2.jpg"}],"images":[{"uri":"fold 4 D3.jpg"},{"uri":"texture_plain_lambert1_Roughness_3texture_plain_lambert1_Metalness_2.jpg"}],"samplers":[{"magFilter":9729,"minFilter":9987}],"animations":[{"channels":[{"sampler":0,"target":{"node":0,"path":"scale"}},{"sampler":1,"target":{"node":0,"path":"rotation"}},{"sampler":2,"target":{"node":0,"path":"translation"}},{"sampler":3,"target":{"node":1,"path":"rotation"}},{"sampler":4,"target":{"node":1,"path":"translation"}}],"samplers":[{"input":35,"output":36},{"input":37,"output":38},{"input":39,"output":40},{"input":41,"output":42},{"input":43,"output":44}],"name":"idle"},{"channels":[{"sampler":0,"target":{"node":0,"path":"rotation"}},{"sampler":1,"target":{"node":0,"path":"translation"}},{"sampler":2,"target":{"node":1,"path":"rotation"}},{"sampler":3,"target":{"node":1,"path":"translation"}}],"samplers":[{"input":45,"output":46},{"input":47,"output":48},{"input":49,"output":50},{"input":51,"output":52}],"name":"signature"},{"channels":[{"sampler":0,"target":{"node":0,"path":"translation"}}],"samplers":[{"input":53,"output":54}],"name":"slide_in_L"},{"channels":[{"sampler":0,"target":{"node":0,"path":"scale"}},{"sampler":1,"target":{"node":0,"path":"translation"}}],"samplers":[{"input":55,"output":56},{"input":57,"output":58}],"name":"slide_out_L"},{"channels":[{"sampler":0,"target":{"node":0,"path":"translation"}}],"samplers":[{"input":59,"output":60}],"name":"slide_in_R"},{"channels":[{"sampler":0,"target":{"node":0,"path":"scale"}},{"sampler":1,"target":{"node":0,"path":"translation"}}],"samplers":[{"input":61,"output":62},{"input":63,"output":64}],"name":"slide_out_R"}]}