{"asset":{"version":"2.0","generator":"babylon.js glTF exporter for Maya 2018 v20200429.2"},"scene":0,"scenes":[{"nodes":[0]}],"nodes":[{"children":[1,2,3,4],"translation":[-1.36782818E-17,-0.004328158,1.87950027E-17],"rotation":[0.08199461,0.063284345,0.06373723,0.9925772],"name":"bulb_group2"},{"mesh":0,"name":"Bulb_Lower","extras":{"currentUVSet":"map1"}},{"mesh":1,"name":"Outer_Cylinder","extras":{"currentUVSet":"map1"}},{"mesh":2,"name":"Helix","extras":{"currentUVSet":"map1"}},{"mesh":3,"name":"Shell","extras":{"currentUVSet":"map1"}}],"meshes":[{"primitives":[{"attributes":{"POSITION":1,"TANGENT":2,"NORMAL":3,"TEXCOORD_0":4},"indices":0,"material":0}],"name":"Bulb_Lower"},{"primitives":[{"attributes":{"POSITION":6,"TANGENT":7,"NORMAL":8,"TEXCOORD_0":9},"indices":5,"material":0}],"name":"Outer_Cylinder"},{"primitives":[{"attributes":{"POSITION":11,"TANGENT":12,"NORMAL":13,"TEXCOORD_0":14},"indices":10,"material":0}],"name":"Helix"},{"primitives":[{"attributes":{"POSITION":16,"TANGENT":17,"NORMAL":18,"TEXCOORD_0":19},"indices":15,"material":0}],"name":"Shell"}],"accessors":[{"bufferView":0,"componentType":5123,"count":1140,"type":"SCALAR","name":"accessorIndices"},{"bufferView":1,"componentType":5126,"count":201,"max":[0.00334259914,-0.00191682717,0.0031821602],"min":[-0.00302739977,-0.00354666542,-0.003187857],"type":"VEC3","name":"accessorPositions"},{"bufferView":2,"componentType":5126,"count":201,"type":"VEC4","name":"accessorTangents"},{"bufferView":1,"byteOffset":2412,"componentType":5126,"count":201,"type":"VEC3","name":"accessorNormals"},{"bufferView":3,"componentType":5126,"count":201,"type":"VEC2","name":"accessorUVs"},{"bufferView":0,"byteOffset":2280,"componentType":5123,"count":1140,"type":"SCALAR","name":"accessorIndices"},{"bufferView":1,"byteOffset":4824,"componentType":5126,"count":251,"max":[0.00522017758,0.00509713,0.005155483],"min":[-0.005035729,-0.002340736,-0.005100465],"type":"VEC3","name":"accessorPositions"},{"bufferView":2,"byteOffset":3216,"componentType":5126,"count":251,"type":"VEC4","name":"accessorTangents"},{"bufferView":1,"byteOffset":7836,"componentType":5126,"count":251,"type":"VEC3","name":"accessorNormals"},{"bufferView":3,"byteOffset":1608,"componentType":5126,"count":251,"type":"VEC2","name":"accessorUVs"},{"bufferView":0,"byteOffset":4560,"componentType":5123,"count":14202,"type":"SCALAR","name":"accessorIndices"},{"bufferView":1,"byteOffset":10848,"componentType":5126,"count":2518,"max":[0.00566991558,0.004952509,0.00559470337],"min":[-0.00554243149,-0.00142167893,-0.00563086243],"type":"VEC3","name":"accessorPositions"},{"bufferView":2,"byteOffset":7232,"componentType":5126,"count":2518,"type":"VEC4","name":"accessorTangents"},{"bufferView":1,"byteOffset":41064,"componentType":5126,"count":2518,"type":"VEC3","name":"accessorNormals"},{"bufferView":3,"byteOffset":3616,"componentType":5126,"count":2518,"type":"VEC2","name":"accessorUVs"},{"bufferView":0,"byteOffset":32964,"componentType":5123,"count":3300,"type":"SCALAR","name":"accessorIndices"},{"bufferView":1,"byteOffset":71280,"componentType":5126,"count":589,"max":[0.0124983145,0.0412599333,0.0128680849],"min":[-0.0128542893,0.00452993,-0.0124846054],"type":"VEC3","name":"accessorPositions"},{"bufferView":2,"byteOffset":47520,"componentType":5126,"count":589,"type":"VEC4","name":"accessorTangents"},{"bufferView":1,"byteOffset":78348,"componentType":5126,"count":589,"type":"VEC3","name":"accessorNormals"},{"bufferView":3,"byteOffset":23760,"componentType":5126,"count":589,"type":"VEC2","name":"accessorUVs"},{"bufferView":4,"componentType":5126,"count":1,"max":[0.0],"min":[0.0],"type":"SCALAR","name":"accessorAnimationInput"},{"bufferView":5,"componentType":5126,"count":1,"type":"VEC3","name":"accessorAnimationScales"},{"bufferView":4,"byteOffset":4,"componentType":5126,"count":193,"max":[8.0],"min":[0.0],"type":"SCALAR","name":"accessorAnimationInput"},{"bufferView":6,"componentType":5126,"count":193,"type":"VEC4","name":"accessorAnimationRotations"},{"bufferView":4,"byteOffset":776,"componentType":5126,"count":146,"max":[8.0],"min":[0.0],"type":"SCALAR","name":"accessorAnimationInput"},{"bufferView":5,"byteOffset":12,"componentType":5126,"count":146,"type":"VEC3","name":"accessorAnimationPositions"},{"bufferView":4,"byteOffset":1360,"componentType":5126,"count":1,"max":[0.0],"min":[0.0],"type":"SCALAR","name":"accessorAnimationInput"},{"bufferView":5,"byteOffset":1764,"componentType":5126,"count":1,"type":"VEC3","name":"accessorAnimationPositions"},{"bufferView":4,"byteOffset":1364,"componentType":5126,"count":1,"max":[0.0],"min":[0.0],"type":"SCALAR","name":"accessorAnimationInput"},{"bufferView":5,"byteOffset":1776,"componentType":5126,"count":1,"type":"VEC3","name":"accessorAnimationPositions"},{"bufferView":4,"byteOffset":1368,"componentType":5126,"count":1,"max":[0.0],"min":[0.0],"type":"SCALAR","name":"accessorAnimationInput"},{"bufferView":5,"byteOffset":1788,"componentType":5126,"count":1,"type":"VEC3","name":"accessorAnimationPositions"},{"bufferView":4,"byteOffset":1372,"componentType":5126,"count":1,"max":[0.0],"min":[0.0],"type":"SCALAR","name":"accessorAnimationInput"},{"bufferView":5,"byteOffset":1800,"componentType":5126,"count":1,"type":"VEC3","name":"accessorAnimationScales"},{"bufferView":4,"byteOffset":1376,"componentType":5126,"count":1,"max":[0.0],"min":[0.0],"type":"SCALAR","name":"accessorAnimationInput"},{"bufferView":5,"byteOffset":1812,"componentType":5126,"count":1,"type":"VEC3","name":"accessorAnimationPositions"},{"bufferView":4,"byteOffset":1380,"componentType":5126,"count":24,"max":[1.04166663],"min":[0.0],"type":"SCALAR","name":"accessorAnimationInput"},{"bufferView":5,"byteOffset":1824,"componentType":5126,"count":24,"type":"VEC3","name":"accessorAnimationScales"},{"bufferView":4,"byteOffset":1476,"componentType":5126,"count":16,"max":[0.625],"min":[0.0],"type":"SCALAR","name":"accessorAnimationInput"},{"bufferView":6,"byteOffset":3088,"componentType":5126,"count":16,"type":"VEC4","name":"accessorAnimationRotations"},{"bufferView":4,"byteOffset":1540,"componentType":5126,"count":24,"max":[1.04166663],"min":[0.0],"type":"SCALAR","name":"accessorAnimationInput"},{"bufferView":5,"byteOffset":2112,"componentType":5126,"count":24,"type":"VEC3","name":"accessorAnimationPositions"},{"bufferView":4,"byteOffset":1636,"componentType":5126,"count":21,"max":[1.875],"min":[0.8333333],"type":"SCALAR","name":"accessorAnimationInput"},{"bufferView":5,"byteOffset":2400,"componentType":5126,"count":21,"type":"VEC3","name":"accessorAnimationPositions"},{"bufferView":4,"byteOffset":1720,"componentType":5126,"count":21,"max":[1.875],"min":[0.8333333],"type":"SCALAR","name":"accessorAnimationInput"},{"bufferView":5,"byteOffset":2652,"componentType":5126,"count":21,"type":"VEC3","name":"accessorAnimationPositions"},{"bufferView":4,"byteOffset":1804,"componentType":5126,"count":21,"max":[1.875],"min":[0.8333333],"type":"SCALAR","name":"accessorAnimationInput"},{"bufferView":5,"byteOffset":2904,"componentType":5126,"count":21,"type":"VEC3","name":"accessorAnimationPositions"},{"bufferView":4,"byteOffset":1888,"componentType":5126,"count":11,"max":[1.45833337],"min":[1.04166663],"type":"SCALAR","name":"accessorAnimationInput"},{"bufferView":5,"byteOffset":3156,"componentType":5126,"count":11,"type":"VEC3","name":"accessorAnimationScales"},{"bufferView":4,"byteOffset":1932,"componentType":5126,"count":35,"max":[1.875],"min":[0.375],"type":"SCALAR","name":"accessorAnimationInput"},{"bufferView":5,"byteOffset":3288,"componentType":5126,"count":35,"type":"VEC3","name":"accessorAnimationPositions"},{"bufferView":4,"byteOffset":2072,"componentType":5126,"count":55,"max":[2.29166675],"min":[0.0],"type":"SCALAR","name":"accessorAnimationInput"},{"bufferView":5,"byteOffset":3708,"componentType":5126,"count":55,"type":"VEC3","name":"accessorAnimationPositions"},{"bufferView":4,"byteOffset":2292,"componentType":5126,"count":20,"max":[0.8333333],"min":[0.0],"type":"SCALAR","name":"accessorAnimationInput"},{"bufferView":5,"byteOffset":4368,"componentType":5126,"count":20,"type":"VEC3","name":"accessorAnimationScales"},{"bufferView":4,"byteOffset":2372,"componentType":5126,"count":20,"max":[0.8333333],"min":[0.0],"type":"SCALAR","name":"accessorAnimationInput"},{"bufferView":5,"byteOffset":4608,"componentType":5126,"count":20,"type":"VEC3","name":"accessorAnimationPositions"},{"bufferView":4,"byteOffset":2452,"componentType":5126,"count":55,"max":[2.29166675],"min":[0.0],"type":"SCALAR","name":"accessorAnimationInput"},{"bufferView":5,"byteOffset":4848,"componentType":5126,"count":55,"type":"VEC3","name":"accessorAnimationPositions"},{"bufferView":4,"byteOffset":2672,"componentType":5126,"count":20,"max":[0.8333333],"min":[0.0],"type":"SCALAR","name":"accessorAnimationInput"},{"bufferView":5,"byteOffset":5508,"componentType":5126,"count":20,"type":"VEC3","name":"accessorAnimationScales"},{"bufferView":4,"byteOffset":2752,"componentType":5126,"count":20,"max":[0.8333333],"min":[0.0],"type":"SCALAR","name":"accessorAnimationInput"},{"bufferView":5,"byteOffset":5748,"componentType":5126,"count":20,"type":"VEC3","name":"accessorAnimationPositions"}],"bufferViews":[{"buffer":0,"byteLength":39564,"name":"bufferViewScalar"},{"buffer":0,"byteOffset":39564,"byteLength":85416,"byteStride":12,"name":"bufferViewFloatVec3"},{"buffer":0,"byteOffset":124980,"byteLength":56944,"byteStride":16,"name":"bufferViewFloatVec4"},{"buffer":0,"byteOffset":181924,"byteLength":28472,"byteStride":8,"name":"bufferViewFloatVec2"},{"buffer":0,"byteOffset":210396,"byteLength":2832,"name":"bufferViewAnimationFloatScalar"},{"buffer":0,"byteOffset":213228,"byteLength":5988,"name":"bufferViewAnimationFloatVec3"},{"buffer":0,"byteOffset":219216,"byteLength":3344,"name":"bufferViewAnimationFloatVec4"}],"buffers":[{"uri":"bulb (anim group transitions).bin","byteLength":222560}],"materials":[{"pbrMetallicRoughness":{"baseColorFactor":[0.8,0.8,0.8,1.0],"baseColorTexture":{"index":0},"metallicRoughnessTexture":{"index":1}},"name":"gold_m"}],"textures":[{"sampler":0,"source":0,"name":"fold 4 D3.jpg"},{"sampler":0,"source":1,"name":"texture_plain_lambert1_Roughness_3texture_plain_lambert1_Metalness_2.jpg"}],"images":[{"uri":"fold 4 D3.jpg"},{"uri":"texture_plain_lambert1_Roughness_3texture_plain_lambert1_Metalness_2.jpg"}],"samplers":[{"magFilter":9729,"minFilter":9987}],"animations":[{"channels":[{"sampler":0,"target":{"node":0,"path":"scale"}},{"sampler":1,"target":{"node":0,"path":"rotation"}},{"sampler":2,"target":{"node":0,"path":"translation"}},{"sampler":3,"target":{"node":1,"path":"translation"}},{"sampler":4,"target":{"node":2,"path":"translation"}},{"sampler":5,"target":{"node":3,"path":"translation"}},{"sampler":6,"target":{"node":4,"path":"scale"}},{"sampler":7,"target":{"node":4,"path":"translation"}}],"samplers":[{"input":20,"output":21},{"input":22,"output":23},{"input":24,"output":25},{"input":26,"output":27},{"input":28,"output":29},{"input":30,"output":31},{"input":32,"output":33},{"input":34,"output":35}],"name":"idle"},{"channels":[{"sampler":0,"target":{"node":0,"path":"scale"}},{"sampler":1,"target":{"node":0,"path":"rotation"}},{"sampler":2,"target":{"node":0,"path":"translation"}},{"sampler":3,"target":{"node":1,"path":"translation"}},{"sampler":4,"target":{"node":2,"path":"translation"}},{"sampler":5,"target":{"node":3,"path":"translation"}},{"sampler":6,"target":{"node":4,"path":"scale"}},{"sampler":7,"target":{"node":4,"path":"translation"}}],"samplers":[{"input":36,"output":37},{"input":38,"output":39},{"input":40,"output":41},{"input":42,"output":43},{"input":44,"output":45},{"input":46,"output":47},{"input":48,"output":49},{"input":50,"output":51}],"name":"signature"},{"channels":[{"sampler":0,"target":{"node":0,"path":"translation"}}],"samplers":[{"input":52,"output":53}],"name":"slide_in_L"},{"channels":[{"sampler":0,"target":{"node":0,"path":"scale"}},{"sampler":1,"target":{"node":0,"path":"translation"}}],"samplers":[{"input":54,"output":55},{"input":56,"output":57}],"name":"slide_out_L"},{"channels":[{"sampler":0,"target":{"node":0,"path":"translation"}}],"samplers":[{"input":58,"output":59}],"name":"slide_in_R"},{"channels":[{"sampler":0,"target":{"node":0,"path":"scale"}},{"sampler":1,"target":{"node":0,"path":"translation"}}],"samplers":[{"input":60,"output":61},{"input":62,"output":63}],"name":"slide_out_R"}]}