{"asset":{"version":"2.0","generator":"babylon.js glTF exporter for Maya 2018 v20200429.2"},"scene":0,"scenes":[{"nodes":[0]}],"nodes":[{"children":[1,2,3,4,5,6],"translation":[0.0,0.0150728887,0.0],"rotation":[-0.4961429,-0.2270529,-0.217887,0.809206069],"name":"board1111"},{"mesh":0,"name":"board_high1111","extras":{"currentUVSet":"map1"}},{"mesh":1,"translation":[2.7755575E-19,-1.110223E-18,-2.220446E-18],"name":"pPlane71111","extras":{"currentUVSet":"map1"}},{"mesh":2,"translation":[2.7755575E-19,-1.110223E-18,-2.220446E-18],"name":"pPlane51111","extras":{"currentUVSet":"map1"}},{"mesh":3,"translation":[2.7755575E-19,-1.110223E-18,-2.220446E-18],"name":"pPlane61111","extras":{"currentUVSet":"map1"}},{"mesh":4,"translation":[2.7755575E-19,-1.110223E-18,-2.220446E-18],"name":"pPlane81111","extras":{"currentUVSet":"map1"}},{"mesh":5,"translation":[2.7755575E-19,-1.110223E-18,-2.220446E-18],"name":"arrow_2111","extras":{"currentUVSet":"map1"}}],"meshes":[{"primitives":[{"attributes":{"POSITION":1,"TANGENT":2,"NORMAL":3,"TEXCOORD_0":4},"indices":0,"material":0}],"name":"board_high1111"},{"primitives":[{"attributes":{"POSITION":6,"TANGENT":7,"NORMAL":8,"TEXCOORD_0":9},"indices":5,"material":0}],"name":"pPlane71111"},{"primitives":[{"attributes":{"POSITION":11,"TANGENT":12,"NORMAL":13,"TEXCOORD_0":14},"indices":10,"material":0}],"name":"pPlane51111"},{"primitives":[{"attributes":{"POSITION":16,"TANGENT":17,"NORMAL":18,"TEXCOORD_0":19},"indices":15,"material":0}],"name":"pPlane61111"},{"primitives":[{"attributes":{"POSITION":21,"TANGENT":22,"NORMAL":23,"TEXCOORD_0":24},"indices":20,"material":0}],"name":"pPlane81111"},{"primitives":[{"attributes":{"POSITION":26,"TANGENT":27,"NORMAL":28,"TEXCOORD_0":29},"indices":25,"material":0}],"name":"arrow_2111"}],"accessors":[{"bufferView":0,"componentType":5123,"count":10752,"type":"SCALAR","name":"accessorIndices"},{"bufferView":1,"componentType":5126,"count":2186,"max":[0.02308243,0.001864161,0.0229716375],"min":[-0.0224187709,-0.00197378523,-0.02252586],"type":"VEC3","name":"accessorPositions"},{"bufferView":2,"componentType":5126,"count":2186,"type":"VEC4","name":"accessorTangents"},{"bufferView":1,"byteOffset":26232,"componentType":5126,"count":2186,"type":"VEC3","name":"accessorNormals"},{"bufferView":3,"componentType":5126,"count":2186,"type":"VEC2","name":"accessorUVs"},{"bufferView":0,"byteOffset":21504,"componentType":5123,"count":105,"type":"SCALAR","name":"accessorIndices"},{"bufferView":1,"byteOffset":52464,"componentType":5126,"count":29,"max":[4.72885367E-05,0.0273464061,-0.0003706342],"min":[3.872037E-05,0.0223849844,-0.00157509884],"type":"VEC3","name":"accessorPositions"},{"bufferView":2,"byteOffset":34976,"componentType":5126,"count":29,"type":"VEC4","name":"accessorTangents"},{"bufferView":1,"byteOffset":52812,"componentType":5126,"count":29,"type":"VEC3","name":"accessorNormals"},{"bufferView":3,"byteOffset":17488,"componentType":5126,"count":29,"type":"VEC2","name":"accessorUVs"},{"bufferView":0,"byteOffset":21716,"componentType":5123,"count":105,"type":"SCALAR","name":"accessorIndices"},{"bufferView":1,"byteOffset":53160,"componentType":5126,"count":29,"max":[4.716873E-05,0.0273490157,0.0013112583],"min":[3.860116E-05,0.0223875977,0.000117726922],"type":"VEC3","name":"accessorPositions"},{"bufferView":2,"byteOffset":35440,"componentType":5126,"count":29,"type":"VEC4","name":"accessorTangents"},{"bufferView":1,"byteOffset":53508,"componentType":5126,"count":29,"type":"VEC3","name":"accessorNormals"},{"bufferView":3,"byteOffset":17720,"componentType":5126,"count":29,"type":"VEC2","name":"accessorUVs"},{"bufferView":0,"byteOffset":21928,"componentType":5123,"count":105,"type":"SCALAR","name":"accessorIndices"},{"bufferView":1,"byteOffset":53856,"componentType":5126,"count":29,"max":[-0.000209569931,0.0273481533,-0.000113901195],"min":[-0.00139839377,0.0223867334,-0.000139130949],"type":"VEC3","name":"accessorPositions"},{"bufferView":2,"byteOffset":35904,"componentType":5126,"count":29,"type":"VEC4","name":"accessorTangents"},{"bufferView":1,"byteOffset":54204,"componentType":5126,"count":29,"type":"VEC3","name":"accessorNormals"},{"bufferView":3,"byteOffset":17952,"componentType":5126,"count":29,"type":"VEC2","name":"accessorUVs"},{"bufferView":0,"byteOffset":22140,"componentType":5123,"count":105,"type":"SCALAR","name":"accessorIndices"},{"bufferView":1,"byteOffset":54552,"componentType":5126,"count":29,"max":[0.00148799655,0.0273472685,-0.000113776623],"min":[0.00029545874,0.022385845,-0.000139006966],"type":"VEC3","name":"accessorPositions"},{"bufferView":2,"byteOffset":36368,"componentType":5126,"count":29,"type":"VEC4","name":"accessorTangents"},{"bufferView":1,"byteOffset":54900,"componentType":5126,"count":29,"type":"VEC3","name":"accessorNormals"},{"bufferView":3,"byteOffset":18184,"componentType":5126,"count":29,"type":"VEC2","name":"accessorUVs"},{"bufferView":0,"byteOffset":22352,"componentType":5123,"count":252,"type":"SCALAR","name":"accessorIndices"},{"bufferView":1,"byteOffset":55248,"componentType":5126,"count":112,"max":[0.00036103843,0.0274199,0.00110443833],"min":[-0.000310998556,2.62928E-05,-0.00112025021],"type":"VEC3","name":"accessorPositions"},{"bufferView":2,"byteOffset":36832,"componentType":5126,"count":112,"type":"VEC4","name":"accessorTangents"},{"bufferView":1,"byteOffset":56592,"componentType":5126,"count":112,"type":"VEC3","name":"accessorNormals"},{"bufferView":3,"byteOffset":18416,"componentType":5126,"count":112,"type":"VEC2","name":"accessorUVs"},{"bufferView":4,"componentType":5126,"count":1,"max":[0.0],"min":[0.0],"type":"SCALAR","name":"accessorAnimationInput"},{"bufferView":5,"componentType":5126,"count":1,"type":"VEC3","name":"accessorAnimationScales"},{"bufferView":4,"byteOffset":4,"componentType":5126,"count":193,"max":[8.0],"min":[0.0],"type":"SCALAR","name":"accessorAnimationInput"},{"bufferView":6,"componentType":5126,"count":193,"type":"VEC4","name":"accessorAnimationRotations"},{"bufferView":4,"byteOffset":776,"componentType":5126,"count":141,"max":[8.0],"min":[0.0],"type":"SCALAR","name":"accessorAnimationInput"},{"bufferView":5,"byteOffset":12,"componentType":5126,"count":141,"type":"VEC3","name":"accessorAnimationPositions"},{"bufferView":4,"byteOffset":1340,"componentType":5126,"count":1,"max":[0.0],"min":[0.0],"type":"SCALAR","name":"accessorAnimationInput"},{"bufferView":6,"byteOffset":3088,"componentType":5126,"count":1,"type":"VEC4","name":"accessorAnimationRotations"},{"bufferView":4,"byteOffset":1344,"componentType":5126,"count":1,"max":[0.0],"min":[0.0],"type":"SCALAR","name":"accessorAnimationInput"},{"bufferView":5,"byteOffset":1704,"componentType":5126,"count":1,"type":"VEC3","name":"accessorAnimationPositions"},{"bufferView":4,"byteOffset":1348,"componentType":5126,"count":1,"max":[0.0],"min":[0.0],"type":"SCALAR","name":"accessorAnimationInput"},{"bufferView":6,"byteOffset":3104,"componentType":5126,"count":1,"type":"VEC4","name":"accessorAnimationRotations"},{"bufferView":4,"byteOffset":1352,"componentType":5126,"count":1,"max":[0.0],"min":[0.0],"type":"SCALAR","name":"accessorAnimationInput"},{"bufferView":5,"byteOffset":1716,"componentType":5126,"count":1,"type":"VEC3","name":"accessorAnimationPositions"},{"bufferView":4,"byteOffset":1356,"componentType":5126,"count":1,"max":[0.0],"min":[0.0],"type":"SCALAR","name":"accessorAnimationInput"},{"bufferView":6,"byteOffset":3120,"componentType":5126,"count":1,"type":"VEC4","name":"accessorAnimationRotations"},{"bufferView":4,"byteOffset":1360,"componentType":5126,"count":1,"max":[0.0],"min":[0.0],"type":"SCALAR","name":"accessorAnimationInput"},{"bufferView":5,"byteOffset":1728,"componentType":5126,"count":1,"type":"VEC3","name":"accessorAnimationPositions"},{"bufferView":4,"byteOffset":1364,"componentType":5126,"count":1,"max":[0.0],"min":[0.0],"type":"SCALAR","name":"accessorAnimationInput"},{"bufferView":6,"byteOffset":3136,"componentType":5126,"count":1,"type":"VEC4","name":"accessorAnimationRotations"},{"bufferView":4,"byteOffset":1368,"componentType":5126,"count":1,"max":[0.0],"min":[0.0],"type":"SCALAR","name":"accessorAnimationInput"},{"bufferView":5,"byteOffset":1740,"componentType":5126,"count":1,"type":"VEC3","name":"accessorAnimationPositions"},{"bufferView":4,"byteOffset":1372,"componentType":5126,"count":1,"max":[0.0],"min":[0.0],"type":"SCALAR","name":"accessorAnimationInput"},{"bufferView":6,"byteOffset":3152,"componentType":5126,"count":1,"type":"VEC4","name":"accessorAnimationRotations"},{"bufferView":4,"byteOffset":1376,"componentType":5126,"count":1,"max":[0.0],"min":[0.0],"type":"SCALAR","name":"accessorAnimationInput"},{"bufferView":5,"byteOffset":1752,"componentType":5126,"count":1,"type":"VEC3","name":"accessorAnimationPositions"},{"bufferView":4,"byteOffset":1380,"componentType":5126,"count":1,"max":[0.0],"min":[0.0],"type":"SCALAR","name":"accessorAnimationInput"},{"bufferView":6,"byteOffset":3168,"componentType":5126,"count":1,"type":"VEC4","name":"accessorAnimationRotations"},{"bufferView":4,"byteOffset":1384,"componentType":5126,"count":1,"max":[0.0],"min":[0.0],"type":"SCALAR","name":"accessorAnimationInput"},{"bufferView":5,"byteOffset":1764,"componentType":5126,"count":1,"type":"VEC3","name":"accessorAnimationPositions"},{"bufferView":4,"byteOffset":1388,"componentType":5126,"count":27,"max":[2.5],"min":[0.0],"type":"SCALAR","name":"accessorAnimationInput"},{"bufferView":6,"byteOffset":3184,"componentType":5126,"count":27,"type":"VEC4","name":"accessorAnimationRotations"},{"bufferView":4,"byteOffset":1496,"componentType":5126,"count":26,"max":[2.5],"min":[0.0],"type":"SCALAR","name":"accessorAnimationInput"},{"bufferView":5,"byteOffset":1776,"componentType":5126,"count":26,"type":"VEC3","name":"accessorAnimationPositions"},{"bufferView":4,"byteOffset":1600,"componentType":5126,"count":46,"max":[2.08333325],"min":[0.208333328],"type":"SCALAR","name":"accessorAnimationInput"},{"bufferView":6,"byteOffset":3616,"componentType":5126,"count":46,"type":"VEC4","name":"accessorAnimationRotations"},{"bufferView":4,"byteOffset":1784,"componentType":5126,"count":37,"max":[2.04166675],"min":[0.291666657],"type":"SCALAR","name":"accessorAnimationInput"},{"bufferView":5,"byteOffset":2088,"componentType":5126,"count":37,"type":"VEC3","name":"accessorAnimationPositions"},{"bufferView":4,"byteOffset":1932,"componentType":5126,"count":56,"max":[2.5],"min":[0.208333328],"type":"SCALAR","name":"accessorAnimationInput"},{"bufferView":6,"byteOffset":4352,"componentType":5126,"count":56,"type":"VEC4","name":"accessorAnimationRotations"},{"bufferView":4,"byteOffset":2156,"componentType":5126,"count":22,"max":[2.5],"min":[0.208333328],"type":"SCALAR","name":"accessorAnimationInput"},{"bufferView":5,"byteOffset":2532,"componentType":5126,"count":22,"type":"VEC3","name":"accessorAnimationPositions"},{"bufferView":4,"byteOffset":2244,"componentType":5126,"count":56,"max":[2.5],"min":[0.208333328],"type":"SCALAR","name":"accessorAnimationInput"},{"bufferView":6,"byteOffset":5248,"componentType":5126,"count":56,"type":"VEC4","name":"accessorAnimationRotations"},{"bufferView":4,"byteOffset":2468,"componentType":5126,"count":22,"max":[2.5],"min":[0.208333328],"type":"SCALAR","name":"accessorAnimationInput"},{"bufferView":5,"byteOffset":2796,"componentType":5126,"count":22,"type":"VEC3","name":"accessorAnimationPositions"},{"bufferView":4,"byteOffset":2556,"componentType":5126,"count":56,"max":[2.5],"min":[0.208333328],"type":"SCALAR","name":"accessorAnimationInput"},{"bufferView":6,"byteOffset":6144,"componentType":5126,"count":56,"type":"VEC4","name":"accessorAnimationRotations"},{"bufferView":4,"byteOffset":2780,"componentType":5126,"count":22,"max":[2.5],"min":[0.208333328],"type":"SCALAR","name":"accessorAnimationInput"},{"bufferView":5,"byteOffset":3060,"componentType":5126,"count":22,"type":"VEC3","name":"accessorAnimationPositions"},{"bufferView":4,"byteOffset":2868,"componentType":5126,"count":56,"max":[2.5],"min":[0.208333328],"type":"SCALAR","name":"accessorAnimationInput"},{"bufferView":6,"byteOffset":7040,"componentType":5126,"count":56,"type":"VEC4","name":"accessorAnimationRotations"},{"bufferView":4,"byteOffset":3092,"componentType":5126,"count":22,"max":[2.5],"min":[0.208333328],"type":"SCALAR","name":"accessorAnimationInput"},{"bufferView":5,"byteOffset":3324,"componentType":5126,"count":22,"type":"VEC3","name":"accessorAnimationPositions"},{"bufferView":4,"byteOffset":3180,"componentType":5126,"count":56,"max":[2.5],"min":[0.208333328],"type":"SCALAR","name":"accessorAnimationInput"},{"bufferView":6,"byteOffset":7936,"componentType":5126,"count":56,"type":"VEC4","name":"accessorAnimationRotations"},{"bufferView":4,"byteOffset":3404,"componentType":5126,"count":22,"max":[2.5],"min":[0.208333328],"type":"SCALAR","name":"accessorAnimationInput"},{"bufferView":5,"byteOffset":3588,"componentType":5126,"count":22,"type":"VEC3","name":"accessorAnimationPositions"},{"bufferView":4,"byteOffset":3492,"componentType":5126,"count":55,"max":[2.29166675],"min":[0.0],"type":"SCALAR","name":"accessorAnimationInput"},{"bufferView":5,"byteOffset":3852,"componentType":5126,"count":55,"type":"VEC3","name":"accessorAnimationPositions"},{"bufferView":4,"byteOffset":3712,"componentType":5126,"count":20,"max":[0.8333333],"min":[0.0],"type":"SCALAR","name":"accessorAnimationInput"},{"bufferView":5,"byteOffset":4512,"componentType":5126,"count":20,"type":"VEC3","name":"accessorAnimationScales"},{"bufferView":4,"byteOffset":3792,"componentType":5126,"count":20,"max":[0.8333333],"min":[0.0],"type":"SCALAR","name":"accessorAnimationInput"},{"bufferView":5,"byteOffset":4752,"componentType":5126,"count":20,"type":"VEC3","name":"accessorAnimationPositions"},{"bufferView":4,"byteOffset":3872,"componentType":5126,"count":55,"max":[2.29166675],"min":[0.0],"type":"SCALAR","name":"accessorAnimationInput"},{"bufferView":5,"byteOffset":4992,"componentType":5126,"count":55,"type":"VEC3","name":"accessorAnimationPositions"},{"bufferView":4,"byteOffset":4092,"componentType":5126,"count":20,"max":[0.8333333],"min":[0.0],"type":"SCALAR","name":"accessorAnimationInput"},{"bufferView":5,"byteOffset":5652,"componentType":5126,"count":20,"type":"VEC3","name":"accessorAnimationScales"},{"bufferView":4,"byteOffset":4172,"componentType":5126,"count":20,"max":[0.8333333],"min":[0.0],"type":"SCALAR","name":"accessorAnimationInput"},{"bufferView":5,"byteOffset":5892,"componentType":5126,"count":20,"type":"VEC3","name":"accessorAnimationPositions"}],"bufferViews":[{"buffer":0,"byteLength":22856,"name":"bufferViewScalar"},{"buffer":0,"byteOffset":22856,"byteLength":57936,"byteStride":12,"name":"bufferViewFloatVec3"},{"buffer":0,"byteOffset":80792,"byteLength":38624,"byteStride":16,"name":"bufferViewFloatVec4"},{"buffer":0,"byteOffset":119416,"byteLength":19312,"byteStride":8,"name":"bufferViewFloatVec2"},{"buffer":0,"byteOffset":138728,"byteLength":4252,"name":"bufferViewAnimationFloatScalar"},{"buffer":0,"byteOffset":142980,"byteLength":6132,"name":"bufferViewAnimationFloatVec3"},{"buffer":0,"byteOffset":149112,"byteLength":8832,"name":"bufferViewAnimationFloatVec4"}],"buffers":[{"uri":"dart board (anim group transitions).bin","byteLength":157944}],"materials":[{"pbrMetallicRoughness":{"baseColorTexture":{"index":0},"metallicRoughnessTexture":{"index":1}},"name":"fold_6"}],"textures":[{"sampler":0,"source":0,"name":"fold 6 D 6-min.jpg"},{"sampler":0,"source":1,"name":"texture_plain_lambert1_Roughness_3texture_plain_lambert1_Metalness_2.jpg"}],"images":[{"uri":"fold 6 D 6-min.jpg"},{"uri":"texture_plain_lambert1_Roughness_3texture_plain_lambert1_Metalness_2.jpg"}],"samplers":[{"magFilter":9729,"minFilter":9987}],"animations":[{"channels":[{"sampler":0,"target":{"node":0,"path":"scale"}},{"sampler":1,"target":{"node":0,"path":"rotation"}},{"sampler":2,"target":{"node":0,"path":"translation"}},{"sampler":3,"target":{"node":1,"path":"rotation"}},{"sampler":4,"target":{"node":1,"path":"translation"}},{"sampler":5,"target":{"node":2,"path":"rotation"}},{"sampler":6,"target":{"node":2,"path":"translation"}},{"sampler":7,"target":{"node":3,"path":"rotation"}},{"sampler":8,"target":{"node":3,"path":"translation"}},{"sampler":9,"target":{"node":4,"path":"rotation"}},{"sampler":10,"target":{"node":4,"path":"translation"}},{"sampler":11,"target":{"node":5,"path":"rotation"}},{"sampler":12,"target":{"node":5,"path":"translation"}},{"sampler":13,"target":{"node":6,"path":"rotation"}},{"sampler":14,"target":{"node":6,"path":"translation"}}],"samplers":[{"input":30,"output":31},{"input":32,"output":33},{"input":34,"output":35},{"input":36,"output":37},{"input":38,"output":39},{"input":40,"output":41},{"input":42,"output":43},{"input":44,"output":45},{"input":46,"output":47},{"input":48,"output":49},{"input":50,"output":51},{"input":52,"output":53},{"input":54,"output":55},{"input":56,"output":57},{"input":58,"output":59}],"name":"idle"},{"channels":[{"sampler":0,"target":{"node":0,"path":"rotation"}},{"sampler":1,"target":{"node":0,"path":"translation"}},{"sampler":2,"target":{"node":1,"path":"rotation"}},{"sampler":3,"target":{"node":1,"path":"translation"}},{"sampler":4,"target":{"node":2,"path":"rotation"}},{"sampler":5,"target":{"node":2,"path":"translation"}},{"sampler":6,"target":{"node":3,"path":"rotation"}},{"sampler":7,"target":{"node":3,"path":"translation"}},{"sampler":8,"target":{"node":4,"path":"rotation"}},{"sampler":9,"target":{"node":4,"path":"translation"}},{"sampler":10,"target":{"node":5,"path":"rotation"}},{"sampler":11,"target":{"node":5,"path":"translation"}},{"sampler":12,"target":{"node":6,"path":"rotation"}},{"sampler":13,"target":{"node":6,"path":"translation"}}],"samplers":[{"input":60,"output":61},{"input":62,"output":63},{"input":64,"output":65},{"input":66,"output":67},{"input":68,"output":69},{"input":70,"output":71},{"input":72,"output":73},{"input":74,"output":75},{"input":76,"output":77},{"input":78,"output":79},{"input":80,"output":81},{"input":82,"output":83},{"input":84,"output":85},{"input":86,"output":87}],"name":"signature"},{"channels":[{"sampler":0,"target":{"node":0,"path":"translation"}}],"samplers":[{"input":88,"output":89}],"name":"slide_in_L"},{"channels":[{"sampler":0,"target":{"node":0,"path":"scale"}},{"sampler":1,"target":{"node":0,"path":"translation"}}],"samplers":[{"input":90,"output":91},{"input":92,"output":93}],"name":"slide_out_L"},{"channels":[{"sampler":0,"target":{"node":0,"path":"translation"}}],"samplers":[{"input":94,"output":95}],"name":"slide_in_R"},{"channels":[{"sampler":0,"target":{"node":0,"path":"scale"}},{"sampler":1,"target":{"node":0,"path":"translation"}}],"samplers":[{"input":96,"output":97},{"input":98,"output":99}],"name":"slide_out_R"}]}