{"asset":{"version":"2.0","generator":"babylon.js glTF exporter for Maya 2018 v20200429.2"},"scene":0,"scenes":[{"nodes":[0]}],"nodes":[{"children":[1,2,3,4,5,6],"translation":[0.00127321214,3.49321745E-05,0.0005042402],"rotation":[-0.00340788835,-0.251425743,0.026022939,0.9675207],"name":"plane_group2"},{"mesh":0,"name":"Wheels","extras":{"currentUVSet":"map1"}},{"mesh":1,"name":"Body","extras":{"currentUVSet":"UVMap"}},{"mesh":2,"name":"Engine","extras":{"currentUVSet":"map1"}},{"mesh":3,"name":"Propelor1","extras":{"currentUVSet":"map1"}},{"mesh":4,"name":"Engine1","extras":{"currentUVSet":"map1"}},{"mesh":5,"translation":[5.979148E-06,0.0004027695,-0.000525169366],"name":"Propelor2","extras":{"currentUVSet":"map1"}}],"meshes":[{"primitives":[{"attributes":{"POSITION":1,"TANGENT":2,"NORMAL":3,"TEXCOORD_0":4},"indices":0,"material":0}],"name":"Wheels"},{"primitives":[{"attributes":{"POSITION":6,"TANGENT":7,"NORMAL":8,"TEXCOORD_0":9},"indices":5,"material":0}],"name":"Body"},{"primitives":[{"attributes":{"POSITION":11,"TANGENT":12,"NORMAL":13,"TEXCOORD_0":14},"indices":10,"material":0}],"name":"Engine"},{"primitives":[{"attributes":{"POSITION":16,"TANGENT":17,"NORMAL":18,"TEXCOORD_0":19},"indices":15,"material":0}],"name":"Propelor1"},{"primitives":[{"attributes":{"POSITION":21,"TANGENT":22,"NORMAL":23,"TEXCOORD_0":24},"indices":20,"material":0}],"name":"Engine1"},{"primitives":[{"attributes":{"POSITION":26,"TANGENT":27,"NORMAL":28,"TEXCOORD_0":29},"indices":25,"material":0}],"name":"Propelor2"}],"accessors":[{"bufferView":0,"componentType":5123,"count":5208,"type":"SCALAR","name":"accessorIndices"},{"bufferView":1,"componentType":5126,"count":2016,"max":[0.0591561869,0.0115330694,0.00459768763],"min":[-0.029906692,8.743286E-05,-0.00492562773],"type":"VEC3","name":"accessorPositions"},{"bufferView":2,"componentType":5126,"count":2016,"type":"VEC4","name":"accessorTangents"},{"bufferView":1,"byteOffset":24192,"componentType":5126,"count":2016,"type":"VEC3","name":"accessorNormals"},{"bufferView":3,"componentType":5126,"count":2016,"type":"VEC2","name":"accessorUVs"},{"bufferView":0,"byteOffset":10416,"componentType":5123,"count":4344,"type":"SCALAR","name":"accessorIndices"},{"bufferView":1,"byteOffset":48384,"componentType":5126,"count":1121,"max":[0.08585876,0.0540013127,0.08955383],"min":[-0.08572174,0.007855119,-0.0895675644],"type":"VEC3","name":"accessorPositions"},{"bufferView":2,"byteOffset":32256,"componentType":5126,"count":1121,"type":"VEC4","name":"accessorTangents"},{"bufferView":1,"byteOffset":61836,"componentType":5126,"count":1121,"type":"VEC3","name":"accessorNormals"},{"bufferView":3,"byteOffset":16128,"componentType":5126,"count":1121,"type":"VEC2","name":"accessorUVs"},{"bufferView":0,"byteOffset":19104,"componentType":5123,"count":696,"type":"SCALAR","name":"accessorIndices"},{"bufferView":1,"byteOffset":75288,"componentType":5126,"count":231,"max":[0.0164919663,0.01696638,-0.0280051026],"min":[-0.0024136256,0.00283984654,-0.0396585837],"type":"VEC3","name":"accessorPositions"},{"bufferView":2,"byteOffset":50192,"componentType":5126,"count":231,"type":"VEC4","name":"accessorTangents"},{"bufferView":1,"byteOffset":78060,"componentType":5126,"count":231,"type":"VEC3","name":"accessorNormals"},{"bufferView":3,"byteOffset":25096,"componentType":5126,"count":231,"type":"VEC2","name":"accessorUVs"},{"bufferView":0,"byteOffset":20496,"componentType":5123,"count":630,"type":"SCALAR","name":"accessorIndices"},{"bufferView":1,"byteOffset":80832,"componentType":5126,"count":363,"max":[0.0169792175,0.0120250126,0.0372908],"min":[0.015314579,0.004496956,0.02938774],"type":"VEC3","name":"accessorPositions"},{"bufferView":2,"byteOffset":53888,"componentType":5126,"count":363,"type":"VEC4","name":"accessorTangents"},{"bufferView":1,"byteOffset":85188,"componentType":5126,"count":363,"type":"VEC3","name":"accessorNormals"},{"bufferView":3,"byteOffset":26944,"componentType":5126,"count":363,"type":"VEC2","name":"accessorUVs"},{"bufferView":0,"byteOffset":21756,"componentType":5123,"count":696,"type":"SCALAR","name":"accessorIndices"},{"bufferView":1,"byteOffset":89544,"componentType":5126,"count":231,"max":[0.016716728,0.0165715031,0.0391950235],"min":[-0.00218885182,0.00244496576,0.0275415033],"type":"VEC3","name":"accessorPositions"},{"bufferView":2,"byteOffset":59696,"componentType":5126,"count":231,"type":"VEC4","name":"accessorTangents"},{"bufferView":1,"byteOffset":92316,"componentType":5126,"count":231,"type":"VEC3","name":"accessorNormals"},{"bufferView":3,"byteOffset":29848,"componentType":5126,"count":231,"type":"VEC2","name":"accessorUVs"},{"bufferView":0,"byteOffset":23148,"componentType":5123,"count":630,"type":"SCALAR","name":"accessorIndices"},{"bufferView":1,"byteOffset":95088,"componentType":5126,"count":363,"max":[0.0169792175,0.0120250126,-0.02938774],"min":[0.015314579,0.004496956,-0.0372908376],"type":"VEC3","name":"accessorPositions"},{"bufferView":2,"byteOffset":63392,"componentType":5126,"count":363,"type":"VEC4","name":"accessorTangents"},{"bufferView":1,"byteOffset":99444,"componentType":5126,"count":363,"type":"VEC3","name":"accessorNormals"},{"bufferView":3,"byteOffset":31696,"componentType":5126,"count":363,"type":"VEC2","name":"accessorUVs"},{"bufferView":4,"componentType":5126,"count":1,"max":[0.0],"min":[0.0],"type":"SCALAR","name":"accessorAnimationInput"},{"bufferView":5,"componentType":5126,"count":1,"type":"VEC3","name":"accessorAnimationScales"},{"bufferView":4,"byteOffset":4,"componentType":5126,"count":189,"max":[8.0],"min":[0.0],"type":"SCALAR","name":"accessorAnimationInput"},{"bufferView":6,"componentType":5126,"count":189,"type":"VEC4","name":"accessorAnimationRotations"},{"bufferView":4,"byteOffset":760,"componentType":5126,"count":129,"max":[8.0],"min":[0.0],"type":"SCALAR","name":"accessorAnimationInput"},{"bufferView":5,"byteOffset":12,"componentType":5126,"count":129,"type":"VEC3","name":"accessorAnimationPositions"},{"bufferView":4,"byteOffset":1276,"componentType":5126,"count":1,"max":[0.0],"min":[0.0],"type":"SCALAR","name":"accessorAnimationInput"},{"bufferView":6,"byteOffset":3024,"componentType":5126,"count":1,"type":"VEC4","name":"accessorAnimationRotations"},{"bufferView":4,"byteOffset":1280,"componentType":5126,"count":1,"max":[0.0],"min":[0.0],"type":"SCALAR","name":"accessorAnimationInput"},{"bufferView":5,"byteOffset":1560,"componentType":5126,"count":1,"type":"VEC3","name":"accessorAnimationPositions"},{"bufferView":4,"byteOffset":1284,"componentType":5126,"count":1,"max":[0.0],"min":[0.0],"type":"SCALAR","name":"accessorAnimationInput"},{"bufferView":6,"byteOffset":3040,"componentType":5126,"count":1,"type":"VEC4","name":"accessorAnimationRotations"},{"bufferView":4,"byteOffset":1288,"componentType":5126,"count":1,"max":[0.0],"min":[0.0],"type":"SCALAR","name":"accessorAnimationInput"},{"bufferView":5,"byteOffset":1572,"componentType":5126,"count":1,"type":"VEC3","name":"accessorAnimationPositions"},{"bufferView":4,"byteOffset":1292,"componentType":5126,"count":125,"max":[5.20833349],"min":[0.0],"type":"SCALAR","name":"accessorAnimationInput"},{"bufferView":6,"byteOffset":3056,"componentType":5126,"count":125,"type":"VEC4","name":"accessorAnimationRotations"},{"bufferView":4,"byteOffset":1792,"componentType":5126,"count":50,"max":[5.20833349],"min":[0.0],"type":"SCALAR","name":"accessorAnimationInput"},{"bufferView":5,"byteOffset":1584,"componentType":5126,"count":50,"type":"VEC3","name":"accessorAnimationPositions"},{"bufferView":4,"byteOffset":1992,"componentType":5126,"count":126,"max":[5.20833349],"min":[0.0],"type":"SCALAR","name":"accessorAnimationInput"},{"bufferView":6,"byteOffset":5056,"componentType":5126,"count":126,"type":"VEC4","name":"accessorAnimationRotations"},{"bufferView":4,"byteOffset":2496,"componentType":5126,"count":126,"max":[5.20833349],"min":[0.0],"type":"SCALAR","name":"accessorAnimationInput"},{"bufferView":5,"byteOffset":2184,"componentType":5126,"count":126,"type":"VEC3","name":"accessorAnimationPositions"},{"bufferView":4,"byteOffset":3000,"componentType":5126,"count":126,"max":[5.20833349],"min":[0.0],"type":"SCALAR","name":"accessorAnimationInput"},{"bufferView":6,"byteOffset":7072,"componentType":5126,"count":126,"type":"VEC4","name":"accessorAnimationRotations"},{"bufferView":4,"byteOffset":3504,"componentType":5126,"count":126,"max":[5.20833349],"min":[0.0],"type":"SCALAR","name":"accessorAnimationInput"},{"bufferView":5,"byteOffset":3696,"componentType":5126,"count":126,"type":"VEC3","name":"accessorAnimationPositions"},{"bufferView":4,"byteOffset":4008,"componentType":5126,"count":56,"max":[2.29166675],"min":[0.0],"type":"SCALAR","name":"accessorAnimationInput"},{"bufferView":5,"byteOffset":5208,"componentType":5126,"count":56,"type":"VEC3","name":"accessorAnimationPositions"},{"bufferView":4,"byteOffset":4232,"componentType":5126,"count":20,"max":[0.8333333],"min":[0.0],"type":"SCALAR","name":"accessorAnimationInput"},{"bufferView":5,"byteOffset":5880,"componentType":5126,"count":20,"type":"VEC3","name":"accessorAnimationScales"},{"bufferView":4,"byteOffset":4312,"componentType":5126,"count":20,"max":[0.8333333],"min":[0.0],"type":"SCALAR","name":"accessorAnimationInput"},{"bufferView":5,"byteOffset":6120,"componentType":5126,"count":20,"type":"VEC3","name":"accessorAnimationPositions"},{"bufferView":4,"byteOffset":4392,"componentType":5126,"count":44,"max":[1.875],"min":[0.0],"type":"SCALAR","name":"accessorAnimationInput"},{"bufferView":5,"byteOffset":6360,"componentType":5126,"count":44,"type":"VEC3","name":"accessorAnimationPositions"},{"bufferView":4,"byteOffset":4568,"componentType":5126,"count":20,"max":[0.8333333],"min":[0.0],"type":"SCALAR","name":"accessorAnimationInput"},{"bufferView":5,"byteOffset":6888,"componentType":5126,"count":20,"type":"VEC3","name":"accessorAnimationScales"},{"bufferView":4,"byteOffset":4648,"componentType":5126,"count":20,"max":[0.8333333],"min":[0.0],"type":"SCALAR","name":"accessorAnimationInput"},{"bufferView":5,"byteOffset":7128,"componentType":5126,"count":20,"type":"VEC3","name":"accessorAnimationPositions"}],"bufferViews":[{"buffer":0,"byteLength":24408,"name":"bufferViewScalar"},{"buffer":0,"byteOffset":24408,"byteLength":103800,"byteStride":12,"name":"bufferViewFloatVec3"},{"buffer":0,"byteOffset":128208,"byteLength":69200,"byteStride":16,"name":"bufferViewFloatVec4"},{"buffer":0,"byteOffset":197408,"byteLength":34600,"byteStride":8,"name":"bufferViewFloatVec2"},{"buffer":0,"byteOffset":232008,"byteLength":4728,"name":"bufferViewAnimationFloatScalar"},{"buffer":0,"byteOffset":236736,"byteLength":7368,"name":"bufferViewAnimationFloatVec3"},{"buffer":0,"byteOffset":244104,"byteLength":9088,"name":"bufferViewAnimationFloatVec4"}],"buffers":[{"uri":"plane (anim group transitions).bin","byteLength":253192}],"materials":[{"pbrMetallicRoughness":{"baseColorTexture":{"index":0},"metallicRoughnessTexture":{"index":1}},"name":"gold_m"}],"textures":[{"sampler":0,"source":0,"name":"texture plain_lambert1_BaseColor blue white-min.png"},{"sampler":0,"source":1,"name":"texture_plain_lambert1_Roughness_2texture_plain_lambert1_Metalness_2.jpg"}],"images":[{"uri":"texture plain_lambert1_BaseColor blue white-min.png"},{"uri":"texture_plain_lambert1_Roughness_2texture_plain_lambert1_Metalness_2.jpg"}],"samplers":[{"magFilter":9729,"minFilter":9987}],"animations":[{"channels":[{"sampler":0,"target":{"node":0,"path":"scale"}},{"sampler":1,"target":{"node":0,"path":"rotation"}},{"sampler":2,"target":{"node":0,"path":"translation"}},{"sampler":3,"target":{"node":4,"path":"rotation"}},{"sampler":4,"target":{"node":4,"path":"translation"}},{"sampler":5,"target":{"node":6,"path":"rotation"}},{"sampler":6,"target":{"node":6,"path":"translation"}}],"samplers":[{"input":30,"output":31},{"input":32,"output":33},{"input":34,"output":35},{"input":36,"output":37},{"input":38,"output":39},{"input":40,"output":41},{"input":42,"output":43}],"name":"idle"},{"channels":[{"sampler":0,"target":{"node":0,"path":"rotation"}},{"sampler":1,"target":{"node":0,"path":"translation"}},{"sampler":2,"target":{"node":4,"path":"rotation"}},{"sampler":3,"target":{"node":4,"path":"translation"}},{"sampler":4,"target":{"node":6,"path":"rotation"}},{"sampler":5,"target":{"node":6,"path":"translation"}}],"samplers":[{"input":44,"output":45},{"input":46,"output":47},{"input":48,"output":49},{"input":50,"output":51},{"input":52,"output":53},{"input":54,"output":55}],"name":"signature"},{"channels":[{"sampler":0,"target":{"node":0,"path":"translation"}}],"samplers":[{"input":56,"output":57}],"name":"slide_in_L"},{"channels":[{"sampler":0,"target":{"node":0,"path":"scale"}},{"sampler":1,"target":{"node":0,"path":"translation"}}],"samplers":[{"input":58,"output":59},{"input":60,"output":61}],"name":"slide_out_L"},{"channels":[{"sampler":0,"target":{"node":0,"path":"translation"}}],"samplers":[{"input":62,"output":63}],"name":"slide_in_R"},{"channels":[{"sampler":0,"target":{"node":0,"path":"scale"}},{"sampler":1,"target":{"node":0,"path":"translation"}}],"samplers":[{"input":64,"output":65},{"input":66,"output":67}],"name":"slide_out_R"}]}