{"asset":{"version":"2.0","generator":"babylon.js glTF exporter for Maya 2018 v20200429.2"},"scene":0,"scenes":[{"nodes":[0]}],"nodes":[{"children":[1,5],"name":"mic_group1"},{"children":[2,3,4],"name":"group8"},{"mesh":0,"name":"polySurface3","extras":{"currentUVSet":"map1"}},{"mesh":1,"name":"pCylinder2","extras":{"currentUVSet":"map1"}},{"mesh":2,"name":"pCylinder3","extras":{"currentUVSet":"map1"}},{"children":[6,7,8],"name":"group9"},{"mesh":3,"name":"pCylinder6","extras":{"currentUVSet":"map1"}},{"mesh":4,"name":"pCylinder5","extras":{"currentUVSet":"map1"}},{"mesh":5,"name":"pCylinder4","extras":{"currentUVSet":"map1"}}],"meshes":[{"primitives":[{"attributes":{"POSITION":1,"TANGENT":2,"NORMAL":3,"TEXCOORD_0":4},"indices":0,"material":0}],"name":"polySurface3"},{"primitives":[{"attributes":{"POSITION":6,"TANGENT":7,"NORMAL":8,"TEXCOORD_0":9},"indices":5,"material":0}],"name":"pCylinder2"},{"primitives":[{"attributes":{"POSITION":11,"TANGENT":12,"NORMAL":13,"TEXCOORD_0":14},"indices":10,"material":0}],"name":"pCylinder3"},{"primitives":[{"attributes":{"POSITION":16,"TANGENT":17,"NORMAL":18,"TEXCOORD_0":19},"indices":15,"material":0}],"name":"pCylinder6"},{"primitives":[{"attributes":{"POSITION":21,"TANGENT":22,"NORMAL":23,"TEXCOORD_0":24},"indices":20,"material":0}],"name":"pCylinder5"},{"primitives":[{"attributes":{"POSITION":26,"TANGENT":27,"NORMAL":28,"TEXCOORD_0":29},"indices":25,"material":0}],"name":"pCylinder4"}],"accessors":[{"bufferView":0,"componentType":5123,"count":3624,"type":"SCALAR","name":"accessorIndices"},{"bufferView":1,"componentType":5126,"count":780,"max":[0.00781581,0.05822244,0.007983962],"min":[-0.00749157835,0.0196892414,-0.007674623],"type":"VEC3","name":"accessorPositions"},{"bufferView":2,"componentType":5126,"count":780,"type":"VEC4","name":"accessorTangents"},{"bufferView":1,"byteOffset":9360,"componentType":5126,"count":780,"type":"VEC3","name":"accessorNormals"},{"bufferView":3,"componentType":5126,"count":780,"type":"VEC2","name":"accessorUVs"},{"bufferView":0,"byteOffset":7248,"componentType":5123,"count":456,"type":"SCALAR","name":"accessorIndices"},{"bufferView":1,"byteOffset":18720,"componentType":5126,"count":174,"max":[0.009768411,0.03105873,0.00183467742],"min":[0.006506263,0.0276990216,-0.001587879],"type":"VEC3","name":"accessorPositions"},{"bufferView":2,"byteOffset":12480,"componentType":5126,"count":174,"type":"VEC4","name":"accessorTangents"},{"bufferView":1,"byteOffset":20808,"componentType":5126,"count":174,"type":"VEC3","name":"accessorNormals"},{"bufferView":3,"byteOffset":6240,"componentType":5126,"count":174,"type":"VEC2","name":"accessorUVs"},{"bufferView":0,"byteOffset":8160,"componentType":5123,"count":180,"type":"SCALAR","name":"accessorIndices"},{"bufferView":1,"byteOffset":22896,"componentType":5126,"count":69,"max":[0.008018506,0.03501626,0.000840008259],"min":[0.00712909456,0.0336691551,-0.0005293524],"type":"VEC3","name":"accessorPositions"},{"bufferView":2,"byteOffset":15264,"componentType":5126,"count":69,"type":"VEC4","name":"accessorTangents"},{"bufferView":1,"byteOffset":23724,"componentType":5126,"count":69,"type":"VEC3","name":"accessorNormals"},{"bufferView":3,"byteOffset":7632,"componentType":5126,"count":69,"type":"VEC2","name":"accessorUVs"},{"bufferView":0,"byteOffset":8520,"componentType":5123,"count":240,"type":"SCALAR","name":"accessorIndices"},{"bufferView":1,"byteOffset":24552,"componentType":5126,"count":90,"max":[0.002149465,0.0322152451,0.008893182],"min":[-0.002015779,0.0279627983,-0.008653978],"type":"VEC3","name":"accessorPositions"},{"bufferView":2,"byteOffset":16368,"componentType":5126,"count":90,"type":"VEC4","name":"accessorTangents"},{"bufferView":1,"byteOffset":25632,"componentType":5126,"count":90,"type":"VEC3","name":"accessorNormals"},{"bufferView":3,"byteOffset":8184,"componentType":5126,"count":90,"type":"VEC2","name":"accessorUVs"},{"bufferView":0,"byteOffset":9000,"componentType":5123,"count":5904,"type":"SCALAR","name":"accessorIndices"},{"bufferView":1,"byteOffset":26712,"componentType":5126,"count":1325,"max":[0.0030190968,0.0337053,0.008194801],"min":[-0.0130836423,0.002637742,-0.007961959],"type":"VEC3","name":"accessorPositions"},{"bufferView":2,"byteOffset":17808,"componentType":5126,"count":1325,"type":"VEC4","name":"accessorTangents"},{"bufferView":1,"byteOffset":42612,"componentType":5126,"count":1325,"type":"VEC3","name":"accessorNormals"},{"bufferView":3,"byteOffset":8904,"componentType":5126,"count":1325,"type":"VEC2","name":"accessorUVs"},{"bufferView":0,"byteOffset":20808,"componentType":5123,"count":3108,"type":"SCALAR","name":"accessorIndices"},{"bufferView":1,"byteOffset":58512,"componentType":5126,"count":600,"max":[0.0156139415,0.00365187041,0.0155844986],"min":[-0.01568803,0.000101888472,-0.0157170463],"type":"VEC3","name":"accessorPositions"},{"bufferView":2,"byteOffset":39008,"componentType":5126,"count":600,"type":"VEC4","name":"accessorTangents"},{"bufferView":1,"byteOffset":65712,"componentType":5126,"count":600,"type":"VEC3","name":"accessorNormals"},{"bufferView":3,"byteOffset":19504,"componentType":5126,"count":600,"type":"VEC2","name":"accessorUVs"},{"bufferView":4,"componentType":5126,"count":1,"max":[0.0],"min":[0.0],"type":"SCALAR","name":"accessorAnimationInput"},{"bufferView":5,"componentType":5126,"count":1,"type":"VEC3","name":"accessorAnimationScales"},{"bufferView":4,"byteOffset":4,"componentType":5126,"count":185,"max":[8.0],"min":[0.0],"type":"SCALAR","name":"accessorAnimationInput"},{"bufferView":6,"componentType":5126,"count":185,"type":"VEC4","name":"accessorAnimationRotations"},{"bufferView":4,"byteOffset":744,"componentType":5126,"count":113,"max":[8.0],"min":[0.0],"type":"SCALAR","name":"accessorAnimationInput"},{"bufferView":5,"byteOffset":12,"componentType":5126,"count":113,"type":"VEC3","name":"accessorAnimationPositions"},{"bufferView":4,"byteOffset":1196,"componentType":5126,"count":1,"max":[0.0],"min":[0.0],"type":"SCALAR","name":"accessorAnimationInput"},{"bufferView":6,"byteOffset":2960,"componentType":5126,"count":1,"type":"VEC4","name":"accessorAnimationRotations"},{"bufferView":4,"byteOffset":1200,"componentType":5126,"count":1,"max":[0.0],"min":[0.0],"type":"SCALAR","name":"accessorAnimationInput"},{"bufferView":5,"byteOffset":1368,"componentType":5126,"count":1,"type":"VEC3","name":"accessorAnimationPositions"},{"bufferView":4,"byteOffset":1204,"componentType":5126,"count":1,"max":[0.0],"min":[0.0],"type":"SCALAR","name":"accessorAnimationInput"},{"bufferView":6,"byteOffset":2976,"componentType":5126,"count":1,"type":"VEC4","name":"accessorAnimationRotations"},{"bufferView":4,"byteOffset":1208,"componentType":5126,"count":1,"max":[0.0],"min":[0.0],"type":"SCALAR","name":"accessorAnimationInput"},{"bufferView":5,"byteOffset":1380,"componentType":5126,"count":1,"type":"VEC3","name":"accessorAnimationPositions"},{"bufferView":4,"byteOffset":1212,"componentType":5126,"count":12,"max":[1.58333337],"min":[0.0],"type":"SCALAR","name":"accessorAnimationInput"},{"bufferView":6,"byteOffset":2992,"componentType":5126,"count":12,"type":"VEC4","name":"accessorAnimationRotations"},{"bufferView":4,"byteOffset":1260,"componentType":5126,"count":12,"max":[1.58333337],"min":[0.0],"type":"SCALAR","name":"accessorAnimationInput"},{"bufferView":5,"byteOffset":1392,"componentType":5126,"count":12,"type":"VEC3","name":"accessorAnimationPositions"},{"bufferView":4,"byteOffset":1308,"componentType":5126,"count":31,"max":[1.25],"min":[0.0],"type":"SCALAR","name":"accessorAnimationInput"},{"bufferView":6,"byteOffset":3184,"componentType":5126,"count":31,"type":"VEC4","name":"accessorAnimationRotations"},{"bufferView":4,"byteOffset":1432,"componentType":5126,"count":31,"max":[1.25],"min":[0.0],"type":"SCALAR","name":"accessorAnimationInput"},{"bufferView":5,"byteOffset":1536,"componentType":5126,"count":31,"type":"VEC3","name":"accessorAnimationPositions"},{"bufferView":4,"byteOffset":1556,"componentType":5126,"count":22,"max":[1.25],"min":[0.0],"type":"SCALAR","name":"accessorAnimationInput"},{"bufferView":6,"byteOffset":3680,"componentType":5126,"count":22,"type":"VEC4","name":"accessorAnimationRotations"},{"bufferView":4,"byteOffset":1644,"componentType":5126,"count":30,"max":[1.25],"min":[0.0],"type":"SCALAR","name":"accessorAnimationInput"},{"bufferView":5,"byteOffset":1908,"componentType":5126,"count":30,"type":"VEC3","name":"accessorAnimationPositions"},{"bufferView":4,"byteOffset":1764,"componentType":5126,"count":55,"max":[2.29166675],"min":[0.0],"type":"SCALAR","name":"accessorAnimationInput"},{"bufferView":5,"byteOffset":2268,"componentType":5126,"count":55,"type":"VEC3","name":"accessorAnimationPositions"},{"bufferView":4,"byteOffset":1984,"componentType":5126,"count":20,"max":[0.8333333],"min":[0.0],"type":"SCALAR","name":"accessorAnimationInput"},{"bufferView":5,"byteOffset":2928,"componentType":5126,"count":20,"type":"VEC3","name":"accessorAnimationScales"},{"bufferView":4,"byteOffset":2064,"componentType":5126,"count":20,"max":[0.8333333],"min":[0.0],"type":"SCALAR","name":"accessorAnimationInput"},{"bufferView":5,"byteOffset":3168,"componentType":5126,"count":20,"type":"VEC3","name":"accessorAnimationPositions"},{"bufferView":4,"byteOffset":2144,"componentType":5126,"count":55,"max":[2.29166675],"min":[0.0],"type":"SCALAR","name":"accessorAnimationInput"},{"bufferView":5,"byteOffset":3408,"componentType":5126,"count":55,"type":"VEC3","name":"accessorAnimationPositions"},{"bufferView":4,"byteOffset":2364,"componentType":5126,"count":20,"max":[0.8333333],"min":[0.0],"type":"SCALAR","name":"accessorAnimationInput"},{"bufferView":5,"byteOffset":4068,"componentType":5126,"count":20,"type":"VEC3","name":"accessorAnimationScales"},{"bufferView":4,"byteOffset":2444,"componentType":5126,"count":20,"max":[0.8333333],"min":[0.0],"type":"SCALAR","name":"accessorAnimationInput"},{"bufferView":5,"byteOffset":4308,"componentType":5126,"count":20,"type":"VEC3","name":"accessorAnimationPositions"}],"bufferViews":[{"buffer":0,"byteLength":27024,"name":"bufferViewScalar"},{"buffer":0,"byteOffset":27024,"byteLength":72912,"byteStride":12,"name":"bufferViewFloatVec3"},{"buffer":0,"byteOffset":99936,"byteLength":48608,"byteStride":16,"name":"bufferViewFloatVec4"},{"buffer":0,"byteOffset":148544,"byteLength":24304,"byteStride":8,"name":"bufferViewFloatVec2"},{"buffer":0,"byteOffset":172848,"byteLength":2524,"name":"bufferViewAnimationFloatScalar"},{"buffer":0,"byteOffset":175372,"byteLength":4548,"name":"bufferViewAnimationFloatVec3"},{"buffer":0,"byteOffset":179920,"byteLength":4032,"name":"bufferViewAnimationFloatVec4"}],"buffers":[{"uri":"mic (anim group transitions).bin","byteLength":183952}],"materials":[{"pbrMetallicRoughness":{"baseColorFactor":[0.8,0.8,0.8,1.0],"baseColorTexture":{"index":0},"metallicRoughnessTexture":{"index":1}},"name":"fold_4"}],"textures":[{"sampler":0,"source":0,"name":"fold 4 D3.jpg"},{"sampler":0,"source":1,"name":"texture_plain_lambert1_Roughness_3texture_plain_lambert1_Metalness_1.jpg"}],"images":[{"uri":"fold 4 D3.jpg"},{"uri":"texture_plain_lambert1_Roughness_3texture_plain_lambert1_Metalness_1.jpg"}],"samplers":[{"magFilter":9729,"minFilter":9987}],"animations":[{"channels":[{"sampler":0,"target":{"node":0,"path":"scale"}},{"sampler":1,"target":{"node":0,"path":"rotation"}},{"sampler":2,"target":{"node":0,"path":"translation"}},{"sampler":3,"target":{"node":1,"path":"rotation"}},{"sampler":4,"target":{"node":1,"path":"translation"}},{"sampler":5,"target":{"node":5,"path":"rotation"}},{"sampler":6,"target":{"node":5,"path":"translation"}}],"samplers":[{"input":30,"output":31},{"input":32,"output":33},{"input":34,"output":35},{"input":36,"output":37},{"input":38,"output":39},{"input":40,"output":41},{"input":42,"output":43}],"name":"idle"},{"channels":[{"sampler":0,"target":{"node":0,"path":"rotation"}},{"sampler":1,"target":{"node":0,"path":"translation"}},{"sampler":2,"target":{"node":1,"path":"rotation"}},{"sampler":3,"target":{"node":1,"path":"translation"}},{"sampler":4,"target":{"node":5,"path":"rotation"}},{"sampler":5,"target":{"node":5,"path":"translation"}}],"samplers":[{"input":44,"output":45},{"input":46,"output":47},{"input":48,"output":49},{"input":50,"output":51},{"input":52,"output":53},{"input":54,"output":55}],"name":"signature"},{"channels":[{"sampler":0,"target":{"node":0,"path":"translation"}}],"samplers":[{"input":56,"output":57}],"name":"slide_in_L"},{"channels":[{"sampler":0,"target":{"node":0,"path":"scale"}},{"sampler":1,"target":{"node":0,"path":"translation"}}],"samplers":[{"input":58,"output":59},{"input":60,"output":61}],"name":"slide_out_L"},{"channels":[{"sampler":0,"target":{"node":0,"path":"translation"}}],"samplers":[{"input":62,"output":63}],"name":"slide_in_R"},{"channels":[{"sampler":0,"target":{"node":0,"path":"scale"}},{"sampler":1,"target":{"node":0,"path":"translation"}}],"samplers":[{"input":64,"output":65},{"input":66,"output":67}],"name":"slide_out_R"}]}