{"asset":{"version":"2.0","generator":"babylon.js glTF exporter for Maya 2018 v20200429.2"},"scene":0,"scenes":[{"nodes":[0]}],"nodes":[{"children":[1,2,3],"translation":[0.0,0.007130191,0.0],"rotation":[0.0,0.9914449,0.0,-0.130526185],"name":"laptop_group3"},{"mesh":0,"name":"pCube801","extras":{"currentUVSet":"map1"}},{"mesh":1,"name":"pCube791","extras":{"currentUVSet":"map1"}},{"mesh":2,"name":"pCube781","extras":{"currentUVSet":"map1"}}],"meshes":[{"primitives":[{"attributes":{"POSITION":1,"TANGENT":2,"NORMAL":3,"TEXCOORD_0":4},"indices":0,"material":0}],"name":"pCube801"},{"primitives":[{"attributes":{"POSITION":6,"TANGENT":7,"NORMAL":8,"TEXCOORD_0":9},"indices":5,"material":0}],"name":"pCube791"},{"primitives":[{"attributes":{"POSITION":11,"TANGENT":12,"NORMAL":13,"TEXCOORD_0":14},"indices":10,"material":0}],"name":"pCube781"}],"accessors":[{"bufferView":0,"componentType":5123,"count":588,"type":"SCALAR","name":"accessorIndices"},{"bufferView":1,"componentType":5126,"count":238,"max":[0.00695139635,0.0252099335,0.0265214667],"min":[-0.01696328,0.00138850685,-0.0250492375],"type":"VEC3","name":"accessorPositions"},{"bufferView":2,"componentType":5126,"count":238,"type":"VEC4","name":"accessorTangents"},{"bufferView":1,"byteOffset":2856,"componentType":5126,"count":238,"type":"VEC3","name":"accessorNormals"},{"bufferView":3,"componentType":5126,"count":238,"type":"VEC2","name":"accessorUVs"},{"bufferView":0,"byteOffset":1176,"componentType":5123,"count":276,"type":"SCALAR","name":"accessorIndices"},{"bufferView":1,"byteOffset":5712,"componentType":5126,"count":118,"max":[0.0163814556,0.00187619682,0.02635126],"min":[-0.0163741224,3.1485557E-05,-0.0250624083],"type":"VEC3","name":"accessorPositions"},{"bufferView":2,"byteOffset":3808,"componentType":5126,"count":118,"type":"VEC4","name":"accessorTangents"},{"bufferView":1,"byteOffset":7128,"componentType":5126,"count":118,"type":"VEC3","name":"accessorNormals"},{"bufferView":3,"byteOffset":1904,"componentType":5126,"count":118,"type":"VEC2","name":"accessorUVs"},{"bufferView":0,"byteOffset":1728,"componentType":5123,"count":13860,"type":"SCALAR","name":"accessorIndices"},{"bufferView":1,"byteOffset":8544,"componentType":5126,"count":5922,"max":[0.006174991,0.00212915661,0.0247855522],"min":[-0.0151779121,0.00125072,-0.023566952],"type":"VEC3","name":"accessorPositions"},{"bufferView":2,"byteOffset":5696,"componentType":5126,"count":5922,"type":"VEC4","name":"accessorTangents"},{"bufferView":1,"byteOffset":79608,"componentType":5126,"count":5922,"type":"VEC3","name":"accessorNormals"},{"bufferView":3,"byteOffset":2848,"componentType":5126,"count":5922,"type":"VEC2","name":"accessorUVs"},{"bufferView":4,"componentType":5126,"count":1,"max":[0.0],"min":[0.0],"type":"SCALAR","name":"accessorAnimationInput"},{"bufferView":5,"componentType":5126,"count":1,"type":"VEC3","name":"accessorAnimationScales"},{"bufferView":4,"byteOffset":4,"componentType":5126,"count":193,"max":[8.0],"min":[0.0],"type":"SCALAR","name":"accessorAnimationInput"},{"bufferView":6,"componentType":5126,"count":193,"type":"VEC4","name":"accessorAnimationRotations"},{"bufferView":4,"byteOffset":776,"componentType":5126,"count":126,"max":[8.0],"min":[0.0],"type":"SCALAR","name":"accessorAnimationInput"},{"bufferView":5,"byteOffset":12,"componentType":5126,"count":126,"type":"VEC3","name":"accessorAnimationPositions"},{"bufferView":4,"byteOffset":1280,"componentType":5126,"count":1,"max":[0.0],"min":[0.0],"type":"SCALAR","name":"accessorAnimationInput"},{"bufferView":6,"byteOffset":3088,"componentType":5126,"count":1,"type":"VEC4","name":"accessorAnimationRotations"},{"bufferView":4,"byteOffset":1284,"componentType":5126,"count":1,"max":[0.0],"min":[0.0],"type":"SCALAR","name":"accessorAnimationInput"},{"bufferView":5,"byteOffset":1524,"componentType":5126,"count":1,"type":"VEC3","name":"accessorAnimationPositions"},{"bufferView":4,"byteOffset":1288,"componentType":5126,"count":27,"max":[3.95833325],"min":[0.0],"type":"SCALAR","name":"accessorAnimationInput"},{"bufferView":6,"byteOffset":3104,"componentType":5126,"count":27,"type":"VEC4","name":"accessorAnimationRotations"},{"bufferView":4,"byteOffset":1396,"componentType":5126,"count":27,"max":[3.95833325],"min":[0.0],"type":"SCALAR","name":"accessorAnimationInput"},{"bufferView":5,"byteOffset":1536,"componentType":5126,"count":27,"type":"VEC3","name":"accessorAnimationPositions"},{"bufferView":4,"byteOffset":1504,"componentType":5126,"count":27,"max":[3.95833325],"min":[0.0],"type":"SCALAR","name":"accessorAnimationInput"},{"bufferView":6,"byteOffset":3536,"componentType":5126,"count":27,"type":"VEC4","name":"accessorAnimationRotations"},{"bufferView":4,"byteOffset":1612,"componentType":5126,"count":27,"max":[3.95833325],"min":[0.0],"type":"SCALAR","name":"accessorAnimationInput"},{"bufferView":5,"byteOffset":1860,"componentType":5126,"count":27,"type":"VEC3","name":"accessorAnimationPositions"},{"bufferView":4,"byteOffset":1720,"componentType":5126,"count":55,"max":[2.29166675],"min":[0.0],"type":"SCALAR","name":"accessorAnimationInput"},{"bufferView":5,"byteOffset":2184,"componentType":5126,"count":55,"type":"VEC3","name":"accessorAnimationPositions"},{"bufferView":4,"byteOffset":1940,"componentType":5126,"count":20,"max":[0.8333333],"min":[0.0],"type":"SCALAR","name":"accessorAnimationInput"},{"bufferView":5,"byteOffset":2844,"componentType":5126,"count":20,"type":"VEC3","name":"accessorAnimationScales"},{"bufferView":4,"byteOffset":2020,"componentType":5126,"count":20,"max":[0.8333333],"min":[0.0],"type":"SCALAR","name":"accessorAnimationInput"},{"bufferView":5,"byteOffset":3084,"componentType":5126,"count":20,"type":"VEC3","name":"accessorAnimationPositions"},{"bufferView":4,"byteOffset":2100,"componentType":5126,"count":55,"max":[2.29166675],"min":[0.0],"type":"SCALAR","name":"accessorAnimationInput"},{"bufferView":5,"byteOffset":3324,"componentType":5126,"count":55,"type":"VEC3","name":"accessorAnimationPositions"},{"bufferView":4,"byteOffset":2320,"componentType":5126,"count":20,"max":[0.8333333],"min":[0.0],"type":"SCALAR","name":"accessorAnimationInput"},{"bufferView":5,"byteOffset":3984,"componentType":5126,"count":20,"type":"VEC3","name":"accessorAnimationScales"},{"bufferView":4,"byteOffset":2400,"componentType":5126,"count":20,"max":[0.8333333],"min":[0.0],"type":"SCALAR","name":"accessorAnimationInput"},{"bufferView":5,"byteOffset":4224,"componentType":5126,"count":20,"type":"VEC3","name":"accessorAnimationPositions"}],"bufferViews":[{"buffer":0,"byteLength":29448,"name":"bufferViewScalar"},{"buffer":0,"byteOffset":29448,"byteLength":150672,"byteStride":12,"name":"bufferViewFloatVec3"},{"buffer":0,"byteOffset":180120,"byteLength":100448,"byteStride":16,"name":"bufferViewFloatVec4"},{"buffer":0,"byteOffset":280568,"byteLength":50224,"byteStride":8,"name":"bufferViewFloatVec2"},{"buffer":0,"byteOffset":330792,"byteLength":2480,"name":"bufferViewAnimationFloatScalar"},{"buffer":0,"byteOffset":333272,"byteLength":4464,"name":"bufferViewAnimationFloatVec3"},{"buffer":0,"byteOffset":337736,"byteLength":3968,"name":"bufferViewAnimationFloatVec4"}],"buffers":[{"uri":"laptop (anim group transitions).bin","byteLength":341704}],"materials":[{"pbrMetallicRoughness":{"baseColorTexture":{"index":0},"metallicRoughnessTexture":{"index":1}},"name":"aiStandardSurface6"}],"textures":[{"sampler":0,"source":0,"name":"fold 5 new D 4-min.png"},{"sampler":0,"source":1,"name":"texture_plain_lambert1_Roughness_4texture_plain_lambert1_Metalness_2.jpg"}],"images":[{"uri":"fold 5 new D 4-min.png"},{"uri":"texture_plain_lambert1_Roughness_4texture_plain_lambert1_Metalness_2.jpg"}],"samplers":[{"magFilter":9729,"minFilter":9987}],"animations":[{"channels":[{"sampler":0,"target":{"node":0,"path":"scale"}},{"sampler":1,"target":{"node":0,"path":"rotation"}},{"sampler":2,"target":{"node":0,"path":"translation"}},{"sampler":3,"target":{"node":1,"path":"rotation"}},{"sampler":4,"target":{"node":1,"path":"translation"}}],"samplers":[{"input":15,"output":16},{"input":17,"output":18},{"input":19,"output":20},{"input":21,"output":22},{"input":23,"output":24}],"name":"idle"},{"channels":[{"sampler":0,"target":{"node":0,"path":"rotation"}},{"sampler":1,"target":{"node":0,"path":"translation"}},{"sampler":2,"target":{"node":1,"path":"rotation"}},{"sampler":3,"target":{"node":1,"path":"translation"}}],"samplers":[{"input":25,"output":26},{"input":27,"output":28},{"input":29,"output":30},{"input":31,"output":32}],"name":"signature"},{"channels":[{"sampler":0,"target":{"node":0,"path":"translation"}}],"samplers":[{"input":33,"output":34}],"name":"slide_in_L"},{"channels":[{"sampler":0,"target":{"node":0,"path":"scale"}},{"sampler":1,"target":{"node":0,"path":"translation"}}],"samplers":[{"input":35,"output":36},{"input":37,"output":38}],"name":"slide_out_L"},{"channels":[{"sampler":0,"target":{"node":0,"path":"translation"}}],"samplers":[{"input":39,"output":40}],"name":"slide_in_R"},{"channels":[{"sampler":0,"target":{"node":0,"path":"scale"}},{"sampler":1,"target":{"node":0,"path":"translation"}}],"samplers":[{"input":41,"output":42},{"input":43,"output":44}],"name":"slide_out_R"}]}