{"asset":{"version":"2.0","generator":"babylon.js glTF exporter for Maya 2018 v20200429.2"},"scene":0,"scenes":[{"nodes":[0]}],"nodes":[{"children":[1,2,3,4,5],"translation":[0.005199741,0.0115955612,-0.006555221],"rotation":[0.113736011,0.207640857,0.138496771,0.9616486],"name":"phone_group2"},{"mesh":0,"name":"pPipe1","extras":{"currentUVSet":"map1"}},{"mesh":1,"name":"pPipe2","extras":{"currentUVSet":"map1"}},{"mesh":2,"name":"pCube2","extras":{"currentUVSet":"map1"}},{"mesh":3,"name":"pPipe3","extras":{"currentUVSet":"map1"}},{"mesh":4,"name":"Plane001","extras":{"currentUVSet":"UVChannel_1","MaxHandle":4}}],"meshes":[{"primitives":[{"attributes":{"POSITION":1,"TANGENT":2,"NORMAL":3,"TEXCOORD_0":4},"indices":0,"material":0}],"name":"pPipe1"},{"primitives":[{"attributes":{"POSITION":6,"TANGENT":7,"NORMAL":8,"TEXCOORD_0":9},"indices":5,"material":0}],"name":"pPipe2"},{"primitives":[{"attributes":{"POSITION":11,"TANGENT":12,"NORMAL":13,"TEXCOORD_0":14},"indices":10,"material":0}],"name":"pCube2"},{"primitives":[{"attributes":{"POSITION":16,"TANGENT":17,"NORMAL":18,"TEXCOORD_0":19},"indices":15,"material":0}],"name":"pPipe3"},{"primitives":[{"attributes":{"POSITION":21,"TANGENT":22,"NORMAL":23,"TEXCOORD_0":24},"indices":20,"material":0}],"name":"Plane001"}],"accessors":[{"bufferView":0,"componentType":5123,"count":720,"type":"SCALAR","name":"accessorIndices"},{"bufferView":1,"componentType":5126,"count":256,"max":[0.00123508926,0.0454952419,0.009932914],"min":[0.0006749001,0.0407576375,0.00516447052],"type":"VEC3","name":"accessorPositions"},{"bufferView":2,"componentType":5126,"count":256,"type":"VEC4","name":"accessorTangents"},{"bufferView":1,"byteOffset":3072,"componentType":5126,"count":256,"type":"VEC3","name":"accessorNormals"},{"bufferView":3,"componentType":5126,"count":256,"type":"VEC2","name":"accessorUVs"},{"bufferView":0,"byteOffset":1440,"componentType":5123,"count":720,"type":"SCALAR","name":"accessorIndices"},{"bufferView":1,"byteOffset":6144,"componentType":5126,"count":256,"max":[0.00121471286,0.0398366153,0.009921312],"min":[0.000654523959,0.03509901,0.00515287137],"type":"VEC3","name":"accessorPositions"},{"bufferView":2,"byteOffset":4096,"componentType":5126,"count":256,"type":"VEC4","name":"accessorTangents"},{"bufferView":1,"byteOffset":9216,"componentType":5126,"count":256,"type":"VEC3","name":"accessorNormals"},{"bufferView":3,"byteOffset":2048,"componentType":5126,"count":256,"type":"VEC2","name":"accessorUVs"},{"bufferView":0,"byteOffset":2880,"componentType":5123,"count":522,"type":"SCALAR","name":"accessorIndices"},{"bufferView":1,"byteOffset":12288,"componentType":5126,"count":193,"max":[0.00104926282,0.04619768,0.0111279152],"min":[0.0002043169,0.03415285,-0.0009232515],"type":"VEC3","name":"accessorPositions"},{"bufferView":2,"byteOffset":8192,"componentType":5126,"count":193,"type":"VEC4","name":"accessorTangents"},{"bufferView":1,"byteOffset":14604,"componentType":5126,"count":193,"type":"VEC3","name":"accessorNormals"},{"bufferView":3,"byteOffset":4096,"componentType":5126,"count":193,"type":"VEC2","name":"accessorUVs"},{"bufferView":0,"byteOffset":3924,"componentType":5123,"count":720,"type":"SCALAR","name":"accessorIndices"},{"bufferView":1,"byteOffset":16920,"componentType":5126,"count":256,"max":[0.00113683217,0.04240717,0.004858088],"min":[0.0005766475,0.037669573,8.964596E-05],"type":"VEC3","name":"accessorPositions"},{"bufferView":2,"byteOffset":11280,"componentType":5126,"count":256,"type":"VEC4","name":"accessorTangents"},{"bufferView":1,"byteOffset":19992,"componentType":5126,"count":256,"type":"VEC3","name":"accessorNormals"},{"bufferView":3,"byteOffset":5640,"componentType":5126,"count":256,"type":"VEC2","name":"accessorUVs"},{"bufferView":0,"byteOffset":5364,"componentType":5123,"count":1311,"type":"SCALAR","name":"accessorIndices"},{"bufferView":1,"byteOffset":23064,"componentType":5126,"count":503,"max":[0.000861372333,0.0473183431,0.0123349763],"min":[-0.0006930676,0.000136026138,-0.0123355864],"type":"VEC3","name":"accessorPositions"},{"bufferView":2,"byteOffset":15376,"componentType":5126,"count":503,"type":"VEC4","name":"accessorTangents"},{"bufferView":1,"byteOffset":29100,"componentType":5126,"count":503,"type":"VEC3","name":"accessorNormals"},{"bufferView":3,"byteOffset":7688,"componentType":5126,"count":503,"type":"VEC2","name":"accessorUVs"},{"bufferView":4,"componentType":5126,"count":1,"max":[0.0],"min":[0.0],"type":"SCALAR","name":"accessorAnimationInput"},{"bufferView":5,"componentType":5126,"count":1,"type":"VEC3","name":"accessorAnimationScales"},{"bufferView":4,"byteOffset":4,"componentType":5126,"count":193,"max":[8.0],"min":[0.0],"type":"SCALAR","name":"accessorAnimationInput"},{"bufferView":6,"componentType":5126,"count":193,"type":"VEC4","name":"accessorAnimationRotations"},{"bufferView":4,"byteOffset":776,"componentType":5126,"count":147,"max":[8.0],"min":[0.0],"type":"SCALAR","name":"accessorAnimationInput"},{"bufferView":5,"byteOffset":12,"componentType":5126,"count":147,"type":"VEC3","name":"accessorAnimationPositions"},{"bufferView":4,"byteOffset":1364,"componentType":5126,"count":33,"max":[4.79166651],"min":[0.0],"type":"SCALAR","name":"accessorAnimationInput"},{"bufferView":6,"byteOffset":3088,"componentType":5126,"count":33,"type":"VEC4","name":"accessorAnimationRotations"},{"bufferView":4,"byteOffset":1496,"componentType":5126,"count":33,"max":[4.79166651],"min":[0.0],"type":"SCALAR","name":"accessorAnimationInput"},{"bufferView":5,"byteOffset":1776,"componentType":5126,"count":33,"type":"VEC3","name":"accessorAnimationPositions"},{"bufferView":4,"byteOffset":1628,"componentType":5126,"count":55,"max":[2.29166675],"min":[0.0],"type":"SCALAR","name":"accessorAnimationInput"},{"bufferView":5,"byteOffset":2172,"componentType":5126,"count":55,"type":"VEC3","name":"accessorAnimationPositions"},{"bufferView":4,"byteOffset":1848,"componentType":5126,"count":20,"max":[0.8333333],"min":[0.0],"type":"SCALAR","name":"accessorAnimationInput"},{"bufferView":5,"byteOffset":2832,"componentType":5126,"count":20,"type":"VEC3","name":"accessorAnimationScales"},{"bufferView":4,"byteOffset":1928,"componentType":5126,"count":20,"max":[0.8333333],"min":[0.0],"type":"SCALAR","name":"accessorAnimationInput"},{"bufferView":5,"byteOffset":3072,"componentType":5126,"count":20,"type":"VEC3","name":"accessorAnimationPositions"},{"bufferView":4,"byteOffset":2008,"componentType":5126,"count":55,"max":[2.29166675],"min":[0.0],"type":"SCALAR","name":"accessorAnimationInput"},{"bufferView":5,"byteOffset":3312,"componentType":5126,"count":55,"type":"VEC3","name":"accessorAnimationPositions"},{"bufferView":4,"byteOffset":2228,"componentType":5126,"count":20,"max":[0.8333333],"min":[0.0],"type":"SCALAR","name":"accessorAnimationInput"},{"bufferView":5,"byteOffset":3972,"componentType":5126,"count":20,"type":"VEC3","name":"accessorAnimationScales"},{"bufferView":4,"byteOffset":2308,"componentType":5126,"count":20,"max":[0.8333333],"min":[0.0],"type":"SCALAR","name":"accessorAnimationInput"},{"bufferView":5,"byteOffset":4212,"componentType":5126,"count":20,"type":"VEC3","name":"accessorAnimationPositions"}],"bufferViews":[{"buffer":0,"byteLength":7988,"name":"bufferViewScalar"},{"buffer":0,"byteOffset":7988,"byteLength":35136,"byteStride":12,"name":"bufferViewFloatVec3"},{"buffer":0,"byteOffset":43124,"byteLength":23424,"byteStride":16,"name":"bufferViewFloatVec4"},{"buffer":0,"byteOffset":66548,"byteLength":11712,"byteStride":8,"name":"bufferViewFloatVec2"},{"buffer":0,"byteOffset":78260,"byteLength":2388,"name":"bufferViewAnimationFloatScalar"},{"buffer":0,"byteOffset":80648,"byteLength":4452,"name":"bufferViewAnimationFloatVec3"},{"buffer":0,"byteOffset":85100,"byteLength":3616,"name":"bufferViewAnimationFloatVec4"}],"buffers":[{"uri":"iphone (anim group transitions).bin","byteLength":88716}],"materials":[{"pbrMetallicRoughness":{"baseColorTexture":{"index":0},"metallicRoughnessTexture":{"index":1}},"name":"aiStandardSurface5"}],"textures":[{"sampler":0,"source":0,"name":"fold 5 new D 4-min.png"},{"sampler":0,"source":1,"name":"texture_plain_lambert1_Roughness_3texture_plain_lambert1_Metalness_2.jpg"}],"images":[{"uri":"fold 5 new D 4-min.png"},{"uri":"texture_plain_lambert1_Roughness_3texture_plain_lambert1_Metalness_2.jpg"}],"samplers":[{"magFilter":9729,"minFilter":9987}],"animations":[{"channels":[{"sampler":0,"target":{"node":0,"path":"scale"}},{"sampler":1,"target":{"node":0,"path":"rotation"}},{"sampler":2,"target":{"node":0,"path":"translation"}}],"samplers":[{"input":25,"output":26},{"input":27,"output":28},{"input":29,"output":30}],"name":"idle"},{"channels":[{"sampler":0,"target":{"node":0,"path":"rotation"}},{"sampler":1,"target":{"node":0,"path":"translation"}}],"samplers":[{"input":31,"output":32},{"input":33,"output":34}],"name":"signature"},{"channels":[{"sampler":0,"target":{"node":0,"path":"translation"}}],"samplers":[{"input":35,"output":36}],"name":"slide_in_L"},{"channels":[{"sampler":0,"target":{"node":0,"path":"scale"}},{"sampler":1,"target":{"node":0,"path":"translation"}}],"samplers":[{"input":37,"output":38},{"input":39,"output":40}],"name":"slide_out_L"},{"channels":[{"sampler":0,"target":{"node":0,"path":"translation"}}],"samplers":[{"input":41,"output":42}],"name":"slide_in_R"},{"channels":[{"sampler":0,"target":{"node":0,"path":"scale"}},{"sampler":1,"target":{"node":0,"path":"translation"}}],"samplers":[{"input":43,"output":44},{"input":45,"output":46}],"name":"slide_out_R"}]}