<svg xmlns="http://www.w3.org/2000/svg" width="24.001" height="14.001" viewBox="0 0 24.001 14.001">
  <g id="Mobile" transform="translate(24 14) rotate(180)" opacity="0.667">
    <g id="Assets" transform="translate(-23 -74)">
      <g id="Group-26" transform="translate(23 74)">
        <path id="Shape-Copy-2" d="M5.473,16.328a1.531,1.531,0,0,0,0,2.214,1.652,1.652,0,0,0,2.284,0L18.527,8.107a1.531,1.531,0,0,0,0-2.214L7.758-4.542a1.652,1.652,0,0,0-2.284,0A1.531,1.531,0,0,0,5-3.435a1.531,1.531,0,0,0,.473,1.107L15.1,7Z" transform="translate(5 19) rotate(-90)" fill="#060606"/>
      </g>
    </g>
  </g>
</svg>
