<svg id="Layer_1" data-name="Layer 1" xmlns="http://www.w3.org/2000/svg" xmlns:xlink="http://www.w3.org/1999/xlink" viewBox="0 0 49.25 51.62"><defs><clipPath id="clip-path"><rect class="cls-1" width="49.25" height="51.62"/></clipPath></defs><title>choose-file-icon</title><g class="cls-2"><path fill="#707070" d="M49,19.21a1,1,0,0,0-1.41,0L20.25,46.5A10.7,10.7,0,0,1,5.12,31.37L32.41,4.08c2.9-2.9,7.45-2.72,10.58.41s3.31,7.68.42,10.58L17.77,40.71a3.68,3.68,0,1,1-5.21-5.2L29.93,18.14a1,1,0,0,0,0-1.41,1,1,0,0,0-1.41,0L11.15,34.09a5.68,5.68,0,1,0,8,8L44.82,16.48c3.7-3.7,3.53-9.46-.41-13.4S34.7-1,31,2.66L3.7,30a12.68,12.68,0,0,0,9,21.66,12.61,12.61,0,0,0,9-3.7L49,20.62a1,1,0,0,0,0-1.41"/></g></svg>