<svg xmlns="http://www.w3.org/2000/svg" xmlns:xlink="http://www.w3.org/1999/xlink" id="Layer_1" data-name="Layer 1" viewBox="0 0 87.82 139.32"><defs><clipPath id="clip-path"><rect class="cls-1" width="87.82" height="139.32"/></clipPath></defs><title>mouse</title><g class="cls-2"><path fill="#0e99cd" d="M87.66,72.08c-.52,8.79,1.13,20.1-.83,31.27A43.67,43.67,0,0,1,.19,96.47Q-.18,69.65.19,42.8a43.73,43.73,0,0,1,87.44,0c.19,9,0,17.89,0,29.29m-8-2.51c0-8.62.11-17.24,0-25.85a35.78,35.78,0,0,0-71.56-.11q-.27,26.08,0,52.19a35.78,35.78,0,0,0,71.55.11c.16-8.78,0-17.56,0-26.34"/><path fill="#0e99cd" d="M47.87,18.37c0,2.48,0,4.95,0,7.43,0,2.7-1.24,4.58-4.06,4.55C41.28,30.31,40,28.6,40,26.1c0-5.11-.07-10.23,0-15.35,0-2.5,1.47-4.12,4-4s3.8,1.75,3.86,4.25,0,5,0,7.42"/></g></svg>