<svg version="1.1" id="Capa_1" xmlns="http://www.w3.org/2000/svg" x="0" y="0" width="143.1" height="136.9" viewBox="0 0 143.1 136.9" xml:space="preserve"><path fill="#fff" d="M132.1 27.9H79.3c-2.4 0-4.4 1.9-4.4 4.2v95.3c0 2.4 2 4.2 4.4 4.2h52.8c2.4 0 4.4-1.9 4.4-4.2V32.1c0-2.4-2-4.2-4.4-4.2zm-26 99.3c-1.4-.1-2.5-1.2-2.5-2.5s1.1-2.5 2.5-2.5c1.3 0 2.5 1.1 2.5 2.5s-1.1 2.5-2.5 2.5zm27.4-9.3H77.8V40.5h55.6v77.4h.1zm-70.2-15.3L59 100c-.4-.2-.5-.8-.3-1.2.1-.2.4-.4.7-.4.1 0 .3 0 .4.1l6.9 4.1c.2.1.4.4.4.7s-.1.5-.3.7l-6.9 5.3c-.4.3-.9.2-1.2-.2-.3-.4-.2-.9.2-1.2l4.7-3.6c-6.8.5-12.2-1-16-4.8-7.2-7.2-6.3-19.3-6.3-19.8l1.7.1c0 .1-.9 11.8 5.7 18.4 3.4 3.5 8.3 4.9 14.6 4.4zM16.5 67.9V12.3h77.4v15.6h13.8V13.7c-.1-2.4-2-4.4-4.3-4.4H8.2c-2.4 0-4.2 2-4.2 4.4v52.8C3.9 69 5.9 71 8.2 71h66.7v-3.1H16.5zm-4-19.6h-1.1V31.9h1.1v16.4z"></path></svg>