{"asset":{"version":"2.0","generator":"babylon.js glTF exporter for Maya 2018 v20200429.2"},"scene":0,"scenes":[{"nodes":[0]}],"nodes":[{"children":[1,7],"translation":[0.0,0.0,7.888609E-33],"name":"like_group1"},{"children":[2,3,4,5,6],"name":"hearts"},{"mesh":0,"translation":[0.00154534378,-0.009390184,0.0111512523],"scale":[1E-12,1E-12,1E-12],"name":"Vert"},{"mesh":1,"translation":[0.009800691,-0.00364430365,-0.000946257031],"scale":[1E-12,1E-12,1E-12],"name":"Vert1"},{"mesh":2,"translation":[-0.009946054,-0.006764749,-0.002721145],"scale":[1E-12,1E-12,1E-12],"name":"Vert2"},{"mesh":3,"translation":[0.001129482,-0.0020082905,-0.0189514011],"scale":[1E-12,1E-12,1E-12],"name":"Vert3"},{"mesh":4,"translation":[-0.0179439727,-0.000129197331,0.008999125],"scale":[1E-12,1E-12,1E-12],"name":"Vert4"},{"children":[8,9],"name":"thumbsup"},{"mesh":5,"translation":[0.0,0.0,-5.551115E-19],"name":"pPlane1","extras":{"currentUVSet":"map1"}},{"mesh":6,"translation":[0.0,0.0,-1.110223E-18],"name":"pCube1","extras":{"currentUVSet":"map1"}}],"meshes":[{"primitives":[{"attributes":{"POSITION":1,"TANGENT":2,"NORMAL":3,"TEXCOORD_0":4},"indices":0,"material":0}],"name":"Vert"},{"primitives":[{"attributes":{"POSITION":6,"TANGENT":7,"NORMAL":8,"TEXCOORD_0":9},"indices":5,"material":0}],"name":"Vert1"},{"primitives":[{"attributes":{"POSITION":11,"TANGENT":12,"NORMAL":13,"TEXCOORD_0":14},"indices":10,"material":0}],"name":"Vert2"},{"primitives":[{"attributes":{"POSITION":16,"TANGENT":17,"NORMAL":18,"TEXCOORD_0":19},"indices":15,"material":0}],"name":"Vert3"},{"primitives":[{"attributes":{"POSITION":21,"TANGENT":22,"NORMAL":23,"TEXCOORD_0":24},"indices":20,"material":0}],"name":"Vert4"},{"primitives":[{"attributes":{"POSITION":26,"TANGENT":27,"NORMAL":28,"TEXCOORD_0":29},"indices":25,"material":0}],"name":"pPlane1"},{"primitives":[{"attributes":{"POSITION":31,"TANGENT":32,"NORMAL":33,"TEXCOORD_0":34},"indices":30,"material":0}],"name":"pCube1"}],"accessors":[{"bufferView":0,"componentType":5123,"count":1068,"type":"SCALAR","name":"accessorIndices"},{"bufferView":1,"componentType":5126,"count":202,"max":[0.00434936024,-0.00287374971,0.0145492693],"min":[-0.00125867361,-0.009536244,0.007753229],"type":"VEC3","name":"accessorPositions"},{"bufferView":2,"componentType":5126,"count":202,"type":"VEC4","name":"accessorTangents"},{"bufferView":1,"byteOffset":2424,"componentType":5126,"count":202,"type":"VEC3","name":"accessorNormals"},{"bufferView":3,"componentType":5126,"count":202,"type":"VEC2","name":"accessorUVs"},{"bufferView":0,"byteOffset":2136,"componentType":5123,"count":1068,"type":"SCALAR","name":"accessorIndices"},{"bufferView":1,"byteOffset":4848,"componentType":5126,"count":202,"max":[0.0118204076,0.00104944524,0.00150131457],"min":[0.007780974,-0.00374951,-0.00339383236],"type":"VEC3","name":"accessorPositions"},{"bufferView":2,"byteOffset":3232,"componentType":5126,"count":202,"type":"VEC4","name":"accessorTangents"},{"bufferView":1,"byteOffset":7272,"componentType":5126,"count":202,"type":"VEC3","name":"accessorNormals"},{"bufferView":3,"byteOffset":1616,"componentType":5126,"count":202,"type":"VEC2","name":"accessorUVs"},{"bufferView":0,"byteOffset":4272,"componentType":5123,"count":1068,"type":"SCALAR","name":"accessorIndices"},{"bufferView":1,"byteOffset":9696,"componentType":5126,"count":202,"max":[-0.007314796,-0.000649799069,0.000467516162],"min":[-0.0125773139,-0.00690181,-0.00590981357],"type":"VEC3","name":"accessorPositions"},{"bufferView":2,"byteOffset":6464,"componentType":5126,"count":202,"type":"VEC4","name":"accessorTangents"},{"bufferView":1,"byteOffset":12120,"componentType":5126,"count":202,"type":"VEC3","name":"accessorNormals"},{"bufferView":3,"byteOffset":3232,"componentType":5126,"count":202,"type":"VEC2","name":"accessorUVs"},{"bufferView":0,"byteOffset":6408,"componentType":5123,"count":1068,"type":"SCALAR","name":"accessorIndices"},{"bufferView":1,"byteOffset":14544,"componentType":5126,"count":202,"max":[0.004062894,0.004808853,-0.0153965782],"min":[-0.001803931,-0.00216109073,-0.0225062314],"type":"VEC3","name":"accessorPositions"},{"bufferView":2,"byteOffset":9696,"componentType":5126,"count":202,"type":"VEC4","name":"accessorTangents"},{"bufferView":1,"byteOffset":16968,"componentType":5126,"count":202,"type":"VEC3","name":"accessorNormals"},{"bufferView":3,"byteOffset":4848,"componentType":5126,"count":202,"type":"VEC2","name":"accessorUVs"},{"bufferView":0,"byteOffset":8544,"componentType":5123,"count":1068,"type":"SCALAR","name":"accessorIndices"},{"bufferView":1,"byteOffset":19392,"componentType":5126,"count":202,"max":[-0.0158595182,0.004715004,0.0115251513],"min":[-0.020028431,-0.0002377759,0.006473095],"type":"VEC3","name":"accessorPositions"},{"bufferView":2,"byteOffset":12928,"componentType":5126,"count":202,"type":"VEC4","name":"accessorTangents"},{"bufferView":1,"byteOffset":21816,"componentType":5126,"count":202,"type":"VEC3","name":"accessorNormals"},{"bufferView":3,"byteOffset":6464,"componentType":5126,"count":202,"type":"VEC2","name":"accessorUVs"},{"bufferView":0,"byteOffset":10680,"componentType":5123,"count":3636,"type":"SCALAR","name":"accessorIndices"},{"bufferView":1,"byteOffset":24240,"componentType":5126,"count":823,"max":[0.0103221415,0.0243039224,0.004619677],"min":[-0.004926678,-0.007522366,-0.01758627],"type":"VEC3","name":"accessorPositions"},{"bufferView":2,"byteOffset":16160,"componentType":5126,"count":823,"type":"VEC4","name":"accessorTangents"},{"bufferView":1,"byteOffset":34116,"componentType":5126,"count":823,"type":"VEC3","name":"accessorNormals"},{"bufferView":3,"byteOffset":8080,"componentType":5126,"count":823,"type":"VEC2","name":"accessorUVs"},{"bufferView":0,"byteOffset":17952,"componentType":5123,"count":1140,"type":"SCALAR","name":"accessorIndices"},{"bufferView":1,"byteOffset":43992,"componentType":5126,"count":292,"max":[-0.00064937945,0.00998771749,0.0144059388],"min":[-0.0103286514,-0.008438077,0.00231939927],"type":"VEC3","name":"accessorPositions"},{"bufferView":2,"byteOffset":29328,"componentType":5126,"count":292,"type":"VEC4","name":"accessorTangents"},{"bufferView":1,"byteOffset":47496,"componentType":5126,"count":292,"type":"VEC3","name":"accessorNormals"},{"bufferView":3,"byteOffset":14664,"componentType":5126,"count":292,"type":"VEC2","name":"accessorUVs"},{"bufferView":4,"componentType":5126,"count":1,"max":[0.0],"min":[0.0],"type":"SCALAR","name":"accessorAnimationInput"},{"bufferView":5,"componentType":5126,"count":1,"type":"VEC3","name":"accessorAnimationScales"},{"bufferView":4,"byteOffset":4,"componentType":5126,"count":193,"max":[8.0],"min":[0.0],"type":"SCALAR","name":"accessorAnimationInput"},{"bufferView":6,"componentType":5126,"count":193,"type":"VEC4","name":"accessorAnimationRotations"},{"bufferView":4,"byteOffset":776,"componentType":5126,"count":109,"max":[8.0],"min":[0.0],"type":"SCALAR","name":"accessorAnimationInput"},{"bufferView":5,"byteOffset":12,"componentType":5126,"count":109,"type":"VEC3","name":"accessorAnimationPositions"},{"bufferView":4,"byteOffset":1212,"componentType":5126,"count":1,"max":[0.0],"min":[0.0],"type":"SCALAR","name":"accessorAnimationInput"},{"bufferView":5,"byteOffset":1320,"componentType":5126,"count":1,"type":"VEC3","name":"accessorAnimationScales"},{"bufferView":4,"byteOffset":1216,"componentType":5126,"count":1,"max":[0.0],"min":[0.0],"type":"SCALAR","name":"accessorAnimationInput"},{"bufferView":5,"byteOffset":1332,"componentType":5126,"count":1,"type":"VEC3","name":"accessorAnimationPositions"},{"bufferView":4,"byteOffset":1220,"componentType":5126,"count":1,"max":[0.0],"min":[0.0],"type":"SCALAR","name":"accessorAnimationInput"},{"bufferView":5,"byteOffset":1344,"componentType":5126,"count":1,"type":"VEC3","name":"accessorAnimationScales"},{"bufferView":4,"byteOffset":1224,"componentType":5126,"count":1,"max":[0.0],"min":[0.0],"type":"SCALAR","name":"accessorAnimationInput"},{"bufferView":5,"byteOffset":1356,"componentType":5126,"count":1,"type":"VEC3","name":"accessorAnimationPositions"},{"bufferView":4,"byteOffset":1228,"componentType":5126,"count":1,"max":[0.0],"min":[0.0],"type":"SCALAR","name":"accessorAnimationInput"},{"bufferView":5,"byteOffset":1368,"componentType":5126,"count":1,"type":"VEC3","name":"accessorAnimationScales"},{"bufferView":4,"byteOffset":1232,"componentType":5126,"count":1,"max":[0.0],"min":[0.0],"type":"SCALAR","name":"accessorAnimationInput"},{"bufferView":5,"byteOffset":1380,"componentType":5126,"count":1,"type":"VEC3","name":"accessorAnimationPositions"},{"bufferView":4,"byteOffset":1236,"componentType":5126,"count":1,"max":[0.0],"min":[0.0],"type":"SCALAR","name":"accessorAnimationInput"},{"bufferView":5,"byteOffset":1392,"componentType":5126,"count":1,"type":"VEC3","name":"accessorAnimationScales"},{"bufferView":4,"byteOffset":1240,"componentType":5126,"count":1,"max":[0.0],"min":[0.0],"type":"SCALAR","name":"accessorAnimationInput"},{"bufferView":5,"byteOffset":1404,"componentType":5126,"count":1,"type":"VEC3","name":"accessorAnimationPositions"},{"bufferView":4,"byteOffset":1244,"componentType":5126,"count":1,"max":[0.0],"min":[0.0],"type":"SCALAR","name":"accessorAnimationInput"},{"bufferView":5,"byteOffset":1416,"componentType":5126,"count":1,"type":"VEC3","name":"accessorAnimationScales"},{"bufferView":4,"byteOffset":1248,"componentType":5126,"count":1,"max":[0.0],"min":[0.0],"type":"SCALAR","name":"accessorAnimationInput"},{"bufferView":5,"byteOffset":1428,"componentType":5126,"count":1,"type":"VEC3","name":"accessorAnimationPositions"},{"bufferView":4,"byteOffset":1252,"componentType":5126,"count":1,"max":[0.0],"min":[0.0],"type":"SCALAR","name":"accessorAnimationInput"},{"bufferView":6,"byteOffset":3088,"componentType":5126,"count":1,"type":"VEC4","name":"accessorAnimationRotations"},{"bufferView":4,"byteOffset":1256,"componentType":5126,"count":1,"max":[0.0],"min":[0.0],"type":"SCALAR","name":"accessorAnimationInput"},{"bufferView":5,"byteOffset":1440,"componentType":5126,"count":1,"type":"VEC3","name":"accessorAnimationPositions"},{"bufferView":4,"byteOffset":1260,"componentType":5126,"count":1,"max":[0.0],"min":[0.0],"type":"SCALAR","name":"accessorAnimationInput"},{"bufferView":6,"byteOffset":3104,"componentType":5126,"count":1,"type":"VEC4","name":"accessorAnimationRotations"},{"bufferView":4,"byteOffset":1264,"componentType":5126,"count":26,"max":[3.75],"min":[0.0],"type":"SCALAR","name":"accessorAnimationInput"},{"bufferView":5,"byteOffset":1452,"componentType":5126,"count":26,"type":"VEC3","name":"accessorAnimationPositions"},{"bufferView":4,"byteOffset":1368,"componentType":5126,"count":75,"max":[3.33333325],"min":[0.0],"type":"SCALAR","name":"accessorAnimationInput"},{"bufferView":5,"byteOffset":1764,"componentType":5126,"count":75,"type":"VEC3","name":"accessorAnimationScales"},{"bufferView":4,"byteOffset":1668,"componentType":5126,"count":79,"max":[3.33333325],"min":[0.0],"type":"SCALAR","name":"accessorAnimationInput"},{"bufferView":5,"byteOffset":2664,"componentType":5126,"count":79,"type":"VEC3","name":"accessorAnimationPositions"},{"bufferView":4,"byteOffset":1984,"componentType":5126,"count":75,"max":[3.54166675],"min":[0.208333328],"type":"SCALAR","name":"accessorAnimationInput"},{"bufferView":5,"byteOffset":3612,"componentType":5126,"count":75,"type":"VEC3","name":"accessorAnimationScales"},{"bufferView":4,"byteOffset":2284,"componentType":5126,"count":79,"max":[3.54166675],"min":[0.208333328],"type":"SCALAR","name":"accessorAnimationInput"},{"bufferView":5,"byteOffset":4512,"componentType":5126,"count":79,"type":"VEC3","name":"accessorAnimationPositions"},{"bufferView":4,"byteOffset":2600,"componentType":5126,"count":75,"max":[3.625],"min":[0.291666657],"type":"SCALAR","name":"accessorAnimationInput"},{"bufferView":5,"byteOffset":5460,"componentType":5126,"count":75,"type":"VEC3","name":"accessorAnimationScales"},{"bufferView":4,"byteOffset":2900,"componentType":5126,"count":76,"max":[3.625],"min":[0.291666657],"type":"SCALAR","name":"accessorAnimationInput"},{"bufferView":5,"byteOffset":6360,"componentType":5126,"count":76,"type":"VEC3","name":"accessorAnimationPositions"},{"bufferView":4,"byteOffset":3204,"componentType":5126,"count":75,"max":[3.41666675],"min":[0.0833333358],"type":"SCALAR","name":"accessorAnimationInput"},{"bufferView":5,"byteOffset":7272,"componentType":5126,"count":75,"type":"VEC3","name":"accessorAnimationScales"},{"bufferView":4,"byteOffset":3504,"componentType":5126,"count":73,"max":[3.41666675],"min":[0.0833333358],"type":"SCALAR","name":"accessorAnimationInput"},{"bufferView":5,"byteOffset":8172,"componentType":5126,"count":73,"type":"VEC3","name":"accessorAnimationPositions"},{"bufferView":4,"byteOffset":3796,"componentType":5126,"count":75,"max":[3.70833325],"min":[0.375],"type":"SCALAR","name":"accessorAnimationInput"},{"bufferView":5,"byteOffset":9048,"componentType":5126,"count":75,"type":"VEC3","name":"accessorAnimationScales"},{"bufferView":4,"byteOffset":4096,"componentType":5126,"count":76,"max":[3.70833325],"min":[0.375],"type":"SCALAR","name":"accessorAnimationInput"},{"bufferView":5,"byteOffset":9948,"componentType":5126,"count":76,"type":"VEC3","name":"accessorAnimationPositions"},{"bufferView":4,"byteOffset":4400,"componentType":5126,"count":21,"max":[0.8333333],"min":[0.0],"type":"SCALAR","name":"accessorAnimationInput"},{"bufferView":6,"byteOffset":3120,"componentType":5126,"count":21,"type":"VEC4","name":"accessorAnimationRotations"},{"bufferView":4,"byteOffset":4484,"componentType":5126,"count":19,"max":[0.8333333],"min":[0.0],"type":"SCALAR","name":"accessorAnimationInput"},{"bufferView":5,"byteOffset":10860,"componentType":5126,"count":19,"type":"VEC3","name":"accessorAnimationPositions"},{"bufferView":4,"byteOffset":4560,"componentType":5126,"count":20,"max":[0.8333333],"min":[0.0],"type":"SCALAR","name":"accessorAnimationInput"},{"bufferView":5,"byteOffset":11088,"componentType":5126,"count":20,"type":"VEC3","name":"accessorAnimationScales"},{"bufferView":4,"byteOffset":4640,"componentType":5126,"count":20,"max":[0.8333333],"min":[0.0],"type":"SCALAR","name":"accessorAnimationInput"},{"bufferView":5,"byteOffset":11328,"componentType":5126,"count":20,"type":"VEC3","name":"accessorAnimationPositions"},{"bufferView":4,"byteOffset":4720,"componentType":5126,"count":55,"max":[2.29166675],"min":[0.0],"type":"SCALAR","name":"accessorAnimationInput"},{"bufferView":5,"byteOffset":11568,"componentType":5126,"count":55,"type":"VEC3","name":"accessorAnimationPositions"},{"bufferView":4,"byteOffset":4940,"componentType":5126,"count":55,"max":[2.29166675],"min":[0.0],"type":"SCALAR","name":"accessorAnimationInput"},{"bufferView":5,"byteOffset":12228,"componentType":5126,"count":55,"type":"VEC3","name":"accessorAnimationPositions"},{"bufferView":4,"byteOffset":5160,"componentType":5126,"count":20,"max":[0.8333333],"min":[0.0],"type":"SCALAR","name":"accessorAnimationInput"},{"bufferView":5,"byteOffset":12888,"componentType":5126,"count":20,"type":"VEC3","name":"accessorAnimationScales"},{"bufferView":4,"byteOffset":5240,"componentType":5126,"count":20,"max":[0.8333333],"min":[0.0],"type":"SCALAR","name":"accessorAnimationInput"},{"bufferView":5,"byteOffset":13128,"componentType":5126,"count":20,"type":"VEC3","name":"accessorAnimationPositions"}],"bufferViews":[{"buffer":0,"byteLength":20232,"name":"bufferViewScalar"},{"buffer":0,"byteOffset":20232,"byteLength":51000,"byteStride":12,"name":"bufferViewFloatVec3"},{"buffer":0,"byteOffset":71232,"byteLength":34000,"byteStride":16,"name":"bufferViewFloatVec4"},{"buffer":0,"byteOffset":105232,"byteLength":17000,"byteStride":8,"name":"bufferViewFloatVec2"},{"buffer":0,"byteOffset":122232,"byteLength":5320,"name":"bufferViewAnimationFloatScalar"},{"buffer":0,"byteOffset":127552,"byteLength":13368,"name":"bufferViewAnimationFloatVec3"},{"buffer":0,"byteOffset":140920,"byteLength":3456,"name":"bufferViewAnimationFloatVec4"}],"buffers":[{"uri":"thumbsup (anim group transitions).bin","byteLength":144376}],"materials":[{"pbrMetallicRoughness":{"baseColorTexture":{"index":0},"metallicRoughnessTexture":{"index":1}},"name":"gold_m"}],"textures":[{"sampler":0,"source":0,"name":"fold 6 D 6-min.jpg"},{"sampler":0,"source":1,"name":"texture_plain_lambert1_Roughness_4texture_plain_lambert1_Metalness_2.jpg"}],"images":[{"uri":"fold 6 D 6-min.jpg"},{"uri":"texture_plain_lambert1_Roughness_4texture_plain_lambert1_Metalness_2.jpg"}],"samplers":[{"magFilter":9729,"minFilter":9987}],"animations":[{"channels":[{"sampler":0,"target":{"node":0,"path":"scale"}},{"sampler":1,"target":{"node":0,"path":"rotation"}},{"sampler":2,"target":{"node":0,"path":"translation"}},{"sampler":3,"target":{"node":2,"path":"scale"}},{"sampler":4,"target":{"node":2,"path":"translation"}},{"sampler":5,"target":{"node":3,"path":"scale"}},{"sampler":6,"target":{"node":3,"path":"translation"}},{"sampler":7,"target":{"node":4,"path":"scale"}},{"sampler":8,"target":{"node":4,"path":"translation"}},{"sampler":9,"target":{"node":5,"path":"scale"}},{"sampler":10,"target":{"node":5,"path":"translation"}},{"sampler":11,"target":{"node":6,"path":"scale"}},{"sampler":12,"target":{"node":6,"path":"translation"}},{"sampler":13,"target":{"node":7,"path":"rotation"}},{"sampler":14,"target":{"node":7,"path":"translation"}}],"samplers":[{"input":35,"output":36},{"input":37,"output":38},{"input":39,"output":40},{"input":41,"output":42},{"input":43,"output":44},{"input":45,"output":46},{"input":47,"output":48},{"input":49,"output":50},{"input":51,"output":52},{"input":53,"output":54},{"input":55,"output":56},{"input":57,"output":58},{"input":59,"output":60},{"input":61,"output":62},{"input":63,"output":64}],"name":"idle"},{"channels":[{"sampler":0,"target":{"node":0,"path":"rotation"}},{"sampler":1,"target":{"node":0,"path":"translation"}},{"sampler":2,"target":{"node":2,"path":"scale"}},{"sampler":3,"target":{"node":2,"path":"translation"}},{"sampler":4,"target":{"node":3,"path":"scale"}},{"sampler":5,"target":{"node":3,"path":"translation"}},{"sampler":6,"target":{"node":4,"path":"scale"}},{"sampler":7,"target":{"node":4,"path":"translation"}},{"sampler":8,"target":{"node":5,"path":"scale"}},{"sampler":9,"target":{"node":5,"path":"translation"}},{"sampler":10,"target":{"node":6,"path":"scale"}},{"sampler":11,"target":{"node":6,"path":"translation"}},{"sampler":12,"target":{"node":7,"path":"rotation"}},{"sampler":13,"target":{"node":7,"path":"translation"}}],"samplers":[{"input":65,"output":66},{"input":67,"output":68},{"input":69,"output":70},{"input":71,"output":72},{"input":73,"output":74},{"input":75,"output":76},{"input":77,"output":78},{"input":79,"output":80},{"input":81,"output":82},{"input":83,"output":84},{"input":85,"output":86},{"input":87,"output":88},{"input":89,"output":90},{"input":91,"output":92}],"name":"signature"},{"channels":[{"sampler":0,"target":{"node":0,"path":"scale"}},{"sampler":1,"target":{"node":0,"path":"translation"}}],"samplers":[{"input":93,"output":94},{"input":95,"output":96}],"name":"slide_out_L"},{"channels":[{"sampler":0,"target":{"node":0,"path":"translation"}}],"samplers":[{"input":97,"output":98}],"name":"slide_in_L"},{"channels":[{"sampler":0,"target":{"node":0,"path":"translation"}}],"samplers":[{"input":99,"output":100}],"name":"slide_in_R"},{"channels":[{"sampler":0,"target":{"node":0,"path":"scale"}},{"sampler":1,"target":{"node":0,"path":"translation"}}],"samplers":[{"input":101,"output":102},{"input":103,"output":104}],"name":"slide_out_R"}]}