{"asset":{"version":"2.0","generator":"babylon.js glTF exporter for Maya 2018 v20200429.2"},"scene":0,"scenes":[{"nodes":[0]}],"nodes":[{"children":[1,2,3,4,5,6],"name":"rocket_group1"},{"mesh":0,"name":"rocket_low","extras":{"currentUVSet":"map1"}},{"mesh":1,"name":"window_low","extras":{"currentUVSet":"map1"}},{"mesh":2,"name":"fin_low","extras":{"currentUVSet":"map1"}},{"mesh":3,"name":"fin1_low","extras":{"currentUVSet":"map1"}},{"mesh":4,"name":"fin2_low","extras":{"currentUVSet":"map1"}},{"children":[7],"name":"group4"},{"mesh":5,"name":"fire_low12","extras":{"currentUVSet":"map1"}}],"meshes":[{"primitives":[{"attributes":{"POSITION":1,"TANGENT":2,"NORMAL":3,"TEXCOORD_0":4},"indices":0,"material":0}],"name":"rocket_low"},{"primitives":[{"attributes":{"POSITION":6,"TANGENT":7,"NORMAL":8,"TEXCOORD_0":9},"indices":5,"material":0}],"name":"window_low"},{"primitives":[{"attributes":{"POSITION":11,"TANGENT":12,"NORMAL":13,"TEXCOORD_0":14},"indices":10,"material":0}],"name":"fin_low"},{"primitives":[{"attributes":{"POSITION":16,"TANGENT":17,"NORMAL":18,"TEXCOORD_0":19},"indices":15,"material":0}],"name":"fin1_low"},{"primitives":[{"attributes":{"POSITION":21,"TANGENT":22,"NORMAL":23,"TEXCOORD_0":24},"indices":20,"material":0}],"name":"fin2_low"},{"primitives":[{"attributes":{"POSITION":26,"TANGENT":27,"NORMAL":28,"TEXCOORD_0":29},"indices":25,"material":0}],"name":"fire_low12"}],"accessors":[{"bufferView":0,"componentType":5123,"count":2736,"type":"SCALAR","name":"accessorIndices"},{"bufferView":1,"componentType":5126,"count":549,"max":[0.009205354,0.05130956,0.009205354],"min":[-0.009205352,0.00111239043,-0.009205355],"type":"VEC3","name":"accessorPositions"},{"bufferView":2,"componentType":5126,"count":549,"type":"VEC4","name":"accessorTangents"},{"bufferView":1,"byteOffset":6588,"componentType":5126,"count":549,"type":"VEC3","name":"accessorNormals"},{"bufferView":3,"componentType":5126,"count":549,"type":"VEC2","name":"accessorUVs"},{"bufferView":0,"byteOffset":5472,"componentType":5123,"count":576,"type":"SCALAR","name":"accessorIndices"},{"bufferView":1,"byteOffset":13176,"componentType":5126,"count":198,"max":[0.009949317,0.0357524976,0.00391362561],"min":[0.00750139635,0.0278242435,-0.003948195],"type":"VEC3","name":"accessorPositions"},{"bufferView":2,"byteOffset":8784,"componentType":5126,"count":198,"type":"VEC4","name":"accessorTangents"},{"bufferView":1,"byteOffset":15552,"componentType":5126,"count":198,"type":"VEC3","name":"accessorNormals"},{"bufferView":3,"byteOffset":4392,"componentType":5126,"count":198,"type":"VEC2","name":"accessorUVs"},{"bufferView":0,"byteOffset":6624,"componentType":5123,"count":132,"type":"SCALAR","name":"accessorIndices"},{"bufferView":1,"byteOffset":17928,"componentType":5126,"count":56,"max":[0.0203854218,0.0192567445,0.0009386003],"min":[0.006750965,-0.003006991,-0.0009990844],"type":"VEC3","name":"accessorPositions"},{"bufferView":2,"byteOffset":11952,"componentType":5126,"count":56,"type":"VEC4","name":"accessorTangents"},{"bufferView":1,"byteOffset":18600,"componentType":5126,"count":56,"type":"VEC3","name":"accessorNormals"},{"bufferView":3,"byteOffset":5976,"componentType":5126,"count":56,"type":"VEC2","name":"accessorUVs"},{"bufferView":0,"byteOffset":6888,"componentType":5123,"count":132,"type":"SCALAR","name":"accessorIndices"},{"bufferView":1,"byteOffset":19272,"componentType":5126,"count":56,"max":[-0.002564757,0.0192567445,-0.005362156],"min":[-0.0110558169,-0.003006991,-0.0181084052],"type":"VEC3","name":"accessorPositions"},{"bufferView":2,"byteOffset":12848,"componentType":5126,"count":56,"type":"VEC4","name":"accessorTangents"},{"bufferView":1,"byteOffset":19944,"componentType":5126,"count":56,"type":"VEC3","name":"accessorNormals"},{"bufferView":3,"byteOffset":6424,"componentType":5126,"count":56,"type":"VEC2","name":"accessorUVs"},{"bufferView":0,"byteOffset":7152,"componentType":5123,"count":132,"type":"SCALAR","name":"accessorIndices"},{"bufferView":1,"byteOffset":20616,"componentType":5126,"count":56,"max":[-0.00253656064,0.0192567445,0.0181501526],"min":[-0.0109792519,-0.003006991,0.00538089],"type":"VEC3","name":"accessorPositions"},{"bufferView":2,"byteOffset":13744,"componentType":5126,"count":56,"type":"VEC4","name":"accessorTangents"},{"bufferView":1,"byteOffset":21288,"componentType":5126,"count":56,"type":"VEC3","name":"accessorNormals"},{"bufferView":3,"byteOffset":6872,"componentType":5126,"count":56,"type":"VEC2","name":"accessorUVs"},{"bufferView":0,"byteOffset":7416,"componentType":5123,"count":600,"type":"SCALAR","name":"accessorIndices"},{"bufferView":1,"byteOffset":21960,"componentType":5126,"count":147,"max":[0.00524719339,0.0193498936,0.00612460123],"min":[-0.005769769,0.002456908,-0.004882394],"type":"VEC3","name":"accessorPositions"},{"bufferView":2,"byteOffset":14640,"componentType":5126,"count":147,"type":"VEC4","name":"accessorTangents"},{"bufferView":1,"byteOffset":23724,"componentType":5126,"count":147,"type":"VEC3","name":"accessorNormals"},{"bufferView":3,"byteOffset":7320,"componentType":5126,"count":147,"type":"VEC2","name":"accessorUVs"},{"bufferView":4,"componentType":5126,"count":1,"max":[0.0],"min":[0.0],"type":"SCALAR","name":"accessorAnimationInput"},{"bufferView":5,"componentType":5126,"count":1,"type":"VEC3","name":"accessorAnimationScales"},{"bufferView":4,"byteOffset":4,"componentType":5126,"count":193,"max":[8.0],"min":[0.0],"type":"SCALAR","name":"accessorAnimationInput"},{"bufferView":6,"componentType":5126,"count":193,"type":"VEC4","name":"accessorAnimationRotations"},{"bufferView":4,"byteOffset":776,"componentType":5126,"count":126,"max":[8.0],"min":[0.0],"type":"SCALAR","name":"accessorAnimationInput"},{"bufferView":5,"byteOffset":12,"componentType":5126,"count":126,"type":"VEC3","name":"accessorAnimationPositions"},{"bufferView":4,"byteOffset":1280,"componentType":5126,"count":1,"max":[0.0],"min":[0.0],"type":"SCALAR","name":"accessorAnimationInput"},{"bufferView":5,"byteOffset":1524,"componentType":5126,"count":1,"type":"VEC3","name":"accessorAnimationPositions"},{"bufferView":4,"byteOffset":1284,"componentType":5126,"count":117,"max":[5.0],"min":[0.0],"type":"SCALAR","name":"accessorAnimationInput"},{"bufferView":6,"byteOffset":3088,"componentType":5126,"count":117,"type":"VEC4","name":"accessorAnimationRotations"},{"bufferView":4,"byteOffset":1752,"componentType":5126,"count":31,"max":[5.0],"min":[0.0],"type":"SCALAR","name":"accessorAnimationInput"},{"bufferView":5,"byteOffset":1536,"componentType":5126,"count":31,"type":"VEC3","name":"accessorAnimationPositions"},{"bufferView":4,"byteOffset":1876,"componentType":5126,"count":20,"max":[5.0],"min":[0.0],"type":"SCALAR","name":"accessorAnimationInput"},{"bufferView":5,"byteOffset":1908,"componentType":5126,"count":20,"type":"VEC3","name":"accessorAnimationPositions"},{"bufferView":4,"byteOffset":1956,"componentType":5126,"count":55,"max":[2.29166675],"min":[0.0],"type":"SCALAR","name":"accessorAnimationInput"},{"bufferView":5,"byteOffset":2148,"componentType":5126,"count":55,"type":"VEC3","name":"accessorAnimationPositions"},{"bufferView":4,"byteOffset":2176,"componentType":5126,"count":20,"max":[0.8333333],"min":[0.0],"type":"SCALAR","name":"accessorAnimationInput"},{"bufferView":5,"byteOffset":2808,"componentType":5126,"count":20,"type":"VEC3","name":"accessorAnimationScales"},{"bufferView":4,"byteOffset":2256,"componentType":5126,"count":20,"max":[0.8333333],"min":[0.0],"type":"SCALAR","name":"accessorAnimationInput"},{"bufferView":5,"byteOffset":3048,"componentType":5126,"count":20,"type":"VEC3","name":"accessorAnimationPositions"},{"bufferView":4,"byteOffset":2336,"componentType":5126,"count":55,"max":[2.29166675],"min":[0.0],"type":"SCALAR","name":"accessorAnimationInput"},{"bufferView":5,"byteOffset":3288,"componentType":5126,"count":55,"type":"VEC3","name":"accessorAnimationPositions"},{"bufferView":4,"byteOffset":2556,"componentType":5126,"count":20,"max":[0.8333333],"min":[0.0],"type":"SCALAR","name":"accessorAnimationInput"},{"bufferView":5,"byteOffset":3948,"componentType":5126,"count":20,"type":"VEC3","name":"accessorAnimationScales"},{"bufferView":4,"byteOffset":2636,"componentType":5126,"count":20,"max":[0.8333333],"min":[0.0],"type":"SCALAR","name":"accessorAnimationInput"},{"bufferView":5,"byteOffset":4188,"componentType":5126,"count":20,"type":"VEC3","name":"accessorAnimationPositions"}],"bufferViews":[{"buffer":0,"byteLength":8616,"name":"bufferViewScalar"},{"buffer":0,"byteOffset":8616,"byteLength":25488,"byteStride":12,"name":"bufferViewFloatVec3"},{"buffer":0,"byteOffset":34104,"byteLength":16992,"byteStride":16,"name":"bufferViewFloatVec4"},{"buffer":0,"byteOffset":51096,"byteLength":8496,"byteStride":8,"name":"bufferViewFloatVec2"},{"buffer":0,"byteOffset":59592,"byteLength":2716,"name":"bufferViewAnimationFloatScalar"},{"buffer":0,"byteOffset":62308,"byteLength":4428,"name":"bufferViewAnimationFloatVec3"},{"buffer":0,"byteOffset":66736,"byteLength":4960,"name":"bufferViewAnimationFloatVec4"}],"buffers":[{"uri":"rocket (anim group transitions).bin","byteLength":71696}],"materials":[{"pbrMetallicRoughness":{"baseColorTexture":{"index":0},"metallicRoughnessTexture":{"index":1}},"name":"fold_6"}],"textures":[{"sampler":0,"source":0,"name":"fold 6 D 6-min.jpg"},{"sampler":0,"source":1,"name":"texture_plain_lambert1_Roughness_3texture_plain_lambert1_Metalness_3.jpg"}],"images":[{"uri":"fold 6 D 6-min.jpg"},{"uri":"texture_plain_lambert1_Roughness_3texture_plain_lambert1_Metalness_3.jpg"}],"samplers":[{"magFilter":9729,"minFilter":9987}],"animations":[{"channels":[{"sampler":0,"target":{"node":0,"path":"scale"}},{"sampler":1,"target":{"node":0,"path":"rotation"}},{"sampler":2,"target":{"node":0,"path":"translation"}},{"sampler":3,"target":{"node":6,"path":"translation"}}],"samplers":[{"input":30,"output":31},{"input":32,"output":33},{"input":34,"output":35},{"input":36,"output":37}],"name":"idle"},{"channels":[{"sampler":0,"target":{"node":0,"path":"rotation"}},{"sampler":1,"target":{"node":0,"path":"translation"}},{"sampler":2,"target":{"node":6,"path":"translation"}}],"samplers":[{"input":38,"output":39},{"input":40,"output":41},{"input":42,"output":43}],"name":"signature"},{"channels":[{"sampler":0,"target":{"node":0,"path":"translation"}}],"samplers":[{"input":44,"output":45}],"name":"slide_in_L"},{"channels":[{"sampler":0,"target":{"node":0,"path":"scale"}},{"sampler":1,"target":{"node":0,"path":"translation"}}],"samplers":[{"input":46,"output":47},{"input":48,"output":49}],"name":"slide_out_L"},{"channels":[{"sampler":0,"target":{"node":0,"path":"translation"}}],"samplers":[{"input":50,"output":51}],"name":"slide_in_R"},{"channels":[{"sampler":0,"target":{"node":0,"path":"scale"}},{"sampler":1,"target":{"node":0,"path":"translation"}}],"samplers":[{"input":52,"output":53},{"input":54,"output":55}],"name":"slide_out_R"}]}