{"asset":{"version":"2.0","generator":"babylon.js glTF exporter for Maya 2018 v20200429.2"},"scene":0,"scenes":[{"nodes":[0]}],"nodes":[{"children":[1],"name":"sphere"},{"mesh":0,"translation":[-0.36011,-0.127819762,-0.3421067],"scale":[2.0,2.0,2.0],"name":"back_sphere3"}],"meshes":[{"primitives":[{"attributes":{"POSITION":1,"TANGENT":2,"NORMAL":3,"TEXCOORD_0":4},"indices":0,"material":0}],"name":"back_sphere3"}],"accessors":[{"bufferView":0,"componentType":5123,"count":9360,"type":"SCALAR","name":"accessorIndices"},{"bufferView":1,"componentType":5126,"count":1677,"max":[0.009847239,0.009989736,0.00984724],"min":[-0.00984724052,-0.009989736,-0.009847242],"type":"VEC3","name":"accessorPositions"},{"bufferView":2,"componentType":5126,"count":1677,"type":"VEC4","name":"accessorTangents"},{"bufferView":1,"byteOffset":20124,"componentType":5126,"count":1677,"type":"VEC3","name":"accessorNormals"},{"bufferView":3,"componentType":5126,"count":1677,"type":"VEC2","name":"accessorUVs"},{"bufferView":4,"componentType":5126,"count":1,"max":[0.0],"min":[0.0],"type":"SCALAR","name":"accessorAnimationInput"},{"bufferView":5,"componentType":5126,"count":1,"type":"VEC3","name":"accessorAnimationScales"},{"bufferView":4,"byteOffset":4,"componentType":5126,"count":60,"max":[4.0],"min":[0.0416666679],"type":"SCALAR","name":"accessorAnimationInput"},{"bufferView":5,"byteOffset":12,"componentType":5126,"count":60,"type":"VEC3","name":"accessorAnimationPositions"},{"bufferView":4,"byteOffset":244,"componentType":5126,"count":55,"max":[2.29166675],"min":[0.0],"type":"SCALAR","name":"accessorAnimationInput"},{"bufferView":5,"byteOffset":732,"componentType":5126,"count":55,"type":"VEC3","name":"accessorAnimationScales"},{"bufferView":4,"byteOffset":464,"componentType":5126,"count":55,"max":[2.25],"min":[0.0],"type":"SCALAR","name":"accessorAnimationInput"},{"bufferView":5,"byteOffset":1392,"componentType":5126,"count":55,"type":"VEC3","name":"accessorAnimationPositions"},{"bufferView":4,"byteOffset":684,"componentType":5126,"count":40,"max":[1.66666663],"min":[0.0],"type":"SCALAR","name":"accessorAnimationInput"},{"bufferView":5,"byteOffset":2052,"componentType":5126,"count":40,"type":"VEC3","name":"accessorAnimationScales"},{"bufferView":4,"byteOffset":844,"componentType":5126,"count":41,"max":[1.66666663],"min":[0.0],"type":"SCALAR","name":"accessorAnimationInput"},{"bufferView":5,"byteOffset":2532,"componentType":5126,"count":41,"type":"VEC3","name":"accessorAnimationPositions"}],"bufferViews":[{"buffer":0,"byteLength":18720,"name":"bufferViewScalar"},{"buffer":0,"byteOffset":18720,"byteLength":40248,"byteStride":12,"name":"bufferViewFloatVec3"},{"buffer":0,"byteOffset":58968,"byteLength":26832,"byteStride":16,"name":"bufferViewFloatVec4"},{"buffer":0,"byteOffset":85800,"byteLength":13416,"byteStride":8,"name":"bufferViewFloatVec2"},{"buffer":0,"byteOffset":99216,"byteLength":1008,"name":"bufferViewAnimationFloatScalar"},{"buffer":0,"byteOffset":100224,"byteLength":3024,"name":"bufferViewAnimationFloatVec3"}],"buffers":[{"uri":"back sphere right (anim group).bin","byteLength":103248}],"materials":[{"pbrMetallicRoughness":{"baseColorFactor":[0.8,0.8,0.8,1.0],"baseColorTexture":{"index":0},"metallicRoughnessTexture":{"index":1}},"name":"aiStandardSurface3"}],"textures":[{"sampler":0,"source":0,"name":"texture plain_lambert1_BaseColor(compressed).png"},{"sampler":0,"source":1,"name":"texture_plain_lambert1_Roughness_3texture_plain_lambert1_Metalness_1.jpg"}],"images":[{"uri":"texture plain_lambert1_BaseColor(compressed).png"},{"uri":"texture_plain_lambert1_Roughness_3texture_plain_lambert1_Metalness_1.jpg"}],"samplers":[{"magFilter":9729,"minFilter":9987}],"animations":[{"channels":[{"sampler":0,"target":{"node":1,"path":"scale"}},{"sampler":1,"target":{"node":1,"path":"translation"}}],"samplers":[{"input":5,"output":6},{"input":7,"output":8}],"name":"idle"},{"channels":[{"sampler":0,"target":{"node":1,"path":"scale"}},{"sampler":1,"target":{"node":1,"path":"translation"}}],"samplers":[{"input":9,"output":10},{"input":11,"output":12}],"name":"slide_in"},{"channels":[{"sampler":0,"target":{"node":1,"path":"scale"}},{"sampler":1,"target":{"node":1,"path":"translation"}}],"samplers":[{"input":13,"output":14},{"input":15,"output":16}],"name":"slide_out"}]}