{"asset":{"version":"2.0","generator":"babylon.js glTF exporter for Maya 2018 v20200429.2"},"scene":0,"scenes":[{"nodes":[0]}],"nodes":[{"children":[1,2,3,4],"translation":[0.0,-2.98169323E-19,3.94413075E-18],"rotation":[0.0135325436,0.0,0.0,0.999908447],"name":"LOCK_group2"},{"mesh":0,"name":"cover1","extras":{"currentUVSet":"map1"}},{"mesh":1,"name":"cover","extras":{"currentUVSet":"map1"}},{"mesh":2,"name":"lock_curve","extras":{"currentUVSet":"map1"}},{"mesh":3,"name":"lock_body","extras":{"currentUVSet":"map1"}}],"meshes":[{"primitives":[{"attributes":{"POSITION":1,"TANGENT":2,"NORMAL":3,"TEXCOORD_0":4},"indices":0,"material":0}],"name":"cover1"},{"primitives":[{"attributes":{"POSITION":6,"TANGENT":7,"NORMAL":8,"TEXCOORD_0":9},"indices":5,"material":0}],"name":"cover"},{"primitives":[{"attributes":{"POSITION":11,"TANGENT":12,"NORMAL":13,"TEXCOORD_0":14},"indices":10,"material":0}],"name":"lock_curve"},{"primitives":[{"attributes":{"POSITION":16,"TANGENT":17,"NORMAL":18,"TEXCOORD_0":19},"indices":15,"material":0}],"name":"lock_body"}],"accessors":[{"bufferView":0,"componentType":5123,"count":576,"type":"SCALAR","name":"accessorIndices"},{"bufferView":1,"componentType":5126,"count":125,"max":[0.004285435,0.0300059784,0.0125238057],"min":[-0.00453403452,0.02885141,0.003704369],"type":"VEC3","name":"accessorPositions"},{"bufferView":2,"componentType":5126,"count":125,"type":"VEC4","name":"accessorTangents"},{"bufferView":1,"byteOffset":1500,"componentType":5126,"count":125,"type":"VEC3","name":"accessorNormals"},{"bufferView":3,"componentType":5126,"count":125,"type":"VEC2","name":"accessorUVs"},{"bufferView":0,"byteOffset":1152,"componentType":5123,"count":576,"type":"SCALAR","name":"accessorIndices"},{"bufferView":1,"byteOffset":3000,"componentType":5126,"count":125,"max":[0.004323608,0.0299243536,-0.00527430838],"min":[-0.004495861,0.0287697837,-0.0140937446],"type":"VEC3","name":"accessorPositions"},{"bufferView":2,"byteOffset":2000,"componentType":5126,"count":125,"type":"VEC4","name":"accessorTangents"},{"bufferView":1,"byteOffset":4500,"componentType":5126,"count":125,"type":"VEC3","name":"accessorNormals"},{"bufferView":3,"byteOffset":1000,"componentType":5126,"count":125,"type":"VEC2","name":"accessorUVs"},{"bufferView":0,"byteOffset":2304,"componentType":5123,"count":1728,"type":"SCALAR","name":"accessorIndices"},{"bufferView":1,"byteOffset":6000,"componentType":5126,"count":323,"max":[0.00308260554,0.0537497476,0.011266876],"min":[-0.00331679336,0.0104854461,-0.0129023427],"type":"VEC3","name":"accessorPositions"},{"bufferView":2,"byteOffset":4000,"componentType":5126,"count":323,"type":"VEC4","name":"accessorTangents"},{"bufferView":1,"byteOffset":9876,"componentType":5126,"count":323,"type":"VEC3","name":"accessorNormals"},{"bufferView":3,"byteOffset":2000,"componentType":5126,"count":323,"type":"VEC2","name":"accessorUVs"},{"bufferView":0,"byteOffset":5760,"componentType":5123,"count":2916,"type":"SCALAR","name":"accessorIndices"},{"bufferView":1,"byteOffset":13752,"componentType":5126,"count":1128,"max":[0.00732463459,0.0289350338,0.0181937274],"min":[-0.00742206862,3.054559E-05,-0.0183148142],"type":"VEC3","name":"accessorPositions"},{"bufferView":2,"byteOffset":9168,"componentType":5126,"count":1128,"type":"VEC4","name":"accessorTangents"},{"bufferView":1,"byteOffset":27288,"componentType":5126,"count":1128,"type":"VEC3","name":"accessorNormals"},{"bufferView":3,"byteOffset":4584,"componentType":5126,"count":1128,"type":"VEC2","name":"accessorUVs"},{"bufferView":4,"componentType":5126,"count":1,"max":[0.0],"min":[0.0],"type":"SCALAR","name":"accessorAnimationInput"},{"bufferView":5,"componentType":5126,"count":1,"type":"VEC3","name":"accessorAnimationScales"},{"bufferView":4,"byteOffset":4,"componentType":5126,"count":173,"max":[8.0],"min":[0.0],"type":"SCALAR","name":"accessorAnimationInput"},{"bufferView":6,"componentType":5126,"count":173,"type":"VEC4","name":"accessorAnimationRotations"},{"bufferView":4,"byteOffset":696,"componentType":5126,"count":68,"max":[7.95833349],"min":[0.0],"type":"SCALAR","name":"accessorAnimationInput"},{"bufferView":5,"byteOffset":12,"componentType":5126,"count":68,"type":"VEC3","name":"accessorAnimationPositions"},{"bufferView":4,"byteOffset":968,"componentType":5126,"count":1,"max":[0.0],"min":[0.0],"type":"SCALAR","name":"accessorAnimationInput"},{"bufferView":6,"byteOffset":2768,"componentType":5126,"count":1,"type":"VEC4","name":"accessorAnimationRotations"},{"bufferView":4,"byteOffset":972,"componentType":5126,"count":1,"max":[0.0],"min":[0.0],"type":"SCALAR","name":"accessorAnimationInput"},{"bufferView":5,"byteOffset":828,"componentType":5126,"count":1,"type":"VEC3","name":"accessorAnimationPositions"},{"bufferView":4,"byteOffset":976,"componentType":5126,"count":47,"max":[2.5],"min":[0.0833333358],"type":"SCALAR","name":"accessorAnimationInput"},{"bufferView":6,"byteOffset":2784,"componentType":5126,"count":47,"type":"VEC4","name":"accessorAnimationRotations"},{"bufferView":4,"byteOffset":1164,"componentType":5126,"count":26,"max":[3.08333325],"min":[0.0833333358],"type":"SCALAR","name":"accessorAnimationInput"},{"bufferView":5,"byteOffset":840,"componentType":5126,"count":26,"type":"VEC3","name":"accessorAnimationPositions"},{"bufferView":4,"byteOffset":1268,"componentType":5126,"count":31,"max":[1.66666663],"min":[0.416666657],"type":"SCALAR","name":"accessorAnimationInput"},{"bufferView":6,"byteOffset":3536,"componentType":5126,"count":31,"type":"VEC4","name":"accessorAnimationRotations"},{"bufferView":4,"byteOffset":1392,"componentType":5126,"count":49,"max":[2.08333325],"min":[0.0],"type":"SCALAR","name":"accessorAnimationInput"},{"bufferView":5,"byteOffset":1152,"componentType":5126,"count":49,"type":"VEC3","name":"accessorAnimationPositions"},{"bufferView":4,"byteOffset":1588,"componentType":5126,"count":55,"max":[2.29166675],"min":[0.0],"type":"SCALAR","name":"accessorAnimationInput"},{"bufferView":5,"byteOffset":1740,"componentType":5126,"count":55,"type":"VEC3","name":"accessorAnimationPositions"},{"bufferView":4,"byteOffset":1808,"componentType":5126,"count":20,"max":[0.8333333],"min":[0.0],"type":"SCALAR","name":"accessorAnimationInput"},{"bufferView":5,"byteOffset":2400,"componentType":5126,"count":20,"type":"VEC3","name":"accessorAnimationScales"},{"bufferView":4,"byteOffset":1888,"componentType":5126,"count":20,"max":[0.8333333],"min":[0.0],"type":"SCALAR","name":"accessorAnimationInput"},{"bufferView":5,"byteOffset":2640,"componentType":5126,"count":20,"type":"VEC3","name":"accessorAnimationPositions"},{"bufferView":4,"byteOffset":1968,"componentType":5126,"count":55,"max":[2.29166675],"min":[0.0],"type":"SCALAR","name":"accessorAnimationInput"},{"bufferView":5,"byteOffset":2880,"componentType":5126,"count":55,"type":"VEC3","name":"accessorAnimationPositions"},{"bufferView":4,"byteOffset":2188,"componentType":5126,"count":20,"max":[0.8333333],"min":[0.0],"type":"SCALAR","name":"accessorAnimationInput"},{"bufferView":5,"byteOffset":3540,"componentType":5126,"count":20,"type":"VEC3","name":"accessorAnimationScales"},{"bufferView":4,"byteOffset":2268,"componentType":5126,"count":20,"max":[0.8333333],"min":[0.0],"type":"SCALAR","name":"accessorAnimationInput"},{"bufferView":5,"byteOffset":3780,"componentType":5126,"count":20,"type":"VEC3","name":"accessorAnimationPositions"}],"bufferViews":[{"buffer":0,"byteLength":11592,"name":"bufferViewScalar"},{"buffer":0,"byteOffset":11592,"byteLength":40824,"byteStride":12,"name":"bufferViewFloatVec3"},{"buffer":0,"byteOffset":52416,"byteLength":27216,"byteStride":16,"name":"bufferViewFloatVec4"},{"buffer":0,"byteOffset":79632,"byteLength":13608,"byteStride":8,"name":"bufferViewFloatVec2"},{"buffer":0,"byteOffset":93240,"byteLength":2348,"name":"bufferViewAnimationFloatScalar"},{"buffer":0,"byteOffset":95588,"byteLength":4020,"name":"bufferViewAnimationFloatVec3"},{"buffer":0,"byteOffset":99608,"byteLength":4032,"name":"bufferViewAnimationFloatVec4"}],"buffers":[{"uri":"lock (anim group transitions).bin","byteLength":103640}],"materials":[{"pbrMetallicRoughness":{"baseColorFactor":[0.8,0.8,0.8,1.0],"baseColorTexture":{"index":0},"metallicRoughnessTexture":{"index":1}},"name":"gold_m"}],"textures":[{"sampler":0,"source":0,"name":"fold 8 D 2 (compressed).png"},{"sampler":0,"source":1,"name":"texture_plain_lambert1_Roughness_2texture_plain_lambert1_Metalness_1.jpg"}],"images":[{"uri":"fold 8 D 2 (compressed).png"},{"uri":"texture_plain_lambert1_Roughness_2texture_plain_lambert1_Metalness_1.jpg"}],"samplers":[{"magFilter":9729,"minFilter":9987}],"animations":[{"channels":[{"sampler":0,"target":{"node":0,"path":"scale"}},{"sampler":1,"target":{"node":0,"path":"rotation"}},{"sampler":2,"target":{"node":0,"path":"translation"}},{"sampler":3,"target":{"node":3,"path":"rotation"}},{"sampler":4,"target":{"node":3,"path":"translation"}}],"samplers":[{"input":20,"output":21},{"input":22,"output":23},{"input":24,"output":25},{"input":26,"output":27},{"input":28,"output":29}],"name":"idle"},{"channels":[{"sampler":0,"target":{"node":0,"path":"rotation"}},{"sampler":1,"target":{"node":0,"path":"translation"}},{"sampler":2,"target":{"node":3,"path":"rotation"}},{"sampler":3,"target":{"node":3,"path":"translation"}}],"samplers":[{"input":30,"output":31},{"input":32,"output":33},{"input":34,"output":35},{"input":36,"output":37}],"name":"signature"},{"channels":[{"sampler":0,"target":{"node":0,"path":"translation"}}],"samplers":[{"input":38,"output":39}],"name":"slide_in_L"},{"channels":[{"sampler":0,"target":{"node":0,"path":"scale"}},{"sampler":1,"target":{"node":0,"path":"translation"}}],"samplers":[{"input":40,"output":41},{"input":42,"output":43}],"name":"slide_out_L"},{"channels":[{"sampler":0,"target":{"node":0,"path":"translation"}}],"samplers":[{"input":44,"output":45}],"name":"slide_in_R"},{"channels":[{"sampler":0,"target":{"node":0,"path":"scale"}},{"sampler":1,"target":{"node":0,"path":"translation"}}],"samplers":[{"input":46,"output":47},{"input":48,"output":49}],"name":"slide_out_R"}]}