<?xml version="1.0" standalone="no"?>
<!DOCTYPE svg PUBLIC "-//W3C//DTD SVG 20010904//EN"
 "http://www.w3.org/TR/2001/REC-SVG-20010904/DTD/svg10.dtd">
<svg version="1.0" xmlns="http://www.w3.org/2000/svg"
 width="725.000000pt" height="1152.000000pt" viewBox="0 0 725.000000 1152.000000"
 preserveAspectRatio="xMidYMid meet">

<g transform="translate(0.000000,1152.000000) scale(0.100000,-0.100000)"
fill="#000000" stroke="none">
<path d="M5739 11490 c-31 -5 -524 -66 -1095 -135 -1268 -153 -1649 -199
-2229 -270 -247 -30 -695 -84 -995 -120 -300 -36 -671 -81 -825 -99 -154 -19
-320 -37 -370 -41 -86 -6 -161 -21 -177 -35 -5 -3 -9 -1452 -10 -3220 0 -1768
-5 -4126 -10 -5239 l-9 -2024 33 -54 c76 -126 93 -137 292 -197 133 -41 234
-47 320 -21 27 8 68 15 90 15 23 0 79 7 126 15 47 8 346 49 665 91 549 71 847
109 2000 254 340 43 494 66 505 76 12 12 11 14 -13 14 -15 0 -27 4 -27 9 0 5
-20 12 -45 15 -25 4 -50 13 -57 19 -7 7 -20 13 -28 14 -29 3 -125 42 -123 50
1 5 -10 8 -25 7 -14 0 -38 5 -52 13 -14 7 -32 13 -40 13 -13 0 -13 1 0 11 12
8 9 9 -11 5 -15 -3 -40 1 -57 10 -17 8 -39 17 -49 18 -45 9 -123 39 -123 48 0
5 -5 6 -10 3 -6 -3 -25 -2 -43 4 -103 34 -128 40 -142 35 -12 -5 -14 -2 -8 12
6 16 4 17 -8 7 -11 -9 -33 -6 -104 18 -50 16 -100 29 -113 29 -15 0 -21 4 -16
12 5 8 2 9 -10 5 -10 -4 -50 2 -89 12 -66 18 -130 30 -262 51 -27 4 -95 17
-150 28 -55 11 -138 23 -185 27 -47 3 -119 12 -160 20 -41 8 -118 17 -170 20
-94 7 -126 10 -205 20 -72 9 -410 24 -655 30 -96 2 -187 4 -202 4 -26 1 -26 2
-12 29 7 15 14 32 14 38 0 15 98 27 146 18 21 -4 35 -3 31 2 -3 5 20 9 51 9
32 1 188 5 347 10 350 12 1530 13 1850 2 418 -14 670 -25 760 -32 33 -3 103
-7 155 -10 97 -5 155 -9 315 -20 248 -18 291 -21 810 -71 215 -20 407 -38 428
-40 21 -1 66 -7 100 -13 34 -5 91 -13 127 -17 36 -3 74 -8 85 -10 32 -5 288
-36 305 -36 8 0 57 -9 108 -20 50 -10 96 -17 100 -14 4 3 27 0 51 -5 24 -5 66
-12 95 -14 28 -3 67 -10 86 -15 19 -6 64 -10 100 -10 89 0 292 29 307 43 10
10 13 236 16 1010 2 548 1 997 -3 997 -4 0 -36 -21 -70 -46 -106 -78 -296
-204 -307 -204 -6 0 -13 -3 -15 -7 -4 -11 -86 -63 -98 -63 -5 0 -10 -4 -10
-10 0 -5 -11 -12 -25 -16 -14 -3 -25 -10 -25 -15 0 -5 -6 -9 -13 -9 -7 0 -29
-11 -49 -25 -20 -14 -44 -25 -52 -25 -9 0 -16 -4 -16 -10 0 -5 -6 -10 -13 -10
-7 0 -29 -11 -49 -25 -20 -14 -44 -25 -52 -25 -8 0 -16 -4 -18 -8 -5 -12 -286
-147 -463 -222 -55 -23 -119 -51 -142 -61 -24 -11 -50 -19 -58 -19 -8 0 -15
-4 -15 -10 0 -5 -9 -10 -20 -10 -11 0 -28 -4 -38 -9 -30 -15 -64 -28 -162 -61
-52 -18 -104 -36 -115 -40 -11 -5 -38 -14 -60 -21 -22 -6 -49 -15 -60 -20 -11
-4 -45 -15 -75 -24 -30 -9 -64 -20 -75 -24 -33 -13 -88 -29 -125 -36 -19 -3
-44 -10 -55 -14 -11 -5 -40 -14 -65 -21 -25 -6 -65 -17 -90 -25 -25 -7 -63
-17 -85 -23 -22 -6 -64 -18 -94 -26 -29 -9 -64 -16 -76 -16 -13 0 -25 -3 -27
-7 -1 -5 -55 -18 -118 -31 -63 -13 -160 -34 -215 -47 -55 -13 -134 -29 -175
-35 -41 -6 -90 -16 -108 -22 -18 -5 -72 -16 -120 -24 -207 -35 -379 -65 -402
-69 -41 -9 -509 -75 -600 -86 -148 -17 -604 -66 -635 -68 -16 -1 -39 -2 -50
-3 -11 0 -76 -6 -145 -14 -69 -7 -145 -14 -170 -15 -25 -1 -105 -8 -178 -15
-73 -8 -137 -12 -141 -10 -4 3 -67 -2 -140 -10 -138 -15 -202 -20 -391 -29
-100 -5 -113 -4 -96 8 12 9 16 19 11 27 -4 7 -2 16 6 21 8 5 -12 6 -51 3 -36
-4 -69 -10 -75 -15 -5 -6 -4 -9 3 -9 9 0 10 -5 2 -19 -7 -14 -6 -21 3 -24 15
-5 -71 -16 -185 -22 l-88 -6 0 30 c0 21 -9 37 -35 58 -30 24 -36 35 -40 78 -2
28 -6 1366 -9 2975 -3 1609 -9 3503 -12 4208 l-7 1284 31 -16 c34 -18 -27 -21
742 39 339 26 1088 83 2770 210 547 41 1258 95 1580 120 322 24 830 63 1130
85 300 22 564 43 588 46 l42 5 0 378 c0 291 -3 381 -12 388 -9 6 -128 1 -333
-14 -176 -12 -574 -41 -885 -63 -1052 -76 -2219 -160 -3450 -250 -1643 -119
-1703 -123 -1779 -112 -57 8 -96 7 -170 -4 -60 -9 -126 -13 -176 -9 -78 6
-161 22 -153 30 10 10 -14 7 2088 251 1475 170 2450 285 3105 365 185 23 347
38 368 35 l38 -6 -3 92 -3 93 -45 2 c-25 0 -70 -3 -101 -7z m-2942 -996 c3 -8
-2 -23 -11 -32 -15 -15 -17 -15 -32 0 -21 21 -11 48 16 48 11 0 23 -7 27 -16z
m-108 -66 c-16 -29 -29 -63 -29 -75 0 -32 -18 -29 -26 5 -4 15 -18 44 -31 64
-27 44 -28 48 -8 48 8 0 23 -17 34 -37 l19 -37 21 42 c12 23 28 42 35 42 10 0
6 -15 -15 -52z m-188 -38 c18 -43 24 -66 16 -69 -6 -2 -13 1 -15 8 -6 18 -73
13 -88 -6 -26 -36 -25 -2 2 67 19 48 32 70 42 68 8 -2 28 -32 43 -68z m-213
51 c8 -4 13 -21 11 -37 -1 -16 2 -37 6 -48 5 -10 4 -26 -2 -35 -10 -16 -90
-37 -100 -27 -3 3 -8 37 -11 75 -4 67 -4 69 19 74 41 7 63 7 77 -2z m-1254
-36 c28 -14 33 -21 34 -58 1 -23 -2 -58 -8 -76 -6 -21 -6 -37 -1 -41 15 -8
-48 -104 -78 -118 -14 -7 -47 -16 -73 -19 -42 -5 -51 -3 -73 19 -14 14 -41 36
-61 49 -34 23 -35 26 -30 68 14 107 104 191 204 191 30 0 68 -7 86 -15z m846
-18 c0 -32 2 -33 30 -29 25 4 30 9 30 33 0 19 5 29 15 29 12 0 15 -15 15 -75
0 -60 -3 -75 -15 -75 -10 0 -15 10 -15 33 0 32 -2 33 -30 29 -25 -4 -30 -9
-30 -33 0 -19 -5 -29 -15 -29 -12 0 -15 15 -15 75 0 60 3 75 15 75 10 0 15
-10 15 -33z m-136 -6 c13 -14 14 -21 5 -26 -7 -5 -16 -1 -21 9 -20 36 -78 7
-78 -39 0 -24 23 -55 41 -55 5 0 18 9 29 20 38 38 55 22 18 -17 -21 -22 -62
-30 -84 -15 -37 24 -40 88 -7 125 21 23 75 22 97 -2z m-204 -1 c0 -5 -18 -13
-40 -16 -31 -5 -40 -11 -38 -23 3 -12 12 -15 36 -13 24 2 32 -1 32 -12 0 -12
-10 -16 -34 -16 -29 0 -34 -4 -33 -20 1 -16 8 -20 39 -20 21 0 38 -4 38 -10 0
-5 -8 -10 -19 -10 -10 0 -33 -3 -50 -6 l-31 -6 0 75 c0 51 4 77 13 80 22 10
87 7 87 -3z m-190 -21 c0 -5 -9 -9 -20 -9 -18 0 -20 -7 -20 -65 0 -51 -3 -65
-15 -65 -12 0 -15 14 -15 65 0 56 -3 65 -16 63 -10 -2 -19 2 -21 9 -3 8 12 13
44 15 53 3 63 1 63 -13z m1302 -106 c-10 -4 -8 -8 5 -18 14 -11 16 -16 6 -26
-11 -11 -15 -11 -25 0 -11 10 -10 11 5 6 10 -4 17 -2 17 4 0 6 -7 11 -15 11
-16 0 -20 12 -8 23 3 4 11 7 17 6 6 0 5 -3 -2 -6z m-175 -30 c6 -15 7 -15 14
3 6 15 8 14 8 -10 1 -28 0 -28 -18 -12 -18 17 -19 17 -24 -1 -3 -12 -5 -9 -6
10 -1 30 16 37 26 10z m-159 -21 c2 -12 -1 -22 -6 -22 -6 0 -8 10 -5 21 4 16
2 20 -8 17 -8 -3 -13 -13 -12 -23 1 -11 -2 -14 -8 -8 -14 14 1 44 20 41 9 -2
17 -13 19 -26z m-326 -19 c-5 -24 -6 -25 -12 -8 -8 21 -4 35 9 35 5 0 6 -12 3
-27z m145 -5 c-3 -7 -5 -2 -5 12 0 14 2 19 5 13 2 -7 2 -19 0 -25z m-327 -28
c5 0 11 10 13 23 4 19 4 18 6 -5 1 -22 -4 -28 -19 -28 -15 0 -20 6 -19 28 2
23 2 24 6 5 2 -13 8 -23 13 -23z m-316 -24 c-4 -9 -14 -16 -23 -14 -20 4 -27
38 -9 49 18 11 40 -13 32 -35z m143 12 c-3 -7 -5 -2 -5 12 0 14 2 19 5 13 2
-7 2 -19 0 -25z m-335 3 c-11 -7 -10 -9 3 -15 20 -7 10 -26 -13 -25 -14 0 -13
2 3 9 17 7 17 9 3 9 -10 1 -18 8 -18 16 0 8 8 15 18 15 13 0 14 -2 4 -9z
m-1080 -1151 c5 0 8 9 8 21 0 11 5 17 10 14 14 -8 13 -95 -1 -95 -6 0 -30 14
-55 30 -32 23 -44 38 -44 56 l0 25 37 -26 c21 -14 41 -25 45 -25z m-9 -144
c46 -106 47 -143 2 -56 -32 61 -34 63 -35 33 0 -18 5 -33 10 -33 6 0 10 -11
10 -25 0 -14 -4 -25 -9 -25 -5 0 -11 -8 -14 -17 -3 -16 -5 -16 -11 2 -4 11
-12 28 -17 37 -12 24 -12 61 1 53 6 -4 10 17 10 54 0 34 4 61 8 61 5 0 25 -38
45 -84z m3 -294 c26 -37 40 -124 29 -179 -10 -54 -24 -21 -18 42 6 60 -17 118
-45 113 -27 -5 -29 -89 -2 -113 25 -22 26 -48 3 -43 -26 5 -43 47 -43 110 0
108 31 137 76 70z m-16 -244 c37 -60 23 -194 -17 -170 -34 21 -55 140 -33 183
15 27 27 24 50 -13z m5 -223 c36 -24 55 -42 55 -55 0 -27 -7 -25 -68 15 -33
23 -52 43 -52 55 0 11 2 20 5 20 2 0 29 -16 60 -35z m-1 -104 c12 -21 19 -52
19 -87 0 -43 4 -58 19 -68 12 -8 18 -23 16 -35 -3 -21 -5 -20 -60 14 l-56 35
-1 71 c-1 109 24 137 63 70z m2 -232 c20 -39 23 -131 5 -153 -22 -27 -31 -8
-31 65 0 39 -4 69 -10 69 -5 0 -10 -24 -10 -52 0 -38 -3 -49 -10 -38 -11 17
-13 83 -4 118 9 32 41 28 60 -9z m-21 -199 c29 -18 33 -25 38 -83 7 -72 1
-107 -18 -107 -21 0 -65 41 -65 61 0 23 4 23 34 3 50 -32 45 51 -5 87 -16 11
-29 29 -29 40 0 24 5 24 45 -1z m64 -447 c-1 -80 -3 -99 -9 -73 -5 19 -6 38
-4 42 3 4 -18 24 -46 44 -30 21 -50 43 -50 55 0 25 8 24 53 -6 l37 -26 0 36
c0 19 5 35 10 35 6 0 10 -42 9 -107z m-59 -89 c28 -19 40 -34 40 -51 0 -27 -4
-26 -57 14 -18 13 -33 33 -33 44 0 25 3 24 50 -7z m71 -87 c-14 -14 -26 17
-16 41 6 15 8 14 16 -7 6 -16 6 -28 0 -34z m-65 -23 c29 -21 31 -27 32 -92 1
-47 -3 -75 -13 -88 -15 -18 -16 -18 -39 8 -25 27 -42 102 -30 132 4 11 0 22
-15 32 -12 9 -21 26 -21 41 0 25 0 25 28 8 15 -10 41 -28 58 -41z m-34 -254
c-3 -32 -1 -50 6 -50 6 0 12 17 14 37 7 80 48 26 48 -63 0 -63 -20 -54 -21 9
-1 52 -1 52 -11 17 -20 -69 -18 -67 -33 -47 -17 23 -28 97 -19 131 10 43 21
20 16 -34z m22 -245 c14 -10 22 -12 26 -4 12 18 50 -69 50 -114 0 -29 -3 -38
-9 -27 -6 8 -7 18 -5 22 3 4 0 16 -5 25 -9 16 -10 15 -11 -5 0 -13 -4 -20 -10
-17 -5 3 -10 17 -10 30 0 16 -10 30 -30 42 -19 11 -30 25 -30 40 0 27 7 28 34
8z m22 -140 c23 -35 30 -135 10 -160 -15 -20 -15 -20 -37 2 -18 18 -24 37 -27
88 -2 35 -2 71 2 80 8 23 34 18 52 -10z m23 -291 c0 -31 -4 -52 -10 -49 -5 4
-9 18 -9 31 0 16 -12 36 -30 52 -17 15 -30 36 -30 49 l0 23 39 -26 c38 -25 40
-28 40 -80z m-11 -186 c41 -29 42 -30 42 -87 0 -109 -21 -153 -48 -98 -6 12
-11 16 -11 10 -2 -25 -29 -12 -40 18 -16 46 -15 202 2 193 6 -4 31 -20 55 -36z
m-13 -244 c16 -10 25 -26 25 -41 0 -25 -1 -25 -25 -9 -33 22 -35 21 -35 -18 0
-26 7 -41 30 -59 17 -14 30 -35 30 -47 l0 -21 -39 23 -39 22 -1 74 c-1 99 6
108 54 76z m-10 -226 c23 -15 35 -31 35 -45 0 -13 -2 -23 -5 -23 -3 0 -21 10
-40 23 -23 14 -35 30 -35 45 0 12 2 22 5 22 3 0 21 -10 40 -22z m75 -74 c0
-13 -4 -24 -10 -24 -5 0 -10 14 -10 31 0 17 4 28 10 24 6 -3 10 -17 10 -31z
m-60 -36 c35 -23 50 -40 50 -55 0 -13 -2 -23 -5 -23 -3 0 -28 15 -55 33 -35
22 -50 39 -50 55 0 12 2 22 5 22 3 0 28 -15 55 -32z m6 -113 c7 -19 14 -58 14
-87 0 -42 4 -56 20 -66 19 -12 29 -52 12 -52 -4 0 -30 16 -59 35 l-51 34 -1
68 c-1 84 5 103 30 103 13 0 25 -12 35 -35z m14 -262 c0 -26 -3 -25 -52 9 -18
12 -28 28 -28 44 l0 24 40 -26 c28 -19 40 -34 40 -51z m40 -24 c0 -17 -4 -28
-10 -24 -5 3 -10 17 -10 31 0 13 5 24 10 24 6 0 10 -14 10 -31z m-38 -114 c6
-106 -5 -123 -57 -89 -16 10 -25 26 -25 41 0 25 1 25 25 9 30 -20 31 -20 39
-1 9 24 -13 71 -39 85 -18 9 -25 22 -25 42 l0 28 39 -28 c37 -26 39 -30 43
-87z m-90 -182 c-1 -32 2 -65 8 -73 7 -11 10 0 10 40 0 30 5 62 10 70 8 13 12
12 31 -6 26 -27 37 -83 31 -157 l-4 -56 -43 29 c-25 17 -47 43 -54 61 -12 35
-15 142 -4 152 12 13 16 -3 15 -60z m118 -380 c0 -27 0 -27 -67 19 -31 21 -43
36 -43 54 l0 24 55 -36 c41 -28 55 -43 55 -61z m-37 -62 c12 -15 17 -111 6
-111 -4 0 -10 16 -13 35 -5 22 -18 43 -36 57 -19 13 -30 31 -30 45 l0 24 31
-18 c17 -10 36 -24 42 -32z m13 -205 c0 -60 -10 -66 -20 -12 -4 23 -17 43 -36
56 -20 14 -30 30 -30 46 l0 25 44 -30 c42 -29 43 -31 42 -85z m-19 -78 c20
-38 24 -141 6 -159 -22 -22 -33 2 -33 72 0 49 -3 68 -11 63 -7 -4 -9 -24 -6
-50 5 -51 -8 -69 -17 -23 -9 44 -8 74 4 103 13 35 36 33 57 -6z m-45 -229 c-3
-37 -2 -50 7 -45 6 4 11 23 11 42 0 44 24 46 39 3 14 -40 14 -119 1 -119 -5 0
-10 24 -10 53 0 37 -3 48 -10 37 -5 -8 -10 -27 -10 -42 0 -34 -16 -44 -29 -20
-15 29 -24 97 -17 127 11 44 23 19 18 -36z m34 -155 c22 -17 34 -35 34 -51 l0
-24 -45 31 c-27 19 -45 39 -45 50 0 27 15 25 56 -6z m70 -59 c4 -14 3 -29 0
-33 -9 -8 -26 18 -26 41 0 26 19 20 26 -8z m-105 -65 c-2 -57 16 -69 21 -13 7
84 48 25 48 -69 0 -30 -4 -47 -10 -43 -5 3 -10 30 -10 58 0 37 -3 48 -10 37
-5 -8 -10 -27 -10 -42 0 -31 -13 -43 -28 -25 -15 18 -25 92 -17 127 10 45 19
28 16 -30z m28 -162 c11 -11 14 -10 18 0 7 17 23 5 23 -19 0 -10 5 -19 10 -19
6 0 10 -11 10 -25 0 -14 -4 -25 -10 -25 -5 0 -10 -7 -10 -15 0 -8 -4 -15 -10
-15 -5 0 -10 11 -10 23 0 25 -32 62 -43 50 -4 -3 -7 -16 -8 -27 0 -19 -1 -19
-10 3 -12 30 -2 81 15 81 7 0 18 -6 25 -12z m41 -195 c0 -13 -2 -23 -5 -23 -3
0 -21 10 -40 23 -26 16 -35 29 -35 50 l0 28 40 -28 c26 -18 40 -36 40 -50z
m40 -30 c0 -13 -4 -23 -9 -23 -12 0 -23 48 -15 62 9 14 24 -10 24 -39z m-10
-91 c0 -18 -4 -22 -17 -18 -16 5 -18 0 -15 -42 3 -58 -10 -82 -35 -66 -36 22
-46 63 -44 171 l1 52 55 -37 c39 -27 54 -44 55 -60z m0 -239 c0 -27 0 -27 -67
19 -31 21 -43 36 -43 54 l0 24 55 -36 c41 -28 55 -43 55 -61z m-54 -38 c19
-29 30 -143 16 -164 -6 -8 -17 -11 -26 -8 -13 5 -16 22 -17 79 0 50 -3 67 -9
53 -5 -11 -6 -35 -3 -52 3 -21 1 -33 -6 -33 -12 0 -16 106 -5 134 9 24 31 19
50 -9z m49 -443 c0 -50 -4 -94 -8 -99 -5 -4 -17 2 -26 14 -12 14 -22 18 -28
12 -23 -23 -38 24 -41 128 l-4 105 54 -34 53 -35 0 -91z m-53 -134 c23 -16 27
-25 27 -73 0 -32 -4 -53 -10 -50 -5 4 -9 18 -9 31 0 16 -12 36 -30 52 -17 15
-30 36 -30 50 0 25 3 24 52 -10z m-5 -197 c4 -39 9 -57 14 -49 5 7 6 31 2 52
-4 28 -3 37 5 32 15 -9 16 -132 2 -141 -5 -3 -23 2 -40 12 -29 17 -30 19 -30
93 0 42 3 80 7 84 15 15 35 -25 40 -83z m-2 -153 l35 -23 0 -82 c0 -45 -5 -85
-10 -88 -18 -11 -70 34 -70 61 0 24 1 24 22 10 32 -23 38 -20 38 18 0 26 -7
41 -30 59 -16 14 -30 35 -30 46 0 26 2 26 45 -1z m17 -259 c11 -20 18 -56 18
-89 0 -44 4 -58 20 -68 19 -12 29 -52 12 -52 -4 0 -30 16 -59 35 l-51 34 -1
77 c-1 108 25 135 61 63z m388 -206 c-14 -3 -27 -8 -30 -12 -3 -5 -23 -5 -45
-2 l-40 5 35 7 c19 3 51 6 70 6 26 0 28 -1 10 -4z m103 0 c-13 -2 -23 -8 -23
-13 0 -12 29 -40 43 -41 7 -1 2 -4 -11 -7 -35 -11 -232 -2 -204 9 12 4 22 13
22 18 0 7 9 7 26 1 30 -12 58 -12 29 -1 -17 7 -12 10 25 20 25 7 50 14 55 16
6 2 21 3 35 3 23 -1 23 -1 3 -5z m845 -450 c6 -2 12 2 12 8 0 8 4 8 15 -1 8
-6 23 -9 35 -5 13 4 20 2 20 -7 0 -10 3 -9 10 2 9 13 12 13 21 -3 8 -14 14
-16 24 -7 8 7 20 8 26 4 7 -4 37 -6 67 -5 43 2 52 0 46 -11 -6 -10 -5 -11 7
-1 8 7 32 10 54 7 49 -5 144 -13 208 -17 27 -2 47 1 47 7 0 6 5 5 12 -2 16
-16 68 -15 69 1 0 10 2 10 6 0 2 -7 12 -13 21 -13 10 0 26 -7 36 -15 10 -8 23
-12 29 -8 6 3 7 1 3 -5 -5 -8 0 -12 13 -12 12 0 21 -5 21 -11 0 -5 4 -8 9 -5
5 4 12 0 14 -6 4 -10 8 -9 16 2 9 13 11 13 11 -1 0 -19 69 -59 101 -59 16 0
18 -2 7 -14 -7 -8 -15 -14 -18 -13 -3 0 -17 -5 -31 -11 -15 -6 -35 -12 -45
-14 -23 -4 -43 -20 -37 -30 6 -11 -11 -10 -23 2 -6 6 -15 6 -24 0 -13 -8 -12
-10 3 -10 10 0 15 -5 11 -11 -3 -6 -17 -8 -30 -5 -18 5 -22 3 -18 -9 5 -13 2
-14 -20 -5 -20 7 -25 7 -20 -2 5 -8 2 -9 -9 -5 -10 4 -17 2 -17 -4 0 -6 -7 -9
-15 -5 -9 3 -15 0 -15 -10 0 -13 -8 -15 -40 -11 -22 2 -40 1 -40 -2 0 -9 -44
-15 -97 -14 -27 0 -40 -3 -36 -10 4 -6 0 -8 -9 -5 -8 4 -21 2 -29 -2 -8 -5
-19 -4 -27 2 -10 9 -16 8 -23 -3 -8 -13 -13 -6 -10 14 0 4 -3 7 -9 7 -5 0 -10
-7 -10 -15 0 -18 -5 -19 -32 -4 -15 8 -19 8 -14 0 4 -6 0 -11 -11 -12 -10 0
-29 -2 -42 -5 -13 -2 -31 1 -39 8 -13 11 -14 11 -8 -1 7 -11 1 -13 -28 -9 -20
2 -36 0 -36 -5 0 -5 -7 -4 -15 3 -11 9 -15 10 -15 1 0 -8 -8 -10 -21 -6 -15 5
-19 4 -15 -4 10 -15 -7 -14 -23 2 -11 10 -14 9 -18 -2 -5 -11 -7 -11 -14 0 -7
11 -11 12 -17 1 -10 -15 -122 -23 -139 -9 -9 6 -13 5 -13 -3 0 -10 -3 -10 -15
0 -8 6 -19 9 -24 6 -5 -4 -12 -2 -16 4 -7 11 -33 9 -53 -3 -7 -5 -14 -3 -18 6
-3 9 -20 14 -45 14 -42 0 -61 15 -52 40 3 8 0 13 -8 11 -7 -2 -14 4 -15 12 0
8 -2 18 -4 23 -1 4 -3 10 -4 15 -1 4 -7 17 -14 29 -11 19 -10 25 8 43 11 11
20 27 20 35 0 8 7 15 15 15 8 0 15 8 15 19 0 15 52 69 69 72 3 0 15 3 26 5 11
3 40 7 65 9 25 2 52 6 60 9 8 3 26 7 40 9 14 2 33 7 42 11 9 4 23 9 32 10 8 1
19 5 23 9 3 4 9 4 12 0 3 -5 12 -9 19 -10z"/>
<path d="M2443 10396 c-11 -34 -10 -36 13 -36 27 0 30 14 10 48 -12 23 -12 23
-23 -12z"/>
<path d="M2220 10400 c0 -23 29 -27 48 -8 19 19 14 28 -18 28 -23 0 -30 -4
-30 -20z"/>
<path d="M2220 10339 c0 -16 5 -20 27 -17 17 2 29 10 31 21 3 13 -3 17 -27 17
-25 0 -31 -4 -31 -21z"/>
<path d="M1464 10146 c-8 -22 3 -33 18 -18 9 9 9 15 0 24 -9 9 -13 7 -18 -6z"/>
<path d="M167 8284 c-13 -13 -7 -72 9 -85 13 -10 17 -10 25 2 17 25 -15 102
-34 83z"/>
<path d="M160 7929 c0 -33 15 -69 30 -69 16 0 22 44 11 73 -15 38 -41 36 -41
-4z"/>
<path d="M190 7677 c0 -30 4 -46 10 -42 13 8 13 55 0 75 -7 11 -10 2 -10 -33z"/>
<path d="M165 6850 c-8 -33 10 -80 30 -80 22 0 19 53 -4 81 l-19 24 -7 -25z"/>
<path d="M165 6220 c-7 -22 14 -75 30 -75 15 0 18 64 4 81 -16 19 -26 18 -34
-6z"/>
<path d="M170 5716 c0 -30 5 -58 10 -61 6 -4 10 15 10 49 0 30 -4 58 -10 61
-6 4 -10 -15 -10 -49z"/>
<path d="M210 5701 c0 -47 9 -73 21 -65 16 9 11 91 -6 98 -12 4 -15 -3 -15
-33z"/>
<path d="M170 5049 c0 -33 15 -69 29 -69 16 0 22 33 10 67 -14 42 -39 44 -39
2z"/>
<path d="M176 4483 c-8 -19 11 -83 25 -83 15 0 22 50 10 76 -12 28 -26 31 -35
7z"/>
<path d="M200 3717 c0 -30 4 -46 10 -42 13 8 13 55 0 75 -7 11 -10 2 -10 -33z"/>
<path d="M175 2809 c-8 -12 2 -59 17 -76 16 -19 28 -6 28 31 0 43 -29 72 -45
45z"/>
<path d="M200 2446 c0 -19 5 -38 10 -41 6 -4 10 10 10 34 0 23 -4 41 -10 41
-5 0 -10 -15 -10 -34z"/>
<path d="M180 2115 c0 -30 5 -55 10 -55 6 0 10 25 10 55 0 30 -4 55 -10 55 -5
0 -10 -25 -10 -55z"/>
<path d="M222 2094 c2 -28 8 -49 16 -52 10 -3 12 8 10 44 -2 28 -8 49 -16 52
-10 3 -12 -8 -10 -44z"/>
<path d="M170 1758 c0 -13 5 -30 10 -38 7 -11 10 -5 10 23 0 20 -4 37 -10 37
-5 0 -10 -10 -10 -22z"/>
<path d="M180 1282 c0 -35 14 -62 31 -62 13 0 17 42 7 71 -15 43 -38 38 -38
-9z"/>
<path d="M5103 8574 l-73 -66 0 -831 0 -832 -75 -65 c-41 -36 -70 -67 -64 -69
6 -2 40 0 75 4 62 6 68 9 138 73 l74 67 1 893 c1 490 0 892 -1 892 -2 0 -36
-30 -75 -66z"/>
<path d="M4934 8621 c-58 -6 -65 -9 -132 -71 l-70 -65 -1 -395 c-1 -217 -5
-400 -9 -406 -8 -13 -453 -57 -464 -46 -4 4 2 185 13 402 l19 395 78 73 77 73
-70 -7 c-65 -6 -74 -10 -125 -54 -107 -93 -97 -60 -119 -375 -44 -609 -44
-605 -31 -635 7 -16 24 -33 38 -38 18 -6 119 0 294 16 147 13 275 22 283 18
13 -5 15 -52 15 -345 l0 -341 -42 -38 c-24 -21 -59 -53 -78 -71 l-35 -32 75 6
74 7 78 70 78 70 0 831 0 830 73 68 c39 38 65 68 57 67 -8 -1 -43 -4 -76 -7z"/>
<path d="M4610 8593 c-14 -3 -58 -35 -99 -72 l-73 -67 -13 -320 c-6 -175 -9
-322 -6 -326 3 -4 38 -4 76 0 l70 7 5 327 5 327 73 65 73 66 -43 -1 c-24 -1
-54 -4 -68 -6z"/>
<path d="M4025 8543 c-11 -2 -53 -34 -93 -71 l-72 -67 -41 -450 c-41 -458 -43
-522 -14 -607 34 -97 141 -183 246 -195 46 -5 313 12 352 23 16 5 17 -12 17
-250 0 -141 3 -256 6 -256 3 0 37 28 75 63 l69 62 0 273 0 272 -32 0 c-18 -1
-120 -9 -227 -19 -228 -22 -264 -17 -318 41 -37 39 -55 96 -54 173 0 38 16
252 36 475 l35 405 73 67 72 67 -55 -1 c-30 0 -64 -3 -75 -5z"/>
<path d="M2850 8439 c-173 -15 -330 -28 -348 -28 l-34 -1 65 -73 65 -72 254
22 c332 28 409 29 464 3 50 -24 89 -78 103 -140 7 -29 10 -305 10 -755 l0
-710 -74 -65 c-40 -35 -72 -66 -70 -68 2 -2 37 -1 78 3 l74 7 77 70 77 70 -3
772 -3 771 -28 57 c-34 69 -101 131 -164 152 -64 22 -168 19 -543 -15z"/>
<path d="M2470 8170 l1 -85 65 -69 64 -69 246 22 c135 12 249 19 255 16 5 -4
9 -262 9 -668 l0 -662 -74 -65 c-41 -36 -72 -67 -70 -69 1 -2 36 0 76 3 73 7
74 8 150 74 l77 67 1 723 0 723 -25 24 c-30 31 -22 31 -365 0 l-275 -25 -67
73 -68 72 0 -85z"/>
<path d="M2470 7847 l0 -79 67 -69 66 -69 94 6 93 7 0 -572 0 -572 80 73 81
73 -6 575 c-4 316 -8 580 -10 585 -2 7 -57 6 -168 -3 l-165 -14 -66 68 -65 69
-1 -78z"/>
<path d="M5950 6279 c-83 -25 -130 -95 -116 -172 9 -47 45 -80 117 -106 70
-26 83 -46 48 -74 -24 -19 -57 -20 -141 -1 -28 6 -28 6 -28 -49 0 -53 1 -55
31 -61 164 -32 302 64 274 192 -8 40 -40 67 -110 96 -71 29 -89 50 -60 72 19
15 64 14 120 -1 18 -5 23 1 37 44 14 46 14 50 -1 56 -31 12 -136 14 -171 4z"/>
<path d="M5515 6231 l-60 -6 -3 -227 -2 -228 37 0 c80 0 83 4 83 85 l0 73 43
7 c23 4 59 16 80 27 91 46 113 181 41 249 -21 19 -37 24 -92 25 -37 1 -94 -1
-127 -5z m119 -97 c19 -7 22 -67 3 -82 -6 -6 -24 -13 -40 -17 -27 -7 -27 -7
-27 42 0 27 3 53 7 56 8 9 36 9 57 1z"/>
<path d="M5248 6203 c-17 -4 -18 -23 -18 -227 0 -122 2 -225 5 -227 6 -7 113
5 121 13 3 4 3 106 -1 227 l-8 221 -41 -1 c-22 -1 -49 -3 -58 -6z"/>
<path d="M4950 6174 c-63 -7 -118 -13 -122 -13 -5 -1 -8 -24 -8 -52 l0 -51 60
7 60 7 0 -179 0 -178 58 5 57 5 3 175 c2 124 6 176 15 182 6 4 31 8 55 8 l42
0 0 50 0 50 -52 -1 c-29 -1 -105 -7 -168 -15z"/>
<path d="M4523 6133 l-32 -4 -3 -156 -3 -155 -79 143 c-43 79 -80 146 -82 148
-1 2 -39 0 -83 -4 l-81 -7 0 -230 0 -229 53 3 52 3 5 157 5 157 80 -147 c72
-132 83 -147 105 -145 14 1 51 5 83 8 l57 6 0 230 0 229 -22 -2 c-13 0 -38 -3
-55 -5z"/>
<path d="M3930 6074 c-63 -7 -116 -13 -117 -13 -2 -1 -3 -105 -3 -232 l0 -231
43 5 c23 4 74 9 112 12 118 10 115 8 115 65 l0 50 -70 -6 -70 -7 0 40 c0 46
11 53 88 53 l42 0 0 54 c0 49 -2 53 -22 50 -13 -2 -42 -5 -66 -8 l-43 -4 3 36
c3 34 5 37 38 40 98 7 100 8 100 62 0 41 -3 50 -17 49 -10 -1 -70 -7 -133 -15z"/>
<path d="M3393 6023 l-53 -4 0 -235 0 -236 28 6 c15 2 59 8 97 11 117 11 193
55 238 140 17 32 22 57 22 125 0 103 -22 147 -89 179 -43 21 -95 24 -243 14z
m177 -111 c28 -23 39 -111 20 -167 -14 -41 -59 -75 -102 -75 l-28 0 0 123 c0
68 3 127 7 130 13 14 81 6 103 -11z"/>
<path d="M2998 5983 l-38 -4 0 -228 c0 -125 2 -230 4 -232 3 -3 72 2 153 11
l148 15 0 50 c0 28 -4 49 -10 49 -5 -1 -45 -5 -87 -8 l-78 -7 0 181 0 180 -27
-2 c-16 -1 -45 -3 -65 -5z"/>
<path d="M2598 5946 c-63 -17 -111 -56 -139 -113 -20 -40 -24 -64 -24 -138 0
-76 4 -96 24 -131 33 -58 83 -84 163 -84 35 0 85 7 111 16 59 20 120 87 136
149 23 93 8 209 -36 257 -46 52 -139 70 -235 44z m129 -123 c27 -41 25 -162
-3 -200 -26 -35 -75 -50 -110 -34 -49 22 -69 124 -39 199 21 49 40 62 92 62
35 0 46 -5 60 -27z"/>
<path d="M2117 5896 c-117 -43 -167 -118 -167 -251 0 -101 25 -158 86 -193 35
-21 48 -23 129 -18 50 2 111 12 138 21 l47 17 0 130 c0 118 -1 129 -17 124
-10 -2 -55 -8 -100 -11 l-83 -7 0 -50 0 -50 40 4 40 4 0 -37 c0 -34 -3 -37
-34 -43 -43 -8 -80 6 -102 39 -12 19 -15 41 -12 95 3 63 7 73 36 103 31 31 35
32 111 31 l78 -1 16 45 c10 25 15 48 11 51 -13 13 -180 11 -217 -3z"/>
<path d="M6117 5806 c-70 -19 -127 -63 -156 -121 -37 -70 -37 -190 -1 -255 36
-66 94 -93 180 -87 36 3 90 14 120 24 l55 18 3 124 3 124 -68 -6 c-37 -4 -80
-7 -95 -7 -27 0 -28 -2 -28 -51 l0 -52 41 6 40 5 -3 -36 c-3 -33 -7 -37 -38
-43 -71 -15 -110 28 -110 121 0 60 23 110 60 130 23 12 123 16 140 5 13 -8 54
85 42 97 -16 16 -135 18 -185 4z"/>
<path d="M5752 5761 c-11 -6 -12 -40 -8 -162 l6 -154 -83 150 -83 150 -49 -3
c-28 -2 -62 -5 -77 -8 l-28 -6 0 -226 0 -227 50 3 50 4 0 161 0 162 83 -152
82 -152 55 5 c30 3 65 7 78 10 l22 4 0 225 0 225 -42 0 c-24 0 -49 -4 -56 -9z"/>
<path d="M5241 5711 l-34 -6 2 -225 c1 -123 3 -226 4 -227 2 -1 28 1 60 4 l57
6 0 228 0 229 -27 -1 c-16 -1 -43 -4 -62 -8z"/>
<path d="M4840 5673 c-19 -2 -50 -6 -67 -9 l-33 -5 0 -230 0 -229 38 5 c225
30 257 44 316 136 24 39 37 131 26 191 -23 121 -99 159 -280 141z m125 -116
c32 -27 43 -91 26 -155 -13 -48 -56 -82 -103 -82 l-28 0 0 124 c0 90 3 126 13
129 29 12 68 5 92 -16z"/>
<path d="M4425 5631 l-50 -6 -3 -220 c-1 -121 -1 -224 2 -230 2 -7 50 -6 150
4 l146 15 0 52 c0 38 -4 52 -12 49 -7 -2 -46 -6 -85 -10 l-73 -6 -2 177 c-2
108 -7 178 -13 179 -5 1 -32 -1 -60 -4z"/>
<path d="M4168 5603 c-17 -4 -18 -24 -18 -235 l0 -230 31 6 c17 3 44 6 60 6
l29 0 0 230 0 230 -42 -1 c-24 -1 -51 -3 -60 -6z"/>
<path d="M3958 5583 l-28 -4 0 -160 c0 -156 -1 -160 -25 -184 -29 -30 -75 -33
-98 -7 -14 16 -17 43 -17 175 l0 157 -42 0 c-92 0 -88 7 -88 -164 0 -176 8
-214 55 -255 84 -74 254 -39 312 64 21 37 23 52 23 213 l0 172 -32 -1 c-18 -1
-45 -4 -60 -6z"/>
<path d="M3313 5518 l-83 -10 0 -229 0 -229 33 0 c18 0 70 5 116 10 124 16
183 52 202 122 14 53 -3 103 -40 119 l-29 13 28 28 c50 49 48 129 -4 163 -32
21 -118 26 -223 13z m125 -100 c26 -26 8 -57 -42 -68 l-36 -8 0 44 c0 43 1 44
33 44 18 0 38 -5 45 -12z m14 -181 c23 -36 -12 -77 -64 -77 -26 0 -28 3 -28
44 0 34 4 46 18 49 24 7 65 -2 74 -16z"/>
<path d="M2735 5458 c-49 -4 -96 -10 -102 -13 -10 -3 -13 -59 -13 -229 0 -124
3 -226 8 -229 4 -2 33 -1 65 1 l57 4 0 90 c0 78 2 89 17 86 9 -2 35 -33 57
-70 57 -93 53 -91 130 -81 l66 8 -66 93 -65 93 35 40 c31 34 36 46 36 90 0 28
-5 59 -10 69 -24 45 -88 59 -215 48z m89 -104 c9 -8 16 -24 16 -34 0 -22 -45
-60 -71 -60 -16 0 -19 8 -19 48 0 27 3 52 7 55 12 13 51 7 67 -9z"/>
<path d="M2268 5417 c-72 -21 -122 -59 -149 -114 -33 -66 -35 -220 -3 -273 42
-72 130 -103 229 -81 124 28 186 104 193 238 6 112 -25 186 -94 222 -36 18
-125 22 -176 8z m102 -107 c37 -20 52 -132 26 -194 -24 -57 -86 -83 -136 -56
-38 20 -53 130 -26 194 24 57 86 83 136 56z"/>
<path d="M2000 5384 c-8 -1 -68 -8 -132 -15 l-118 -11 0 -235 0 -234 53 6 c81
10 77 5 77 99 l0 85 43 5 c23 3 53 7 67 8 23 3 25 7 25 53 l0 50 -40 -3 c-22
-1 -52 -5 -67 -8 -27 -5 -28 -4 -28 39 l0 46 58 6 c31 3 64 7 72 8 11 2 16 17
18 55 2 28 -1 51 -5 51 -4 -1 -15 -3 -23 -5z"/>
<path d="M5935 5295 c-60 -7 -111 -13 -112 -14 -2 -1 -3 -102 -3 -226 l0 -225
38 1 c20 0 80 6 132 12 l95 12 3 49 3 49 -75 -6 -76 -7 0 45 c0 44 1 45 33 45
17 0 49 3 70 6 37 7 37 7 37 55 l0 49 -71 -6 -70 -7 3 34 3 34 73 8 72 9 0 49
c0 57 16 53 -155 34z"/>
<path d="M5513 5252 l-53 -3 0 -230 c0 -202 2 -229 16 -229 20 0 198 19 242
26 31 5 32 6 32 55 l0 50 -32 -5 c-18 -3 -57 -8 -85 -11 l-53 -6 0 175 c0 96
-3 176 -7 178 -5 2 -32 2 -60 0z"/>
<path d="M5160 5214 c-8 -1 -41 -6 -72 -9 l-58 -6 0 -230 0 -229 48 6 c149 18
183 24 216 39 92 44 114 168 38 212 l-29 17 28 23 c56 48 46 143 -17 169 -30
13 -114 17 -154 8z m78 -123 c5 -30 -20 -51 -60 -51 -26 0 -28 3 -28 41 l0 40
43 -3 c36 -3 42 -6 45 -27z m0 -153 c16 -16 15 -53 0 -66 -7 -6 -30 -13 -50
-17 l-38 -7 0 44 c0 25 3 48 7 51 11 12 68 8 81 -5z"/>
<path d="M4853 5183 l-43 -4 0 -230 0 -229 23 0 c12 0 39 3 60 6 l37 7 0 228
c0 212 -1 229 -17 227 -10 -1 -37 -3 -60 -5z"/>
<path d="M4555 5151 l-150 -16 -3 -52 -3 -52 56 6 55 6 0 -177 0 -176 34 0
c18 0 48 3 65 6 l31 7 0 178 0 179 33 0 c68 0 77 8 77 61 0 57 22 54 -195 30z"/>
<path d="M4186 5119 c-93 -22 -143 -84 -133 -166 6 -59 34 -86 118 -119 70
-26 84 -45 57 -72 -14 -14 -116 -16 -152 -2 -26 9 -26 9 -26 -46 0 -66 6 -69
105 -68 140 1 215 71 206 189 -4 42 -43 80 -112 105 -71 27 -89 44 -67 67 16
16 65 20 116 8 28 -6 31 -4 47 40 10 25 15 48 12 51 -8 8 -85 23 -112 23 -11
-1 -38 -5 -59 -10z"/>
<path d="M3890 5081 l-45 -6 0 -230 0 -230 45 3 c87 6 80 -15 80 243 0 212 -1
229 -17 227 -10 0 -38 -4 -63 -7z"/>
<path d="M3541 5039 c-57 -29 -81 -69 -81 -137 0 -47 4 -58 29 -81 17 -16 57
-38 91 -50 64 -24 80 -41 60 -66 -19 -23 -73 -28 -134 -12 l-56 14 0 -54 c0
-48 3 -54 26 -63 34 -13 119 -13 168 1 21 6 57 28 79 48 37 35 41 43 45 97 5
78 -14 103 -109 140 -75 30 -90 44 -68 70 11 13 26 15 80 11 l67 -6 17 45 c9
25 14 48 10 52 -4 4 -46 8 -93 10 -74 3 -94 0 -131 -19z"/>
<path d="M3280 5019 c-41 -4 -94 -11 -117 -14 l-43 -6 0 -230 0 -229 28 1 c15
0 74 6 132 12 l105 12 3 53 3 54 -28 -6 c-15 -3 -48 -6 -73 -8 l-45 -3 -3 41
c-3 41 -2 41 35 47 21 4 53 7 71 7 l32 0 0 53 0 53 -62 -7 c-35 -4 -66 -5 -70
-3 -5 3 -8 18 -8 34 0 32 14 40 68 40 73 0 82 7 82 61 0 41 -3 49 -17 48 -10
-1 -52 -5 -93 -10z"/>
<path d="M2733 4963 l-53 -4 0 -236 0 -236 38 7 c20 3 49 6 64 6 l27 0 3 87
c2 52 7 88 14 90 6 2 33 -32 60 -77 36 -59 54 -80 70 -80 40 0 114 13 114 20
0 3 -27 43 -60 88 -33 45 -60 86 -60 91 0 4 9 16 21 27 57 52 66 135 20 186
-29 32 -31 33 -118 34 -48 1 -112 -1 -140 -3z m138 -93 c43 -24 10 -100 -43
-100 -15 0 -18 9 -18 49 0 58 18 73 61 51z"/>
<path d="M2375 4924 c-11 -2 -46 -6 -77 -9 l-58 -6 0 -234 0 -233 43 5 c93 10
87 3 87 98 0 110 14 111 77 5 47 -80 48 -81 83 -75 19 2 50 5 68 5 17 0 32 4
32 10 0 5 -28 48 -61 95 l-62 86 25 27 c37 40 48 65 48 115 0 90 -76 131 -205
111z m70 -110 c28 -28 2 -77 -47 -89 l-28 -7 0 56 c0 55 0 56 29 56 16 0 37
-7 46 -16z"/>
<path d="M2060 4891 l-45 -6 -3 -234 -2 -234 46 7 c26 3 55 6 65 6 18 0 19 13
19 235 0 218 -1 235 -17 233 -10 0 -38 -4 -63 -7z"/>
<path d="M4858 4693 l-48 -4 0 -231 0 -231 70 7 c160 15 231 49 280 136 21 38
25 58 25 130 0 97 -15 134 -67 172 -28 20 -46 23 -123 24 -49 1 -111 -1 -137
-3z m181 -119 c40 -51 22 -187 -27 -212 -9 -5 -32 -12 -49 -15 l-33 -6 0 129
0 130 44 0 c36 0 48 -5 65 -26z"/>
<path d="M4613 4662 c-9 -5 -13 -53 -15 -156 l-3 -148 -76 138 c-47 85 -83
140 -94 143 -10 1 -46 0 -81 -4 l-64 -7 0 -229 0 -229 24 0 c13 0 38 3 56 7
l33 6 -5 159 -5 159 23 -41 c13 -23 49 -89 80 -146 30 -57 59 -106 64 -109 5
-3 43 -3 85 1 l75 7 0 228 0 229 -42 0 c-24 0 -48 -4 -55 -8z"/>
<path d="M3977 4600 c-32 -4 -60 -10 -64 -13 -3 -3 -36 -105 -73 -226 -37
-121 -70 -225 -72 -232 -2 -6 -20 13 -40 42 -20 30 -49 71 -64 92 l-28 38 22
15 c53 37 71 134 35 183 -35 47 -58 53 -176 46 -60 -3 -115 -9 -123 -12 -12
-4 -14 -45 -14 -235 l0 -231 38 7 c20 3 47 6 60 6 21 0 22 4 22 85 0 77 2 85
19 85 13 0 32 -23 61 -71 23 -38 48 -73 55 -75 8 -3 69 0 137 8 l123 13 14 45
c8 25 14 46 15 46 1 1 33 5 73 9 l72 7 12 -41 c13 -45 18 -46 102 -35 l45 7
-76 223 c-67 196 -79 224 -97 223 -11 -1 -46 -5 -78 -9z m43 -178 c12 -46 21
-84 19 -86 -2 -2 -24 -6 -48 -10 -42 -6 -43 -6 -38 16 4 13 14 56 24 95 9 40
18 72 19 70 1 -1 12 -39 24 -85z m-442 16 c29 -29 -6 -88 -53 -88 -23 0 -25 3
-25 50 0 50 0 50 33 50 18 0 38 -5 45 -12z"/>
<path d="M3055 4498 c-49 -5 -96 -10 -102 -13 -10 -3 -13 -59 -13 -234 l0
-231 48 6 c212 25 230 30 275 84 52 61 41 161 -18 176 l-25 6 29 27 c34 32 49
91 33 126 -24 53 -81 66 -227 53z m93 -100 c29 -29 8 -63 -46 -74 -32 -6 -32
-6 -32 34 0 23 5 43 13 45 22 10 53 7 65 -5z m12 -183 c16 -19 5 -62 -18 -68
-75 -21 -72 -22 -72 33 l0 50 39 0 c22 0 44 -6 51 -15z"/>
<path d="M2928 1603 c7 -3 16 -2 19 1 4 3 -2 6 -13 5 -11 0 -14 -3 -6 -6z"/>
<path d="M2658 1543 c7 -3 16 -2 19 1 4 3 -2 6 -13 5 -11 0 -14 -3 -6 -6z"/>
</g>
</svg>
