{"asset":{"version":"2.0","generator":"babylon.js glTF exporter for Maya 2018 v20200429.2"},"scene":0,"scenes":[{"nodes":[0]}],"nodes":[{"children":[1,2],"translation":[-5.760325E-05,0.0109678553,-0.000562568137],"rotation":[0.01042741,0.00659757154,-0.0009982225,0.999923348],"name":"eye_group2"},{"mesh":0,"name":"eye","extras":{"currentUVSet":"map1"}},{"mesh":1,"name":"focus","extras":{"currentUVSet":"map1"}}],"meshes":[{"primitives":[{"attributes":{"POSITION":1,"TANGENT":2,"NORMAL":3,"COLOR_0":4,"TEXCOORD_0":5},"indices":0,"material":0}],"name":"eye"},{"primitives":[{"attributes":{"POSITION":7,"TANGENT":8,"NORMAL":9,"COLOR_0":10,"TEXCOORD_0":11},"indices":6,"material":0}],"name":"focus"}],"accessors":[{"bufferView":0,"componentType":5123,"count":756,"type":"SCALAR","name":"accessorIndices"},{"bufferView":1,"componentType":5126,"count":268,"max":[0.005147705,0.0448857136,0.0323323347],"min":[-0.005142636,0.0090912,-0.0323356725],"type":"VEC3","name":"accessorPositions"},{"bufferView":2,"componentType":5126,"count":268,"type":"VEC4","name":"accessorTangents"},{"bufferView":1,"byteOffset":3216,"componentType":5126,"count":268,"type":"VEC3","name":"accessorNormals"},{"bufferView":2,"byteOffset":4288,"componentType":5126,"count":268,"type":"VEC4","name":"accessorColors"},{"bufferView":3,"componentType":5126,"count":268,"type":"VEC2","name":"accessorUVs"},{"bufferView":0,"byteOffset":1512,"componentType":5123,"count":2160,"type":"SCALAR","name":"accessorIndices"},{"bufferView":1,"byteOffset":6432,"componentType":5126,"count":750,"max":[0.00521533238,0.05152689,0.02997195],"min":[-0.005245299,0.002429762,-0.02990934],"type":"VEC3","name":"accessorPositions"},{"bufferView":2,"byteOffset":8576,"componentType":5126,"count":750,"type":"VEC4","name":"accessorTangents"},{"bufferView":1,"byteOffset":15432,"componentType":5126,"count":750,"type":"VEC3","name":"accessorNormals"},{"bufferView":2,"byteOffset":20576,"componentType":5126,"count":750,"type":"VEC4","name":"accessorColors"},{"bufferView":3,"byteOffset":2144,"componentType":5126,"count":750,"type":"VEC2","name":"accessorUVs"},{"bufferView":4,"componentType":5126,"count":1,"max":[0.0],"min":[0.0],"type":"SCALAR","name":"accessorAnimationInput"},{"bufferView":5,"componentType":5126,"count":1,"type":"VEC3","name":"accessorAnimationScales"},{"bufferView":4,"byteOffset":4,"componentType":5126,"count":193,"max":[8.0],"min":[0.0],"type":"SCALAR","name":"accessorAnimationInput"},{"bufferView":6,"componentType":5126,"count":193,"type":"VEC4","name":"accessorAnimationRotations"},{"bufferView":4,"byteOffset":776,"componentType":5126,"count":171,"max":[8.0],"min":[0.0],"type":"SCALAR","name":"accessorAnimationInput"},{"bufferView":5,"byteOffset":12,"componentType":5126,"count":171,"type":"VEC3","name":"accessorAnimationPositions"},{"bufferView":4,"byteOffset":1460,"componentType":5126,"count":1,"max":[0.0],"min":[0.0],"type":"SCALAR","name":"accessorAnimationInput"},{"bufferView":6,"byteOffset":3088,"componentType":5126,"count":1,"type":"VEC4","name":"accessorAnimationRotations"},{"bufferView":4,"byteOffset":1464,"componentType":5126,"count":1,"max":[0.0],"min":[0.0],"type":"SCALAR","name":"accessorAnimationInput"},{"bufferView":5,"byteOffset":2064,"componentType":5126,"count":1,"type":"VEC3","name":"accessorAnimationPositions"},{"bufferView":4,"byteOffset":1468,"componentType":5126,"count":1,"max":[0.0],"min":[0.0],"type":"SCALAR","name":"accessorAnimationInput"},{"bufferView":5,"byteOffset":2076,"componentType":5126,"count":1,"type":"VEC3","name":"accessorAnimationScales"},{"bufferView":4,"byteOffset":1472,"componentType":5126,"count":1,"max":[0.0],"min":[0.0],"type":"SCALAR","name":"accessorAnimationInput"},{"bufferView":6,"byteOffset":3104,"componentType":5126,"count":1,"type":"VEC4","name":"accessorAnimationRotations"},{"bufferView":4,"byteOffset":1476,"componentType":5126,"count":1,"max":[0.0],"min":[0.0],"type":"SCALAR","name":"accessorAnimationInput"},{"bufferView":5,"byteOffset":2088,"componentType":5126,"count":1,"type":"VEC3","name":"accessorAnimationPositions"},{"bufferView":4,"byteOffset":1480,"componentType":5126,"count":55,"max":[2.29166675],"min":[0.0],"type":"SCALAR","name":"accessorAnimationInput"},{"bufferView":5,"byteOffset":2100,"componentType":5126,"count":55,"type":"VEC3","name":"accessorAnimationPositions"},{"bufferView":4,"byteOffset":1700,"componentType":5126,"count":42,"max":[3.125],"min":[0.0],"type":"SCALAR","name":"accessorAnimationInput"},{"bufferView":6,"byteOffset":3120,"componentType":5126,"count":42,"type":"VEC4","name":"accessorAnimationRotations"},{"bufferView":4,"byteOffset":1868,"componentType":5126,"count":58,"max":[4.375],"min":[0.0],"type":"SCALAR","name":"accessorAnimationInput"},{"bufferView":5,"byteOffset":2760,"componentType":5126,"count":58,"type":"VEC3","name":"accessorAnimationPositions"},{"bufferView":4,"byteOffset":2100,"componentType":5126,"count":97,"max":[4.375],"min":[0.0],"type":"SCALAR","name":"accessorAnimationInput"},{"bufferView":6,"byteOffset":3792,"componentType":5126,"count":97,"type":"VEC4","name":"accessorAnimationRotations"},{"bufferView":4,"byteOffset":2488,"componentType":5126,"count":62,"max":[4.375],"min":[0.0],"type":"SCALAR","name":"accessorAnimationInput"},{"bufferView":5,"byteOffset":3456,"componentType":5126,"count":62,"type":"VEC3","name":"accessorAnimationPositions"},{"bufferView":4,"byteOffset":2736,"componentType":5126,"count":64,"max":[3.95833325],"min":[0.0],"type":"SCALAR","name":"accessorAnimationInput"},{"bufferView":5,"byteOffset":4200,"componentType":5126,"count":64,"type":"VEC3","name":"accessorAnimationScales"},{"bufferView":4,"byteOffset":2992,"componentType":5126,"count":87,"max":[3.95833325],"min":[0.0],"type":"SCALAR","name":"accessorAnimationInput"},{"bufferView":6,"byteOffset":5344,"componentType":5126,"count":87,"type":"VEC4","name":"accessorAnimationRotations"},{"bufferView":4,"byteOffset":3340,"componentType":5126,"count":86,"max":[3.95833325],"min":[0.0],"type":"SCALAR","name":"accessorAnimationInput"},{"bufferView":5,"byteOffset":4968,"componentType":5126,"count":86,"type":"VEC3","name":"accessorAnimationPositions"},{"bufferView":4,"byteOffset":3684,"componentType":5126,"count":20,"max":[0.8333333],"min":[0.0],"type":"SCALAR","name":"accessorAnimationInput"},{"bufferView":5,"byteOffset":6000,"componentType":5126,"count":20,"type":"VEC3","name":"accessorAnimationScales"},{"bufferView":4,"byteOffset":3764,"componentType":5126,"count":20,"max":[0.8333333],"min":[0.0],"type":"SCALAR","name":"accessorAnimationInput"},{"bufferView":5,"byteOffset":6240,"componentType":5126,"count":20,"type":"VEC3","name":"accessorAnimationPositions"},{"bufferView":4,"byteOffset":3844,"componentType":5126,"count":55,"max":[2.29166675],"min":[0.0],"type":"SCALAR","name":"accessorAnimationInput"},{"bufferView":5,"byteOffset":6480,"componentType":5126,"count":55,"type":"VEC3","name":"accessorAnimationPositions"},{"bufferView":4,"byteOffset":4064,"componentType":5126,"count":20,"max":[0.8333333],"min":[0.0],"type":"SCALAR","name":"accessorAnimationInput"},{"bufferView":5,"byteOffset":7140,"componentType":5126,"count":20,"type":"VEC3","name":"accessorAnimationScales"},{"bufferView":4,"byteOffset":4144,"componentType":5126,"count":20,"max":[0.8333333],"min":[0.0],"type":"SCALAR","name":"accessorAnimationInput"},{"bufferView":5,"byteOffset":7380,"componentType":5126,"count":20,"type":"VEC3","name":"accessorAnimationPositions"}],"bufferViews":[{"buffer":0,"byteLength":5832,"name":"bufferViewScalar"},{"buffer":0,"byteOffset":5832,"byteLength":24432,"byteStride":12,"name":"bufferViewFloatVec3"},{"buffer":0,"byteOffset":30264,"byteLength":32576,"byteStride":16,"name":"bufferViewFloatVec4"},{"buffer":0,"byteOffset":62840,"byteLength":8144,"byteStride":8,"name":"bufferViewFloatVec2"},{"buffer":0,"byteOffset":70984,"byteLength":4224,"name":"bufferViewAnimationFloatScalar"},{"buffer":0,"byteOffset":75208,"byteLength":7620,"name":"bufferViewAnimationFloatVec3"},{"buffer":0,"byteOffset":82828,"byteLength":6736,"name":"bufferViewAnimationFloatVec4"}],"buffers":[{"uri":"eye (anim group transitions).bin","byteLength":89564}],"materials":[{"pbrMetallicRoughness":{"baseColorFactor":[0.8,0.8,0.8,1.0],"baseColorTexture":{"index":0},"metallicRoughnessTexture":{"index":1}},"name":"fold_8"}],"textures":[{"sampler":0,"source":0,"name":"fold 8 D 2 (compressed).png"},{"sampler":0,"source":1,"name":"texture_plain_lambert1_Roughness_2texture_plain_lambert1_Metalness_1.jpg"}],"images":[{"uri":"fold 8 D 2 (compressed).png"},{"uri":"texture_plain_lambert1_Roughness_2texture_plain_lambert1_Metalness_1.jpg"}],"samplers":[{"magFilter":9729,"minFilter":9987}],"animations":[{"channels":[{"sampler":0,"target":{"node":0,"path":"scale"}},{"sampler":1,"target":{"node":0,"path":"rotation"}},{"sampler":2,"target":{"node":0,"path":"translation"}},{"sampler":3,"target":{"node":1,"path":"rotation"}},{"sampler":4,"target":{"node":1,"path":"translation"}},{"sampler":5,"target":{"node":2,"path":"scale"}},{"sampler":6,"target":{"node":2,"path":"rotation"}},{"sampler":7,"target":{"node":2,"path":"translation"}}],"samplers":[{"input":12,"output":13},{"input":14,"output":15},{"input":16,"output":17},{"input":18,"output":19},{"input":20,"output":21},{"input":22,"output":23},{"input":24,"output":25},{"input":26,"output":27}],"name":"idle"},{"channels":[{"sampler":0,"target":{"node":0,"path":"translation"}}],"samplers":[{"input":28,"output":29}],"name":"slide_in_L"},{"channels":[{"sampler":0,"target":{"node":0,"path":"rotation"}},{"sampler":1,"target":{"node":0,"path":"translation"}},{"sampler":2,"target":{"node":1,"path":"rotation"}},{"sampler":3,"target":{"node":1,"path":"translation"}},{"sampler":4,"target":{"node":2,"path":"scale"}},{"sampler":5,"target":{"node":2,"path":"rotation"}},{"sampler":6,"target":{"node":2,"path":"translation"}}],"samplers":[{"input":30,"output":31},{"input":32,"output":33},{"input":34,"output":35},{"input":36,"output":37},{"input":38,"output":39},{"input":40,"output":41},{"input":42,"output":43}],"name":"signature"},{"channels":[{"sampler":0,"target":{"node":0,"path":"scale"}},{"sampler":1,"target":{"node":0,"path":"translation"}}],"samplers":[{"input":44,"output":45},{"input":46,"output":47}],"name":"slide_out_L"},{"channels":[{"sampler":0,"target":{"node":0,"path":"translation"}}],"samplers":[{"input":48,"output":49}],"name":"slide_in_R"},{"channels":[{"sampler":0,"target":{"node":0,"path":"scale"}},{"sampler":1,"target":{"node":0,"path":"translation"}}],"samplers":[{"input":50,"output":51},{"input":52,"output":53}],"name":"slide_out_R"}]}