{"asset":{"version":"2.0","generator":"babylon.js glTF exporter for Maya 2018 v20200429.2"},"scene":0,"scenes":[{"nodes":[0]}],"nodes":[{"children":[1],"translation":[0.0,0.00948678,0.002990298],"name":"thumb_print_group3"},{"mesh":0,"name":"thumb_print","extras":{"currentUVSet":"map1"}}],"meshes":[{"primitives":[{"attributes":{"POSITION":1,"TANGENT":2,"NORMAL":3,"COLOR_0":4,"TEXCOORD_0":5},"indices":0,"material":0}],"name":"thumb_print"}],"accessors":[{"bufferView":0,"componentType":5123,"count":8340,"type":"SCALAR","name":"accessorIndices"},{"bufferView":1,"componentType":5126,"count":2854,"max":[0.00567903975,0.0763776153,0.0284728762],"min":[-0.005289806,-0.008620087,-0.03304813],"type":"VEC3","name":"accessorPositions"},{"bufferView":2,"componentType":5126,"count":2854,"type":"VEC4","name":"accessorTangents"},{"bufferView":1,"byteOffset":34248,"componentType":5126,"count":2854,"type":"VEC3","name":"accessorNormals"},{"bufferView":2,"byteOffset":45664,"componentType":5126,"count":2854,"type":"VEC4","name":"accessorColors"},{"bufferView":3,"componentType":5126,"count":2854,"type":"VEC2","name":"accessorUVs"},{"bufferView":4,"componentType":5126,"count":1,"max":[0.0],"min":[0.0],"type":"SCALAR","name":"accessorAnimationInput"},{"bufferView":5,"componentType":5126,"count":1,"type":"VEC3","name":"accessorAnimationScales"},{"bufferView":4,"byteOffset":4,"componentType":5126,"count":193,"max":[8.0],"min":[0.0],"type":"SCALAR","name":"accessorAnimationInput"},{"bufferView":6,"componentType":5126,"count":193,"type":"VEC4","name":"accessorAnimationRotations"},{"bufferView":4,"byteOffset":776,"componentType":5126,"count":142,"max":[8.0],"min":[0.0],"type":"SCALAR","name":"accessorAnimationInput"},{"bufferView":5,"byteOffset":12,"componentType":5126,"count":142,"type":"VEC3","name":"accessorAnimationPositions"},{"bufferView":4,"byteOffset":1344,"componentType":5126,"count":59,"max":[2.5],"min":[0.0],"type":"SCALAR","name":"accessorAnimationInput"},{"bufferView":5,"byteOffset":1716,"componentType":5126,"count":59,"type":"VEC3","name":"accessorAnimationScales"},{"bufferView":4,"byteOffset":1580,"componentType":5126,"count":51,"max":[2.5],"min":[0.416666657],"type":"SCALAR","name":"accessorAnimationInput"},{"bufferView":6,"byteOffset":3088,"componentType":5126,"count":51,"type":"VEC4","name":"accessorAnimationRotations"},{"bufferView":4,"byteOffset":1784,"componentType":5126,"count":58,"max":[2.5],"min":[0.0],"type":"SCALAR","name":"accessorAnimationInput"},{"bufferView":5,"byteOffset":2424,"componentType":5126,"count":58,"type":"VEC3","name":"accessorAnimationPositions"},{"bufferView":4,"byteOffset":2016,"componentType":5126,"count":55,"max":[2.29166675],"min":[0.0],"type":"SCALAR","name":"accessorAnimationInput"},{"bufferView":5,"byteOffset":3120,"componentType":5126,"count":55,"type":"VEC3","name":"accessorAnimationPositions"},{"bufferView":4,"byteOffset":2236,"componentType":5126,"count":20,"max":[0.8333333],"min":[0.0],"type":"SCALAR","name":"accessorAnimationInput"},{"bufferView":5,"byteOffset":3780,"componentType":5126,"count":20,"type":"VEC3","name":"accessorAnimationScales"},{"bufferView":4,"byteOffset":2316,"componentType":5126,"count":20,"max":[0.8333333],"min":[0.0],"type":"SCALAR","name":"accessorAnimationInput"},{"bufferView":5,"byteOffset":4020,"componentType":5126,"count":20,"type":"VEC3","name":"accessorAnimationPositions"},{"bufferView":4,"byteOffset":2396,"componentType":5126,"count":55,"max":[2.29166675],"min":[0.0],"type":"SCALAR","name":"accessorAnimationInput"},{"bufferView":5,"byteOffset":4260,"componentType":5126,"count":55,"type":"VEC3","name":"accessorAnimationPositions"},{"bufferView":4,"byteOffset":2616,"componentType":5126,"count":20,"max":[0.8333333],"min":[0.0],"type":"SCALAR","name":"accessorAnimationInput"},{"bufferView":5,"byteOffset":4920,"componentType":5126,"count":20,"type":"VEC3","name":"accessorAnimationScales"},{"bufferView":4,"byteOffset":2696,"componentType":5126,"count":20,"max":[0.8333333],"min":[0.0],"type":"SCALAR","name":"accessorAnimationInput"},{"bufferView":5,"byteOffset":5160,"componentType":5126,"count":20,"type":"VEC3","name":"accessorAnimationPositions"}],"bufferViews":[{"buffer":0,"byteLength":16680,"name":"bufferViewScalar"},{"buffer":0,"byteOffset":16680,"byteLength":68496,"byteStride":12,"name":"bufferViewFloatVec3"},{"buffer":0,"byteOffset":85176,"byteLength":91328,"byteStride":16,"name":"bufferViewFloatVec4"},{"buffer":0,"byteOffset":176504,"byteLength":22832,"byteStride":8,"name":"bufferViewFloatVec2"},{"buffer":0,"byteOffset":199336,"byteLength":2776,"name":"bufferViewAnimationFloatScalar"},{"buffer":0,"byteOffset":202112,"byteLength":5400,"name":"bufferViewAnimationFloatVec3"},{"buffer":0,"byteOffset":207512,"byteLength":3904,"name":"bufferViewAnimationFloatVec4"}],"buffers":[{"uri":"thumbprint (anim group transitions).bin","byteLength":211416}],"materials":[{"pbrMetallicRoughness":{"baseColorFactor":[0.8,0.8,0.8,1.0],"baseColorTexture":{"index":0},"metallicRoughnessTexture":{"index":1}},"name":"gold_m"}],"textures":[{"sampler":0,"source":0,"name":"fold 8 D 2 (compressed).png"},{"sampler":0,"source":1,"name":"texture_plain_lambert1_Roughness_2texture_plain_lambert1_Metalness_1.jpg"}],"images":[{"uri":"fold 8 D 2 (compressed).png"},{"uri":"texture_plain_lambert1_Roughness_2texture_plain_lambert1_Metalness_1.jpg"}],"samplers":[{"magFilter":9729,"minFilter":9987}],"animations":[{"channels":[{"sampler":0,"target":{"node":0,"path":"scale"}},{"sampler":1,"target":{"node":0,"path":"rotation"}},{"sampler":2,"target":{"node":0,"path":"translation"}}],"samplers":[{"input":6,"output":7},{"input":8,"output":9},{"input":10,"output":11}],"name":"idle"},{"channels":[{"sampler":0,"target":{"node":0,"path":"scale"}},{"sampler":1,"target":{"node":0,"path":"rotation"}},{"sampler":2,"target":{"node":0,"path":"translation"}}],"samplers":[{"input":12,"output":13},{"input":14,"output":15},{"input":16,"output":17}],"name":"signature"},{"channels":[{"sampler":0,"target":{"node":0,"path":"translation"}}],"samplers":[{"input":18,"output":19}],"name":"slide_in_L"},{"channels":[{"sampler":0,"target":{"node":0,"path":"scale"}},{"sampler":1,"target":{"node":0,"path":"translation"}}],"samplers":[{"input":20,"output":21},{"input":22,"output":23}],"name":"slide_out_L"},{"channels":[{"sampler":0,"target":{"node":0,"path":"translation"}}],"samplers":[{"input":24,"output":25}],"name":"slide_in_R"},{"channels":[{"sampler":0,"target":{"node":0,"path":"scale"}},{"sampler":1,"target":{"node":0,"path":"translation"}}],"samplers":[{"input":26,"output":27},{"input":28,"output":29}],"name":"slide_out_R"}]}