{"asset":{"version":"2.0","generator":"babylon.js glTF exporter for Maya 2018 v20200429.2"},"scene":0,"scenes":[{"nodes":[0,1,2,3]}],"nodes":[{"mesh":0,"translation":[0.0573629476,0.0308608636,0.008704624],"rotation":[0.0,-0.161155015,0.0,0.9869291],"scale":[1E-12,1E-12,1E-12],"name":"bug"},{"mesh":1,"translation":[0.0573629476,5.358118E-05,0.008704624],"rotation":[0.0,0.1825942,0.0,0.9831884],"scale":[1E-12,1E-12,1E-12],"name":"bug2"},{"mesh":2,"translation":[0.0573629476,5.358118E-05,0.008704624],"scale":[1E-12,1E-12,1E-12],"name":"bug1"},{"children":[4],"translation":[-7.60337352E-05,0.00714007067,-0.0001496926],"rotation":[0.05712853,0.232428,-0.0136771221,0.970838],"name":"shield_group2"},{"mesh":3,"name":"shield","extras":{"currentUVSet":"map1"}}],"meshes":[{"primitives":[{"attributes":{"POSITION":1,"TANGENT":2,"NORMAL":3,"TEXCOORD_0":4},"indices":0,"material":0}],"name":"bug"},{"primitives":[{"attributes":{"POSITION":6,"TANGENT":7,"NORMAL":8,"TEXCOORD_0":9},"indices":5,"material":0}],"name":"bug2"},{"primitives":[{"attributes":{"POSITION":11,"TANGENT":12,"NORMAL":13,"TEXCOORD_0":14},"indices":10,"material":0}],"name":"bug1"},{"primitives":[{"attributes":{"POSITION":16,"TANGENT":17,"NORMAL":18,"COLOR_0":19,"TEXCOORD_0":20},"indices":15,"material":0}],"name":"shield"}],"accessors":[{"bufferView":0,"componentType":5123,"count":5064,"type":"SCALAR","name":"accessorIndices"},{"bufferView":1,"componentType":5126,"count":1216,"max":[0.0619962476,0.00156264147,0.0133750848],"min":[0.05272964,-0.00145547942,0.00403416436],"type":"VEC3","name":"accessorPositions"},{"bufferView":2,"componentType":5126,"count":1216,"type":"VEC4","name":"accessorTangents"},{"bufferView":1,"byteOffset":14592,"componentType":5126,"count":1216,"type":"VEC3","name":"accessorNormals"},{"bufferView":3,"componentType":5126,"count":1216,"type":"VEC2","name":"accessorUVs"},{"bufferView":0,"byteOffset":10128,"componentType":5123,"count":5064,"type":"SCALAR","name":"accessorIndices"},{"bufferView":1,"byteOffset":29184,"componentType":5126,"count":1216,"max":[0.0619962476,0.00156264147,0.0133750848],"min":[0.05272964,-0.00145547942,0.00403416436],"type":"VEC3","name":"accessorPositions"},{"bufferView":2,"byteOffset":19456,"componentType":5126,"count":1216,"type":"VEC4","name":"accessorTangents"},{"bufferView":1,"byteOffset":43776,"componentType":5126,"count":1216,"type":"VEC3","name":"accessorNormals"},{"bufferView":3,"byteOffset":9728,"componentType":5126,"count":1216,"type":"VEC2","name":"accessorUVs"},{"bufferView":0,"byteOffset":20256,"componentType":5123,"count":5064,"type":"SCALAR","name":"accessorIndices"},{"bufferView":1,"byteOffset":58368,"componentType":5126,"count":1216,"max":[0.0619962476,0.00156264147,0.0133750848],"min":[0.05272964,-0.00145547942,0.00403416436],"type":"VEC3","name":"accessorPositions"},{"bufferView":2,"byteOffset":38912,"componentType":5126,"count":1216,"type":"VEC4","name":"accessorTangents"},{"bufferView":1,"byteOffset":72960,"componentType":5126,"count":1216,"type":"VEC3","name":"accessorNormals"},{"bufferView":3,"byteOffset":19456,"componentType":5126,"count":1216,"type":"VEC2","name":"accessorUVs"},{"bufferView":0,"byteOffset":30384,"componentType":5123,"count":1932,"type":"SCALAR","name":"accessorIndices"},{"bufferView":1,"byteOffset":87552,"componentType":5126,"count":660,"max":[0.005672321,0.08969543,0.03438825],"min":[-0.005194919,-3.933072E-05,-0.0340732262],"type":"VEC3","name":"accessorPositions"},{"bufferView":2,"byteOffset":58368,"componentType":5126,"count":660,"type":"VEC4","name":"accessorTangents"},{"bufferView":1,"byteOffset":95472,"componentType":5126,"count":660,"type":"VEC3","name":"accessorNormals"},{"bufferView":2,"byteOffset":68928,"componentType":5126,"count":660,"type":"VEC4","name":"accessorColors"},{"bufferView":3,"byteOffset":29184,"componentType":5126,"count":660,"type":"VEC2","name":"accessorUVs"},{"bufferView":4,"componentType":5126,"count":1,"max":[0.0],"min":[0.0],"type":"SCALAR","name":"accessorAnimationInput"},{"bufferView":5,"componentType":5126,"count":1,"type":"VEC3","name":"accessorAnimationScales"},{"bufferView":4,"byteOffset":4,"componentType":5126,"count":1,"max":[0.0],"min":[0.0],"type":"SCALAR","name":"accessorAnimationInput"},{"bufferView":6,"componentType":5126,"count":1,"type":"VEC4","name":"accessorAnimationRotations"},{"bufferView":4,"byteOffset":8,"componentType":5126,"count":1,"max":[0.0],"min":[0.0],"type":"SCALAR","name":"accessorAnimationInput"},{"bufferView":5,"byteOffset":12,"componentType":5126,"count":1,"type":"VEC3","name":"accessorAnimationPositions"},{"bufferView":4,"byteOffset":12,"componentType":5126,"count":1,"max":[0.0],"min":[0.0],"type":"SCALAR","name":"accessorAnimationInput"},{"bufferView":5,"byteOffset":24,"componentType":5126,"count":1,"type":"VEC3","name":"accessorAnimationScales"},{"bufferView":4,"byteOffset":16,"componentType":5126,"count":1,"max":[0.0],"min":[0.0],"type":"SCALAR","name":"accessorAnimationInput"},{"bufferView":6,"byteOffset":16,"componentType":5126,"count":1,"type":"VEC4","name":"accessorAnimationRotations"},{"bufferView":4,"byteOffset":20,"componentType":5126,"count":1,"max":[0.0],"min":[0.0],"type":"SCALAR","name":"accessorAnimationInput"},{"bufferView":5,"byteOffset":36,"componentType":5126,"count":1,"type":"VEC3","name":"accessorAnimationPositions"},{"bufferView":4,"byteOffset":24,"componentType":5126,"count":1,"max":[0.0],"min":[0.0],"type":"SCALAR","name":"accessorAnimationInput"},{"bufferView":5,"byteOffset":48,"componentType":5126,"count":1,"type":"VEC3","name":"accessorAnimationScales"},{"bufferView":4,"byteOffset":28,"componentType":5126,"count":1,"max":[0.0],"min":[0.0],"type":"SCALAR","name":"accessorAnimationInput"},{"bufferView":6,"byteOffset":32,"componentType":5126,"count":1,"type":"VEC4","name":"accessorAnimationRotations"},{"bufferView":4,"byteOffset":32,"componentType":5126,"count":1,"max":[0.0],"min":[0.0],"type":"SCALAR","name":"accessorAnimationInput"},{"bufferView":5,"byteOffset":60,"componentType":5126,"count":1,"type":"VEC3","name":"accessorAnimationPositions"},{"bufferView":4,"byteOffset":36,"componentType":5126,"count":1,"max":[0.0],"min":[0.0],"type":"SCALAR","name":"accessorAnimationInput"},{"bufferView":5,"byteOffset":72,"componentType":5126,"count":1,"type":"VEC3","name":"accessorAnimationScales"},{"bufferView":4,"byteOffset":40,"componentType":5126,"count":193,"max":[8.0],"min":[0.0],"type":"SCALAR","name":"accessorAnimationInput"},{"bufferView":6,"byteOffset":48,"componentType":5126,"count":193,"type":"VEC4","name":"accessorAnimationRotations"},{"bufferView":4,"byteOffset":812,"componentType":5126,"count":126,"max":[8.0],"min":[0.0],"type":"SCALAR","name":"accessorAnimationInput"},{"bufferView":5,"byteOffset":84,"componentType":5126,"count":126,"type":"VEC3","name":"accessorAnimationPositions"},{"bufferView":4,"byteOffset":1316,"componentType":5126,"count":12,"max":[2.5],"min":[0.333333343],"type":"SCALAR","name":"accessorAnimationInput"},{"bufferView":5,"byteOffset":1596,"componentType":5126,"count":12,"type":"VEC3","name":"accessorAnimationScales"},{"bufferView":4,"byteOffset":1364,"componentType":5126,"count":6,"max":[0.8333333],"min":[0.625],"type":"SCALAR","name":"accessorAnimationInput"},{"bufferView":6,"byteOffset":3136,"componentType":5126,"count":6,"type":"VEC4","name":"accessorAnimationRotations"},{"bufferView":4,"byteOffset":1388,"componentType":5126,"count":23,"max":[2.5],"min":[0.333333343],"type":"SCALAR","name":"accessorAnimationInput"},{"bufferView":5,"byteOffset":1740,"componentType":5126,"count":23,"type":"VEC3","name":"accessorAnimationPositions"},{"bufferView":4,"byteOffset":1480,"componentType":5126,"count":12,"max":[2.5],"min":[0.8333333],"type":"SCALAR","name":"accessorAnimationInput"},{"bufferView":5,"byteOffset":2016,"componentType":5126,"count":12,"type":"VEC3","name":"accessorAnimationScales"},{"bufferView":4,"byteOffset":1528,"componentType":5126,"count":14,"max":[2.5],"min":[0.875],"type":"SCALAR","name":"accessorAnimationInput"},{"bufferView":6,"byteOffset":3232,"componentType":5126,"count":14,"type":"VEC4","name":"accessorAnimationRotations"},{"bufferView":4,"byteOffset":1584,"componentType":5126,"count":23,"max":[2.5],"min":[0.8333333],"type":"SCALAR","name":"accessorAnimationInput"},{"bufferView":5,"byteOffset":2160,"componentType":5126,"count":23,"type":"VEC3","name":"accessorAnimationPositions"},{"bufferView":4,"byteOffset":1676,"componentType":5126,"count":8,"max":[2.5],"min":[1.91666663],"type":"SCALAR","name":"accessorAnimationInput"},{"bufferView":5,"byteOffset":2436,"componentType":5126,"count":8,"type":"VEC3","name":"accessorAnimationScales"},{"bufferView":4,"byteOffset":1708,"componentType":5126,"count":12,"max":[2.5],"min":[1.91666663],"type":"SCALAR","name":"accessorAnimationInput"},{"bufferView":6,"byteOffset":3456,"componentType":5126,"count":12,"type":"VEC4","name":"accessorAnimationRotations"},{"bufferView":4,"byteOffset":1756,"componentType":5126,"count":15,"max":[2.5],"min":[1.91666663],"type":"SCALAR","name":"accessorAnimationInput"},{"bufferView":5,"byteOffset":2532,"componentType":5126,"count":15,"type":"VEC3","name":"accessorAnimationPositions"},{"bufferView":4,"byteOffset":1816,"componentType":5126,"count":67,"max":[2.79166675],"min":[0.0],"type":"SCALAR","name":"accessorAnimationInput"},{"bufferView":6,"byteOffset":3648,"componentType":5126,"count":67,"type":"VEC4","name":"accessorAnimationRotations"},{"bufferView":4,"byteOffset":2084,"componentType":5126,"count":59,"max":[2.79166675],"min":[0.0],"type":"SCALAR","name":"accessorAnimationInput"},{"bufferView":5,"byteOffset":2712,"componentType":5126,"count":59,"type":"VEC3","name":"accessorAnimationPositions"},{"bufferView":4,"byteOffset":2320,"componentType":5126,"count":55,"max":[2.29166675],"min":[0.0],"type":"SCALAR","name":"accessorAnimationInput"},{"bufferView":5,"byteOffset":3420,"componentType":5126,"count":55,"type":"VEC3","name":"accessorAnimationPositions"},{"bufferView":4,"byteOffset":2540,"componentType":5126,"count":20,"max":[0.8333333],"min":[0.0],"type":"SCALAR","name":"accessorAnimationInput"},{"bufferView":5,"byteOffset":4080,"componentType":5126,"count":20,"type":"VEC3","name":"accessorAnimationScales"},{"bufferView":4,"byteOffset":2620,"componentType":5126,"count":20,"max":[0.8333333],"min":[0.0],"type":"SCALAR","name":"accessorAnimationInput"},{"bufferView":5,"byteOffset":4320,"componentType":5126,"count":20,"type":"VEC3","name":"accessorAnimationPositions"},{"bufferView":4,"byteOffset":2700,"componentType":5126,"count":55,"max":[2.29166675],"min":[0.0],"type":"SCALAR","name":"accessorAnimationInput"},{"bufferView":5,"byteOffset":4560,"componentType":5126,"count":55,"type":"VEC3","name":"accessorAnimationPositions"},{"bufferView":4,"byteOffset":2920,"componentType":5126,"count":20,"max":[0.8333333],"min":[0.0],"type":"SCALAR","name":"accessorAnimationInput"},{"bufferView":5,"byteOffset":5220,"componentType":5126,"count":20,"type":"VEC3","name":"accessorAnimationScales"},{"bufferView":4,"byteOffset":3000,"componentType":5126,"count":20,"max":[0.8333333],"min":[0.0],"type":"SCALAR","name":"accessorAnimationInput"},{"bufferView":5,"byteOffset":5460,"componentType":5126,"count":20,"type":"VEC3","name":"accessorAnimationPositions"}],"bufferViews":[{"buffer":0,"byteLength":34248,"name":"bufferViewScalar"},{"buffer":0,"byteOffset":34248,"byteLength":103392,"byteStride":12,"name":"bufferViewFloatVec3"},{"buffer":0,"byteOffset":137640,"byteLength":79488,"byteStride":16,"name":"bufferViewFloatVec4"},{"buffer":0,"byteOffset":217128,"byteLength":34464,"byteStride":8,"name":"bufferViewFloatVec2"},{"buffer":0,"byteOffset":251592,"byteLength":3080,"name":"bufferViewAnimationFloatScalar"},{"buffer":0,"byteOffset":254672,"byteLength":5700,"name":"bufferViewAnimationFloatVec3"},{"buffer":0,"byteOffset":260372,"byteLength":4720,"name":"bufferViewAnimationFloatVec4"}],"buffers":[{"uri":"shield (anim group transitions).bin","byteLength":265092}],"materials":[{"pbrMetallicRoughness":{"baseColorFactor":[0.8,0.8,0.8,1.0],"baseColorTexture":{"index":0},"metallicRoughnessTexture":{"index":1}},"name":"gold_m"}],"textures":[{"sampler":0,"source":0,"name":"fold 8 D 2 (compressed).png"},{"sampler":0,"source":1,"name":"texture_plain_lambert1_Roughness_2texture_plain_lambert1_Metalness_1.jpg"}],"images":[{"uri":"fold 8 D 2 (compressed).png"},{"uri":"texture_plain_lambert1_Roughness_2texture_plain_lambert1_Metalness_1.jpg"}],"samplers":[{"magFilter":9729,"minFilter":9987}],"animations":[{"channels":[{"sampler":0,"target":{"node":0,"path":"scale"}},{"sampler":1,"target":{"node":0,"path":"rotation"}},{"sampler":2,"target":{"node":0,"path":"translation"}},{"sampler":3,"target":{"node":1,"path":"scale"}},{"sampler":4,"target":{"node":1,"path":"rotation"}},{"sampler":5,"target":{"node":1,"path":"translation"}},{"sampler":6,"target":{"node":2,"path":"scale"}},{"sampler":7,"target":{"node":2,"path":"rotation"}},{"sampler":8,"target":{"node":2,"path":"translation"}},{"sampler":9,"target":{"node":3,"path":"scale"}},{"sampler":10,"target":{"node":3,"path":"rotation"}},{"sampler":11,"target":{"node":3,"path":"translation"}}],"samplers":[{"input":21,"output":22},{"input":23,"output":24},{"input":25,"output":26},{"input":27,"output":28},{"input":29,"output":30},{"input":31,"output":32},{"input":33,"output":34},{"input":35,"output":36},{"input":37,"output":38},{"input":39,"output":40},{"input":41,"output":42},{"input":43,"output":44}],"name":"idle"},{"channels":[{"sampler":0,"target":{"node":0,"path":"scale"}},{"sampler":1,"target":{"node":0,"path":"rotation"}},{"sampler":2,"target":{"node":0,"path":"translation"}},{"sampler":3,"target":{"node":1,"path":"scale"}},{"sampler":4,"target":{"node":1,"path":"rotation"}},{"sampler":5,"target":{"node":1,"path":"translation"}},{"sampler":6,"target":{"node":2,"path":"scale"}},{"sampler":7,"target":{"node":2,"path":"rotation"}},{"sampler":8,"target":{"node":2,"path":"translation"}},{"sampler":9,"target":{"node":3,"path":"rotation"}},{"sampler":10,"target":{"node":3,"path":"translation"}}],"samplers":[{"input":45,"output":46},{"input":47,"output":48},{"input":49,"output":50},{"input":51,"output":52},{"input":53,"output":54},{"input":55,"output":56},{"input":57,"output":58},{"input":59,"output":60},{"input":61,"output":62},{"input":63,"output":64},{"input":65,"output":66}],"name":"signature"},{"channels":[{"sampler":0,"target":{"node":3,"path":"translation"}}],"samplers":[{"input":67,"output":68}],"name":"slide_in_L"},{"channels":[{"sampler":0,"target":{"node":3,"path":"scale"}},{"sampler":1,"target":{"node":3,"path":"translation"}}],"samplers":[{"input":69,"output":70},{"input":71,"output":72}],"name":"slide_out_L"},{"channels":[{"sampler":0,"target":{"node":3,"path":"translation"}}],"samplers":[{"input":73,"output":74}],"name":"slide_in_R"},{"channels":[{"sampler":0,"target":{"node":3,"path":"scale"}},{"sampler":1,"target":{"node":3,"path":"translation"}}],"samplers":[{"input":75,"output":76},{"input":77,"output":78}],"name":"slide_out_R"}]}