<?xml version="1.0" standalone="no"?>
<!DOCTYPE svg PUBLIC "-//W3C//DTD SVG 20010904//EN"
 "http://www.w3.org/TR/2001/REC-SVG-20010904/DTD/svg10.dtd">
<svg version="1.0" xmlns="http://www.w3.org/2000/svg"
 width="1910.000000pt" height="307.000000pt" viewBox="0 0 1910.000000 307.000000"
 preserveAspectRatio="xMidYMid meet">

<g transform="translate(0.000000,307.000000) scale(0.100000,-0.100000)"
fill="#000000" stroke="none">
<path d="M0 1535 l0 -1535 9550 0 9550 0 0 1535 0 1535 -172 0 c-188 0 -329
-12 -423 -34 -33 -8 -98 -20 -145 -26 -47 -7 -112 -16 -145 -21 -33 -5 -87
-13 -120 -18 -89 -12 -228 -41 -247 -51 -10 -6 -34 -10 -54 -10 -20 0 -53 -4
-73 -9 -40 -11 -242 -39 -311 -45 -55 -4 -222 -32 -310 -52 -36 -8 -85 -16
-110 -17 -25 -1 -49 -5 -55 -8 -16 -10 -290 -61 -345 -64 -37 -3 -155 -22
-235 -40 -82 -17 -269 -51 -337 -60 -26 -3 -50 -10 -53 -16 -4 -5 -22 -9 -42
-9 -19 0 -74 -7 -122 -15 -47 -8 -133 -21 -191 -30 -58 -8 -139 -21 -180 -29
-41 -8 -106 -19 -145 -26 -38 -6 -111 -17 -161 -25 -51 -8 -103 -19 -118 -24
-14 -6 -67 -13 -118 -17 -51 -4 -104 -12 -118 -19 -24 -12 -122 -26 -208 -29
-24 -1 -47 -7 -50 -13 -4 -6 -54 -16 -112 -23 -175 -18 -249 -32 -257 -49 -4
-9 -8 -98 -9 -198 -1 -188 -11 -395 -20 -426 -6 -21 -21 -22 -40 -3 -16 17
-19 62 -4 71 6 3 8 22 6 41 -3 20 1 72 9 117 22 135 26 195 14 203 -16 10 -26
-11 -38 -80 -6 -32 -19 -69 -30 -80 -10 -12 -21 -34 -24 -51 -3 -16 -11 -50
-17 -75 -6 -25 -15 -67 -20 -95 -14 -84 -22 -105 -36 -105 -8 0 -14 -9 -14
-19 0 -11 -4 -22 -9 -25 -7 -5 -10 29 -9 114 0 14 0 36 -1 50 -4 72 1 111 22
165 37 95 58 157 67 200 5 22 11 50 15 61 4 12 2 25 -3 28 -6 3 -14 -4 -17
-16 -4 -13 -13 -30 -20 -38 -7 -8 -18 -33 -25 -55 -13 -39 -25 -70 -54 -138
-8 -17 -17 -64 -20 -104 -3 -39 -13 -84 -21 -100 -8 -15 -17 -39 -20 -53 -8
-39 -22 -57 -35 -44 -27 27 -1 267 39 367 13 33 13 37 4 37 -12 0 -43 -59 -43
-81 0 -11 -5 -29 -10 -40 -6 -11 -12 -35 -14 -54 -1 -19 -10 -43 -20 -54 -10
-11 -15 -25 -11 -31 4 -6 4 -36 0 -66 -6 -49 -9 -54 -31 -54 -26 0 -25 -8 -26
138 0 42 4 78 11 85 6 6 11 22 11 34 0 13 6 34 14 46 7 12 16 42 19 67 l5 45
-14 -32 c-8 -18 -19 -33 -24 -33 -6 0 -10 -9 -10 -20 0 -11 -4 -28 -10 -38
-16 -27 -32 -75 -35 -102 -2 -14 -7 -42 -13 -64 -6 -21 -8 -45 -5 -52 3 -8 -2
-17 -11 -20 -9 -3 -16 -12 -16 -20 0 -8 -4 -14 -10 -14 -14 0 -23 46 -16 83 4
17 9 53 12 80 4 26 11 50 15 53 5 3 9 16 9 29 0 35 28 137 50 183 11 23 20 46
20 52 0 5 11 33 25 62 25 51 32 88 18 88 -14 0 -63 -110 -56 -126 3 -8 -3 -27
-14 -42 -27 -38 -63 -118 -63 -141 0 -10 -7 -24 -15 -31 -8 -7 -15 -23 -15
-35 0 -12 -7 -39 -15 -58 -8 -20 -15 -52 -15 -70 0 -19 -7 -51 -15 -70 -8 -20
-15 -49 -15 -64 0 -15 -4 -35 -10 -43 -7 -12 -10 -11 -16 5 -4 11 -10 22 -13
25 -17 14 -28 99 -20 145 5 28 15 88 23 135 7 46 19 86 25 88 6 2 11 18 11 34
0 17 12 51 26 76 18 31 23 47 15 55 -7 7 -13 2 -21 -19 -9 -25 -40 -92 -87
-186 -7 -14 -13 -39 -13 -55 0 -16 -6 -37 -14 -48 -7 -11 -16 -40 -19 -65 -3
-25 -13 -69 -24 -97 -15 -44 -22 -53 -42 -53 l-24 0 6 108 c8 142 18 216 29
223 5 3 14 24 19 45 6 21 16 60 22 85 7 25 17 52 23 60 7 8 12 27 12 44 0 16
5 31 11 33 12 4 16 42 4 42 -11 0 -48 -57 -66 -100 -8 -19 -27 -63 -41 -96
-14 -34 -26 -71 -26 -82 0 -12 -5 -24 -10 -27 -6 -3 -10 -16 -10 -29 0 -12 -5
-27 -11 -33 -6 -6 -14 -35 -18 -64 -17 -109 -42 -204 -59 -221 -14 -14 -22
-14 -52 -5 -31 11 -36 17 -41 55 -3 28 -1 49 7 60 8 9 14 38 14 64 0 26 4 49
9 52 9 6 22 93 26 167 1 25 5 51 9 57 10 16 -3 54 -15 47 -5 -4 -9 -14 -9 -23
0 -9 -8 -35 -19 -57 -27 -58 -73 -217 -104 -365 -12 -54 -13 -55 -49 -58 -21
-2 -38 -7 -38 -13 0 -5 -5 -9 -11 -9 -7 0 -9 22 -5 68 3 37 6 84 8 104 2 21 6
38 10 38 3 0 8 21 11 48 5 44 10 67 38 175 7 23 11 60 11 82 -1 33 4 43 21 50
25 11 36 45 14 45 -17 0 -67 -69 -67 -93 0 -10 -9 -35 -20 -57 -11 -22 -20
-46 -20 -54 0 -29 -36 -38 -80 -20 -27 11 -38 20 -31 27 5 5 7 16 4 23 -3 8 0
14 6 14 6 0 11 16 11 35 0 19 10 54 21 79 13 26 19 51 15 62 -6 16 -7 16 -19
-2 -7 -10 -19 -44 -26 -74 -7 -30 -19 -70 -27 -88 -8 -18 -12 -37 -8 -43 5 -9
-10 -10 -52 -4 -94 11 -107 24 -80 77 10 19 11 30 4 34 -13 8 -28 -14 -28 -44
0 -13 -4 -20 -10 -17 -5 3 -10 -1 -10 -10 0 -14 -7 -16 -42 -10 -56 9 -111 32
-104 44 3 5 -13 2 -35 -6 -25 -8 -55 -11 -76 -7 l-35 7 6 48 c4 27 4 49 1 49
-12 0 -30 -25 -40 -55 -9 -27 -15 -30 -60 -33 -27 -2 -60 -1 -73 3 -22 5 -23
8 -9 23 19 22 31 62 19 62 -14 0 -30 -22 -37 -52 -8 -31 -19 -37 -97 -45 -64
-6 -73 4 -44 50 8 13 12 34 9 50 -5 27 -22 37 -25 15 0 -7 -2 -18 -2 -23 -1
-6 -11 -20 -24 -33 -12 -12 -22 -30 -22 -40 0 -16 -16 -25 -87 -49 -26 -9 -35
-8 -47 6 -13 14 -13 19 0 35 18 25 18 62 0 69 -17 7 -40 -18 -33 -35 2 -7 -5
-33 -17 -57 -18 -38 -28 -47 -68 -61 -26 -9 -51 -19 -55 -23 -3 -4 -11 -7 -18
-7 -8 0 -7 23 3 85 8 47 11 92 8 101 -15 39 -54 -44 -82 -176 -9 -39 -26 -70
-40 -70 -7 0 -19 -8 -26 -18 -18 -23 -57 -44 -69 -36 -10 6 -2 45 12 54 5 3
11 50 15 104 6 83 5 98 -7 94 -15 -5 -38 -76 -46 -143 -3 -22 -14 -51 -24 -64
-11 -13 -19 -32 -19 -43 0 -19 -26 -72 -80 -163 -40 -68 -100 -193 -100 -210
0 -8 -7 -18 -15 -23 -9 -4 -19 -28 -24 -52 -5 -25 -9 -37 -10 -27 -1 9 -8 17
-16 17 -11 0 3 36 49 127 42 85 61 132 55 139 -5 6 -7 19 -3 28 3 9 2 16 -3
16 -18 0 -41 -34 -68 -100 -15 -36 -31 -72 -36 -80 -5 -8 -26 -50 -47 -92 -29
-60 -42 -78 -58 -78 -19 0 -20 4 -13 53 7 52 30 108 55 138 12 14 24 42 62
154 22 65 46 147 48 168 1 12 7 40 14 62 6 22 15 63 20 90 4 28 10 60 13 73 4
15 1 22 -8 22 -8 0 -19 -18 -25 -42 -6 -24 -15 -54 -20 -68 -5 -14 -12 -41
-15 -60 -8 -47 -22 -86 -51 -141 -13 -26 -24 -56 -24 -67 0 -23 -69 -164 -70
-142 -1 29 -20 -13 -20 -45 0 -16 -7 -41 -15 -55 -8 -14 -14 -33 -15 -42 0
-10 -8 -27 -17 -38 -10 -11 -20 -30 -23 -43 -3 -12 -15 -23 -27 -25 -17 -3
-21 4 -26 45 -3 26 -1 52 4 58 5 5 9 21 9 36 0 26 21 54 33 43 3 -3 9 16 13
43 3 26 10 53 14 58 4 6 13 28 20 50 7 22 18 43 24 47 9 6 17 52 32 178 l5 45
-20 -25 c-15 -18 -21 -40 -21 -78 0 -41 -6 -61 -25 -87 -28 -36 -85 -143 -85
-159 0 -5 -8 -19 -18 -30 -10 -12 -28 -54 -41 -93 -15 -44 -30 -73 -38 -73 -7
0 -16 -13 -19 -30 -4 -20 -13 -30 -24 -30 -34 0 -33 87 3 144 7 11 21 44 31
71 10 28 23 54 27 60 5 5 9 19 9 31 0 12 7 27 16 35 27 22 44 66 44 113 0 25
4 47 9 50 5 3 7 15 4 25 -3 11 2 30 11 43 9 12 16 36 16 53 0 17 4 35 9 40 13
15 20 94 9 101 -14 9 -28 -15 -28 -51 0 -16 -7 -39 -15 -49 -8 -11 -15 -30
-15 -42 0 -13 -5 -26 -10 -29 -5 -3 -10 -19 -10 -35 0 -16 -8 -43 -17 -62 -9
-18 -20 -41 -25 -51 -52 -107 -90 -176 -107 -191 -12 -11 -21 -25 -21 -33 0
-8 -10 -33 -21 -56 -20 -39 -22 -40 -30 -20 -14 38 15 152 63 248 26 52 52
124 62 170 10 44 21 87 26 96 10 18 -3 44 -18 36 -5 -4 -12 -25 -16 -48 -4
-22 -23 -71 -43 -107 -20 -37 -43 -80 -51 -95 -26 -51 -35 -17 -30 122 2 81 8
135 15 142 9 9 9 18 2 32 -6 10 -8 34 -5 52 6 29 3 34 -24 45 -25 10 -36 10
-54 0 -24 -13 -66 0 -66 20 0 5 -13 24 -28 42 -16 18 -45 69 -65 113 -20 44
-44 89 -55 100 -10 11 -35 51 -56 89 -21 37 -46 76 -57 87 -10 10 -21 35 -25
56 -6 38 -42 103 -56 103 -5 0 -8 6 -8 14 0 19 -45 97 -52 90 -4 -3 -9 4 -13
15 -4 12 -29 33 -57 47 -28 14 -53 34 -55 45 -5 18 -16 19 -169 19 -188 0
-179 8 -109 -100 24 -36 58 -91 76 -123 19 -32 42 -71 51 -85 9 -15 36 -61 59
-102 24 -41 45 -77 49 -80 3 -3 21 -30 39 -60 17 -30 46 -76 64 -101 18 -26
55 -83 82 -128 28 -44 73 -117 100 -161 28 -43 61 -97 74 -119 59 -96 62 -183
9 -214 -16 -9 -38 -17 -49 -17 -10 0 -67 -16 -125 -35 -58 -19 -119 -35 -135
-35 -16 0 -39 -5 -52 -12 -50 -25 -58 -28 -95 -28 -21 0 -47 -6 -58 -14 -14
-11 -22 -11 -32 -3 -8 6 -50 10 -100 10 -85 -1 -86 -1 -47 12 45 15 132 29
156 26 9 -1 29 4 45 10 16 7 52 18 79 25 94 23 193 51 206 59 9 6 8 10 -7 16
-28 11 -82 11 -89 -1 -3 -5 -18 -10 -33 -10 -15 0 -36 -7 -46 -15 -11 -8 -31
-15 -44 -15 -14 0 -55 -9 -91 -19 -36 -11 -97 -22 -136 -26 -38 -4 -79 -11
-91 -15 -16 -7 -26 -4 -39 10 -24 26 -13 46 27 53 18 3 76 13 128 21 52 9 104
20 115 25 47 21 88 31 197 48 21 3 42 11 49 19 6 8 25 14 41 14 42 0 68 17 68
45 0 21 6 24 55 30 52 7 78 25 35 25 -11 0 -20 4 -20 9 0 5 -9 13 -21 16 -26
9 -58 78 -59 127 0 35 -2 37 -40 43 -22 4 -40 12 -40 19 0 7 -30 17 -71 25
-66 12 -97 9 -73 -7 15 -10 36 -100 29 -123 -9 -26 3 -59 21 -59 8 0 14 -4 14
-10 0 -5 9 -10 20 -10 11 0 20 -4 20 -10 0 -5 6 -10 14 -10 18 0 26 -20 15
-42 -5 -10 -28 -19 -59 -23 -27 -4 -52 -10 -55 -15 -3 -4 -35 -15 -72 -25 -38
-9 -102 -25 -143 -36 -41 -11 -104 -26 -140 -33 -73 -16 -150 -43 -164 -57 -6
-5 -29 -9 -53 -9 -23 0 -62 -6 -85 -14 -24 -8 -77 -17 -119 -19 -42 -3 -85 -9
-95 -15 -46 -24 -75 -31 -169 -40 -55 -6 -113 -11 -130 -11 -16 0 -97 -6 -180
-12 -107 -8 -158 -8 -178 -1 -21 8 -34 8 -46 0 -12 -7 -53 -7 -142 1 -138 12
-139 12 -224 12 -95 1 -120 4 -118 16 1 6 -30 13 -80 18 -45 3 -102 15 -126
26 -24 10 -49 19 -55 19 -6 0 -17 9 -24 20 -11 19 -10 20 23 20 22 0 38 6 41
14 8 20 32 28 54 16 10 -5 72 -14 137 -20 84 -7 125 -15 143 -28 20 -14 33
-16 66 -9 33 7 48 5 80 -11 27 -14 45 -17 56 -11 10 6 46 4 93 -3 60 -9 143
-9 369 0 160 7 307 17 326 23 106 32 184 49 200 44 23 -7 96 13 111 32 6 7 20
13 30 13 11 0 28 9 39 20 11 11 33 20 49 20 17 0 42 11 59 25 17 14 40 25 53
25 22 0 80 16 108 29 22 11 25 31 4 31 -15 0 -16 2 -3 10 13 9 13 10 0 11 -8
1 -17 1 -20 1 -3 0 -7 11 -8 26 -1 14 -10 35 -21 46 -10 12 -25 33 -32 47 -8
14 -29 46 -47 69 -18 24 -35 55 -39 69 -3 14 -18 40 -33 56 -16 17 -35 46 -44
65 -23 48 -40 76 -60 99 -10 11 -16 24 -13 28 3 5 -5 17 -18 27 -13 10 -22 23
-19 30 6 15 -53 76 -73 76 -7 0 -13 -7 -13 -15 0 -8 7 -15 15 -15 8 0 15 -9
15 -20 0 -11 -4 -20 -10 -20 -5 0 -10 -7 -10 -15 0 -8 4 -15 9 -15 4 0 11 -21
14 -46 4 -36 13 -55 45 -87 22 -23 42 -55 45 -72 3 -16 8 -41 12 -55 4 -16 -2
-10 -16 15 -11 22 -36 56 -54 75 -18 19 -44 58 -58 86 -14 27 -32 56 -40 62
-8 7 -32 42 -53 77 -39 67 -48 75 -58 50 -3 -8 0 -15 6 -15 7 0 9 -14 5 -40
-4 -33 -2 -40 12 -40 17 0 28 -27 72 -176 6 -18 19 -40 29 -49 28 -25 25 -45
-5 -45 -16 0 -25 -6 -25 -15 0 -8 -7 -15 -15 -15 -8 0 -15 -6 -15 -12 0 -10
-2 -10 -8 -1 -6 9 -15 6 -35 -11 -27 -23 -37 -56 -17 -56 6 0 10 -9 10 -20 0
-11 7 -20 15 -20 8 0 15 -4 15 -10 0 -5 -7 -10 -15 -10 -8 0 -15 -4 -15 -10 0
-5 -7 -10 -16 -10 -13 0 -15 -7 -9 -37 4 -20 15 -44 25 -53 14 -12 15 -17 4
-28 -7 -6 -20 -12 -29 -12 -8 0 -15 -7 -15 -15 0 -8 9 -15 20 -15 11 0 20 5
20 10 0 22 28 8 40 -19 22 -55 -20 -81 -133 -81 -17 0 -38 -7 -47 -15 -20 -18
-177 -40 -193 -27 -10 8 -46 13 -92 13 -9 0 -83 -5 -223 -15 -50 -3 -87 17
-62 34 8 6 22 9 31 6 9 -2 22 5 30 15 10 15 26 19 71 19 32 0 58 4 58 10 0 6
-4 10 -10 10 -5 0 -10 9 -10 20 0 13 -7 20 -20 20 -13 0 -20 7 -20 20 0 11 -4
20 -10 20 -5 0 -10 -18 -10 -40 0 -33 -3 -40 -20 -40 -17 0 -20 7 -20 40 l0
40 -60 0 c-53 0 -60 2 -60 20 0 13 -7 20 -20 20 -14 0 -20 -7 -20 -21 0 -15
-4 -19 -16 -15 -9 3 -18 6 -20 6 -2 0 -4 16 -4 35 0 28 -4 35 -20 35 -11 0
-20 5 -20 10 0 22 -40 10 -46 -14 -9 -38 -94 -48 -94 -11 0 20 -44 47 -64 39
-13 -5 -16 0 -16 25 0 24 -4 31 -20 31 -15 0 -20 7 -20 25 0 18 -5 25 -20 25
-11 0 -20 5 -20 10 0 6 -9 10 -20 10 -11 0 -20 5 -20 10 0 6 -9 10 -20 10 -11
0 -20 5 -20 11 0 18 -60 69 -81 69 -10 0 -19 5 -19 10 0 6 -7 10 -16 10 -17 0
-44 23 -44 38 0 12 -51 22 -79 15 -16 -4 -21 -1 -21 16 0 12 -6 21 -15 21 -8
0 -15 -9 -15 -20 0 -11 7 -20 15 -20 8 0 15 -9 15 -19 0 -14 -8 -21 -27 -23
-25 -3 -28 -7 -26 -39 2 -29 -2 -38 -17 -42 -16 -4 -20 0 -20 23 0 41 -27 98
-49 105 -11 3 -22 14 -24 23 -3 11 -5 8 -6 -8 -1 -16 10 -35 29 -53 17 -16 30
-39 30 -53 0 -31 31 -94 46 -94 7 0 16 -9 19 -20 3 -11 15 -20 26 -20 12 0 19
-7 19 -20 0 -11 6 -20 13 -20 7 0 21 -15 30 -33 10 -17 29 -47 42 -66 28 -38
33 -81 10 -81 -8 0 -15 5 -15 10 0 6 -5 10 -11 10 -16 0 -39 -26 -39 -44 0
-24 -19 -19 -50 14 -15 17 -35 30 -44 30 -11 0 -16 9 -16 30 0 23 -4 30 -20
30 -13 0 -20 7 -20 20 0 17 -7 20 -40 20 -22 0 -40 5 -40 10 0 6 -13 10 -30
10 -22 0 -30 5 -30 18 0 10 -9 24 -20 32 -11 8 -20 19 -20 26 0 17 -52 38 -60
24 -10 -17 -60 9 -60 32 0 11 -7 18 -20 18 -11 0 -20 7 -20 15 0 8 -9 15 -20
15 -13 0 -20 7 -20 20 0 11 -4 20 -10 20 -5 0 -10 5 -10 11 0 6 -7 17 -15 25
-8 9 -15 24 -15 34 0 10 -6 20 -14 23 -8 3 -26 28 -42 56 -15 28 -33 51 -40
51 -7 0 -18 13 -25 29 -9 20 -18 27 -31 23 -12 -3 -18 1 -18 12 0 9 5 16 10
16 14 0 12 42 -3 61 -15 20 -67 32 -85 20 -15 -9 -7 -74 12 -94 6 -7 13 -21
14 -32 2 -11 15 -32 29 -47 14 -15 23 -33 20 -41 -3 -8 11 -31 34 -53 21 -22
39 -48 39 -59 0 -11 16 -37 35 -59 19 -21 35 -44 35 -52 0 -16 39 -94 56 -111
14 -15 49 -121 42 -128 -9 -9 -38 7 -38 20 0 8 -9 17 -20 20 -11 3 -20 11 -20
16 0 16 -22 10 -42 -13 -14 -17 -23 -20 -35 -12 -22 14 -46 110 -33 134 16 30
12 38 -25 50 -19 6 -33 16 -30 20 3 5 -7 17 -22 27 -15 10 -31 22 -35 28 -5 6
-8 5 -8 -2 0 -7 -10 -13 -21 -13 -20 0 -20 -2 -7 -23 8 -12 18 -35 22 -50 4
-19 12 -27 20 -24 9 4 16 -5 20 -26 4 -17 17 -43 30 -57 26 -27 76 -144 76
-177 0 -12 6 -24 13 -26 6 -3 0 -6 -15 -6 -19 -1 -28 4 -28 14 0 10 -10 15
-28 15 -35 0 -60 25 -73 74 -11 39 -47 81 -79 91 -22 7 -54 60 -45 74 7 12
-74 51 -91 44 -8 -3 -14 -15 -13 -27 0 -11 3 -15 6 -9 7 20 33 -11 33 -40 0
-13 13 -41 30 -63 23 -31 28 -46 24 -71 -4 -21 -2 -33 5 -33 6 0 11 -7 11 -15
0 -10 -10 -15 -30 -15 -27 0 -30 3 -30 30 0 20 -5 30 -15 30 -8 0 -15 -5 -15
-11 0 -6 -7 -17 -16 -26 -20 -20 -64 -3 -64 26 0 11 -6 24 -13 28 -12 7 -87
155 -87 171 0 4 -20 36 -45 72 -25 36 -45 77 -45 91 0 14 -8 33 -18 42 -9 8
-75 130 -146 270 -75 149 -134 253 -140 251 -7 -3 -16 17 -22 52 -10 53 -9 56
14 75 14 10 32 19 41 20 9 0 57 7 106 14 83 12 61 13 -297 14 -333 1 -388 -1
-388 -14 0 -7 6 -18 14 -22 14 -8 66 -128 105 -243 13 -36 32 -92 43 -125 60
-174 54 -158 98 -280 10 -27 28 -75 39 -105 12 -30 21 -65 21 -77 0 -13 4 -23
9 -23 5 0 15 -17 22 -37 6 -21 17 -49 24 -63 12 -24 32 -95 39 -135 1 -11 8
-29 14 -41 6 -11 10 -26 10 -34 -2 -39 3 -60 16 -60 20 0 26 -31 31 -160 3
-63 8 -131 11 -150 6 -33 5 -34 -13 -19 -10 9 -31 19 -48 23 -16 4 -39 9 -50
12 -16 4 -17 3 -5 -5 12 -8 8 -11 -17 -11 -18 0 -33 5 -33 10 0 6 -53 9 -142
8 l-143 -2 135 -6 c133 -6 133 -6 -55 -6 -108 -1 -169 2 -140 6 29 4 -60 8
-210 10 -143 2 -354 5 -470 8 -115 3 -235 5 -265 6 -30 0 -162 -3 -292 -8
-173 -6 -238 -5 -238 3 0 8 -92 11 -322 10 -178 0 -466 3 -640 7 -237 5 -318
4 -318 -5 0 -14 -188 -15 -210 -1 -11 7 0 10 37 10 28 0 53 4 55 10 2 5 82 14
183 19 99 5 200 14 225 20 59 13 320 14 320 1 0 -5 7 -10 15 -10 8 0 15 9 15
20 0 22 -3 22 95 24 139 4 305 19 305 27 0 5 18 9 40 9 22 0 40 -4 40 -10 0
-19 72 -11 90 10 15 17 42 21 246 35 126 9 261 18 299 20 160 9 397 26 505 35
261 23 351 29 477 29 72 1 138 4 147 7 38 15 10 24 -73 24 -103 0 -159 9 -139
21 7 5 102 9 211 9 167 0 197 2 197 15 0 28 -58 30 -325 8 -44 -3 -143 -7
-220 -9 -77 -1 -246 -4 -376 -7 -231 -5 -283 0 -249 24 10 7 60 8 147 4 81 -4
140 -2 151 4 10 5 62 11 115 12 82 2 97 5 97 19 0 13 -11 15 -67 13 -38 -1
-219 -5 -403 -7 -184 -3 -348 -8 -365 -11 -38 -7 -377 -6 -384 1 -3 3 1 9 9
15 13 7 13 10 1 18 -7 5 -10 14 -7 20 5 8 -9 10 -51 5 -32 -3 -65 -8 -73 -10
-23 -8 8 -24 48 -24 25 0 32 -4 32 -19 0 -15 -10 -21 -40 -26 -42 -7 -80 0
-80 16 0 5 5 9 10 9 15 0 12 37 -3 43 -7 3 -71 5 -141 6 -98 1 -131 -2 -142
-13 -10 -11 -22 -12 -45 -6 -18 5 -35 8 -38 6 -3 -2 -82 -6 -176 -10 -134 -4
-165 -3 -145 6 14 7 48 12 75 13 145 3 225 9 225 16 0 5 8 8 18 7 9 -1 41 0
70 0 39 2 52 6 52 17 0 13 -4 14 -21 5 -13 -8 -77 -11 -183 -9 -88 2 -166 0
-173 -4 -12 -8 -90 -13 -323 -21 -85 -3 -177 -12 -204 -18 -39 -10 -50 -10
-54 0 -4 14 -42 16 -42 2 0 -5 9 -10 20 -10 11 0 20 -4 20 -10 0 -5 -13 -10
-30 -10 -16 0 -30 5 -30 10 0 14 -106 13 -132 -1 -15 -8 -22 -8 -28 1 -6 9
-25 10 -76 4 -38 -4 -76 -7 -84 -6 -8 1 -43 0 -77 -4 -57 -5 -63 -8 -63 -28 0
-16 -9 -25 -33 -34 -45 -16 -47 -16 -47 14 0 21 4 24 20 19 11 -3 20 -2 20 3
0 6 -18 13 -40 17 -29 5 -40 12 -40 24 0 15 15 20 93 29 50 5 138 10 194 10
78 0 106 3 117 15 14 13 12 15 -11 20 -15 3 -38 1 -51 -4 -32 -12 -368 -17
-379 -5 -4 5 -2 11 5 13 17 6 15 33 -2 33 -10 0 -16 20 -21 70 -7 66 -8 70
-29 64 -20 -6 -20 -6 -4 12 9 11 18 28 20 39 2 17 -2 19 -24 17 -32 -4 -35 4
-12 29 19 21 11 41 -13 32 -13 -5 -15 0 -11 28 4 23 -1 41 -13 59 -12 16 -20
49 -23 95 -7 97 -15 183 -21 226 -4 30 0 40 25 64 27 26 41 30 111 36 44 4
137 14 207 23 155 19 423 45 512 51 36 2 173 11 305 19 132 9 305 21 385 26
80 5 249 18 375 30 237 21 672 53 970 71 93 5 171 12 174 14 2 3 -1040 5
-2317 5 l-2322 0 0 -1535z m9040 680 c0 -8 -4 -15 -10 -15 -5 0 -10 7 -10 15
0 8 5 15 10 15 6 0 10 -7 10 -15z m224 0 c3 -8 1 -15 -4 -15 -6 0 -10 7 -10
15 0 8 2 15 4 15 2 0 6 -7 10 -15z m-174 -100 c0 -5 -5 -3 -10 5 -5 8 -10 20
-10 25 0 6 5 3 10 -5 5 -8 10 -19 10 -25z m790 -37 c0 -5 -4 -8 -10 -8 -5 0
-10 10 -10 23 0 18 2 19 10 7 5 -8 10 -18 10 -22z m-2893 -80 c-3 -7 -5 -2 -5
12 0 14 2 19 5 13 2 -7 2 -19 0 -25z m2213 -77 c0 -6 -4 -13 -10 -16 -5 -3
-10 1 -10 9 0 9 5 16 10 16 6 0 10 -4 10 -9z m-7000 -11 c0 -5 -15 -10 -32 -9
-31 1 -32 1 -8 9 35 11 40 11 40 0z m199 6 c-12 -10 -59 -15 -59 -6 0 5 14 10
32 10 17 0 29 -2 27 -4z m6681 -6 c0 -5 -4 -10 -10 -10 -5 0 -10 5 -10 10 0 6
5 10 10 10 6 0 10 -4 10 -10z m-5583 -10 c-43 -13 -197 -23 -197 -13 0 5 18 7
40 5 25 -3 40 0 40 7 0 7 26 11 73 10 55 -1 65 -3 44 -9z m-477 -19 c15 -5
-26 -10 -105 -14 -71 -3 -131 -4 -133 -2 -2 2 20 8 50 13 63 11 153 13 188 3z
m140 -1 c0 -5 -4 -10 -10 -10 -5 0 -10 5 -10 10 0 6 5 10 10 10 6 0 10 -4 10
-10z m1086 -24 c21 -21 18 -26 -16 -26 -40 0 -41 30 -2 39 2 1 10 -5 18 -13z
m154 0 c0 -14 -42 -26 -91 -26 -16 0 -29 5 -29 10 0 6 23 10 50 10 28 0 50 5
50 10 0 6 5 10 10 10 6 0 10 -6 10 -14z m-1854 -6 c8 0 14 -4 14 -9 0 -4 -82
-11 -182 -15 -163 -6 -281 -14 -510 -32 -55 -5 -68 -3 -68 9 0 11 14 14 63 14
34 0 87 3 117 7 56 7 92 9 360 21 85 4 157 9 159 11 3 3 11 2 19 -1 7 -3 20
-5 28 -5z m1494 -5 c0 -8 -9 -15 -20 -15 -11 0 -20 5 -20 10 0 16 -57 12 -64
-5 -7 -19 -36 -20 -36 -2 0 23 11 27 77 27 49 0 63 -3 63 -15z m2560 -5 c0 -5
-4 -10 -10 -10 -5 0 -10 5 -10 10 0 6 5 10 10 10 6 0 10 -4 10 -10z m50 6 c0
-2 -7 -6 -15 -10 -8 -3 -15 -1 -15 4 0 6 7 10 15 10 8 0 15 -2 15 -4z m-2942
-17 l57 -2 -50 -7 c-71 -12 -135 -12 -135 -1 0 11 38 20 58 15 8 -2 39 -5 70
-5z m132 1 c0 -5 -13 -10 -30 -10 -16 0 -30 5 -30 10 0 6 14 10 30 10 17 0 30
-4 30 -10z m1250 -9 c0 -5 8 -11 18 -13 9 -2 -20 -4 -65 -5 -46 -1 -83 2 -83
7 0 5 14 7 30 4 19 -4 30 -2 30 5 0 6 16 11 35 11 19 0 35 -4 35 -9z m-170
-11 c0 -6 -30 -10 -70 -10 -40 0 -70 4 -70 10 0 6 30 10 70 10 40 0 70 -4 70
-10z m-1600 -10 c0 -6 -27 -10 -60 -10 -33 0 -60 4 -60 10 0 6 27 10 60 10 33
0 60 -4 60 -10z m1218 -7 c-10 -2 -28 -2 -40 0 -13 2 -5 4 17 4 22 1 32 -1 23
-4z m-1743 -13 c3 -6 -4 -10 -17 -10 -18 0 -20 2 -8 10 19 12 18 12 25 0z
m1398 -7 c-7 -2 -19 -2 -25 0 -7 3 -2 5 12 5 14 0 19 -2 13 -5z m6047 -48 c0
-50 -2 -55 -22 -55 -12 0 -31 -9 -42 -19 -16 -15 -37 -20 -81 -21 -82 -2 -177
-21 -194 -38 -14 -13 -41 -13 -98 1 -18 5 -24 1 -29 -19 -5 -21 -12 -24 -50
-24 -40 0 -44 2 -44 25 0 21 5 25 30 25 17 0 30 5 30 10 0 6 20 10 44 10 24 0
65 9 91 20 26 11 64 20 85 20 21 0 45 7 54 15 8 8 22 15 31 15 31 0 184 65
185 78 0 6 2 12 5 12 3 0 5 -25 5 -55z m-3075 35 c3 -5 19 -10 35 -10 16 0 31
-4 35 -9 8 -13 114 -61 135 -61 23 0 168 -37 183 -47 7 -5 -9 -10 -37 -14 -40
-4 -59 -1 -95 18 -25 13 -59 23 -76 23 -16 0 -50 6 -75 14 -25 9 -73 20 -107
27 -51 9 -63 15 -63 30 0 12 7 19 20 19 11 0 20 5 20 10 0 6 4 10 9 10 6 0 13
-4 16 -10z m-3262 -7 c-7 -2 -19 -2 -25 0 -7 3 -2 5 12 5 14 0 19 -2 13 -5z
m-1530 -10 c-7 -2 -19 -2 -25 0 -7 3 -2 5 12 5 14 0 19 -2 13 -5z m7004 -9 c4
-11 -3 -23 -18 -36 -48 -38 -50 -38 -346 -64 -51 -5 -65 -10 -78 -30 -12 -19
-24 -24 -55 -24 -22 0 -40 5 -40 10 0 6 7 10 15 10 8 0 15 4 15 9 0 14 44 21
52 8 6 -9 8 -8 8 3 0 15 79 40 125 40 10 0 26 6 34 14 9 7 43 18 76 24 33 5
89 19 125 30 83 25 80 25 87 6z m-2346 -45 c111 -55 193 -81 227 -72 13 3 36
-3 57 -16 20 -12 55 -21 78 -22 23 0 51 -4 62 -9 28 -12 -86 -13 -117 -1 -13
5 -54 14 -93 20 -89 15 -143 29 -177 47 -14 8 -35 14 -47 14 -11 0 -45 11 -75
25 -30 14 -62 25 -70 25 -9 0 -16 6 -16 14 0 13 17 20 57 25 6 0 58 -22 114
-50z m-5158 24 c-13 -2 -33 -2 -45 0 -13 2 -3 4 22 4 25 0 35 -2 23 -4z m4875
-36 c12 -13 19 -27 15 -30 -13 -14 -59 -7 -92 14 -27 16 -31 23 -20 30 27 17
75 10 97 -14z m886 -53 c23 -9 20 -34 -4 -34 -11 0 -20 5 -20 10 0 6 -8 10
-17 10 -15 0 -16 2 -3 10 18 11 23 12 44 4z m-729 -15 c60 -16 186 -41 218
-42 15 -1 27 -8 27 -14 0 -9 -19 -13 -67 -12 -56 1 -62 3 -33 9 l35 7 -43 2
c-27 0 -41 -3 -37 -9 8 -12 0 -13 -23 -1 -48 24 -95 41 -115 41 -13 0 -32 7
-43 15 -18 14 -18 14 11 14 17 0 48 -4 70 -10z m905 1 c23 -15 -5 -30 -57 -30
-51 0 -73 8 -73 26 0 17 106 20 130 4z m990 -8 c0 -5 -9 -17 -20 -27 -19 -17
-21 -17 -40 0 -19 17 -21 17 -40 0 -20 -18 -81 -25 -200 -23 -47 1 -55 0 -130
-8 -78 -9 -134 -8 -158 1 -9 4 -70 7 -134 8 -65 1 -118 4 -118 8 0 16 91 20
295 16 144 -3 240 0 305 9 87 12 137 17 213 22 15 1 27 -2 27 -6z m1440 -19
c0 -34 -7 -44 -40 -60 -32 -15 -120 -39 -140 -38 -8 0 -17 -3 -20 -7 -3 -4
-48 -13 -100 -19 -52 -7 -98 -17 -101 -21 -12 -18 -61 -13 -73 7 -6 11 -15 23
-21 27 -16 12 -2 17 71 27 38 6 92 17 119 26 69 22 194 47 231 47 19 0 36 7
45 19 19 27 29 24 29 -8z m-3668 -13 c6 0 16 7 22 16 9 12 17 13 39 5 16 -6
41 -11 56 -11 15 0 38 -9 51 -20 13 -11 33 -20 45 -20 12 0 35 -10 50 -22 16
-12 47 -23 76 -26 48 -4 49 -5 49 -38 0 -19 -2 -34 -4 -34 -18 0 -36 15 -36
31 0 22 -1 23 -34 8 -27 -13 -89 1 -188 42 -26 10 -60 19 -75 19 -16 0 -38 7
-49 15 -10 8 -27 15 -36 15 -10 0 -18 4 -18 9 0 5 8 17 18 27 16 16 17 16 20
1 2 -9 8 -17 14 -17z m1283 10 c-3 -5 -10 -10 -16 -10 -5 0 -9 5 -9 10 0 6 7
10 16 10 8 0 12 -4 9 -10z m69 -22 c-9 -14 -23 2 -17 18 4 12 8 13 14 3 4 -7
5 -17 3 -21z m4175 -5 c-23 -4 -28 -11 -39 -62 -11 -53 -14 -57 -36 -53 -22 4
-24 9 -22 53 2 46 5 50 33 58 16 5 44 9 60 9 28 -1 28 -1 4 -5z m315 -26 c16
-12 16 -14 -3 -31 -12 -11 -21 -30 -21 -43 0 -12 -3 -22 -7 -22 -25 4 -35 -3
-30 -21 4 -15 0 -20 -14 -20 -10 0 -19 7 -19 15 0 8 -7 15 -15 15 -8 0 -15 4
-15 9 0 5 7 14 15 21 10 8 15 9 15 2 0 -29 32 5 41 44 12 46 23 53 53 31z
m-4679 -16 c3 -5 1 -12 -4 -15 -5 -3 -11 1 -15 9 -6 16 9 21 19 6z m1127 1
c30 -12 4 -36 -37 -35 -42 1 -50 6 -42 28 7 15 48 19 79 7z m-4675 -8 c-3 -3
-12 -4 -19 -1 -8 3 -5 6 6 6 11 1 17 -2 13 -5z m3743 -14 c4 -6 30 -6 70 2 50
8 68 8 84 -2 15 -9 61 -12 166 -10 80 1 165 2 189 2 24 -1 52 3 62 9 25 13
124 0 110 -14 -19 -19 -53 -21 -411 -21 -290 -1 -361 2 -387 14 -28 13 -30 15
-15 27 19 15 122 9 132 -7z m830 0 c0 -9 -25 -20 -46 -20 -8 0 -14 8 -14 18 0
15 6 18 30 14 17 -2 30 -8 30 -12z m3227 -42 c-2 -13 -4 -3 -4 22 0 25 2 35 4
23 2 -13 2 -33 0 -45z m243 44 c0 -29 -44 -65 -70 -57 -12 4 -19 9 -17 12 3 2
7 3 9 1 8 -6 38 31 38 46 0 9 8 16 20 16 13 0 20 -7 20 -18z m-5677 -19 c-7
-3 -13 -11 -13 -19 0 -19 -16 -18 -24 2 -10 27 -7 31 22 26 15 -3 21 -7 15 -9z
m-1620 0 c-18 -2 -48 -2 -65 0 -18 2 -4 4 32 4 36 0 50 -2 33 -4z m275 0 c-10
-2 -26 -2 -35 0 -10 3 -2 5 17 5 19 0 27 -2 18 -5z m190 0 c-26 -2 -71 -2
-100 0 -29 2 -8 3 47 3 55 0 79 -1 53 -3z m-2838 -33 c0 -6 -33 -10 -80 -10
-47 0 -80 4 -80 10 0 6 33 10 80 10 47 0 80 -4 80 -10z m193 3 c-7 -2 -19 -2
-25 0 -7 3 -2 5 12 5 14 0 19 -2 13 -5z m247 -3 c0 -5 -24 -10 -54 -10 -30 0
-58 5 -61 10 -4 6 17 10 54 10 34 0 61 -4 61 -10z m73 3 c-7 -2 -19 -2 -25 0
-7 3 -2 5 12 5 14 0 19 -2 13 -5z m8777 -2 c0 -12 -20 -25 -27 -18 -7 7 6 27
18 27 5 0 9 -4 9 -9z m888 -3 c-6 -16 -34 -22 -56 -12 -14 6 -11 9 13 14 45
11 47 11 43 -2z m-2538 -34 c0 -20 -4 -25 -16 -20 -9 3 -22 6 -30 6 -8 0 -14
9 -14 20 0 16 7 20 30 20 26 0 30 -4 30 -26z m1597 -16 c-3 -8 -6 -5 -6 6 -1
11 2 17 5 13 3 -3 4 -12 1 -19z m-3814 -15 c-13 -2 -33 -2 -45 0 -13 2 -3 4
22 4 25 0 35 -2 23 -4z m-4406 -19 c-3 -3 -12 -4 -19 -1 -8 3 -5 6 6 6 11 1
17 -2 13 -5z m6140 -81 c-3 -10 -5 -4 -5 12 0 17 2 24 5 18 2 -7 2 -21 0 -30z"/>
<path d="M6700 1560 c0 -5 5 -10 10 -10 6 0 10 5 10 10 0 6 -4 10 -10 10 -5 0
-10 -4 -10 -10z"/>
<path d="M13662 3053 c3 -17 14 -19 78 -14 11 0 20 8 20 16 0 11 -12 15 -51
15 -43 0 -50 -3 -47 -17z"/>
<path d="M13808 3063 c12 -2 30 -2 40 0 9 3 -1 5 -23 4 -22 0 -30 -2 -17 -4z"/>
<path d="M8984 2836 c-13 -13 5 -66 23 -66 9 0 10 8 3 28 -5 15 -10 32 -12 38
-2 8 -6 9 -14 0z"/>
<path d="M8887 2784 c-5 -5 8 -82 16 -90 3 -3 17 -4 31 -2 l25 3 -18 41 c-17
37 -42 60 -54 48z"/>
<path d="M6572 2730 c0 -14 2 -19 5 -12 2 6 2 18 0 25 -3 6 -5 1 -5 -13z"/>
<path d="M6608 2713 c6 -2 18 -2 25 0 6 3 1 5 -13 5 -14 0 -19 -2 -12 -5z"/>
<path d="M7167 2641 c-6 -26 0 -51 14 -51 11 0 11 27 0 54 -7 19 -8 19 -14 -3z"/>
<path d="M7202 2610 c0 -14 2 -19 5 -12 2 6 2 18 0 25 -3 6 -5 1 -5 -13z"/>
<path d="M10890 2622 c0 -5 3 -12 7 -15 3 -4 8 -19 9 -33 2 -15 12 -36 23 -48
12 -12 21 -27 21 -32 0 -6 11 -21 25 -34 14 -13 25 -29 25 -35 0 -7 13 -29 29
-49 16 -20 44 -65 62 -101 19 -36 38 -65 42 -65 35 0 -14 108 -84 185 -20 22
-38 45 -40 51 -2 5 -26 49 -53 97 -44 78 -66 104 -66 79z"/>
<path d="M11210 2539 c0 -16 20 -51 45 -79 13 -14 26 -36 30 -50 12 -41 52
-103 90 -140 l35 -34 0 32 c0 22 -8 39 -26 55 -14 12 -32 34 -40 48 -7 15 -27
40 -44 55 -17 16 -40 50 -52 77 -19 43 -38 62 -38 36z"/>
<path d="M6215 2530 c3 -5 8 -10 11 -10 2 0 4 5 4 10 0 6 -5 10 -11 10 -5 0
-7 -4 -4 -10z"/>
<path d="M7238 2504 c-8 -7 3 -54 13 -54 12 0 12 47 0 54 -4 3 -10 3 -13 0z"/>
<path d="M7400 2490 c0 -11 5 -20 10 -20 6 0 10 9 10 20 0 11 -4 20 -10 20 -5
0 -10 -9 -10 -20z"/>
<path d="M11445 2433 c-3 -9 10 -32 32 -58 21 -24 46 -55 56 -70 24 -34 33
-25 17 17 -19 48 -97 130 -105 111z"/>
<path d="M11701 2380 c-10 -6 -9 -14 5 -36 45 -72 81 -92 64 -35 -17 62 -43
88 -69 71z"/>
<path d="M10730 2367 c0 -8 8 -22 19 -31 17 -16 19 -16 25 0 4 9 5 17 4 18 -2
1 -13 7 -25 14 -19 10 -23 10 -23 -1z"/>
<path d="M9800 2350 c-10 -6 -10 -11 1 -22 11 -12 16 -13 26 -2 7 7 13 15 13
17 0 10 -27 15 -40 7z"/>
<path d="M13562 2284 c-13 -31 -21 -59 -18 -61 9 -10 27 9 24 25 -1 10 4 27
11 40 7 13 11 30 9 38 -2 8 -13 -11 -26 -42z"/>
<path d="M13804 2272 c-33 -70 -50 -127 -37 -119 4 3 15 20 24 39 9 18 26 53
38 76 11 24 21 50 21 58 0 30 -16 11 -46 -54z"/>
<path d="M9946 2285 c4 -8 8 -15 10 -15 2 0 4 7 4 15 0 8 -4 15 -10 15 -5 0
-7 -7 -4 -15z"/>
<path d="M12657 2243 c-13 -12 -7 -23 13 -23 11 0 20 7 20 15 0 15 -21 21 -33
8z"/>
<path d="M10810 2227 c1 -7 7 -23 14 -36 15 -27 31 -13 21 18 -7 22 -35 37
-35 18z"/>
<path d="M12465 2209 c-8 -25 -1 -34 20 -26 19 8 20 47 1 47 -8 0 -18 -9 -21
-21z"/>
<path d="M11268 2110 c-1 -27 0 -46 3 -42 11 12 20 92 10 92 -5 0 -11 -22 -13
-50z"/>
<path d="M2743 2110 c15 -5 39 -5 55 0 22 7 17 8 -28 8 -45 0 -50 -1 -27 -8z"/>
<path d="M2903 2113 c15 -2 39 -2 55 0 15 2 2 4 -28 4 -30 0 -43 -2 -27 -4z"/>
<path d="M3380 2080 c-17 -5 1 -8 58 -9 48 -1 82 3 82 9 0 12 -103 12 -140 0z"/>
<path d="M9700 2080 c0 -5 5 -10 10 -10 6 0 10 5 10 10 0 6 -4 10 -10 10 -5 0
-10 -4 -10 -10z"/>
<path d="M3248 2073 c6 -2 18 -2 25 0 6 3 1 5 -13 5 -14 0 -19 -2 -12 -5z"/>
<path d="M3084 2058 c-3 -4 14 -8 37 -8 23 0 39 3 36 7 -10 10 -67 11 -73 1z"/>
<path d="M2876 2045 c7 -16 24 -18 74 -9 42 9 19 24 -37 24 -34 0 -41 -3 -37
-15z"/>
<path d="M3008 2053 c6 -2 18 -2 25 0 6 3 1 5 -13 5 -14 0 -19 -2 -12 -5z"/>
<path d="M2590 2042 c-36 -2 -68 -6 -73 -11 -7 -7 62 -16 93 -12 8 1 65 5 125
9 l110 8 -95 4 c-52 3 -124 4 -160 2z"/>
<path d="M3769 2036 c-3 -3 -64 -6 -136 -7 -72 -1 -137 -6 -145 -10 -20 -13
267 -9 427 6 l140 12 -141 2 c-77 0 -143 -1 -145 -3z"/>
<path d="M2360 2020 c0 -6 27 -10 60 -10 33 0 60 4 60 10 0 6 -27 10 -60 10
-33 0 -60 -4 -60 -10z"/>
<path d="M7450 2005 c0 -8 7 -15 15 -15 8 0 15 7 15 15 0 8 -7 15 -15 15 -8 0
-15 -7 -15 -15z"/>
<path d="M4450 1990 c0 -5 7 -10 15 -10 8 0 15 5 15 10 0 6 -7 10 -15 10 -8 0
-15 -4 -15 -10z"/>
<path d="M3800 1965 c0 -8 9 -15 20 -15 11 0 20 7 20 15 0 8 -9 15 -20 15 -11
0 -20 -7 -20 -15z"/>
<path d="M4040 1965 c0 -8 5 -15 10 -15 6 0 10 7 10 15 0 8 -4 15 -10 15 -5 0
-10 -7 -10 -15z"/>
<path d="M4240 1965 c0 -11 11 -15 40 -15 29 0 40 4 40 15 0 11 -11 15 -40 15
-29 0 -40 -4 -40 -15z"/>
<path d="M8850 1965 c0 -8 7 -15 15 -15 8 0 15 7 15 15 0 8 -7 15 -15 15 -8 0
-15 -7 -15 -15z"/>
<path d="M5418 1963 c-29 -4 -37 -18 -16 -25 17 -6 118 14 118 24 0 8 -51 9
-102 1z"/>
<path d="M5298 1952 c-10 -2 -18 -8 -18 -13 0 -8 67 -3 78 6 6 5 -43 11 -60 7z"/>
<path d="M8510 1940 c0 -5 11 -10 25 -10 14 0 25 5 25 10 0 6 -11 10 -25 10
-14 0 -25 -4 -25 -10z"/>
<path d="M8690 1935 c0 -8 7 -15 15 -15 8 0 15 7 15 15 0 8 -7 15 -15 15 -8 0
-15 -7 -15 -15z"/>
<path d="M11212 1930 c-1 -14 -8 -37 -16 -51 -7 -14 -16 -39 -20 -55 l-7 -29
26 26 c23 23 26 32 22 80 -2 30 -4 43 -5 29z"/>
<path d="M8480 1920 c0 -5 5 -10 10 -10 6 0 10 5 10 10 0 6 -4 10 -10 10 -5 0
-10 -4 -10 -10z"/>
<path d="M5740 1880 c0 -5 5 -10 11 -10 5 0 7 5 4 10 -3 6 -8 10 -11 10 -2 0
-4 -4 -4 -10z"/>
<path d="M10121 1864 c-29 -13 -60 -24 -67 -24 -8 0 -14 -5 -14 -11 0 -16 80
-5 91 12 4 8 11 10 15 7 8 -9 64 19 64 32 0 16 -31 10 -89 -16z"/>
<path d="M5513 1823 c-7 -2 -13 -8 -13 -12 0 -8 130 -2 147 8 14 7 -116 12
-134 4z"/>
<path d="M5698 1823 c7 -3 16 -2 19 1 4 3 -2 6 -13 5 -11 0 -14 -3 -6 -6z"/>
<path d="M5068 1703 c12 -2 30 -2 40 0 9 3 -1 5 -23 4 -22 0 -30 -2 -17 -4z"/>
<path d="M4215 1673 c11 -3 27 -14 36 -24 22 -25 29 -24 29 6 0 23 -4 25 -42
24 -24 -1 -34 -4 -23 -6z"/>
</g>
</svg>
