<?xml version="1.0" standalone="no"?>
<!DOCTYPE svg PUBLIC "-//W3C//DTD SVG 20010904//EN"
 "http://www.w3.org/TR/2001/REC-SVG-20010904/DTD/svg10.dtd">
<svg version="1.0" xmlns="http://www.w3.org/2000/svg"
 width="1890.000000pt" height="259.000000pt" viewBox="0 0 1890.000000 259.000000"
 preserveAspectRatio="xMidYMid meet">

<g transform="translate(0.000000,259.000000) scale(0.100000,-0.100000)"
fill="#000000" stroke="none">
<path d="M14200 2530 c0 -13 7 -20 20 -20 13 0 20 -7 20 -20 0 -13 -7 -20 -20
-20 -13 0 -20 7 -20 20 0 11 -4 20 -10 20 -5 0 -10 8 -10 17 0 31 -15 0 -19
-39 -1 -5 -10 -8 -20 -8 -10 0 -40 -20 -67 -45 -26 -25 -53 -45 -61 -45 -7 0
-13 -6 -13 -14 0 -8 -11 -17 -25 -20 -16 -4 -25 -13 -25 -26 0 -11 -7 -20 -15
-20 -8 0 -15 -9 -15 -20 0 -13 -7 -20 -20 -20 -13 0 -20 7 -20 20 0 13 -7 20
-19 20 -13 0 -20 -11 -27 -42 -8 -38 -13 -43 -39 -46 -16 -2 -33 -9 -37 -15
-4 -7 -80 -14 -205 -19 -109 -4 -243 -13 -298 -18 -55 -6 -190 -15 -300 -20
-330 -15 -588 -31 -597 -36 -5 -3 -33 -7 -63 -8 -41 -2 -55 1 -55 11 0 7 -4
13 -8 13 -5 0 -19 9 -32 20 -25 21 -70 26 -99 10 -10 -5 -24 -23 -31 -40 -10
-25 -10 -35 4 -65 16 -33 19 -35 69 -35 50 0 53 2 72 36 16 30 23 35 45 31 14
-3 95 -1 180 5 85 6 214 12 285 14 72 2 245 8 385 13 140 6 351 10 469 11
l213 0 -7 -37 c-4 -21 -13 -45 -21 -54 -8 -8 -14 -19 -14 -22 0 -4 -31 -48
-70 -97 -38 -49 -70 -94 -70 -98 0 -5 -9 -17 -20 -27 -11 -10 -20 -24 -20 -31
0 -7 -29 -40 -65 -75 -36 -34 -65 -68 -65 -74 0 -7 -9 -15 -21 -18 -11 -3 -23
-15 -26 -26 -3 -12 -10 -21 -15 -21 -5 0 -14 -13 -19 -30 -6 -16 -14 -29 -17
-29 -24 4 -32 -4 -32 -29 0 -35 -27 -62 -62 -62 -47 0 -58 -10 -59 -54 -1 -22
-4 -31 -6 -18 -5 27 -23 29 -23 2 0 -18 -7 -20 -70 -20 -63 0 -70 2 -70 20 0
11 -4 20 -10 20 -5 0 -10 -9 -10 -20 0 -13 -7 -20 -20 -20 -13 0 -20 7 -20 20
0 18 -7 20 -70 20 -43 0 -70 4 -70 11 0 16 -26 39 -44 39 -9 0 -16 7 -16 15 0
8 -9 15 -20 15 -11 0 -20 5 -20 10 0 6 -9 10 -20 10 -11 0 -20 -4 -20 -10 0
-5 9 -10 20 -10 17 0 20 -7 20 -40 0 -33 3 -40 20 -40 11 0 20 -4 20 -10 0 -5
-9 -10 -20 -10 -11 0 -20 5 -20 10 0 6 -9 10 -20 10 -11 0 -20 7 -20 15 0 9
-12 18 -30 22 -21 4 -30 11 -30 24 0 11 5 19 10 19 6 0 10 5 10 10 0 6 -40 10
-100 10 -60 0 -100 4 -100 10 0 6 -33 10 -80 10 -47 0 -80 -4 -80 -10 0 -6
-27 -10 -60 -10 l-60 0 0 30 c0 27 -3 30 -30 30 -23 0 -30 -4 -30 -20 0 -17
-7 -20 -50 -20 -27 0 -50 -4 -50 -10 0 -5 -9 -10 -20 -10 -11 0 -20 5 -20 10
0 6 -33 10 -80 10 l-80 0 0 -40 c0 -33 3 -40 20 -40 14 0 20 -7 20 -21 0 -19
-4 -21 -31 -15 -17 3 -35 6 -40 6 -5 0 -9 7 -9 15 0 8 -9 16 -20 16 -11 1 -24
3 -30 4 -5 1 -12 3 -16 4 -3 0 9 27 27 59 18 31 39 70 47 85 8 16 21 31 29 34
27 10 68 113 45 113 -12 0 -72 -64 -72 -77 0 -6 -12 -25 -27 -41 -16 -16 -43
-51 -62 -78 -19 -26 -36 -43 -39 -36 -3 9 -83 12 -323 12 -206 0 -319 4 -319
10 0 15 -19 12 -36 -5 -11 -10 -13 -25 -8 -50 5 -31 4 -35 -15 -35 -14 0 -21
6 -21 19 0 12 -9 20 -28 24 -16 3 -43 20 -61 36 -18 17 -42 31 -52 31 -10 0
-19 5 -19 11 0 5 -4 8 -9 5 -5 -3 -14 8 -21 24 -7 16 -20 32 -30 35 -20 6 -70
67 -70 84 0 6 -7 11 -15 11 -14 0 -13 -4 0 -37 9 -21 27 -49 39 -63 32 -34 59
-89 52 -106 -4 -10 -24 -14 -76 -14 l-70 0 0 -60 0 -60 -220 0 -220 0 0 29 c0
24 -5 29 -31 35 -17 3 -35 3 -40 0 -18 -11 -8 12 11 26 22 16 27 40 9 40 -6 0
-9 8 -6 18 18 56 19 62 8 62 -7 0 -23 -11 -37 -25 -14 -14 -29 -25 -34 -25 -6
0 -10 -8 -10 -17 0 -16 -40 -43 -62 -43 -4 0 -8 14 -8 30 0 27 -3 30 -30 30
-16 0 -30 -4 -30 -10 0 -5 -9 -10 -20 -10 -11 0 -20 -4 -20 -10 0 -5 -22 -10
-50 -10 -27 0 -50 5 -50 10 0 6 -33 10 -80 10 -47 0 -80 -4 -80 -10 0 -6 -27
-10 -60 -10 -53 0 -60 2 -60 20 0 16 -7 20 -30 20 -16 0 -30 -4 -30 -10 0 -5
-9 -10 -20 -10 -11 0 -20 -4 -20 -10 0 -5 -22 -10 -50 -10 -27 0 -50 4 -50 10
0 5 -37 10 -82 12 -81 3 -83 4 -103 35 -11 18 -28 35 -37 38 -11 4 -18 16 -18
30 0 14 -9 29 -20 35 -18 9 -20 8 -20 -15 0 -14 4 -25 8 -25 13 0 36 -76 28
-89 -9 -14 -33 -14 -38 0 -2 7 -125 11 -401 12 -310 2 -397 5 -397 15 0 6 -4
12 -10 12 -5 0 -10 8 -11 18 0 15 -1 15 -7 0 -9 -21 -50 -53 -79 -62 -13 -4
-23 -12 -23 -17 0 -5 -43 -9 -95 -9 -88 0 -95 1 -95 20 0 16 -7 20 -30 20 -16
0 -30 -4 -30 -10 0 -5 -9 -10 -20 -10 -11 0 -20 -4 -20 -10 0 -5 -22 -10 -50
-10 -27 0 -50 5 -50 10 0 6 -33 10 -80 10 l-80 0 0 -40 c0 -33 3 -40 20 -40
14 0 20 -7 20 -21 0 -15 -4 -19 -16 -15 -9 3 -18 6 -20 6 -2 0 -4 7 -4 15 0 8
-9 15 -20 15 -13 0 -20 7 -20 19 0 11 -9 23 -20 26 -11 3 -20 13 -20 21 0 8
-9 14 -20 14 -11 0 -20 5 -20 11 0 6 -8 8 -19 4 -14 -4 -20 0 -25 17 -8 30
-61 88 -81 88 -11 0 -8 -9 11 -38 25 -35 114 -206 114 -217 0 -3 -22 -5 -48
-5 -36 0 -51 5 -62 20 -8 11 -22 20 -32 20 -11 0 -18 7 -18 20 0 16 -7 20 -30
20 -16 0 -30 -4 -30 -10 0 -5 -9 -10 -20 -10 -12 0 -20 -7 -20 -16 0 -31 -27
-44 -93 -44 -43 0 -67 4 -71 13 -5 9 -7 9 -12 0 -8 -18 -140 -18 -148 0 -5 9
-7 9 -12 0 -8 -18 -140 -18 -147 0 -4 8 -8 9 -14 2 -11 -15 -136 -16 -145 -2
-6 9 -11 8 -17 -3 -6 -8 -13 -12 -16 -8 -7 7 40 105 61 126 8 7 14 31 14 53 0
21 5 39 10 39 6 0 10 9 10 20 0 11 -7 20 -15 20 -8 0 -15 -8 -15 -18 0 -10
-13 -31 -30 -47 -16 -16 -30 -34 -30 -41 0 -6 -7 -17 -15 -24 -12 -10 -15 -10
-15 4 0 14 -35 16 -370 16 -322 0 -370 2 -370 15 0 8 -4 15 -10 15 -5 0 -10
-7 -10 -15 0 -12 -14 -15 -70 -15 -56 0 -70 3 -70 15 0 8 -4 15 -10 15 -5 0
-10 -7 -10 -15 0 -9 -9 -15 -25 -15 -14 0 -25 4 -25 10 0 5 -14 25 -30 43 -16
19 -30 40 -30 46 0 6 -4 11 -9 11 -5 0 -16 17 -24 38 -21 49 -66 97 -80 83 -7
-7 -6 -15 3 -26 7 -8 9 -15 6 -15 -4 0 0 -7 8 -16 19 -18 20 -30 5 -39 -6 -4
-17 2 -25 14 -21 29 -75 41 -191 41 -96 0 -103 -1 -103 -20 0 -17 -7 -20 -40
-20 -29 0 -40 4 -40 15 0 8 -7 15 -15 15 -8 0 -15 -5 -15 -11 0 -13 -25 -39
-38 -39 -18 0 -23 33 -7 50 8 9 15 27 15 39 0 19 -4 21 -22 16 -13 -4 -26 -10
-29 -14 -3 -3 -25 -30 -48 -58 l-43 -53 -419 0 c-412 0 -419 0 -419 -20 0 -13
-7 -20 -20 -20 -13 0 -20 7 -20 20 0 14 -7 20 -21 20 -22 0 -89 49 -89 66 0 6
-11 21 -25 34 -14 13 -25 29 -25 37 0 7 -19 30 -43 52 -23 21 -58 70 -77 108
-19 37 -36 61 -37 52 -4 -15 48 -111 86 -161 12 -14 21 -33 21 -42 0 -9 7 -28
17 -42 l16 -25 -29 7 c-16 4 -41 13 -56 20 -20 10 -74 14 -201 14 l-175 0 -4
48 c-4 34 0 56 14 78 18 31 16 94 -2 94 -18 0 -18 33 -1 73 52 117 61 147 46
147 -13 0 -68 -65 -81 -94 -18 -42 -77 -106 -97 -106 -10 0 -17 -4 -17 -10 0
-5 -9 -10 -20 -10 -11 0 -20 5 -20 10 0 6 -9 10 -19 10 -11 0 -22 6 -25 13 -5
9 -7 9 -12 0 -3 -7 -23 -13 -45 -13 -21 0 -39 -4 -39 -10 0 -6 -107 -10 -300
-10 -193 0 -300 4 -300 10 0 6 -33 10 -80 10 -47 0 -80 -4 -80 -10 0 -6 -40
-10 -100 -10 -60 0 -100 4 -100 10 0 6 -9 10 -20 10 -11 0 -20 -4 -20 -10 0
-5 -9 -10 -20 -10 -11 0 -20 5 -20 10 0 6 -9 10 -20 10 -18 0 -20 -7 -20 -60
0 -53 -2 -60 -20 -60 -17 0 -20 7 -20 46 0 29 -6 51 -17 62 -12 12 -18 13 -21
4 -5 -17 -77 -15 -92 3 -8 9 -10 28 -5 53 6 35 3 42 -25 66 -31 25 -73 33 -97
18 -22 -14 -31 -55 -19 -92 9 -29 17 -36 41 -38 59 -5 75 -12 75 -32 0 -16 -7
-20 -38 -20 -27 0 -41 -6 -50 -21 -8 -12 -19 -18 -30 -15 -17 6 -42 -31 -42
-61 0 -7 -9 -13 -20 -13 -10 0 -24 -8 -29 -17 -6 -10 -11 -12 -11 -5 0 7 -14
12 -34 12 -27 0 -42 -9 -78 -48 -62 -65 -91 -79 -166 -76 -47 1 -62 -2 -62
-12 0 -12 -59 -14 -340 -14 -296 0 -340 -2 -340 -15 0 -8 -8 -15 -17 -15 -10
0 -28 -3 -41 -6 -18 -5 -22 -2 -22 15 0 14 -6 21 -20 21 -11 0 -20 4 -20 9 0
5 -14 11 -32 15 -22 4 -53 28 -96 71 -35 36 -65 65 -68 65 -22 0 29 -103 89
-175 13 -16 32 -46 42 -65 9 -19 26 -45 37 -57 11 -12 17 -26 13 -32 -8 -14
-105 -15 -105 -1 0 6 -9 10 -20 10 -11 0 -20 -4 -20 -10 0 -5 -9 -10 -20 -10
-20 0 -20 -7 -20 -725 l0 -725 9450 0 9450 0 0 800 c0 784 0 800 -19 791 -21
-12 -81 -84 -81 -98 0 -5 -9 -16 -20 -26 -18 -15 -50 -17 -300 -17 -180 0
-280 4 -280 10 0 6 -33 10 -80 10 l-80 0 0 -40 c0 -33 -3 -40 -20 -40 -13 0
-20 7 -20 20 0 13 -7 20 -20 20 -13 0 -20 7 -20 20 0 13 -7 20 -20 20 -11 0
-20 6 -20 14 0 7 -13 19 -28 25 -16 7 -36 27 -45 47 -9 19 -21 34 -26 34 -5 0
-20 17 -33 37 -31 50 -39 61 -73 112 -17 24 -37 56 -45 72 -16 29 -59 74 -65
67 -2 -2 14 -30 36 -63 22 -33 54 -87 71 -120 17 -33 33 -62 37 -65 11 -9 47
-64 64 -97 19 -36 22 -56 6 -33 -8 11 -12 12 -16 3 -6 -15 -43 -17 -43 -3 0 6
-33 10 -80 10 -73 0 -80 2 -80 20 0 17 -7 20 -40 20 -33 0 -40 3 -40 20 0 17
-7 20 -40 20 -33 0 -40 -3 -40 -20 0 -13 -7 -20 -20 -20 -18 0 -20 7 -20 60 0
53 -2 60 -20 60 -13 0 -20 7 -20 20 0 11 -4 20 -10 20 -5 0 -10 18 -10 40 0
23 5 40 11 40 7 0 9 11 6 30 -4 17 -3 30 1 30 18 0 42 61 42 109 l0 51 -127
-1 c-123 -1 -342 -14 -295 -17 12 -1 22 -6 22 -12 0 -6 -40 -10 -100 -10 -60
0 -100 -4 -100 -10 0 -6 -60 -10 -160 -10 -100 0 -160 4 -160 10 0 6 -9 10
-20 10 -11 0 -20 -4 -20 -10 0 -5 -18 -10 -40 -10 -22 0 -40 -4 -40 -10 0 -5
-9 -10 -20 -10 -11 0 -20 -4 -20 -10 0 -6 -33 -10 -80 -10 -47 0 -80 4 -80 10
0 6 -33 10 -80 10 -47 0 -80 -4 -80 -10 0 -5 -18 -10 -40 -10 -22 0 -40 5 -40
10 0 6 -18 10 -40 10 -30 0 -40 4 -40 16 0 13 -7 15 -31 10 -41 -8 -67 17 -71
69 -3 36 -6 40 -34 43 -38 4 -67 -25 -62 -64 2 -24 10 -31 43 -40 31 -9 36
-13 22 -19 -9 -4 -37 -4 -62 -1 -41 7 -47 5 -71 -21 -14 -15 -39 -47 -56 -70
-16 -24 -33 -43 -38 -43 -5 0 -19 -17 -30 -37 -10 -21 -35 -54 -55 -73 -19
-19 -35 -39 -35 -45 -1 -5 -21 -30 -45 -55 l-45 -45 -355 -3 c-353 -3 -355 -3
-355 17 0 19 -6 21 -80 21 -73 0 -80 2 -80 20 0 13 -7 20 -20 20 -11 0 -20 4
-20 9 0 5 -13 11 -29 14 -33 7 -91 53 -91 73 0 7 -10 16 -23 19 -14 4 -28 21
-40 50 -10 24 -34 64 -52 87 -18 24 -44 66 -59 93 -65 121 -67 125 -56 125 5
0 10 16 10 35 0 28 4 35 19 35 12 0 20 9 24 29 3 16 13 36 22 44 8 9 15 23 15
31 0 9 8 16 20 16 11 0 20 7 20 15 0 20 45 65 65 65 8 0 15 5 15 10 0 6 -9 10
-20 10 -13 0 -20 7 -20 20 0 16 7 20 30 20 23 0 30 4 30 20 0 12 7 20 16 20
22 0 53 32 36 38 -6 2 -12 12 -12 23 0 16 -7 19 -40 19 -33 0 -40 -3 -40 -20z
m-192 -542 c31 -33 65 -74 77 -93 11 -18 33 -52 50 -76 28 -42 43 -68 106
-185 15 -27 37 -58 49 -69 12 -11 28 -32 36 -47 l15 -28 -51 0 c-27 0 -50 -4
-50 -10 0 -6 -33 -10 -80 -10 l-80 0 0 -40 0 -40 100 0 c93 0 100 -1 100 -20
0 -13 -7 -20 -20 -20 -13 0 -20 -7 -20 -20 0 -17 -7 -20 -50 -20 -43 0 -50 3
-50 20 0 11 -4 20 -10 20 -5 0 -10 -9 -10 -20 0 -19 -7 -20 -100 -20 -93 0
-100 1 -100 20 0 13 -7 20 -20 20 -13 0 -20 -7 -20 -20 0 -18 -7 -20 -60 -20
-53 0 -60 2 -60 20 0 13 -7 20 -20 20 -13 0 -20 -7 -20 -20 0 -18 -7 -20 -60
-20 -53 0 -60 2 -60 20 0 13 -7 20 -20 20 -13 0 -20 -7 -20 -20 0 -19 -7 -20
-110 -20 l-110 0 0 30 c0 17 5 30 10 30 6 0 10 -4 10 -10 0 -5 9 -10 20 -10
13 0 20 7 20 20 0 18 7 20 80 20 l80 0 0 30 0 30 -60 0 c-33 0 -60 4 -60 10 0
6 -7 10 -16 10 -11 0 -14 5 -10 16 3 9 6 22 6 29 0 7 18 33 40 57 22 23 56 71
75 106 20 34 40 62 46 62 5 0 18 20 29 45 10 24 43 70 72 100 29 31 68 72 85
91 18 19 42 34 53 34 13 0 20 7 20 19 0 24 14 29 68 23 37 -4 51 -13 100 -64z
m3112 -8 c0 -5 -22 -10 -50 -10 -27 0 -50 5 -50 10 0 6 23 10 50 10 28 0 50
-4 50 -10z m-11800 -432 c0 -5 -4 -8 -10 -8 -5 0 -10 10 -10 23 0 18 2 19 10
7 5 -8 10 -18 10 -22z m30 -28 c0 -5 -2 -10 -4 -10 -3 0 -8 5 -11 10 -3 6 -1
10 4 10 6 0 11 -4 11 -10z m4690 -162 c0 -21 -5 -28 -20 -28 -13 0 -20 7 -20
20 0 11 5 20 10 20 6 0 10 10 10 23 0 18 2 19 10 7 5 -8 10 -27 10 -42z m8040
12 c0 -13 -7 -20 -20 -20 -13 0 -20 7 -20 20 0 13 7 20 20 20 13 0 20 -7 20
-20z m-4760 -40 c0 -11 -4 -20 -10 -20 -5 0 -10 9 -10 20 0 11 5 20 10 20 6 0
10 -9 10 -20z"/>
<path d="M6610 2451 c0 -6 4 -13 10 -16 6 -3 7 1 4 9 -7 18 -14 21 -14 7z"/>
<path d="M6965 2339 c-11 -17 1 -21 15 -4 8 9 8 15 2 15 -6 0 -14 -5 -17 -11z"/>
<path d="M3233 2308 c-5 -7 -15 -27 -22 -45 -11 -27 -10 -35 4 -57 15 -22 25
-26 66 -26 46 0 50 2 66 35 16 33 16 37 0 70 -15 32 -20 35 -61 35 -24 0 -48
-6 -53 -12z"/>
<path d="M6740 2275 c0 -5 7 -16 15 -25 20 -23 9 -75 -19 -88 l-21 -11 23 -7
c12 -3 22 -12 22 -19 0 -6 8 -19 18 -28 29 -26 102 -20 102 8 0 6 9 20 20 30
15 13 17 22 10 36 -6 10 -10 29 -10 42 0 23 -2 24 -51 19 -45 -4 -53 -2 -80
24 -16 15 -29 24 -29 19z"/>
<path d="M8536 2245 c-22 -33 -20 -67 5 -99 44 -56 139 -20 139 54 0 64 -109
99 -144 45z"/>
<path d="M7453 2173 c42 -2 112 -2 155 0 42 1 7 3 -78 3 -85 0 -120 -2 -77 -3z"/>
<path d="M7748 2173 c17 -2 47 -2 65 0 17 2 3 4 -33 4 -36 0 -50 -2 -32 -4z"/>
<path d="M17426 2148 c-20 -29 -22 -124 -2 -131 17 -7 96 3 94 12 -1 3 3 23
10 44 15 52 2 82 -38 91 -46 9 -47 8 -64 -16z"/>
<path d="M8883 2153 c9 -2 23 -2 30 0 6 3 -1 5 -18 5 -16 0 -22 -2 -12 -5z"/>
<path d="M6463 2133 c9 -2 23 -2 30 0 6 3 -1 5 -18 5 -16 0 -22 -2 -12 -5z"/>
<path d="M0 2110 c0 -6 60 -10 163 -9 117 1 148 4 112 9 -75 12 -275 12 -275
0z"/>
<path d="M4996 2086 c-29 -26 -33 -54 -11 -95 13 -26 19 -28 66 -27 l52 1 15
48 c15 46 14 48 -8 72 -31 33 -80 33 -114 1z"/>
<path d="M610 2076 c0 -2 7 -7 16 -10 8 -3 12 -2 9 4 -6 10 -25 14 -25 6z"/>
<path d="M845 2060 c3 -5 14 -10 23 -10 15 0 15 2 2 10 -20 13 -33 13 -25 0z"/>
<path d="M935 2054 c47 -7 113 -8 108 -1 -2 4 -32 6 -66 6 -34 -1 -53 -3 -42
-5z"/>
<path d="M10324 2010 c-12 -5 -29 -19 -37 -31 -15 -20 -14 -26 9 -70 26 -52
36 -56 102 -43 43 9 69 63 51 105 -6 16 -20 34 -30 39 -21 12 -66 12 -95 0z"/>
<path d="M17539 1978 c4 -28 6 -29 9 -9 2 13 0 27 -5 32 -6 6 -7 -3 -4 -23z"/>
<path d="M9970 1996 c0 -2 7 -6 15 -10 8 -3 15 -1 15 4 0 6 -7 10 -15 10 -8 0
-15 -2 -15 -4z"/>
<path d="M10051 1986 c2 -2 24 -6 48 -9 29 -4 40 -2 30 4 -13 8 -88 14 -78 5z"/>
<path d="M17572 1915 c6 -14 15 -25 20 -25 11 0 10 7 -2 31 -16 28 -32 23 -18
-6z"/>
<path d="M4882 1827 c-20 -20 -32 -42 -31 -57 1 -21 2 -22 6 -5 3 11 11 23 19
28 18 10 57 67 47 67 -5 0 -23 -15 -41 -33z"/>
<path d="M7165 1670 c3 -5 8 -10 11 -10 2 0 4 5 4 10 0 6 -5 10 -11 10 -5 0
-7 -4 -4 -10z"/>
<path d="M10090 1553 l1 -38 14 25 c19 33 19 50 0 50 -11 0 -15 -11 -15 -37z"/>
<path d="M6560 1430 l0 -40 60 0 60 0 0 40 0 40 -60 0 -60 0 0 -40z"/>
<path d="M6780 1430 c0 -33 3 -40 20 -40 13 0 20 -7 20 -20 0 -16 7 -20 30
-20 l30 0 0 60 0 60 -50 0 -50 0 0 -40z"/>
<path d="M10120 1440 c0 -5 9 -10 20 -10 11 0 20 5 20 10 0 6 -9 10 -20 10
-11 0 -20 -4 -20 -10z"/>
<path d="M10200 1440 c0 -5 9 -10 20 -10 11 0 20 5 20 10 0 6 -9 10 -20 10
-11 0 -20 -4 -20 -10z"/>
</g>
</svg>
