{"asset":{"version":"2.0","generator":"babylon.js glTF exporter for Maya 2018 v20200429.2"},"scene":0,"scenes":[{"nodes":[0]}],"nodes":[{"children":[1,2,3],"translation":[1.20927362E-17,-1.23080563E-17,-2.937882E-17],"rotation":[0.0008262525,0.301359445,-0.125912383,0.9451602],"name":"flying_group2"},{"mesh":0,"name":"pCube6","extras":{"currentUVSet":"map1"}},{"mesh":1,"name":"posed","extras":{"currentUVSet":"map1"}},{"mesh":2,"name":"pSphere1","extras":{"currentUVSet":"map1"}}],"meshes":[{"primitives":[{"attributes":{"POSITION":1,"TANGENT":2,"NORMAL":3,"TEXCOORD_0":4},"indices":0,"material":0}],"name":"pCube6"},{"primitives":[{"attributes":{"POSITION":6,"TANGENT":7,"NORMAL":8,"TEXCOORD_0":9},"indices":5,"material":0}],"name":"posed"},{"primitives":[{"attributes":{"POSITION":11,"TANGENT":12,"NORMAL":13,"TEXCOORD_0":14},"indices":10,"material":0}],"name":"pSphere1"}],"accessors":[{"bufferView":0,"componentType":5123,"count":816,"type":"SCALAR","name":"accessorIndices"},{"bufferView":1,"componentType":5126,"count":174,"max":[-0.0025509214,0.0148175424,0.04861038],"min":[-0.006448459,-0.00316956034,-0.04812042],"type":"VEC3","name":"accessorPositions"},{"bufferView":2,"componentType":5126,"count":174,"type":"VEC4","name":"accessorTangents"},{"bufferView":1,"byteOffset":2088,"componentType":5126,"count":174,"type":"VEC3","name":"accessorNormals"},{"bufferView":3,"componentType":5126,"count":174,"type":"VEC2","name":"accessorUVs"},{"bufferView":0,"byteOffset":1632,"componentType":5123,"count":7608,"type":"SCALAR","name":"accessorIndices"},{"bufferView":1,"byteOffset":4176,"componentType":5126,"count":1962,"max":[0.01034813,0.0323428921,0.01697977],"min":[-0.008321666,-0.0341393463,-0.0216134824],"type":"VEC3","name":"accessorPositions"},{"bufferView":2,"byteOffset":2784,"componentType":5126,"count":1962,"type":"VEC4","name":"accessorTangents"},{"bufferView":1,"byteOffset":27720,"componentType":5126,"count":1962,"type":"VEC3","name":"accessorNormals"},{"bufferView":3,"byteOffset":1392,"componentType":5126,"count":1962,"type":"VEC2","name":"accessorUVs"},{"bufferView":0,"byteOffset":16848,"componentType":5123,"count":2280,"type":"SCALAR","name":"accessorIndices"},{"bufferView":1,"byteOffset":51264,"componentType":5126,"count":482,"max":[0.007253122,0.0316993147,0.007874031],"min":[-0.007933433,0.0150583647,-0.00765205827],"type":"VEC3","name":"accessorPositions"},{"bufferView":2,"byteOffset":34176,"componentType":5126,"count":482,"type":"VEC4","name":"accessorTangents"},{"bufferView":1,"byteOffset":57048,"componentType":5126,"count":482,"type":"VEC3","name":"accessorNormals"},{"bufferView":3,"byteOffset":17088,"componentType":5126,"count":482,"type":"VEC2","name":"accessorUVs"},{"bufferView":4,"componentType":5126,"count":110,"max":[4.79166651],"min":[0.0],"type":"SCALAR","name":"accessorAnimationInput"},{"bufferView":5,"componentType":5126,"count":110,"type":"VEC4","name":"accessorAnimationRotations"},{"bufferView":4,"byteOffset":440,"componentType":5126,"count":50,"max":[4.79166651],"min":[0.0],"type":"SCALAR","name":"accessorAnimationInput"},{"bufferView":6,"componentType":5126,"count":50,"type":"VEC3","name":"accessorAnimationPositions"},{"bufferView":4,"byteOffset":640,"componentType":5126,"count":1,"max":[0.0],"min":[0.0],"type":"SCALAR","name":"accessorAnimationInput"},{"bufferView":6,"byteOffset":600,"componentType":5126,"count":1,"type":"VEC3","name":"accessorAnimationScales"},{"bufferView":4,"byteOffset":644,"componentType":5126,"count":193,"max":[8.0],"min":[0.0],"type":"SCALAR","name":"accessorAnimationInput"},{"bufferView":5,"byteOffset":1760,"componentType":5126,"count":193,"type":"VEC4","name":"accessorAnimationRotations"},{"bufferView":4,"byteOffset":1416,"componentType":5126,"count":145,"max":[8.0],"min":[0.0],"type":"SCALAR","name":"accessorAnimationInput"},{"bufferView":6,"byteOffset":612,"componentType":5126,"count":145,"type":"VEC3","name":"accessorAnimationPositions"},{"bufferView":4,"byteOffset":1996,"componentType":5126,"count":20,"max":[0.8333333],"min":[0.0],"type":"SCALAR","name":"accessorAnimationInput"},{"bufferView":6,"byteOffset":2352,"componentType":5126,"count":20,"type":"VEC3","name":"accessorAnimationScales"},{"bufferView":4,"byteOffset":2076,"componentType":5126,"count":20,"max":[0.8333333],"min":[0.0],"type":"SCALAR","name":"accessorAnimationInput"},{"bufferView":6,"byteOffset":2592,"componentType":5126,"count":20,"type":"VEC3","name":"accessorAnimationPositions"},{"bufferView":4,"byteOffset":2156,"componentType":5126,"count":45,"max":[1.875],"min":[0.0],"type":"SCALAR","name":"accessorAnimationInput"},{"bufferView":6,"byteOffset":2832,"componentType":5126,"count":45,"type":"VEC3","name":"accessorAnimationPositions"},{"bufferView":4,"byteOffset":2336,"componentType":5126,"count":21,"max":[0.8333333],"min":[0.0],"type":"SCALAR","name":"accessorAnimationInput"},{"bufferView":6,"byteOffset":3372,"componentType":5126,"count":21,"type":"VEC3","name":"accessorAnimationScales"},{"bufferView":4,"byteOffset":2420,"componentType":5126,"count":21,"max":[0.8333333],"min":[0.0],"type":"SCALAR","name":"accessorAnimationInput"},{"bufferView":6,"byteOffset":3624,"componentType":5126,"count":21,"type":"VEC3","name":"accessorAnimationPositions"},{"bufferView":4,"byteOffset":2504,"componentType":5126,"count":1,"max":[0.0],"min":[0.0],"type":"SCALAR","name":"accessorAnimationInput"},{"bufferView":5,"byteOffset":4848,"componentType":5126,"count":1,"type":"VEC4","name":"accessorAnimationRotations"},{"bufferView":4,"byteOffset":2508,"componentType":5126,"count":53,"max":[2.25],"min":[0.0],"type":"SCALAR","name":"accessorAnimationInput"},{"bufferView":6,"byteOffset":3876,"componentType":5126,"count":53,"type":"VEC3","name":"accessorAnimationPositions"}],"bufferViews":[{"buffer":0,"byteLength":21408,"name":"bufferViewScalar"},{"buffer":0,"byteOffset":21408,"byteLength":62832,"byteStride":12,"name":"bufferViewFloatVec3"},{"buffer":0,"byteOffset":84240,"byteLength":41888,"byteStride":16,"name":"bufferViewFloatVec4"},{"buffer":0,"byteOffset":126128,"byteLength":20944,"byteStride":8,"name":"bufferViewFloatVec2"},{"buffer":0,"byteOffset":147072,"byteLength":2720,"name":"bufferViewAnimationFloatScalar"},{"buffer":0,"byteOffset":149792,"byteLength":4864,"name":"bufferViewAnimationFloatVec4"},{"buffer":0,"byteOffset":154656,"byteLength":4512,"name":"bufferViewAnimationFloatVec3"}],"buffers":[{"uri":"flying man (anim group transitions).bin","byteLength":159168}],"materials":[{"pbrMetallicRoughness":{"baseColorTexture":{"index":0},"metallicRoughnessTexture":{"index":1}},"name":"gold_m"}],"textures":[{"sampler":0,"source":0,"name":"texture plain_lambert1_BaseColor blue white-min.png"},{"sampler":0,"source":1,"name":"texture_plain_lambert1_Roughness_4texture_plain_lambert1_Metalness_3.jpg"}],"images":[{"uri":"texture plain_lambert1_BaseColor blue white-min.png"},{"uri":"texture_plain_lambert1_Roughness_4texture_plain_lambert1_Metalness_3.jpg"}],"samplers":[{"magFilter":9729,"minFilter":9987}],"animations":[{"channels":[{"sampler":0,"target":{"node":0,"path":"rotation"}},{"sampler":1,"target":{"node":0,"path":"translation"}}],"samplers":[{"input":15,"output":16},{"input":17,"output":18}],"name":"signature"},{"channels":[{"sampler":0,"target":{"node":0,"path":"scale"}},{"sampler":1,"target":{"node":0,"path":"rotation"}},{"sampler":2,"target":{"node":0,"path":"translation"}}],"samplers":[{"input":19,"output":20},{"input":21,"output":22},{"input":23,"output":24}],"name":"idle"},{"channels":[{"sampler":0,"target":{"node":0,"path":"scale"}},{"sampler":1,"target":{"node":0,"path":"translation"}}],"samplers":[{"input":25,"output":26},{"input":27,"output":28}],"name":"slide_out_R"},{"channels":[{"sampler":0,"target":{"node":0,"path":"translation"}}],"samplers":[{"input":29,"output":30}],"name":"slide_in_R"},{"channels":[{"sampler":0,"target":{"node":0,"path":"scale"}},{"sampler":1,"target":{"node":0,"path":"translation"}}],"samplers":[{"input":31,"output":32},{"input":33,"output":34}],"name":"slide_out_L"},{"channels":[{"sampler":0,"target":{"node":0,"path":"rotation"}},{"sampler":1,"target":{"node":0,"path":"translation"}}],"samplers":[{"input":35,"output":36},{"input":37,"output":38}],"name":"slide_in_L"}]}