{"asset":{"version":"2.0","generator":"babylon.js glTF exporter for Maya 2018 v20200429.2"},"scene":0,"scenes":[{"nodes":[0]}],"nodes":[{"children":[1,13],"translation":[0.0,0.0119499462,0.00271308725],"rotation":[-0.0254774783,-0.0168208685,-0.00269145053,0.999530256],"name":"binocular_group2"},{"children":[2,3,4,5,6,7,8,9,10,11,12],"name":"body"},{"mesh":0,"translation":[0.0,0.0,-1.38777875E-19],"name":"pCylinder411","extras":{"currentUVSet":"map1"}},{"mesh":1,"name":"polySurface1311","extras":{"currentUVSet":"map1"}},{"mesh":2,"name":"pCylinder911","extras":{"currentUVSet":"map1"}},{"mesh":3,"translation":[0.0,0.0,-1.38777875E-19],"name":"group1_pCube111","extras":{"currentUVSet":"map1"}},{"mesh":4,"name":"pCube411","extras":{"currentUVSet":"map1"}},{"mesh":5,"name":"pCylinder311","extras":{"currentUVSet":"map1"}},{"mesh":6,"translation":[0.0,0.0,-1.38777875E-19],"name":"pCylinder611","extras":{"currentUVSet":"map1"}},{"mesh":7,"name":"polySurface1411","extras":{"currentUVSet":"map1"}},{"mesh":8,"translation":[0.0,0.0,-1.38777875E-19],"name":"pCylinder511","extras":{"currentUVSet":"map1"}},{"mesh":9,"translation":[0.0,0.0,-1.38777875E-19],"name":"pCylinder211","extras":{"currentUVSet":"map1"}},{"mesh":10,"name":"pCube511","extras":{"currentUVSet":"map1"}},{"children":[14,15],"name":"lens"},{"mesh":11,"translation":[0.0,-2.220446E-18,2.220446E-18],"name":"pCylinder1011","extras":{"currentUVSet":"map1"}},{"mesh":12,"translation":[0.0,-2.220446E-18,2.220446E-18],"name":"pCylinder111","extras":{"currentUVSet":"map1"}}],"meshes":[{"primitives":[{"attributes":{"POSITION":1,"TANGENT":2,"NORMAL":3,"TEXCOORD_0":4},"indices":0,"material":0}],"name":"pCylinder411"},{"primitives":[{"attributes":{"POSITION":6,"TANGENT":7,"NORMAL":8,"TEXCOORD_0":9,"TEXCOORD_1":10},"indices":5,"material":0}],"name":"polySurface1311"},{"primitives":[{"attributes":{"POSITION":12,"TANGENT":13,"NORMAL":14,"TEXCOORD_0":15},"indices":11,"material":0}],"name":"pCylinder911"},{"primitives":[{"attributes":{"POSITION":17,"TANGENT":18,"NORMAL":19,"TEXCOORD_0":20},"indices":16,"material":0}],"name":"group1_pCube111"},{"primitives":[{"attributes":{"POSITION":22,"TANGENT":23,"NORMAL":24,"TEXCOORD_0":25},"indices":21,"material":0}],"name":"pCube411"},{"primitives":[{"attributes":{"POSITION":27,"TANGENT":28,"NORMAL":29,"TEXCOORD_0":30},"indices":26,"material":0}],"name":"pCylinder311"},{"primitives":[{"attributes":{"POSITION":32,"TANGENT":33,"NORMAL":34,"TEXCOORD_0":35},"indices":31,"material":0}],"name":"pCylinder611"},{"primitives":[{"attributes":{"POSITION":37,"TANGENT":38,"NORMAL":39,"TEXCOORD_0":40,"TEXCOORD_1":41},"indices":36,"material":0}],"name":"polySurface1411"},{"primitives":[{"attributes":{"POSITION":43,"TANGENT":44,"NORMAL":45,"TEXCOORD_0":46},"indices":42,"material":0}],"name":"pCylinder511"},{"primitives":[{"attributes":{"POSITION":48,"TANGENT":49,"NORMAL":50,"TEXCOORD_0":51},"indices":47,"material":0}],"name":"pCylinder211"},{"primitives":[{"attributes":{"POSITION":53,"TANGENT":54,"NORMAL":55,"TEXCOORD_0":56},"indices":52,"material":0}],"name":"pCube511"},{"primitives":[{"attributes":{"POSITION":58,"TANGENT":59,"NORMAL":60,"TEXCOORD_0":61},"indices":57,"material":0}],"name":"pCylinder1011"},{"primitives":[{"attributes":{"POSITION":63,"TANGENT":64,"NORMAL":65,"TEXCOORD_0":66},"indices":62,"material":0}],"name":"pCylinder111"}],"accessors":[{"bufferView":0,"componentType":5123,"count":720,"type":"SCALAR","name":"accessorIndices"},{"bufferView":1,"componentType":5126,"count":222,"max":[-0.017672129,0.003175168,0.003273666],"min":[-0.02075056,-0.00256173778,-0.0024661927],"type":"VEC3","name":"accessorPositions"},{"bufferView":2,"componentType":5126,"count":222,"type":"VEC4","name":"accessorTangents"},{"bufferView":1,"byteOffset":2664,"componentType":5126,"count":222,"type":"VEC3","name":"accessorNormals"},{"bufferView":3,"componentType":5126,"count":222,"type":"VEC2","name":"accessorUVs"},{"bufferView":0,"byteOffset":1440,"componentType":5123,"count":588,"type":"SCALAR","name":"accessorIndices"},{"bufferView":1,"byteOffset":5328,"componentType":5126,"count":186,"max":[0.00104566477,0.00318780122,-0.002281495],"min":[-0.0181374326,-0.0131862042,-0.022991797],"type":"VEC3","name":"accessorPositions"},{"bufferView":2,"byteOffset":3552,"componentType":5126,"count":186,"type":"VEC4","name":"accessorTangents"},{"bufferView":1,"byteOffset":7560,"componentType":5126,"count":186,"type":"VEC3","name":"accessorNormals"},{"bufferView":3,"byteOffset":1776,"componentType":5126,"count":186,"type":"VEC2","name":"accessorUVs"},{"bufferView":3,"byteOffset":3264,"componentType":5126,"count":186,"type":"VEC2","name":"accessorUV2s"},{"bufferView":0,"byteOffset":2616,"componentType":5123,"count":720,"type":"SCALAR","name":"accessorIndices"},{"bufferView":1,"byteOffset":9792,"componentType":5126,"count":224,"max":[-0.0173386857,0.00230907975,0.0169372838],"min":[-0.0236882,-0.00868505,0.005932449],"type":"VEC3","name":"accessorPositions"},{"bufferView":2,"byteOffset":6528,"componentType":5126,"count":224,"type":"VEC4","name":"accessorTangents"},{"bufferView":1,"byteOffset":12480,"componentType":5126,"count":224,"type":"VEC3","name":"accessorNormals"},{"bufferView":3,"byteOffset":4752,"componentType":5126,"count":224,"type":"VEC2","name":"accessorUVs"},{"bufferView":0,"byteOffset":4056,"componentType":5123,"count":408,"type":"SCALAR","name":"accessorIndices"},{"bufferView":1,"byteOffset":15168,"componentType":5126,"count":160,"max":[-0.000502371753,0.00399421668,0.0110237123],"min":[-0.0171279665,-0.00473966449,-0.0106919548],"type":"VEC3","name":"accessorPositions"},{"bufferView":2,"byteOffset":10112,"componentType":5126,"count":160,"type":"VEC4","name":"accessorTangents"},{"bufferView":1,"byteOffset":17088,"componentType":5126,"count":160,"type":"VEC3","name":"accessorNormals"},{"bufferView":3,"byteOffset":6544,"componentType":5126,"count":160,"type":"VEC2","name":"accessorUVs"},{"bufferView":0,"byteOffset":4872,"componentType":5123,"count":36,"type":"SCALAR","name":"accessorIndices"},{"bufferView":1,"byteOffset":19008,"componentType":5126,"count":24,"max":[-0.01891674,0.00261872215,-0.000816257554],"min":[-0.0200016741,-0.00447763456,-0.0103270635],"type":"VEC3","name":"accessorPositions"},{"bufferView":2,"byteOffset":12672,"componentType":5126,"count":24,"type":"VEC4","name":"accessorTangents"},{"bufferView":1,"byteOffset":19296,"componentType":5126,"count":24,"type":"VEC3","name":"accessorNormals"},{"bufferView":3,"byteOffset":7824,"componentType":5126,"count":24,"type":"VEC2","name":"accessorUVs"},{"bufferView":0,"byteOffset":4944,"componentType":5123,"count":720,"type":"SCALAR","name":"accessorIndices"},{"bufferView":1,"byteOffset":19584,"componentType":5126,"count":224,"max":[-0.0177761689,0.00220480678,-0.0050011985],"min":[-0.0241256822,-0.008789326,-0.0160060339],"type":"VEC3","name":"accessorPositions"},{"bufferView":2,"byteOffset":13056,"componentType":5126,"count":224,"type":"VEC4","name":"accessorTangents"},{"bufferView":1,"byteOffset":22272,"componentType":5126,"count":224,"type":"VEC3","name":"accessorNormals"},{"bufferView":3,"byteOffset":8016,"componentType":5126,"count":224,"type":"VEC2","name":"accessorUVs"},{"bufferView":0,"byteOffset":6384,"componentType":5123,"count":288,"type":"SCALAR","name":"accessorIndices"},{"bufferView":1,"byteOffset":24960,"componentType":5126,"count":100,"max":[8.68636344E-05,0.00351898838,0.00352232927],"min":[-0.0008488947,-0.00350748585,-0.00350718759],"type":"VEC3","name":"accessorPositions"},{"bufferView":2,"byteOffset":16640,"componentType":5126,"count":100,"type":"VEC4","name":"accessorTangents"},{"bufferView":1,"byteOffset":26160,"componentType":5126,"count":100,"type":"VEC3","name":"accessorNormals"},{"bufferView":3,"byteOffset":9808,"componentType":5126,"count":100,"type":"VEC2","name":"accessorUVs"},{"bufferView":0,"byteOffset":6960,"componentType":5123,"count":588,"type":"SCALAR","name":"accessorIndices"},{"bufferView":1,"byteOffset":27360,"componentType":5126,"count":186,"max":[0.00162512891,0.00329273939,0.0233415365],"min":[-0.0176968742,-0.01301829,0.00250366912],"type":"VEC3","name":"accessorPositions"},{"bufferView":2,"byteOffset":18240,"componentType":5126,"count":186,"type":"VEC4","name":"accessorTangents"},{"bufferView":1,"byteOffset":29592,"componentType":5126,"count":186,"type":"VEC3","name":"accessorNormals"},{"bufferView":3,"byteOffset":10608,"componentType":5126,"count":186,"type":"VEC2","name":"accessorUVs"},{"bufferView":3,"byteOffset":12096,"componentType":5126,"count":186,"type":"VEC2","name":"accessorUV2s"},{"bufferView":0,"byteOffset":8136,"componentType":5123,"count":288,"type":"SCALAR","name":"accessorIndices"},{"bufferView":1,"byteOffset":31824,"componentType":5126,"count":100,"max":[-0.0205716752,0.00382716348,0.00392798753],"min":[-0.021264974,-0.00319565,-0.003096711],"type":"VEC3","name":"accessorPositions"},{"bufferView":2,"byteOffset":21216,"componentType":5126,"count":100,"type":"VEC4","name":"accessorTangents"},{"bufferView":1,"byteOffset":33024,"componentType":5126,"count":100,"type":"VEC3","name":"accessorNormals"},{"bufferView":3,"byteOffset":13584,"componentType":5126,"count":100,"type":"VEC2","name":"accessorUVs"},{"bufferView":0,"byteOffset":8712,"componentType":5123,"count":288,"type":"SCALAR","name":"accessorIndices"},{"bufferView":1,"byteOffset":34224,"componentType":5126,"count":100,"max":[-0.00212469,0.00377615029,0.00386083871],"min":[-0.0178855155,-0.00347410259,-0.0034632443],"type":"VEC3","name":"accessorPositions"},{"bufferView":2,"byteOffset":22816,"componentType":5126,"count":100,"type":"VEC4","name":"accessorTangents"},{"bufferView":1,"byteOffset":35424,"componentType":5126,"count":100,"type":"VEC3","name":"accessorNormals"},{"bufferView":3,"byteOffset":14384,"componentType":5126,"count":100,"type":"VEC2","name":"accessorUVs"},{"bufferView":0,"byteOffset":9288,"componentType":5123,"count":36,"type":"SCALAR","name":"accessorIndices"},{"bufferView":1,"byteOffset":36624,"componentType":5126,"count":24,"max":[-0.01869552,0.00263032364,0.0110833868],"min":[-0.0197726227,-0.00439751055,0.0015847811],"type":"VEC3","name":"accessorPositions"},{"bufferView":2,"byteOffset":24416,"componentType":5126,"count":24,"type":"VEC4","name":"accessorTangents"},{"bufferView":1,"byteOffset":36912,"componentType":5126,"count":24,"type":"VEC3","name":"accessorNormals"},{"bufferView":3,"byteOffset":15184,"componentType":5126,"count":24,"type":"VEC2","name":"accessorUVs"},{"bufferView":0,"byteOffset":9360,"componentType":5123,"count":576,"type":"SCALAR","name":"accessorIndices"},{"bufferView":1,"byteOffset":37200,"componentType":5126,"count":196,"max":[0.00911276,-0.00108336273,0.0219081119],"min":[0.00126625062,-0.0129658384,0.0100266468],"type":"VEC3","name":"accessorPositions"},{"bufferView":2,"byteOffset":24800,"componentType":5126,"count":196,"type":"VEC4","name":"accessorTangents"},{"bufferView":1,"byteOffset":39552,"componentType":5126,"count":196,"type":"VEC3","name":"accessorNormals"},{"bufferView":3,"byteOffset":15376,"componentType":5126,"count":196,"type":"VEC2","name":"accessorUVs"},{"bufferView":0,"byteOffset":10512,"componentType":5123,"count":576,"type":"SCALAR","name":"accessorIndices"},{"bufferView":1,"byteOffset":41904,"componentType":5126,"count":196,"max":[0.008470412,-0.001236468,-0.0103039],"min":[0.000623900851,-0.0131189441,-0.0221853685],"type":"VEC3","name":"accessorPositions"},{"bufferView":2,"byteOffset":27936,"componentType":5126,"count":196,"type":"VEC4","name":"accessorTangents"},{"bufferView":1,"byteOffset":44256,"componentType":5126,"count":196,"type":"VEC3","name":"accessorNormals"},{"bufferView":3,"byteOffset":16944,"componentType":5126,"count":196,"type":"VEC2","name":"accessorUVs"},{"bufferView":4,"componentType":5126,"count":1,"max":[0.0],"min":[0.0],"type":"SCALAR","name":"accessorAnimationInput"},{"bufferView":5,"componentType":5126,"count":1,"type":"VEC3","name":"accessorAnimationScales"},{"bufferView":4,"byteOffset":4,"componentType":5126,"count":193,"max":[8.0],"min":[0.0],"type":"SCALAR","name":"accessorAnimationInput"},{"bufferView":6,"componentType":5126,"count":193,"type":"VEC4","name":"accessorAnimationRotations"},{"bufferView":4,"byteOffset":776,"componentType":5126,"count":141,"max":[8.0],"min":[0.0],"type":"SCALAR","name":"accessorAnimationInput"},{"bufferView":5,"byteOffset":12,"componentType":5126,"count":141,"type":"VEC3","name":"accessorAnimationPositions"},{"bufferView":4,"byteOffset":1340,"componentType":5126,"count":1,"max":[0.0],"min":[0.0],"type":"SCALAR","name":"accessorAnimationInput"},{"bufferView":6,"byteOffset":3088,"componentType":5126,"count":1,"type":"VEC4","name":"accessorAnimationRotations"},{"bufferView":4,"byteOffset":1344,"componentType":5126,"count":1,"max":[0.0],"min":[0.0],"type":"SCALAR","name":"accessorAnimationInput"},{"bufferView":5,"byteOffset":1704,"componentType":5126,"count":1,"type":"VEC3","name":"accessorAnimationPositions"},{"bufferView":4,"byteOffset":1348,"componentType":5126,"count":1,"max":[0.0],"min":[0.0],"type":"SCALAR","name":"accessorAnimationInput"},{"bufferView":6,"byteOffset":3104,"componentType":5126,"count":1,"type":"VEC4","name":"accessorAnimationRotations"},{"bufferView":4,"byteOffset":1352,"componentType":5126,"count":1,"max":[0.0],"min":[0.0],"type":"SCALAR","name":"accessorAnimationInput"},{"bufferView":5,"byteOffset":1716,"componentType":5126,"count":1,"type":"VEC3","name":"accessorAnimationPositions"},{"bufferView":4,"byteOffset":1356,"componentType":5126,"count":32,"max":[3.125],"min":[0.0],"type":"SCALAR","name":"accessorAnimationInput"},{"bufferView":5,"byteOffset":1728,"componentType":5126,"count":32,"type":"VEC3","name":"accessorAnimationPositions"},{"bufferView":4,"byteOffset":1484,"componentType":5126,"count":42,"max":[2.91666675],"min":[0.0],"type":"SCALAR","name":"accessorAnimationInput"},{"bufferView":6,"byteOffset":3120,"componentType":5126,"count":42,"type":"VEC4","name":"accessorAnimationRotations"},{"bufferView":4,"byteOffset":1652,"componentType":5126,"count":42,"max":[2.91666675],"min":[0.0],"type":"SCALAR","name":"accessorAnimationInput"},{"bufferView":5,"byteOffset":2112,"componentType":5126,"count":42,"type":"VEC3","name":"accessorAnimationPositions"},{"bufferView":4,"byteOffset":1820,"componentType":5126,"count":76,"max":[3.125],"min":[0.0],"type":"SCALAR","name":"accessorAnimationInput"},{"bufferView":6,"byteOffset":3792,"componentType":5126,"count":76,"type":"VEC4","name":"accessorAnimationRotations"},{"bufferView":4,"byteOffset":2124,"componentType":5126,"count":56,"max":[3.125],"min":[0.0],"type":"SCALAR","name":"accessorAnimationInput"},{"bufferView":5,"byteOffset":2616,"componentType":5126,"count":56,"type":"VEC3","name":"accessorAnimationPositions"},{"bufferView":4,"byteOffset":2348,"componentType":5126,"count":55,"max":[2.29166675],"min":[0.0],"type":"SCALAR","name":"accessorAnimationInput"},{"bufferView":5,"byteOffset":3288,"componentType":5126,"count":55,"type":"VEC3","name":"accessorAnimationPositions"},{"bufferView":4,"byteOffset":2568,"componentType":5126,"count":55,"max":[2.29166675],"min":[0.0],"type":"SCALAR","name":"accessorAnimationInput"},{"bufferView":5,"byteOffset":3948,"componentType":5126,"count":55,"type":"VEC3","name":"accessorAnimationPositions"},{"bufferView":4,"byteOffset":2788,"componentType":5126,"count":20,"max":[0.8333333],"min":[0.0],"type":"SCALAR","name":"accessorAnimationInput"},{"bufferView":5,"byteOffset":4608,"componentType":5126,"count":20,"type":"VEC3","name":"accessorAnimationScales"},{"bufferView":4,"byteOffset":2868,"componentType":5126,"count":20,"max":[0.8333333],"min":[0.0],"type":"SCALAR","name":"accessorAnimationInput"},{"bufferView":5,"byteOffset":4848,"componentType":5126,"count":20,"type":"VEC3","name":"accessorAnimationPositions"},{"bufferView":4,"byteOffset":2948,"componentType":5126,"count":20,"max":[0.8333333],"min":[0.0],"type":"SCALAR","name":"accessorAnimationInput"},{"bufferView":5,"byteOffset":5088,"componentType":5126,"count":20,"type":"VEC3","name":"accessorAnimationScales"},{"bufferView":4,"byteOffset":3028,"componentType":5126,"count":20,"max":[0.8333333],"min":[0.0],"type":"SCALAR","name":"accessorAnimationInput"},{"bufferView":5,"byteOffset":5328,"componentType":5126,"count":20,"type":"VEC3","name":"accessorAnimationPositions"}],"bufferViews":[{"buffer":0,"byteLength":11664,"name":"bufferViewScalar"},{"buffer":0,"byteOffset":11664,"byteLength":46608,"byteStride":12,"name":"bufferViewFloatVec3"},{"buffer":0,"byteOffset":58272,"byteLength":31072,"byteStride":16,"name":"bufferViewFloatVec4"},{"buffer":0,"byteOffset":89344,"byteLength":18512,"byteStride":8,"name":"bufferViewFloatVec2"},{"buffer":0,"byteOffset":107856,"byteLength":3108,"name":"bufferViewAnimationFloatScalar"},{"buffer":0,"byteOffset":110964,"byteLength":5568,"name":"bufferViewAnimationFloatVec3"},{"buffer":0,"byteOffset":116532,"byteLength":5008,"name":"bufferViewAnimationFloatVec4"}],"buffers":[{"uri":"binoculars (anim group transitions).bin","byteLength":121540}],"materials":[{"pbrMetallicRoughness":{"baseColorTexture":{"index":0},"metallicRoughnessTexture":{"index":1}},"name":"fold_6"}],"textures":[{"sampler":0,"source":0,"name":"fold 6 D 6-min.jpg"},{"sampler":0,"source":1,"name":"texture_plain_lambert1_Roughness_3texture_plain_lambert1_Metalness_3.jpg"}],"images":[{"uri":"fold 6 D 6-min.jpg"},{"uri":"texture_plain_lambert1_Roughness_3texture_plain_lambert1_Metalness_3.jpg"}],"samplers":[{"magFilter":9729,"minFilter":9987}],"animations":[{"channels":[{"sampler":0,"target":{"node":0,"path":"scale"}},{"sampler":1,"target":{"node":0,"path":"rotation"}},{"sampler":2,"target":{"node":0,"path":"translation"}},{"sampler":3,"target":{"node":1,"path":"rotation"}},{"sampler":4,"target":{"node":1,"path":"translation"}},{"sampler":5,"target":{"node":13,"path":"rotation"}},{"sampler":6,"target":{"node":13,"path":"translation"}}],"samplers":[{"input":67,"output":68},{"input":69,"output":70},{"input":71,"output":72},{"input":73,"output":74},{"input":75,"output":76},{"input":77,"output":78},{"input":79,"output":80}],"name":"idle"},{"channels":[{"sampler":0,"target":{"node":0,"path":"translation"}},{"sampler":1,"target":{"node":1,"path":"rotation"}},{"sampler":2,"target":{"node":1,"path":"translation"}},{"sampler":3,"target":{"node":13,"path":"rotation"}},{"sampler":4,"target":{"node":13,"path":"translation"}}],"samplers":[{"input":81,"output":82},{"input":83,"output":84},{"input":85,"output":86},{"input":87,"output":88},{"input":89,"output":90}],"name":"signature"},{"channels":[{"sampler":0,"target":{"node":0,"path":"translation"}}],"samplers":[{"input":91,"output":92}],"name":"slide_in_L"},{"channels":[{"sampler":0,"target":{"node":0,"path":"translation"}}],"samplers":[{"input":93,"output":94}],"name":"slide_in_R"},{"channels":[{"sampler":0,"target":{"node":0,"path":"scale"}},{"sampler":1,"target":{"node":0,"path":"translation"}}],"samplers":[{"input":95,"output":96},{"input":97,"output":98}],"name":"slide_out_L"},{"channels":[{"sampler":0,"target":{"node":0,"path":"scale"}},{"sampler":1,"target":{"node":0,"path":"translation"}}],"samplers":[{"input":99,"output":100},{"input":101,"output":102}],"name":"slide_out_R"}]}