{"asset":{"version":"2.0","generator":"babylon.js glTF exporter for Maya 2018 v20200429.2"},"scene":0,"scenes":[{"nodes":[0]}],"nodes":[{"children":[1],"name":"sphere"},{"children":[2],"name":"gold_2_group"},{"mesh":0,"translation":[-0.00158366235,0.00134514715,0.000484131568],"rotation":[0.0,1.0,0.0,6.123234E-17],"scale":[7.0,7.0,7.0],"name":"gold2"}],"meshes":[{"primitives":[{"attributes":{"POSITION":1,"TANGENT":2,"NORMAL":3,"TEXCOORD_0":4},"indices":0,"material":0,"targets":[{"POSITION":5,"NORMAL":6},{"POSITION":7,"NORMAL":8},{"POSITION":9,"NORMAL":10},{"POSITION":11,"NORMAL":12},{"POSITION":13,"NORMAL":14}]}],"weights":[1.0,0.5,0.0,0.0,0.0],"name":"gold2"}],"accessors":[{"bufferView":0,"componentType":5123,"count":9360,"type":"SCALAR","name":"accessorIndices"},{"bufferView":1,"componentType":5126,"count":9360,"max":[0.009847239,0.009989736,0.00984724],"min":[-0.00984724052,-0.009989736,-0.009847242],"type":"VEC3","name":"accessorPositions"},{"bufferView":2,"componentType":5126,"count":9360,"type":"VEC4","name":"accessorTangents"},{"bufferView":1,"byteOffset":112320,"componentType":5126,"count":9360,"type":"VEC3","name":"accessorNormals"},{"bufferView":3,"componentType":5126,"count":9360,"type":"VEC2","name":"accessorUVs"},{"bufferView":1,"byteOffset":224640,"componentType":5126,"count":9360,"max":[0.00100306328,0.0005692565,0.0003907578],"min":[-9.950303E-05,-0.0005657906,-0.00101897074],"type":"VEC3","name":"accessorTargetPositions"},{"bufferView":1,"byteOffset":336960,"componentType":5126,"count":9360,"type":"VEC3","name":"accessorTargetNormals"},{"bufferView":1,"byteOffset":449280,"componentType":5126,"count":9360,"max":[0.0008069081,0.000470541883,0.000562109053],"min":[-0.000255512074,-0.0008716262,-0.0006041555],"type":"VEC3","name":"accessorTargetPositions"},{"bufferView":1,"byteOffset":561600,"componentType":5126,"count":9360,"type":"VEC3","name":"accessorTargetNormals"},{"bufferView":1,"byteOffset":673920,"componentType":5126,"count":9360,"max":[0.00090184994,0.000601184554,0.000878900755],"min":[-0.000303454,-0.00115237013,-0.000333566684],"type":"VEC3","name":"accessorTargetPositions"},{"bufferView":1,"byteOffset":786240,"componentType":5126,"count":9360,"type":"VEC3","name":"accessorTargetNormals"},{"bufferView":1,"byteOffset":898560,"componentType":5126,"count":9360,"max":[0.00324138277,0.00144283241,0.00175399357],"min":[-0.00298056728,-0.00241699815,-0.00248441566],"type":"VEC3","name":"accessorTargetPositions"},{"bufferView":1,"byteOffset":1010880,"componentType":5126,"count":9360,"type":"VEC3","name":"accessorTargetNormals"},{"bufferView":1,"byteOffset":1123200,"componentType":5126,"count":9360,"max":[0.00155937206,0.00158488052,0.00113841472],"min":[-0.002132834,-0.00243857177,-0.00408259872],"type":"VEC3","name":"accessorTargetPositions"},{"bufferView":1,"byteOffset":1235520,"componentType":5126,"count":9360,"type":"VEC3","name":"accessorTargetNormals"},{"bufferView":4,"componentType":5126,"count":9,"max":[3.33333325],"min":[0.0],"type":"SCALAR","name":"accessorAnimationInput"},{"bufferView":4,"byteOffset":36,"componentType":5126,"count":45,"type":"SCALAR","name":"accessorAnimationWeights"},{"bufferView":4,"byteOffset":216,"componentType":5126,"count":9,"max":[3.25],"min":[0.166666672],"type":"SCALAR","name":"accessorAnimationInput"},{"bufferView":5,"componentType":5126,"count":9,"type":"VEC3","name":"accessorAnimationPositions"},{"bufferView":4,"byteOffset":252,"componentType":5126,"count":5,"max":[1.66666663],"min":[0.0],"type":"SCALAR","name":"accessorAnimationInput"},{"bufferView":4,"byteOffset":272,"componentType":5126,"count":25,"type":"SCALAR","name":"accessorAnimationWeights"},{"bufferView":4,"byteOffset":372,"componentType":5126,"count":39,"max":[1.66666663],"min":[0.0],"type":"SCALAR","name":"accessorAnimationInput"},{"bufferView":5,"byteOffset":108,"componentType":5126,"count":39,"type":"VEC3","name":"accessorAnimationScales"},{"bufferView":4,"byteOffset":528,"componentType":5126,"count":41,"max":[1.66666663],"min":[0.0],"type":"SCALAR","name":"accessorAnimationInput"},{"bufferView":6,"componentType":5126,"count":41,"type":"VEC4","name":"accessorAnimationRotations"},{"bufferView":4,"byteOffset":692,"componentType":5126,"count":34,"max":[1.66666663],"min":[0.0],"type":"SCALAR","name":"accessorAnimationInput"},{"bufferView":5,"byteOffset":576,"componentType":5126,"count":34,"type":"VEC3","name":"accessorAnimationPositions"},{"bufferView":4,"byteOffset":828,"componentType":5126,"count":5,"max":[1.66666663],"min":[0.0],"type":"SCALAR","name":"accessorAnimationInput"},{"bufferView":4,"byteOffset":848,"componentType":5126,"count":25,"type":"SCALAR","name":"accessorAnimationWeights"},{"bufferView":4,"byteOffset":948,"componentType":5126,"count":39,"max":[1.66666663],"min":[0.0],"type":"SCALAR","name":"accessorAnimationInput"},{"bufferView":5,"byteOffset":984,"componentType":5126,"count":39,"type":"VEC3","name":"accessorAnimationScales"},{"bufferView":4,"byteOffset":1104,"componentType":5126,"count":41,"max":[1.66666663],"min":[0.0],"type":"SCALAR","name":"accessorAnimationInput"},{"bufferView":6,"byteOffset":656,"componentType":5126,"count":41,"type":"VEC4","name":"accessorAnimationRotations"},{"bufferView":4,"byteOffset":1268,"componentType":5126,"count":33,"max":[1.625],"min":[0.0416666679],"type":"SCALAR","name":"accessorAnimationInput"},{"bufferView":5,"byteOffset":1452,"componentType":5126,"count":33,"type":"VEC3","name":"accessorAnimationPositions"}],"bufferViews":[{"buffer":0,"byteLength":18720,"name":"bufferViewScalar"},{"buffer":0,"byteOffset":18720,"byteLength":1347840,"byteStride":12,"name":"bufferViewFloatVec3"},{"buffer":0,"byteOffset":1366560,"byteLength":149760,"byteStride":16,"name":"bufferViewFloatVec4"},{"buffer":0,"byteOffset":1516320,"byteLength":74880,"byteStride":8,"name":"bufferViewFloatVec2"},{"buffer":0,"byteOffset":1591200,"byteLength":1400,"name":"bufferViewAnimationFloatScalar"},{"buffer":0,"byteOffset":1592600,"byteLength":1848,"name":"bufferViewAnimationFloatVec3"},{"buffer":0,"byteOffset":1594448,"byteLength":1312,"name":"bufferViewAnimationFloatVec4"}],"buffers":[{"uri":"sphere main (anim group transit).bin","byteLength":1595760}],"materials":[{"pbrMetallicRoughness":{"baseColorFactor":[0.8,0.8,0.8,1.0],"baseColorTexture":{"index":0},"metallicRoughnessTexture":{"index":1}},"name":"aiStandardSurface3"}],"textures":[{"sampler":0,"source":0,"name":"texture plain_lambert1_BaseColor(compressed).png"},{"sampler":0,"source":1,"name":"texture_plain_lambert1_Roughness_3texture_plain_lambert1_Metalness_1.jpg"}],"images":[{"uri":"texture plain_lambert1_BaseColor(compressed).png"},{"uri":"texture_plain_lambert1_Roughness_3texture_plain_lambert1_Metalness_1.jpg"}],"samplers":[{"magFilter":9729,"minFilter":9987}],"animations":[{"channels":[{"sampler":0,"target":{"node":2,"path":"weights"}},{"sampler":1,"target":{"node":2,"path":"translation"}}],"samplers":[{"input":15,"output":16},{"input":17,"output":18}],"name":"forward_idle"},{"channels":[{"sampler":0,"target":{"node":2,"path":"weights"}},{"sampler":1,"target":{"node":2,"path":"scale"}},{"sampler":2,"target":{"node":2,"path":"rotation"}},{"sampler":3,"target":{"node":2,"path":"translation"}}],"samplers":[{"input":19,"output":20},{"input":21,"output":22},{"input":23,"output":24},{"input":25,"output":26}],"name":"transit_out"},{"channels":[{"sampler":0,"target":{"node":2,"path":"weights"}},{"sampler":1,"target":{"node":2,"path":"scale"}},{"sampler":2,"target":{"node":2,"path":"rotation"}},{"sampler":3,"target":{"node":2,"path":"translation"}}],"samplers":[{"input":27,"output":28},{"input":29,"output":30},{"input":31,"output":32},{"input":33,"output":34}],"name":"transit_in"}]}