{"asset":{"version":"2.0","generator":"babylon.js glTF exporter for Maya 2018 v20200429.2"},"scene":0,"scenes":[{"nodes":[0]}],"nodes":[{"children":[1,2,3],"translation":[-0.00507442653,-0.004082332,-0.08490294],"rotation":[0.0369737744,0.174973831,-0.107147783,0.9780268],"scale":[2.0,2.0,2.0],"name":"telephone_group2"},{"mesh":0,"name":"handle_low3","extras":{"currentUVSet":"map1"}},{"mesh":1,"name":"pan_low","extras":{"currentUVSet":"map1"}},{"children":[4,5],"translation":[-7.47283961E-19,6.661338E-18,0.0],"name":"group5"},{"mesh":2,"name":"egg_white_low","extras":{"currentUVSet":"map1"}},{"mesh":3,"name":"egg_yolk_low","extras":{"currentUVSet":"map1"}}],"meshes":[{"primitives":[{"attributes":{"POSITION":1,"TANGENT":2,"NORMAL":3,"TEXCOORD_0":4},"indices":0,"material":0}],"name":"handle_low3"},{"primitives":[{"attributes":{"POSITION":6,"TANGENT":7,"NORMAL":8,"TEXCOORD_0":9},"indices":5,"material":0}],"name":"pan_low"},{"primitives":[{"attributes":{"POSITION":11,"TANGENT":12,"NORMAL":13,"TEXCOORD_0":14},"indices":10,"material":0,"targets":[{"POSITION":15,"NORMAL":16}]}],"weights":[0.0],"name":"egg_white_low"},{"primitives":[{"attributes":{"POSITION":18,"TANGENT":19,"NORMAL":20,"TEXCOORD_0":21},"indices":17,"material":0,"targets":[{"POSITION":22,"NORMAL":23}]}],"weights":[0.0],"name":"egg_yolk_low"}],"accessors":[{"bufferView":0,"componentType":5123,"count":528,"type":"SCALAR","name":"accessorIndices"},{"bufferView":1,"componentType":5126,"count":169,"max":[-0.00143881852,0.005125694,0.0120840464],"min":[-0.06083974,-0.005314412,-0.0112732816],"type":"VEC3","name":"accessorPositions"},{"bufferView":2,"componentType":5126,"count":169,"type":"VEC4","name":"accessorTangents"},{"bufferView":1,"byteOffset":2028,"componentType":5126,"count":169,"type":"VEC3","name":"accessorNormals"},{"bufferView":3,"componentType":5126,"count":169,"type":"VEC2","name":"accessorUVs"},{"bufferView":0,"byteOffset":1056,"componentType":5123,"count":1656,"type":"SCALAR","name":"accessorIndices"},{"bufferView":1,"byteOffset":4056,"componentType":5126,"count":488,"max":[0.06087939,0.0018731904,0.0362752341],"min":[-0.0210914183,-0.0007626128,-0.0358656719],"type":"VEC3","name":"accessorPositions"},{"bufferView":2,"byteOffset":2704,"componentType":5126,"count":488,"type":"VEC4","name":"accessorTangents"},{"bufferView":1,"byteOffset":9912,"componentType":5126,"count":488,"type":"VEC3","name":"accessorNormals"},{"bufferView":3,"byteOffset":1352,"componentType":5126,"count":488,"type":"VEC2","name":"accessorUVs"},{"bufferView":0,"byteOffset":4368,"componentType":5123,"count":1896,"type":"SCALAR","name":"accessorIndices"},{"bufferView":1,"byteOffset":15768,"componentType":5126,"count":1896,"max":[0.05209834,0.0025763202,0.0273173489],"min":[0.002022687,0.0009703427,-0.02705924],"type":"VEC3","name":"accessorPositions"},{"bufferView":2,"byteOffset":10512,"componentType":5126,"count":1896,"type":"VEC4","name":"accessorTangents"},{"bufferView":1,"byteOffset":38520,"componentType":5126,"count":1896,"type":"VEC3","name":"accessorNormals"},{"bufferView":3,"byteOffset":5256,"componentType":5126,"count":1896,"type":"VEC2","name":"accessorUVs"},{"bufferView":1,"byteOffset":61272,"componentType":5126,"count":1896,"max":[0.00268275966,0.011946002,0.0],"min":[-0.00286819413,2.11386941E-06,0.0],"type":"VEC3","name":"accessorTargetPositions"},{"bufferView":1,"byteOffset":84024,"componentType":5126,"count":1896,"type":"VEC3","name":"accessorTargetNormals"},{"bufferView":0,"byteOffset":8160,"componentType":5123,"count":900,"type":"SCALAR","name":"accessorIndices"},{"bufferView":1,"byteOffset":106776,"componentType":5126,"count":900,"max":[0.0351956151,0.005131694,0.0090454435],"min":[0.0175880343,0.00188887119,-0.008552171],"type":"VEC3","name":"accessorPositions"},{"bufferView":2,"byteOffset":40848,"componentType":5126,"count":900,"type":"VEC4","name":"accessorTangents"},{"bufferView":1,"byteOffset":117576,"componentType":5126,"count":900,"type":"VEC3","name":"accessorNormals"},{"bufferView":3,"byteOffset":20424,"componentType":5126,"count":900,"type":"VEC2","name":"accessorUVs"},{"bufferView":1,"byteOffset":128376,"componentType":5126,"count":900,"max":[0.00142467953,0.00155568321,0.0],"min":[-0.00120849907,2.98488885E-07,0.0],"type":"VEC3","name":"accessorTargetPositions"},{"bufferView":1,"byteOffset":139176,"componentType":5126,"count":900,"type":"VEC3","name":"accessorTargetNormals"},{"bufferView":4,"componentType":5126,"count":1,"max":[0.0],"min":[0.0],"type":"SCALAR","name":"accessorAnimationInput"},{"bufferView":4,"byteOffset":4,"componentType":5126,"count":1,"type":"SCALAR","name":"accessorAnimationWeights"},{"bufferView":4,"byteOffset":8,"componentType":5126,"count":1,"max":[0.0],"min":[0.0],"type":"SCALAR","name":"accessorAnimationInput"},{"bufferView":5,"componentType":5126,"count":1,"type":"VEC3","name":"accessorAnimationScales"},{"bufferView":4,"byteOffset":12,"componentType":5126,"count":193,"max":[8.0],"min":[0.0],"type":"SCALAR","name":"accessorAnimationInput"},{"bufferView":6,"componentType":5126,"count":193,"type":"VEC4","name":"accessorAnimationRotations"},{"bufferView":4,"byteOffset":784,"componentType":5126,"count":164,"max":[8.0],"min":[0.0],"type":"SCALAR","name":"accessorAnimationInput"},{"bufferView":5,"byteOffset":12,"componentType":5126,"count":164,"type":"VEC3","name":"accessorAnimationPositions"},{"bufferView":4,"byteOffset":1440,"componentType":5126,"count":1,"max":[0.0],"min":[0.0],"type":"SCALAR","name":"accessorAnimationInput"},{"bufferView":6,"byteOffset":3088,"componentType":5126,"count":1,"type":"VEC4","name":"accessorAnimationRotations"},{"bufferView":4,"byteOffset":1444,"componentType":5126,"count":1,"max":[0.0],"min":[0.0],"type":"SCALAR","name":"accessorAnimationInput"},{"bufferView":5,"byteOffset":1980,"componentType":5126,"count":1,"type":"VEC3","name":"accessorAnimationPositions"},{"bufferView":4,"byteOffset":1448,"componentType":5126,"count":1,"max":[0.0],"min":[0.0],"type":"SCALAR","name":"accessorAnimationInput"},{"bufferView":5,"byteOffset":1992,"componentType":5126,"count":1,"type":"VEC3","name":"accessorAnimationPositions"},{"bufferView":4,"byteOffset":1452,"componentType":5126,"count":40,"max":[2.08333325],"min":[0.416666657],"type":"SCALAR","name":"accessorAnimationInput"},{"bufferView":5,"byteOffset":2004,"componentType":5126,"count":40,"type":"VEC3","name":"accessorAnimationScales"},{"bufferView":4,"byteOffset":1612,"componentType":5126,"count":51,"max":[2.08333325],"min":[0.0],"type":"SCALAR","name":"accessorAnimationInput"},{"bufferView":6,"byteOffset":3104,"componentType":5126,"count":51,"type":"VEC4","name":"accessorAnimationRotations"},{"bufferView":4,"byteOffset":1816,"componentType":5126,"count":51,"max":[2.08333325],"min":[0.0],"type":"SCALAR","name":"accessorAnimationInput"},{"bufferView":5,"byteOffset":2484,"componentType":5126,"count":51,"type":"VEC3","name":"accessorAnimationPositions"},{"bufferView":4,"byteOffset":2020,"componentType":5126,"count":40,"max":[1.66666663],"min":[0.0],"type":"SCALAR","name":"accessorAnimationInput"},{"bufferView":5,"byteOffset":3096,"componentType":5126,"count":40,"type":"VEC3","name":"accessorAnimationScales"},{"bufferView":4,"byteOffset":2180,"componentType":5126,"count":41,"max":[1.66666663],"min":[0.0],"type":"SCALAR","name":"accessorAnimationInput"},{"bufferView":6,"byteOffset":3920,"componentType":5126,"count":41,"type":"VEC4","name":"accessorAnimationRotations"},{"bufferView":4,"byteOffset":2344,"componentType":5126,"count":50,"max":[2.08333325],"min":[0.0],"type":"SCALAR","name":"accessorAnimationInput"},{"bufferView":5,"byteOffset":3576,"componentType":5126,"count":50,"type":"VEC3","name":"accessorAnimationPositions"},{"bufferView":4,"byteOffset":2544,"componentType":5126,"count":3,"max":[1.16666663],"min":[0.416666657],"type":"SCALAR","name":"accessorAnimationInput"},{"bufferView":4,"byteOffset":2556,"componentType":5126,"count":3,"type":"SCALAR","name":"accessorAnimationWeights"},{"bufferView":4,"byteOffset":2568,"componentType":5126,"count":30,"max":[1.625],"min":[0.0],"type":"SCALAR","name":"accessorAnimationInput"},{"bufferView":6,"byteOffset":4576,"componentType":5126,"count":30,"type":"VEC4","name":"accessorAnimationRotations"},{"bufferView":4,"byteOffset":2688,"componentType":5126,"count":44,"max":[2.5],"min":[0.0],"type":"SCALAR","name":"accessorAnimationInput"},{"bufferView":5,"byteOffset":4176,"componentType":5126,"count":44,"type":"VEC3","name":"accessorAnimationPositions"},{"bufferView":4,"byteOffset":2864,"componentType":5126,"count":19,"max":[1.16666663],"min":[0.416666657],"type":"SCALAR","name":"accessorAnimationInput"},{"bufferView":6,"byteOffset":5056,"componentType":5126,"count":19,"type":"VEC4","name":"accessorAnimationRotations"},{"bufferView":4,"byteOffset":2940,"componentType":5126,"count":29,"max":[1.16666663],"min":[0.0],"type":"SCALAR","name":"accessorAnimationInput"},{"bufferView":5,"byteOffset":4704,"componentType":5126,"count":29,"type":"VEC3","name":"accessorAnimationPositions"},{"bufferView":4,"byteOffset":3056,"componentType":5126,"count":17,"max":[1.16666663],"min":[0.416666657],"type":"SCALAR","name":"accessorAnimationInput"},{"bufferView":5,"byteOffset":5052,"componentType":5126,"count":17,"type":"VEC3","name":"accessorAnimationPositions"},{"bufferView":4,"byteOffset":3124,"componentType":5126,"count":20,"max":[0.8333333],"min":[0.0],"type":"SCALAR","name":"accessorAnimationInput"},{"bufferView":5,"byteOffset":5256,"componentType":5126,"count":20,"type":"VEC3","name":"accessorAnimationScales"},{"bufferView":4,"byteOffset":3204,"componentType":5126,"count":20,"max":[0.8333333],"min":[0.0],"type":"SCALAR","name":"accessorAnimationInput"},{"bufferView":5,"byteOffset":5496,"componentType":5126,"count":20,"type":"VEC3","name":"accessorAnimationPositions"},{"bufferView":4,"byteOffset":3284,"componentType":5126,"count":55,"max":[2.29166675],"min":[0.0],"type":"SCALAR","name":"accessorAnimationInput"},{"bufferView":5,"byteOffset":5736,"componentType":5126,"count":55,"type":"VEC3","name":"accessorAnimationPositions"}],"bufferViews":[{"buffer":0,"byteLength":9960,"name":"bufferViewScalar"},{"buffer":0,"byteOffset":9960,"byteLength":149976,"byteStride":12,"name":"bufferViewFloatVec3"},{"buffer":0,"byteOffset":159936,"byteLength":55248,"byteStride":16,"name":"bufferViewFloatVec4"},{"buffer":0,"byteOffset":215184,"byteLength":27624,"byteStride":8,"name":"bufferViewFloatVec2"},{"buffer":0,"byteOffset":242808,"byteLength":3504,"name":"bufferViewAnimationFloatScalar"},{"buffer":0,"byteOffset":246312,"byteLength":6396,"name":"bufferViewAnimationFloatVec3"},{"buffer":0,"byteOffset":252708,"byteLength":5360,"name":"bufferViewAnimationFloatVec4"}],"buffers":[{"uri":"pan (anim group transitions).bin","byteLength":258068}],"materials":[{"pbrMetallicRoughness":{"baseColorTexture":{"index":0},"metallicRoughnessTexture":{"index":1}},"name":"gold_m1"}],"textures":[{"sampler":0,"source":0,"name":"pan D 3.png"},{"sampler":0,"source":1,"name":"texture_plain_lambert1_Roughness_11texture_plain_lambert1_Metalness_7.jpg"}],"images":[{"uri":"pan D 3.png"},{"uri":"texture_plain_lambert1_Roughness_11texture_plain_lambert1_Metalness_7.jpg"}],"samplers":[{"magFilter":9729,"minFilter":9987}],"animations":[{"channels":[{"sampler":0,"target":{"node":4,"path":"weights"}},{"sampler":1,"target":{"node":0,"path":"scale"}},{"sampler":2,"target":{"node":0,"path":"rotation"}},{"sampler":3,"target":{"node":0,"path":"translation"}},{"sampler":4,"target":{"node":3,"path":"rotation"}},{"sampler":5,"target":{"node":3,"path":"translation"}},{"sampler":6,"target":{"node":5,"path":"translation"}}],"samplers":[{"input":24,"output":25},{"input":26,"output":27},{"input":28,"output":29},{"input":30,"output":31},{"input":32,"output":33},{"input":34,"output":35},{"input":36,"output":37}],"name":"idle"},{"channels":[{"sampler":0,"target":{"node":0,"path":"scale"}},{"sampler":1,"target":{"node":0,"path":"rotation"}},{"sampler":2,"target":{"node":0,"path":"translation"}}],"samplers":[{"input":38,"output":39},{"input":40,"output":41},{"input":42,"output":43}],"name":"transit_out"},{"channels":[{"sampler":0,"target":{"node":0,"path":"scale"}},{"sampler":1,"target":{"node":0,"path":"rotation"}},{"sampler":2,"target":{"node":0,"path":"translation"}}],"samplers":[{"input":44,"output":45},{"input":46,"output":47},{"input":48,"output":49}],"name":"transit_in"},{"channels":[{"sampler":0,"target":{"node":4,"path":"weights"}},{"sampler":1,"target":{"node":0,"path":"rotation"}},{"sampler":2,"target":{"node":0,"path":"translation"}},{"sampler":3,"target":{"node":3,"path":"rotation"}},{"sampler":4,"target":{"node":3,"path":"translation"}},{"sampler":5,"target":{"node":5,"path":"translation"}}],"samplers":[{"input":50,"output":51},{"input":52,"output":53},{"input":54,"output":55},{"input":56,"output":57},{"input":58,"output":59},{"input":60,"output":61}],"name":"signature"},{"channels":[{"sampler":0,"target":{"node":0,"path":"scale"}},{"sampler":1,"target":{"node":0,"path":"translation"}}],"samplers":[{"input":62,"output":63},{"input":64,"output":65}],"name":"slide_out_L"},{"channels":[{"sampler":0,"target":{"node":0,"path":"translation"}}],"samplers":[{"input":66,"output":67}],"name":"slide_in_R"}]}