{"asset":{"version":"2.0","generator":"babylon.js glTF exporter for Maya 2018 v20200429.2"},"scene":0,"scenes":[{"nodes":[0]}],"nodes":[{"children":[1,2,3,4,5,6,7],"translation":[0.0,-0.00302862213,0.0],"rotation":[5.14936755E-06,-0.0889826939,5.76397579E-05,0.9960332],"name":"minning"},{"mesh":0,"name":"rock","extras":{"currentUVSet":"map1"}},{"mesh":1,"name":"hammer","extras":{"currentUVSet":"map1"}},{"mesh":2,"translation":[-0.00196968322,0.03477814,-0.00287902053],"scale":[1E-12,1E-12,1E-12],"name":"stroke","extras":{"currentUVSet":"map1"}},{"mesh":3,"translation":[0.00211111177,0.0358218066,-0.00380655867],"scale":[1E-12,1E-12,1E-12],"name":"stroke1","extras":{"currentUVSet":"map1"}},{"mesh":4,"translation":[0.00207650219,0.03227255,-0.00207534782],"scale":[1E-12,1E-12,1E-12],"name":"stroke2","extras":{"currentUVSet":"map1"}},{"mesh":5,"translation":[0.0020907165,0.03148311,-0.00181016058],"scale":[1E-12,1E-12,1E-12],"name":"stroke3","extras":{"currentUVSet":"map1"}},{"mesh":6,"name":"bitcoin","extras":{"currentUVSet":"map1"}}],"meshes":[{"primitives":[{"attributes":{"POSITION":1,"TANGENT":2,"NORMAL":3,"TEXCOORD_0":4},"indices":0,"material":0}],"name":"rock"},{"primitives":[{"attributes":{"POSITION":6,"TANGENT":7,"NORMAL":8,"TEXCOORD_0":9},"indices":5,"material":0}],"name":"hammer"},{"primitives":[{"attributes":{"POSITION":11,"TANGENT":12,"NORMAL":13,"TEXCOORD_0":14},"indices":10,"material":0}],"name":"stroke"},{"primitives":[{"attributes":{"POSITION":16,"TANGENT":17,"NORMAL":18,"TEXCOORD_0":19},"indices":15,"material":0}],"name":"stroke1"},{"primitives":[{"attributes":{"POSITION":21,"TANGENT":22,"NORMAL":23,"TEXCOORD_0":24},"indices":20,"material":0}],"name":"stroke2"},{"primitives":[{"attributes":{"POSITION":26,"TANGENT":27,"NORMAL":28,"TEXCOORD_0":29},"indices":25,"material":0}],"name":"stroke3"},{"primitives":[{"attributes":{"POSITION":31,"TANGENT":32,"NORMAL":33,"TEXCOORD_0":34},"indices":30,"material":0}],"name":"bitcoin"}],"accessors":[{"bufferView":0,"componentType":5123,"count":756,"type":"SCALAR","name":"accessorIndices"},{"bufferView":1,"componentType":5126,"count":240,"max":[0.002274771,0.04995172,0.01955582],"min":[-0.002274771,-0.005,-0.02],"type":"VEC3","name":"accessorPositions"},{"bufferView":2,"componentType":5126,"count":240,"type":"VEC4","name":"accessorTangents"},{"bufferView":1,"byteOffset":2880,"componentType":5126,"count":240,"type":"VEC3","name":"accessorNormals"},{"bufferView":3,"componentType":5126,"count":240,"type":"VEC2","name":"accessorUVs"},{"bufferView":0,"byteOffset":1512,"componentType":5123,"count":1422,"type":"SCALAR","name":"accessorIndices"},{"bufferView":1,"byteOffset":5760,"componentType":5126,"count":434,"max":[0.00203648629,0.052555155,0.0371225439],"min":[-0.00203648629,0.0059977076,-0.0015159857],"type":"VEC3","name":"accessorPositions"},{"bufferView":2,"byteOffset":3840,"componentType":5126,"count":434,"type":"VEC4","name":"accessorTangents"},{"bufferView":1,"byteOffset":10968,"componentType":5126,"count":434,"type":"VEC3","name":"accessorNormals"},{"bufferView":3,"byteOffset":1920,"componentType":5126,"count":434,"type":"VEC2","name":"accessorUVs"},{"bufferView":0,"byteOffset":4356,"componentType":5123,"count":564,"type":"SCALAR","name":"accessorIndices"},{"bufferView":1,"byteOffset":16176,"componentType":5126,"count":182,"max":[0.00211111177,0.0453387164,0.00332066766],"min":[-0.00211111177,0.03470378,-0.00290577533],"type":"VEC3","name":"accessorPositions"},{"bufferView":2,"byteOffset":10784,"componentType":5126,"count":182,"type":"VEC4","name":"accessorTangents"},{"bufferView":1,"byteOffset":18360,"componentType":5126,"count":182,"type":"VEC3","name":"accessorNormals"},{"bufferView":3,"byteOffset":5392,"componentType":5126,"count":182,"type":"VEC2","name":"accessorUVs"},{"bufferView":0,"byteOffset":5484,"componentType":5123,"count":312,"type":"SCALAR","name":"accessorIndices"},{"bufferView":1,"byteOffset":20544,"componentType":5126,"count":132,"max":[0.00211111177,0.0398748443,-0.00322398427],"min":[-0.00211111177,0.03576616,-0.00520517631],"type":"VEC3","name":"accessorPositions"},{"bufferView":2,"byteOffset":13696,"componentType":5126,"count":132,"type":"VEC4","name":"accessorTangents"},{"bufferView":1,"byteOffset":22128,"componentType":5126,"count":132,"type":"VEC3","name":"accessorNormals"},{"bufferView":3,"byteOffset":6848,"componentType":5126,"count":132,"type":"VEC2","name":"accessorUVs"},{"bufferView":0,"byteOffset":6108,"componentType":5123,"count":324,"type":"SCALAR","name":"accessorIndices"},{"bufferView":1,"byteOffset":23712,"componentType":5126,"count":136,"max":[0.00211111177,0.0333668,0.00670145126],"min":[-0.00211111177,0.0293965247,-0.00220024423],"type":"VEC3","name":"accessorPositions"},{"bufferView":2,"byteOffset":15808,"componentType":5126,"count":136,"type":"VEC4","name":"accessorTangents"},{"bufferView":1,"byteOffset":25344,"componentType":5126,"count":136,"type":"VEC3","name":"accessorNormals"},{"bufferView":3,"byteOffset":7904,"componentType":5126,"count":136,"type":"VEC2","name":"accessorUVs"},{"bufferView":0,"byteOffset":6756,"componentType":5123,"count":312,"type":"SCALAR","name":"accessorIndices"},{"bufferView":1,"byteOffset":26976,"componentType":5126,"count":132,"max":[0.00211111177,0.0315135755,0.00243720179],"min":[-0.00211111177,0.0271985754,-0.00192558579],"type":"VEC3","name":"accessorPositions"},{"bufferView":2,"byteOffset":17984,"componentType":5126,"count":132,"type":"VEC4","name":"accessorTangents"},{"bufferView":1,"byteOffset":28560,"componentType":5126,"count":132,"type":"VEC3","name":"accessorNormals"},{"bufferView":3,"byteOffset":8992,"componentType":5126,"count":132,"type":"VEC2","name":"accessorUVs"},{"bufferView":0,"byteOffset":7380,"componentType":5123,"count":240,"type":"SCALAR","name":"accessorIndices"},{"bufferView":1,"byteOffset":30144,"componentType":5126,"count":84,"max":[0.0004584217,0.047501266,-0.009397211],"min":[-0.000578904757,0.04067029,-0.0162281841],"type":"VEC3","name":"accessorPositions"},{"bufferView":2,"byteOffset":20096,"componentType":5126,"count":84,"type":"VEC4","name":"accessorTangents"},{"bufferView":1,"byteOffset":31152,"componentType":5126,"count":84,"type":"VEC3","name":"accessorNormals"},{"bufferView":3,"byteOffset":10048,"componentType":5126,"count":84,"type":"VEC2","name":"accessorUVs"},{"bufferView":4,"componentType":5126,"count":1,"max":[0.0],"min":[0.0],"type":"SCALAR","name":"accessorAnimationInput"},{"bufferView":5,"componentType":5126,"count":1,"type":"VEC3","name":"accessorAnimationScales"},{"bufferView":4,"byteOffset":4,"componentType":5126,"count":193,"max":[8.0],"min":[0.0],"type":"SCALAR","name":"accessorAnimationInput"},{"bufferView":6,"componentType":5126,"count":193,"type":"VEC4","name":"accessorAnimationRotations"},{"bufferView":4,"byteOffset":776,"componentType":5126,"count":120,"max":[8.0],"min":[0.0],"type":"SCALAR","name":"accessorAnimationInput"},{"bufferView":5,"byteOffset":12,"componentType":5126,"count":120,"type":"VEC3","name":"accessorAnimationPositions"},{"bufferView":4,"byteOffset":1256,"componentType":5126,"count":1,"max":[0.0],"min":[0.0],"type":"SCALAR","name":"accessorAnimationInput"},{"bufferView":6,"byteOffset":3088,"componentType":5126,"count":1,"type":"VEC4","name":"accessorAnimationRotations"},{"bufferView":4,"byteOffset":1260,"componentType":5126,"count":1,"max":[0.0],"min":[0.0],"type":"SCALAR","name":"accessorAnimationInput"},{"bufferView":5,"byteOffset":1452,"componentType":5126,"count":1,"type":"VEC3","name":"accessorAnimationPositions"},{"bufferView":4,"byteOffset":1264,"componentType":5126,"count":1,"max":[0.0],"min":[0.0],"type":"SCALAR","name":"accessorAnimationInput"},{"bufferView":5,"byteOffset":1464,"componentType":5126,"count":1,"type":"VEC3","name":"accessorAnimationScales"},{"bufferView":4,"byteOffset":1268,"componentType":5126,"count":1,"max":[0.0],"min":[0.0],"type":"SCALAR","name":"accessorAnimationInput"},{"bufferView":5,"byteOffset":1476,"componentType":5126,"count":1,"type":"VEC3","name":"accessorAnimationPositions"},{"bufferView":4,"byteOffset":1272,"componentType":5126,"count":1,"max":[0.0],"min":[0.0],"type":"SCALAR","name":"accessorAnimationInput"},{"bufferView":5,"byteOffset":1488,"componentType":5126,"count":1,"type":"VEC3","name":"accessorAnimationScales"},{"bufferView":4,"byteOffset":1276,"componentType":5126,"count":1,"max":[0.0],"min":[0.0],"type":"SCALAR","name":"accessorAnimationInput"},{"bufferView":5,"byteOffset":1500,"componentType":5126,"count":1,"type":"VEC3","name":"accessorAnimationPositions"},{"bufferView":4,"byteOffset":1280,"componentType":5126,"count":1,"max":[0.0],"min":[0.0],"type":"SCALAR","name":"accessorAnimationInput"},{"bufferView":5,"byteOffset":1512,"componentType":5126,"count":1,"type":"VEC3","name":"accessorAnimationScales"},{"bufferView":4,"byteOffset":1284,"componentType":5126,"count":1,"max":[0.0],"min":[0.0],"type":"SCALAR","name":"accessorAnimationInput"},{"bufferView":5,"byteOffset":1524,"componentType":5126,"count":1,"type":"VEC3","name":"accessorAnimationPositions"},{"bufferView":4,"byteOffset":1288,"componentType":5126,"count":1,"max":[0.0],"min":[0.0],"type":"SCALAR","name":"accessorAnimationInput"},{"bufferView":5,"byteOffset":1536,"componentType":5126,"count":1,"type":"VEC3","name":"accessorAnimationScales"},{"bufferView":4,"byteOffset":1292,"componentType":5126,"count":1,"max":[0.0],"min":[0.0],"type":"SCALAR","name":"accessorAnimationInput"},{"bufferView":5,"byteOffset":1548,"componentType":5126,"count":1,"type":"VEC3","name":"accessorAnimationPositions"},{"bufferView":4,"byteOffset":1296,"componentType":5126,"count":1,"max":[0.0],"min":[0.0],"type":"SCALAR","name":"accessorAnimationInput"},{"bufferView":5,"byteOffset":1560,"componentType":5126,"count":1,"type":"VEC3","name":"accessorAnimationScales"},{"bufferView":4,"byteOffset":1300,"componentType":5126,"count":1,"max":[0.0],"min":[0.0],"type":"SCALAR","name":"accessorAnimationInput"},{"bufferView":5,"byteOffset":1572,"componentType":5126,"count":1,"type":"VEC3","name":"accessorAnimationPositions"},{"bufferView":4,"byteOffset":1304,"componentType":5126,"count":32,"max":[3.95833325],"min":[0.0],"type":"SCALAR","name":"accessorAnimationInput"},{"bufferView":5,"byteOffset":1584,"componentType":5126,"count":32,"type":"VEC3","name":"accessorAnimationPositions"},{"bufferView":4,"byteOffset":1432,"componentType":5126,"count":71,"max":[2.91666675],"min":[0.0],"type":"SCALAR","name":"accessorAnimationInput"},{"bufferView":6,"byteOffset":3104,"componentType":5126,"count":71,"type":"VEC4","name":"accessorAnimationRotations"},{"bufferView":4,"byteOffset":1716,"componentType":5126,"count":70,"max":[2.91666675],"min":[0.0],"type":"SCALAR","name":"accessorAnimationInput"},{"bufferView":5,"byteOffset":1968,"componentType":5126,"count":70,"type":"VEC3","name":"accessorAnimationPositions"},{"bufferView":4,"byteOffset":1996,"componentType":5126,"count":27,"max":[2.83333325],"min":[0.8333333],"type":"SCALAR","name":"accessorAnimationInput"},{"bufferView":5,"byteOffset":2808,"componentType":5126,"count":27,"type":"VEC3","name":"accessorAnimationScales"},{"bufferView":4,"byteOffset":2104,"componentType":5126,"count":27,"max":[2.83333325],"min":[0.8333333],"type":"SCALAR","name":"accessorAnimationInput"},{"bufferView":5,"byteOffset":3132,"componentType":5126,"count":27,"type":"VEC3","name":"accessorAnimationPositions"},{"bufferView":4,"byteOffset":2212,"componentType":5126,"count":27,"max":[2.83333325],"min":[0.8333333],"type":"SCALAR","name":"accessorAnimationInput"},{"bufferView":5,"byteOffset":3456,"componentType":5126,"count":27,"type":"VEC3","name":"accessorAnimationScales"},{"bufferView":4,"byteOffset":2320,"componentType":5126,"count":27,"max":[2.83333325],"min":[0.8333333],"type":"SCALAR","name":"accessorAnimationInput"},{"bufferView":5,"byteOffset":3780,"componentType":5126,"count":27,"type":"VEC3","name":"accessorAnimationPositions"},{"bufferView":4,"byteOffset":2428,"componentType":5126,"count":27,"max":[2.83333325],"min":[0.8333333],"type":"SCALAR","name":"accessorAnimationInput"},{"bufferView":5,"byteOffset":4104,"componentType":5126,"count":27,"type":"VEC3","name":"accessorAnimationScales"},{"bufferView":4,"byteOffset":2536,"componentType":5126,"count":27,"max":[2.83333325],"min":[0.8333333],"type":"SCALAR","name":"accessorAnimationInput"},{"bufferView":5,"byteOffset":4428,"componentType":5126,"count":27,"type":"VEC3","name":"accessorAnimationPositions"},{"bufferView":4,"byteOffset":2644,"componentType":5126,"count":27,"max":[2.83333325],"min":[0.8333333],"type":"SCALAR","name":"accessorAnimationInput"},{"bufferView":5,"byteOffset":4752,"componentType":5126,"count":27,"type":"VEC3","name":"accessorAnimationScales"},{"bufferView":4,"byteOffset":2752,"componentType":5126,"count":27,"max":[2.83333325],"min":[0.8333333],"type":"SCALAR","name":"accessorAnimationInput"},{"bufferView":5,"byteOffset":5076,"componentType":5126,"count":27,"type":"VEC3","name":"accessorAnimationPositions"},{"bufferView":4,"byteOffset":2860,"componentType":5126,"count":26,"max":[3.125],"min":[1.25],"type":"SCALAR","name":"accessorAnimationInput"},{"bufferView":5,"byteOffset":5400,"componentType":5126,"count":26,"type":"VEC3","name":"accessorAnimationScales"},{"bufferView":4,"byteOffset":2964,"componentType":5126,"count":54,"max":[3.125],"min":[0.8333333],"type":"SCALAR","name":"accessorAnimationInput"},{"bufferView":5,"byteOffset":5712,"componentType":5126,"count":54,"type":"VEC3","name":"accessorAnimationPositions"},{"bufferView":4,"byteOffset":3180,"componentType":5126,"count":55,"max":[2.29166675],"min":[0.0],"type":"SCALAR","name":"accessorAnimationInput"},{"bufferView":5,"byteOffset":6360,"componentType":5126,"count":55,"type":"VEC3","name":"accessorAnimationPositions"},{"bufferView":4,"byteOffset":3400,"componentType":5126,"count":20,"max":[0.8333333],"min":[0.0],"type":"SCALAR","name":"accessorAnimationInput"},{"bufferView":5,"byteOffset":7020,"componentType":5126,"count":20,"type":"VEC3","name":"accessorAnimationScales"},{"bufferView":4,"byteOffset":3480,"componentType":5126,"count":20,"max":[0.8333333],"min":[0.0],"type":"SCALAR","name":"accessorAnimationInput"},{"bufferView":5,"byteOffset":7260,"componentType":5126,"count":20,"type":"VEC3","name":"accessorAnimationPositions"},{"bufferView":4,"byteOffset":3560,"componentType":5126,"count":55,"max":[2.29166675],"min":[0.0],"type":"SCALAR","name":"accessorAnimationInput"},{"bufferView":5,"byteOffset":7500,"componentType":5126,"count":55,"type":"VEC3","name":"accessorAnimationPositions"},{"bufferView":4,"byteOffset":3780,"componentType":5126,"count":20,"max":[0.8333333],"min":[0.0],"type":"SCALAR","name":"accessorAnimationInput"},{"bufferView":5,"byteOffset":8160,"componentType":5126,"count":20,"type":"VEC3","name":"accessorAnimationScales"},{"bufferView":4,"byteOffset":3860,"componentType":5126,"count":20,"max":[0.8333333],"min":[0.0],"type":"SCALAR","name":"accessorAnimationInput"},{"bufferView":5,"byteOffset":8400,"componentType":5126,"count":20,"type":"VEC3","name":"accessorAnimationPositions"}],"bufferViews":[{"buffer":0,"byteLength":7860,"name":"bufferViewScalar"},{"buffer":0,"byteOffset":7860,"byteLength":32160,"byteStride":12,"name":"bufferViewFloatVec3"},{"buffer":0,"byteOffset":40020,"byteLength":21440,"byteStride":16,"name":"bufferViewFloatVec4"},{"buffer":0,"byteOffset":61460,"byteLength":10720,"byteStride":8,"name":"bufferViewFloatVec2"},{"buffer":0,"byteOffset":72180,"byteLength":3940,"name":"bufferViewAnimationFloatScalar"},{"buffer":0,"byteOffset":76120,"byteLength":8640,"name":"bufferViewAnimationFloatVec3"},{"buffer":0,"byteOffset":84760,"byteLength":4240,"name":"bufferViewAnimationFloatVec4"}],"buffers":[{"uri":"minning (anim group transitions).bin","byteLength":89000}],"materials":[{"pbrMetallicRoughness":{"baseColorTexture":{"index":0},"metallicRoughnessTexture":{"index":1}},"name":"fold_7"}],"textures":[{"sampler":0,"source":0,"name":"fold 7 D 1 (compressed).jpg"},{"sampler":0,"source":1,"name":"texture_plain_lambert1_Roughness_2texture_plain_lambert1_Metalness_1.jpg"}],"images":[{"uri":"fold 7 D 1 (compressed).jpg"},{"uri":"texture_plain_lambert1_Roughness_2texture_plain_lambert1_Metalness_1.jpg"}],"samplers":[{"magFilter":9729,"minFilter":9987}],"animations":[{"channels":[{"sampler":0,"target":{"node":0,"path":"scale"}},{"sampler":1,"target":{"node":0,"path":"rotation"}},{"sampler":2,"target":{"node":0,"path":"translation"}},{"sampler":3,"target":{"node":2,"path":"rotation"}},{"sampler":4,"target":{"node":2,"path":"translation"}},{"sampler":5,"target":{"node":3,"path":"scale"}},{"sampler":6,"target":{"node":3,"path":"translation"}},{"sampler":7,"target":{"node":4,"path":"scale"}},{"sampler":8,"target":{"node":4,"path":"translation"}},{"sampler":9,"target":{"node":5,"path":"scale"}},{"sampler":10,"target":{"node":5,"path":"translation"}},{"sampler":11,"target":{"node":6,"path":"scale"}},{"sampler":12,"target":{"node":6,"path":"translation"}},{"sampler":13,"target":{"node":7,"path":"scale"}},{"sampler":14,"target":{"node":7,"path":"translation"}}],"samplers":[{"input":35,"output":36},{"input":37,"output":38},{"input":39,"output":40},{"input":41,"output":42},{"input":43,"output":44},{"input":45,"output":46},{"input":47,"output":48},{"input":49,"output":50},{"input":51,"output":52},{"input":53,"output":54},{"input":55,"output":56},{"input":57,"output":58},{"input":59,"output":60},{"input":61,"output":62},{"input":63,"output":64}],"name":"idle"},{"channels":[{"sampler":0,"target":{"node":0,"path":"translation"}},{"sampler":1,"target":{"node":2,"path":"rotation"}},{"sampler":2,"target":{"node":2,"path":"translation"}},{"sampler":3,"target":{"node":3,"path":"scale"}},{"sampler":4,"target":{"node":3,"path":"translation"}},{"sampler":5,"target":{"node":4,"path":"scale"}},{"sampler":6,"target":{"node":4,"path":"translation"}},{"sampler":7,"target":{"node":5,"path":"scale"}},{"sampler":8,"target":{"node":5,"path":"translation"}},{"sampler":9,"target":{"node":6,"path":"scale"}},{"sampler":10,"target":{"node":6,"path":"translation"}},{"sampler":11,"target":{"node":7,"path":"scale"}},{"sampler":12,"target":{"node":7,"path":"translation"}}],"samplers":[{"input":65,"output":66},{"input":67,"output":68},{"input":69,"output":70},{"input":71,"output":72},{"input":73,"output":74},{"input":75,"output":76},{"input":77,"output":78},{"input":79,"output":80},{"input":81,"output":82},{"input":83,"output":84},{"input":85,"output":86},{"input":87,"output":88},{"input":89,"output":90}],"name":"signature"},{"channels":[{"sampler":0,"target":{"node":0,"path":"translation"}}],"samplers":[{"input":91,"output":92}],"name":"slide_in_L"},{"channels":[{"sampler":0,"target":{"node":0,"path":"scale"}},{"sampler":1,"target":{"node":0,"path":"translation"}}],"samplers":[{"input":93,"output":94},{"input":95,"output":96}],"name":"slide_out_L"},{"channels":[{"sampler":0,"target":{"node":0,"path":"translation"}}],"samplers":[{"input":97,"output":98}],"name":"slide_in_R"},{"channels":[{"sampler":0,"target":{"node":0,"path":"scale"}},{"sampler":1,"target":{"node":0,"path":"translation"}}],"samplers":[{"input":99,"output":100},{"input":101,"output":102}],"name":"slide_out_R"}]}