<?xml version="1.0" encoding="utf-8"?>
<!-- Generator: Adobe Illustrator 23.0.5, SVG Export Plug-In . SVG Version: 6.00 Build 0)  -->
<svg version="1.1" id="Layer_1" xmlns="http://www.w3.org/2000/svg" xmlns:xlink="http://www.w3.org/1999/xlink" x="0px" y="0px"
	 viewBox="0 0 24 14" style="enable-background:new 0 0 24 14;" xml:space="preserve">
<style type="text/css">
	.st0{opacity:0.667;}
	.st1{fill:#060606;}
</style>
<g id="Mobile" transform="translate(14) rotate(90)" class="st0">
	<g id="Assets" transform="translate(-23 -74)">
		<g id="Group-26" transform="translate(23 74)">
			<path id="Shape-Copy-2" class="st1" d="M0.5,11.3c-0.6,0.6-0.6,1.6,0,2.2c0,0,0,0,0,0c0.6,0.6,1.6,0.6,2.3,0L13.5,3.1
				c0.6-0.6,0.6-1.6,0-2.2c0,0,0,0,0,0L2.8-9.5c-0.6-0.6-1.6-0.6-2.3,0C-0.1-9-0.2-8,0.4-7.4c0,0,0,0,0,0L10.1,2L0.5,11.3z"/>
		</g>
	</g>
</g>
</svg>
