{"asset":{"version":"2.0","generator":"babylon.js glTF exporter for Maya 2018 v20200429.2"},"scene":0,"scenes":[{"nodes":[0]}],"nodes":[{"mesh":0,"rotation":[0.0109729134,-0.138694316,0.0009300237,0.990274],"name":"coin","extras":{"currentUVSet":"map1"}}],"meshes":[{"primitives":[{"attributes":{"POSITION":1,"TANGENT":2,"NORMAL":3,"TEXCOORD_0":4},"indices":0,"material":0}],"name":"coin"}],"accessors":[{"bufferView":0,"componentType":5123,"count":2304,"type":"SCALAR","name":"accessorIndices"},{"bufferView":1,"componentType":5126,"count":486,"max":[0.000384360552,0.0100000082,0.0100000035],"min":[-0.000384360552,-0.01,-0.010000011],"type":"VEC3","name":"accessorPositions"},{"bufferView":2,"componentType":5126,"count":486,"type":"VEC4","name":"accessorTangents"},{"bufferView":1,"byteOffset":5832,"componentType":5126,"count":486,"type":"VEC3","name":"accessorNormals"},{"bufferView":3,"componentType":5126,"count":486,"type":"VEC2","name":"accessorUVs"},{"bufferView":4,"componentType":5126,"count":1,"max":[0.0],"min":[0.0],"type":"SCALAR","name":"accessorAnimationInput"},{"bufferView":5,"componentType":5126,"count":1,"type":"VEC3","name":"accessorAnimationScales"},{"bufferView":4,"byteOffset":4,"componentType":5126,"count":193,"max":[8.0],"min":[0.0],"type":"SCALAR","name":"accessorAnimationInput"},{"bufferView":6,"componentType":5126,"count":193,"type":"VEC4","name":"accessorAnimationRotations"},{"bufferView":4,"byteOffset":776,"componentType":5126,"count":109,"max":[8.0],"min":[0.0],"type":"SCALAR","name":"accessorAnimationInput"},{"bufferView":5,"byteOffset":12,"componentType":5126,"count":109,"type":"VEC3","name":"accessorAnimationPositions"},{"bufferView":4,"byteOffset":1212,"componentType":5126,"count":101,"max":[4.16666651],"min":[0.0],"type":"SCALAR","name":"accessorAnimationInput"},{"bufferView":6,"byteOffset":3088,"componentType":5126,"count":101,"type":"VEC4","name":"accessorAnimationRotations"},{"bufferView":4,"byteOffset":1616,"componentType":5126,"count":28,"max":[4.16666651],"min":[0.0],"type":"SCALAR","name":"accessorAnimationInput"},{"bufferView":5,"byteOffset":1320,"componentType":5126,"count":28,"type":"VEC3","name":"accessorAnimationPositions"},{"bufferView":4,"byteOffset":1728,"componentType":5126,"count":55,"max":[2.29166675],"min":[0.0],"type":"SCALAR","name":"accessorAnimationInput"},{"bufferView":5,"byteOffset":1656,"componentType":5126,"count":55,"type":"VEC3","name":"accessorAnimationPositions"},{"bufferView":4,"byteOffset":1948,"componentType":5126,"count":20,"max":[0.8333333],"min":[0.0],"type":"SCALAR","name":"accessorAnimationInput"},{"bufferView":5,"byteOffset":2316,"componentType":5126,"count":20,"type":"VEC3","name":"accessorAnimationScales"},{"bufferView":4,"byteOffset":2028,"componentType":5126,"count":20,"max":[0.8333333],"min":[0.0],"type":"SCALAR","name":"accessorAnimationInput"},{"bufferView":5,"byteOffset":2556,"componentType":5126,"count":20,"type":"VEC3","name":"accessorAnimationPositions"},{"bufferView":4,"byteOffset":2108,"componentType":5126,"count":55,"max":[2.29166675],"min":[0.0],"type":"SCALAR","name":"accessorAnimationInput"},{"bufferView":5,"byteOffset":2796,"componentType":5126,"count":55,"type":"VEC3","name":"accessorAnimationPositions"},{"bufferView":4,"byteOffset":2328,"componentType":5126,"count":20,"max":[0.8333333],"min":[0.0],"type":"SCALAR","name":"accessorAnimationInput"},{"bufferView":5,"byteOffset":3456,"componentType":5126,"count":20,"type":"VEC3","name":"accessorAnimationScales"},{"bufferView":4,"byteOffset":2408,"componentType":5126,"count":20,"max":[0.8333333],"min":[0.0],"type":"SCALAR","name":"accessorAnimationInput"},{"bufferView":5,"byteOffset":3696,"componentType":5126,"count":20,"type":"VEC3","name":"accessorAnimationPositions"}],"bufferViews":[{"buffer":0,"byteLength":4608,"name":"bufferViewScalar"},{"buffer":0,"byteOffset":4608,"byteLength":11664,"byteStride":12,"name":"bufferViewFloatVec3"},{"buffer":0,"byteOffset":16272,"byteLength":7776,"byteStride":16,"name":"bufferViewFloatVec4"},{"buffer":0,"byteOffset":24048,"byteLength":3888,"byteStride":8,"name":"bufferViewFloatVec2"},{"buffer":0,"byteOffset":27936,"byteLength":2488,"name":"bufferViewAnimationFloatScalar"},{"buffer":0,"byteOffset":30424,"byteLength":3936,"name":"bufferViewAnimationFloatVec3"},{"buffer":0,"byteOffset":34360,"byteLength":4704,"name":"bufferViewAnimationFloatVec4"}],"buffers":[{"uri":"bitcoin (anim group transitions).bin","byteLength":39064}],"materials":[{"pbrMetallicRoughness":{"baseColorTexture":{"index":0},"metallicRoughnessTexture":{"index":1}},"name":"fold_7"}],"textures":[{"sampler":0,"source":0,"name":"fold 7 D 1 (compressed).jpg"},{"sampler":0,"source":1,"name":"texture_plain_lambert1_Roughness_2texture_plain_lambert1_Metalness_1.jpg"}],"images":[{"uri":"fold 7 D 1 (compressed).jpg"},{"uri":"texture_plain_lambert1_Roughness_2texture_plain_lambert1_Metalness_1.jpg"}],"samplers":[{"magFilter":9729,"minFilter":9987}],"animations":[{"channels":[{"sampler":0,"target":{"node":0,"path":"scale"}},{"sampler":1,"target":{"node":0,"path":"rotation"}},{"sampler":2,"target":{"node":0,"path":"translation"}}],"samplers":[{"input":5,"output":6},{"input":7,"output":8},{"input":9,"output":10}],"name":"idle"},{"channels":[{"sampler":0,"target":{"node":0,"path":"rotation"}},{"sampler":1,"target":{"node":0,"path":"translation"}}],"samplers":[{"input":11,"output":12},{"input":13,"output":14}],"name":"signature"},{"channels":[{"sampler":0,"target":{"node":0,"path":"translation"}}],"samplers":[{"input":15,"output":16}],"name":"slide_in_L"},{"channels":[{"sampler":0,"target":{"node":0,"path":"scale"}},{"sampler":1,"target":{"node":0,"path":"translation"}}],"samplers":[{"input":17,"output":18},{"input":19,"output":20}],"name":"slide_out_L"},{"channels":[{"sampler":0,"target":{"node":0,"path":"translation"}}],"samplers":[{"input":21,"output":22}],"name":"slide_in_R"},{"channels":[{"sampler":0,"target":{"node":0,"path":"scale"}},{"sampler":1,"target":{"node":0,"path":"translation"}}],"samplers":[{"input":23,"output":24},{"input":25,"output":26}],"name":"slide_out_R"}]}