{"asset":{"version":"2.0","generator":"babylon.js glTF exporter for Maya 2018 v20200429.2"},"scene":0,"scenes":[{"nodes":[0]}],"nodes":[{"children":[1,2],"name":"gear_high_group3"},{"mesh":0,"name":"pPipe4","extras":{"currentUVSet":"map1"}},{"mesh":1,"name":"pPipe5","extras":{"currentUVSet":"map1"}}],"meshes":[{"primitives":[{"attributes":{"POSITION":1,"TANGENT":2,"NORMAL":3,"TEXCOORD_0":4},"indices":0,"material":0}],"name":"pPipe4"},{"primitives":[{"attributes":{"POSITION":6,"TANGENT":7,"NORMAL":8,"TEXCOORD_0":9},"indices":5,"material":0}],"name":"pPipe5"}],"accessors":[{"bufferView":0,"componentType":5123,"count":3240,"type":"SCALAR","name":"accessorIndices"},{"bufferView":1,"componentType":5126,"count":1180,"max":[0.000109677312,0.0290152822,0.0256612971],"min":[-0.003628845,-0.00110030652,-0.00441637961],"type":"VEC3","name":"accessorPositions"},{"bufferView":2,"componentType":5126,"count":1180,"type":"VEC4","name":"accessorTangents"},{"bufferView":1,"byteOffset":14160,"componentType":5126,"count":1180,"type":"VEC3","name":"accessorNormals"},{"bufferView":3,"componentType":5126,"count":1180,"type":"VEC2","name":"accessorUVs"},{"bufferView":0,"byteOffset":6480,"componentType":5123,"count":3240,"type":"SCALAR","name":"accessorIndices"},{"bufferView":1,"byteOffset":28320,"componentType":5126,"count":1180,"max":[0.00324643729,0.02628641,-0.0002644968],"min":[0.000191251936,0.00167542929,-0.0248444937],"type":"VEC3","name":"accessorPositions"},{"bufferView":2,"byteOffset":18880,"componentType":5126,"count":1180,"type":"VEC4","name":"accessorTangents"},{"bufferView":1,"byteOffset":42480,"componentType":5126,"count":1180,"type":"VEC3","name":"accessorNormals"},{"bufferView":3,"byteOffset":9440,"componentType":5126,"count":1180,"type":"VEC2","name":"accessorUVs"},{"bufferView":4,"componentType":5126,"count":1,"max":[0.0],"min":[0.0],"type":"SCALAR","name":"accessorAnimationInput"},{"bufferView":5,"componentType":5126,"count":1,"type":"VEC3","name":"accessorAnimationScales"},{"bufferView":4,"byteOffset":4,"componentType":5126,"count":193,"max":[8.0],"min":[0.0],"type":"SCALAR","name":"accessorAnimationInput"},{"bufferView":6,"componentType":5126,"count":193,"type":"VEC4","name":"accessorAnimationRotations"},{"bufferView":4,"byteOffset":776,"componentType":5126,"count":150,"max":[8.0],"min":[0.0],"type":"SCALAR","name":"accessorAnimationInput"},{"bufferView":5,"byteOffset":12,"componentType":5126,"count":150,"type":"VEC3","name":"accessorAnimationPositions"},{"bufferView":4,"byteOffset":1376,"componentType":5126,"count":1,"max":[0.0],"min":[0.0],"type":"SCALAR","name":"accessorAnimationInput"},{"bufferView":6,"byteOffset":3088,"componentType":5126,"count":1,"type":"VEC4","name":"accessorAnimationRotations"},{"bufferView":4,"byteOffset":1380,"componentType":5126,"count":1,"max":[0.0],"min":[0.0],"type":"SCALAR","name":"accessorAnimationInput"},{"bufferView":5,"byteOffset":1812,"componentType":5126,"count":1,"type":"VEC3","name":"accessorAnimationPositions"},{"bufferView":4,"byteOffset":1384,"componentType":5126,"count":1,"max":[0.0],"min":[0.0],"type":"SCALAR","name":"accessorAnimationInput"},{"bufferView":6,"byteOffset":3104,"componentType":5126,"count":1,"type":"VEC4","name":"accessorAnimationRotations"},{"bufferView":4,"byteOffset":1388,"componentType":5126,"count":1,"max":[0.0],"min":[0.0],"type":"SCALAR","name":"accessorAnimationInput"},{"bufferView":5,"byteOffset":1824,"componentType":5126,"count":1,"type":"VEC3","name":"accessorAnimationPositions"},{"bufferView":4,"byteOffset":1392,"componentType":5126,"count":11,"max":[0.416666657],"min":[0.0],"type":"SCALAR","name":"accessorAnimationInput"},{"bufferView":6,"byteOffset":3120,"componentType":5126,"count":11,"type":"VEC4","name":"accessorAnimationRotations"},{"bufferView":4,"byteOffset":1436,"componentType":5126,"count":23,"max":[4.16666651],"min":[0.0],"type":"SCALAR","name":"accessorAnimationInput"},{"bufferView":5,"byteOffset":1836,"componentType":5126,"count":23,"type":"VEC3","name":"accessorAnimationPositions"},{"bufferView":4,"byteOffset":1528,"componentType":5126,"count":82,"max":[4.16666651],"min":[0.0],"type":"SCALAR","name":"accessorAnimationInput"},{"bufferView":6,"byteOffset":3296,"componentType":5126,"count":82,"type":"VEC4","name":"accessorAnimationRotations"},{"bufferView":4,"byteOffset":1856,"componentType":5126,"count":91,"max":[4.16666651],"min":[0.0],"type":"SCALAR","name":"accessorAnimationInput"},{"bufferView":5,"byteOffset":2112,"componentType":5126,"count":91,"type":"VEC3","name":"accessorAnimationPositions"},{"bufferView":4,"byteOffset":2220,"componentType":5126,"count":82,"max":[4.16666651],"min":[0.0],"type":"SCALAR","name":"accessorAnimationInput"},{"bufferView":6,"byteOffset":4608,"componentType":5126,"count":82,"type":"VEC4","name":"accessorAnimationRotations"},{"bufferView":4,"byteOffset":2548,"componentType":5126,"count":91,"max":[4.16666651],"min":[0.0],"type":"SCALAR","name":"accessorAnimationInput"},{"bufferView":5,"byteOffset":3204,"componentType":5126,"count":91,"type":"VEC3","name":"accessorAnimationPositions"},{"bufferView":4,"byteOffset":2912,"componentType":5126,"count":55,"max":[2.29166675],"min":[0.0],"type":"SCALAR","name":"accessorAnimationInput"},{"bufferView":5,"byteOffset":4296,"componentType":5126,"count":55,"type":"VEC3","name":"accessorAnimationPositions"},{"bufferView":4,"byteOffset":3132,"componentType":5126,"count":20,"max":[0.8333333],"min":[0.0],"type":"SCALAR","name":"accessorAnimationInput"},{"bufferView":5,"byteOffset":4956,"componentType":5126,"count":20,"type":"VEC3","name":"accessorAnimationScales"},{"bufferView":4,"byteOffset":3212,"componentType":5126,"count":20,"max":[0.8333333],"min":[0.0],"type":"SCALAR","name":"accessorAnimationInput"},{"bufferView":5,"byteOffset":5196,"componentType":5126,"count":20,"type":"VEC3","name":"accessorAnimationPositions"},{"bufferView":4,"byteOffset":3292,"componentType":5126,"count":55,"max":[2.29166675],"min":[0.0],"type":"SCALAR","name":"accessorAnimationInput"},{"bufferView":5,"byteOffset":5436,"componentType":5126,"count":55,"type":"VEC3","name":"accessorAnimationPositions"},{"bufferView":4,"byteOffset":3512,"componentType":5126,"count":20,"max":[0.8333333],"min":[0.0],"type":"SCALAR","name":"accessorAnimationInput"},{"bufferView":5,"byteOffset":6096,"componentType":5126,"count":20,"type":"VEC3","name":"accessorAnimationScales"},{"bufferView":4,"byteOffset":3592,"componentType":5126,"count":20,"max":[0.8333333],"min":[0.0],"type":"SCALAR","name":"accessorAnimationInput"},{"bufferView":5,"byteOffset":6336,"componentType":5126,"count":20,"type":"VEC3","name":"accessorAnimationPositions"}],"bufferViews":[{"buffer":0,"byteLength":12960,"name":"bufferViewScalar"},{"buffer":0,"byteOffset":12960,"byteLength":56640,"byteStride":12,"name":"bufferViewFloatVec3"},{"buffer":0,"byteOffset":69600,"byteLength":37760,"byteStride":16,"name":"bufferViewFloatVec4"},{"buffer":0,"byteOffset":107360,"byteLength":18880,"byteStride":8,"name":"bufferViewFloatVec2"},{"buffer":0,"byteOffset":126240,"byteLength":3672,"name":"bufferViewAnimationFloatScalar"},{"buffer":0,"byteOffset":129912,"byteLength":6576,"name":"bufferViewAnimationFloatVec3"},{"buffer":0,"byteOffset":136488,"byteLength":5920,"name":"bufferViewAnimationFloatVec4"}],"buffers":[{"uri":"settings (anim group transitions).bin","byteLength":142408}],"materials":[{"pbrMetallicRoughness":{"baseColorTexture":{"index":0},"metallicRoughnessTexture":{"index":1}},"name":"fold_5"}],"textures":[{"sampler":0,"source":0,"name":"fold 5 new D 4-min.png"},{"sampler":0,"source":1,"name":"texture_plain_lambert1_Roughness_3texture_plain_lambert1_Metalness_2.jpg"}],"images":[{"uri":"fold 5 new D 4-min.png"},{"uri":"texture_plain_lambert1_Roughness_3texture_plain_lambert1_Metalness_2.jpg"}],"samplers":[{"magFilter":9729,"minFilter":9987}],"animations":[{"channels":[{"sampler":0,"target":{"node":0,"path":"scale"}},{"sampler":1,"target":{"node":0,"path":"rotation"}},{"sampler":2,"target":{"node":0,"path":"translation"}},{"sampler":3,"target":{"node":1,"path":"rotation"}},{"sampler":4,"target":{"node":1,"path":"translation"}},{"sampler":5,"target":{"node":2,"path":"rotation"}},{"sampler":6,"target":{"node":2,"path":"translation"}}],"samplers":[{"input":10,"output":11},{"input":12,"output":13},{"input":14,"output":15},{"input":16,"output":17},{"input":18,"output":19},{"input":20,"output":21},{"input":22,"output":23}],"name":"idle"},{"channels":[{"sampler":0,"target":{"node":0,"path":"rotation"}},{"sampler":1,"target":{"node":0,"path":"translation"}},{"sampler":2,"target":{"node":1,"path":"rotation"}},{"sampler":3,"target":{"node":1,"path":"translation"}},{"sampler":4,"target":{"node":2,"path":"rotation"}},{"sampler":5,"target":{"node":2,"path":"translation"}}],"samplers":[{"input":24,"output":25},{"input":26,"output":27},{"input":28,"output":29},{"input":30,"output":31},{"input":32,"output":33},{"input":34,"output":35}],"name":"signature"},{"channels":[{"sampler":0,"target":{"node":0,"path":"translation"}}],"samplers":[{"input":36,"output":37}],"name":"slide_in_L"},{"channels":[{"sampler":0,"target":{"node":0,"path":"scale"}},{"sampler":1,"target":{"node":0,"path":"translation"}}],"samplers":[{"input":38,"output":39},{"input":40,"output":41}],"name":"slide_out_L"},{"channels":[{"sampler":0,"target":{"node":0,"path":"translation"}}],"samplers":[{"input":42,"output":43}],"name":"slide_in_R"},{"channels":[{"sampler":0,"target":{"node":0,"path":"scale"}},{"sampler":1,"target":{"node":0,"path":"translation"}}],"samplers":[{"input":44,"output":45},{"input":46,"output":47}],"name":"slide_out_R"}]}